<?xml version="1.0" standalone="no"?>
<!DOCTYPE svg PUBLIC "-//W3C//DTD SVG 1.1//EN" "http://www.w3.org/Graphics/SVG/1.1/DTD/svg11.dtd" >
<svg xmlns="http://www.w3.org/2000/svg" xmlns:xlink="http://www.w3.org/1999/xlink" version="1.1">
<metadata>
Created by FontForge 20170104 at Sat Nov 25 04:58:24 2006
 By myTaste
Generated by DTL DataMaster
</metadata>
<defs>
<font id="DTLProkyonT" horiz-adv-x="606" >
  <font-face 
    font-family="DTLProkyonT"
    font-weight="500"
    font-stretch="normal"
    units-per-em="1000"
    panose-1="0 0 0 0 0 0 0 0 0 0"
    ascent="750"
    descent="-250"
    x-height="482"
    cap-height="714"
    bbox="-185 -275 1320 1015"
    underline-thickness="59"
    underline-position="-221"
    unicode-range="U+0020-00FF"
  />
<missing-glyph horiz-adv-x="200" 
 />
    <glyph glyph-name=".notdef" horiz-adv-x="200" 
 />
    <glyph glyph-name=".null" horiz-adv-x="0" 
 />
    <glyph glyph-name="nonmarkingreturn" horiz-adv-x="333" 
 />
    <glyph glyph-name="space" unicode=" " horiz-adv-x="200" 
 />
    <glyph glyph-name="exclam" unicode="!" horiz-adv-x="420" 
d="M182 204v510h99v-510h-99zM178 0v107h107v-107h-107z" />
    <glyph glyph-name="quotedbl" unicode="&#x22;" horiz-adv-x="444" 
d="M113 464l-13 286h91l-17 -286h-61zM266 464l-12 286h90l-16 -286h-62z" />
    <glyph glyph-name="numbersign" unicode="#" horiz-adv-x="792" 
d="M57 221l14 59h164l38 166h-164l14 59h164l49 211h71l-49 -211h149l48 211h72l-49 -211h157l-13 -59h-158l-38 -166h157l-13 -59h-158l-51 -225h-72l52 225h-148l-52 -225h-72l52 225h-164zM345 446l-39 -166h149l38 166h-148z" />
    <glyph glyph-name="dollar" unicode="$" 
d="M86 35v104q52 -37 95 -52t100 -16v254q-74 32 -112 59q-82 59 -82 151q0 76 51.5 125t142.5 60v80h54v-77q95 -3 172 -43v-96q-44 31 -83 44.5t-89 15.5v-243q86 -41 118 -66q75 -60 75 -149q0 -78 -50.5 -128.5t-142.5 -63.5v-83h-54v79q-101 1 -195 45zM281 426v213
q-46 -9 -71 -35t-25 -65q0 -37 21 -62t75 -51zM335 301v-225q95 20 95 103q0 40 -22.5 68.5t-72.5 53.5z" />
    <glyph glyph-name="percent" unicode="%" horiz-adv-x="954" 
d="M57 554q0 94 46 149t125 55t124.5 -54.5t45.5 -149.5t-45.5 -150t-124.5 -55t-125 55.5t-46 149.5zM133 554q0 -68 25 -106.5t70 -38.5q44 0 69 38.5t25 106.5t-25 106t-69 38q-45 0 -70 -38t-25 -106zM688 764l67 -17l-490 -797l-67 17zM555 156q0 94 46 149t125 55
t125 -55t46 -149t-46 -149.5t-125 -55.5t-125 55.5t-46 149.5zM631 156q0 -68 25.5 -106.5t69.5 -38.5q45 0 70 38.5t25 106.5q0 67 -25 105.5t-70 38.5t-70 -38.5t-25 -105.5z" />
    <glyph glyph-name="ampersand" unicode="&#x26;" horiz-adv-x="819" 
d="M453 245h-90q15 59 46.5 98.5t87.5 69.5q83 42 300 89l15 4v-79l-14 -3q-75 -15 -137 -33q30 -66 30 -128q0 -123 -96 -200t-248 -77q-133 0 -215.5 61.5t-82.5 161.5q0 144 170 197q-59 8 -94.5 46.5t-35.5 94.5q0 77 62.5 128t158.5 51q73 0 152 -36v-89
q-72 50 -146 50q-61 0 -97.5 -28t-36.5 -74q0 -72 79 -93q20 -6 66 -9v-77q-180 -26 -180 -152q0 -67 56.5 -108t149.5 -41q115 0 183 54t68 145q0 51 -26 99q-55 -19 -82.5 -46t-42.5 -76z" />
    <glyph glyph-name="quotesingle" unicode="'" horiz-adv-x="293" 
d="M113 464l-13 286h93l-17 -286h-63z" />
    <glyph glyph-name="parenleft" unicode="(" horiz-adv-x="425" 
d="M299 857l76 -22q-119 -122 -174 -250t-55 -281q0 -154 55 -281.5t174 -250.5l-76 -22q-123 129 -179 261.5t-56 292.5t56.5 292.5t178.5 260.5z" />
    <glyph glyph-name="parenright" unicode=")" horiz-adv-x="425" 
d="M50 835l76 22q123 -129 179 -261t56 -292q0 -161 -56 -293t-179 -261l-76 22q119 122 174 250t55 282q0 153 -55.5 281.5t-173.5 249.5z" />
    <glyph glyph-name="asterisk" unicode="*" horiz-adv-x="607" 
d="M80 575l39 68l77 -44q40 -24 76 -69l30 -37l-16 45q-22 55 -22 100v89h78v-89q0 -43 -22 -100l-17 -45l31 37q36 46 76 69l77 44l39 -68l-77 -44q-38 -22 -98 -32l-47 -8l47 -7q61 -10 98 -32l77 -44l-39 -68l-77 44q-38 22 -76 69l-31 37l17 -45q22 -54 22 -101v-88h-78
v88q0 45 21 101l17 45l-30 -37q-37 -46 -76 -69l-77 -44l-39 68l76 44q43 23 98 32l48 7l-48 8q-61 11 -97 32z" />
    <glyph glyph-name="plus" unicode="+" 
d="M71 263v71h194v208h78v-208h192v-71h-192v-217h-78v217h-194z" />
    <glyph glyph-name="comma" unicode="," horiz-adv-x="302" 
d="M42 -139l90 284h106l-122 -284h-74z" />
    <glyph glyph-name="hyphen" unicode="-" horiz-adv-x="413" 
d="M71 257v83h271v-83h-271z" />
    <glyph glyph-name="period" unicode="." horiz-adv-x="300" 
d="M92 0v115h114v-115h-114z" />
    <glyph glyph-name="slash" unicode="/" horiz-adv-x="605" 
d="M64 -237l398 1094l79 -13l-399 -1094z" />
    <glyph glyph-name="zero" unicode="0" 
d="M54 356q0 175 65.5 272t183.5 97q116 0 180 -93q69 -98 69 -276q0 -179 -69 -277q-65 -93 -180 -93t-180 93q-69 98 -69 277zM157 356q0 -144 37.5 -219.5t108.5 -75.5t108.5 75.5t37.5 219.5q0 143 -37.5 218.5t-108.5 75.5t-108.5 -76t-37.5 -218z" />
    <glyph glyph-name="one" unicode="1" 
d="M285 0v609l-220 -71v84l313 103v-725h-93z" />
    <glyph glyph-name="two" unicode="2" 
d="M55 0v75q120 92 202 175q78 79 111.5 137t33.5 116q0 64 -38.5 103t-102.5 39q-88 0 -171 -83v99q86 67 194 67q101 0 161 -58.5t60 -155.5q0 -68 -33.5 -134t-107.5 -143q-63 -67 -179 -156l346 4v-85h-476z" />
    <glyph glyph-name="three" unicode="3" 
d="M72 22v92q79 -46 167 -46q76 0 121.5 34.5t45.5 92.5q0 67 -55 104t-156 37h-22v76q101 3 156 38t55 97q0 49 -33.5 78t-91.5 29q-78 0 -148 -60v86q86 49 174 49q92 0 147 -46.5t55 -124.5q0 -132 -155 -173q85 -14 131 -63.5t46 -125.5q0 -95 -72.5 -153t-192.5 -58
q-88 0 -172 37z" />
    <glyph glyph-name="four" unicode="4" 
d="M363 200h-353q44 89 96 170q110 172 227 291q60 59 105 59q2 0 18 -2v-441h104v-77h-104v-200h-93v200zM363 277v199q0 59 18 131q-141 -166 -236 -330h218z" />
    <glyph glyph-name="five" unicode="5" 
d="M84 22v92q80 -46 164 -46q78 0 123.5 40.5t45.5 109.5q0 90 -75.5 136.5t-220.5 46.5h-5l35 313h350v-83h-270l-17 -155q92 -8 158 -36q69 -30 106 -86.5t37 -130.5q0 -109 -72 -173.5t-193 -64.5q-84 0 -166 37z" />
    <glyph glyph-name="six" unicode="6" 
d="M414 737l85 -33q-98 -63 -164 -126.5t-118 -144.5q43 12 89 12q106 0 169.5 -62.5t63.5 -165.5q0 -105 -65 -170t-171 -65q-109 0 -172.5 68.5t-63.5 186.5q0 132 88.5 259.5t258.5 240.5zM186 355q-21 -65 -21 -128q0 -79 37 -124.5t102 -45.5q63 0 100 41.5t37 111.5
q0 75 -43 117.5t-118 42.5q-36 0 -65 -7q-10 -2 -20 -5z" />
    <glyph glyph-name="seven" unicode="7" 
d="M75 629v83h477q-36 -137 -130.5 -339t-201.5 -372l-9 -15l-93 14l6 10q83 132 170.5 310t133.5 309h-353z" />
    <glyph glyph-name="eight" unicode="8" 
d="M228 368q-141 56 -141 175q0 82 62.5 134.5t159.5 52.5t158.5 -52.5t61.5 -134.5q0 -124 -141 -176q152 -61 152 -192q0 -85 -66.5 -139.5t-170.5 -54.5q-105 0 -171.5 53.5t-66.5 136.5q0 67 39 114.5t124 82.5zM309 406q122 42 122 135q0 51 -34.5 82.5t-88.5 31.5
t-88.5 -32t-34.5 -82q0 -71 68 -110q12 -7 35 -17q6 -2 11 -4zM302 327q-139 -49 -139 -149q0 -54 39 -88t102 -34q61 0 99.5 34.5t38.5 87.5q0 71 -73 117q-22 14 -44 23q-2 1 -13 5z" />
    <glyph glyph-name="nine" unicode="9" 
d="M191 -24l-85 33q96 61 162.5 125t118.5 145q-43 -12 -88 -12q-106 0 -170 62.5t-64 165.5q0 106 65 170.5t171 64.5q109 0 172.5 -68.5t63.5 -186.5q0 -173 -152 -337q-81 -88 -194 -162zM418 357q21 60 21 128q0 79 -36.5 124.5t-101.5 45.5q-64 0 -101 -41t-37 -111
q0 -75 43 -118t118 -43q36 0 65 7q10 2 20 5z" />
    <glyph glyph-name="colon" unicode=":" horiz-adv-x="396" 
d="M157 312v115h114v-115h-114zM157 0v115h114v-115h-114z" />
    <glyph glyph-name="semicolon" unicode=";" horiz-adv-x="392" 
d="M160 312v115h114v-115h-114zM75 -139l90 284h106l-122 -284h-74z" />
    <glyph glyph-name="less" unicode="&#x3c;" 
d="M64 261v73l464 214v-83l-373 -166l373 -167v-85z" />
    <glyph glyph-name="equal" unicode="=" 
d="M71 346v71h464v-71h-464zM71 179v77h464v-77h-464z" />
    <glyph glyph-name="greater" unicode="&#x3e;" 
d="M78 47v84l374 166l-374 167v84l464 -214v-73z" />
    <glyph glyph-name="question" unicode="?" horiz-adv-x="617" 
d="M303 204h-95q-9 23 -9 46q0 40 27 78q20 28 87 79q62 44 82 71t20 63q0 46 -33 73t-90 27q-83 0 -157 -60v99q81 44 169 44q99 0 156.5 -47.5t57.5 -128.5q0 -68 -46 -119q-22 -24 -51 -46q-3 -2 -13.5 -10t-22.5 -17l-24 -18q-69 -50 -69 -100q0 -18 11 -34zM216 0v107
h107v-107h-107z" />
    <glyph glyph-name="at" unicode="@" horiz-adv-x="984" 
d="M751 -55v-55q-103 -64 -240 -64q-183 0 -293.5 103.5t-110.5 275.5q0 186 120 305t307 119q157 0 254 -85.5t97 -224.5q0 -145 -105 -239t-266 -94q-109 0 -171.5 52t-62.5 144q0 120 87.5 201t217.5 81q54 0 117 -18l-123 -386q112 13 177 84t65 178q0 114 -80.5 184
t-211.5 70q-161 0 -263 -103t-102 -266q0 -154 96 -244t260 -90q142 0 231 72zM493 59l106 334q-19 3 -28 3q-87 0 -145.5 -59.5t-58.5 -148.5q0 -56 32.5 -89.5t93.5 -39.5z" />
    <glyph glyph-name="A" unicode="A" horiz-adv-x="725" 
d="M31 0l10 30q97 274 266 660l11 24h110l11 -25q127 -311 242 -656l11 -33h-109l-6 18q-27 89 -71 217l-5 15h-279l-6 -17q-46 -122 -77 -216l-6 -17h-102zM253 327h221l-8 23q-34 101 -46 134q-20 62 -37 105l-14 38l-15 -39l-29 -71q-1 -4 -3 -9t-6.5 -16.5t-9.5 -23.5
q-2 -7 -25 -66q-6 -16 -11.5 -30t-7.5 -19z" />
    <glyph glyph-name="B" unicode="B" horiz-adv-x="619" 
d="M93 2v708l21 2q110 6 171 6q124 0 187 -43q66 -45 66 -134q0 -64 -34.5 -107t-99.5 -60q76 -13 117.5 -59.5t41.5 -117.5q0 -115 -105 -167q-70 -33 -205 -33q-18 0 -140 4zM192 638v-235h49q98 0 143 27q51 32 51 97q0 58 -42 88q-39 28 -119 28q-38 0 -82 -5zM192 324
v-248q66 -4 80 -4q100 0 145 33q43 29 43 92q0 68 -51 100q-46 30 -142 30q-27 0 -75 -3z" />
    <glyph glyph-name="C" unicode="C" horiz-adv-x="710" 
d="M650 127v-94q-97 -44 -211 -44q-173 0 -275.5 98.5t-102.5 265.5q0 169 105.5 271t279.5 102q105 0 204 -43v-94q-91 54 -198 54q-133 0 -210.5 -76.5t-77.5 -208.5t77.5 -209t211.5 -77q105 0 197 55z" />
    <glyph glyph-name="D" unicode="D" horiz-adv-x="763" 
d="M93 2v709l20 1q98 7 168 7q203 0 306 -80q116 -91 116 -272q0 -189 -126 -287q-110 -84 -311 -84q-59 0 -126 3q-2 0 -18 1t-29 2zM192 632v-549q37 -4 85 -4q159 0 240 68q83 72 83 214q0 129 -73 199q-77 76 -237 76q-42 0 -98 -4z" />
    <glyph glyph-name="E" unicode="E" horiz-adv-x="574" 
d="M93 0v712h413v-83h-314v-217h303v-83h-303v-246h322v-83h-421z" />
    <glyph glyph-name="F" unicode="F" horiz-adv-x="560" 
d="M93 0v714h416v-83h-317v-234h304v-83h-304v-314h-99z" />
    <glyph glyph-name="G" unicode="G" horiz-adv-x="755" 
d="M424 256v83h248v-318q-123 -30 -224 -30q-167 0 -264 79q-58 47 -90.5 121.5t-32.5 162.5q0 167 109.5 269.5t287.5 102.5q109 0 212 -43v-94q-97 54 -208 54q-138 0 -218 -77t-80 -210q0 -135 80 -210q75 -72 214 -72q53 0 121 11v171h-155z" />
    <glyph glyph-name="H" unicode="H" horiz-adv-x="757" 
d="M93 0v714h99v-301h373v301h99v-714h-99v330h-373v-330h-99z" />
    <glyph glyph-name="I" unicode="I" horiz-adv-x="284" 
d="M93 0v714h99v-714h-99z" />
    <glyph glyph-name="J" unicode="J" horiz-adv-x="291" 
d="M102 714h99v-558q0 -100 -8.5 -154.5t-30.5 -94.5q-20 -38 -49 -64t-86 -57l-88 41q55 27 85 51.5t47 58.5q18 35 24.5 86.5t6.5 159.5v531z" />
    <glyph glyph-name="K" unicode="K" horiz-adv-x="652" 
d="M93 0v714h99v-327l16 15q82 81 172 177q55 58 120 135h118q-111 -128 -290 -306l-30 -30l20 -23q106 -124 206 -229q56 -59 127 -126h-142q-140 142 -298 341l-19 24v-365h-99z" />
    <glyph glyph-name="L" unicode="L" horiz-adv-x="549" 
d="M93 0v714h99v-631h322v-83h-421z" />
    <glyph glyph-name="M" unicode="M" horiz-adv-x="983" 
d="M81 0l2 35q5 118 13 242q10 146 18 239l15 171l2 27h98q26 0 36 -9.5t26 -46.5q75 -175 144 -370q34 -94 49 -148q7 -28 11 -56q6 48 31 124q36 110 115 311q50 130 68 165q16 30 51 30h91l3 -27l15 -171q15 -188 20 -272q8 -142 11 -209l2 -35h-97l-1 18
q-11 238 -11 239q-10 199 -13 235q-5 71 -5 99q0 32 1 57q-19 -68 -40 -120q-12 -27 -65 -166q-55 -144 -120 -333l-10 -29h-101l-10 29q-39 112 -89 250q-7 18 -24 64t-28 74q-23 62 -44 111q-21 51 -41 120q2 -54 2 -60q0 -27 -5 -96q-6 -80 -15 -267q-4 -73 -9 -207
l-1 -18h-95z" />
    <glyph glyph-name="N" unicode="N" horiz-adv-x="783" 
d="M93 0v714h96q31 0 47 -24l314 -492q27 -42 59 -130q-12 78 -12 139v507h93v-714h-97q-31 0 -46 24l-314 493q-29 46 -59 129q12 -78 12 -139v-507h-93z" />
    <glyph glyph-name="O" unicode="O" horiz-adv-x="816" 
d="M61 349q0 172 96 275.5t256 103.5q157 0 249.5 -99.5t92.5 -268.5q0 -172 -95.5 -274t-256.5 -102q-156 0 -249 99.5t-93 265.5zM164 356q0 -135 65 -212t180 -77q113 0 178 77t65 211q0 136 -64 213t-177 77q-115 0 -181 -77.5t-66 -211.5z" />
    <glyph glyph-name="P" unicode="P" horiz-adv-x="597" 
d="M93 0v709l15 2q86 7 165 7q133 0 204 -51q79 -57 79 -169q0 -120 -92 -180q-70 -47 -203 -47q-40 0 -69 2v-273h-99zM192 633v-279h69q192 0 192 140q0 141 -182 141q-41 0 -79 -2z" />
    <glyph glyph-name="Q" unicode="Q" horiz-adv-x="816" 
d="M756 -66l-46 -82q-117 4 -208 37q-87 34 -151 98q-137 19 -213.5 114.5t-76.5 247.5q0 172 96 275.5t256 103.5q157 0 249.5 -99.5t92.5 -268.5q0 -150 -73 -247t-205 -123q108 -52 279 -56zM164 356q0 -135 65 -212.5t180 -77.5q113 0 178 77t65 211q0 137 -64 214
t-177 77q-115 0 -181 -77t-66 -212z" />
    <glyph glyph-name="R" unicode="R" horiz-adv-x="671" 
d="M93 0v710l15 1q77 6 164 6q132 0 197 -44q80 -52 80 -158q0 -97 -68 -151q-29 -23 -86 -41l12 -16q77 -100 178 -220q9 -10 30 -34t30 -34l21 -21h-134q-21 24 -38 45q-35 42 -97 122q-6 8 -23 31.5t-28 37.5q-19 26 -43 58l-9 13q-10 0 -23 -0.5t-16 -0.5q-7 0 -47 2
h-16v-306h-99zM192 635v-251h18q20 -5 51 -5q86 0 125 23q60 34 60 108q0 132 -173 132q-43 0 -81 -7z" />
    <glyph glyph-name="S" unicode="S" horiz-adv-x="565" 
d="M66 32v107q95 -70 185 -70q64 0 102.5 29.5t38.5 79.5q0 46 -28.5 75.5t-106.5 67.5q-94 46 -132 81q-52 49 -52 126q0 88 65.5 143t171.5 55q90 0 170 -42v-98q-82 57 -164 57q-64 0 -102 -28.5t-38 -76.5t45 -83q28 -21 94 -52q94 -46 131 -86q49 -49 49 -127
q0 -93 -66.5 -148.5t-178.5 -55.5q-92 0 -184 46z" />
    <glyph glyph-name="T" unicode="T" horiz-adv-x="634" 
d="M268 0v631h-241v83h580v-83h-240v-631h-99z" />
    <glyph glyph-name="U" unicode="U" horiz-adv-x="736" 
d="M85 714h99v-437q0 -107 37 -151q46 -55 147 -55q110 0 155 66q29 43 29 140v437h99v-450q0 -126 -59 -194q-73 -82 -225 -82q-154 0 -224 82q-58 65 -58 194v450z" />
    <glyph glyph-name="V" unicode="V" horiz-adv-x="692" 
d="M18 714h109l6 -17q46 -146 94 -286q46 -132 98 -272l13 -37l16 37q44 107 107 270q53 139 105 288l6 17h103l-10 -29q-55 -152 -131 -344q-58 -142 -133 -316l-11 -25h-110l-10 26q-65 156 -124 320q-58 158 -117 335z" />
    <glyph glyph-name="W" unicode="W" horiz-adv-x="1063" 
d="M17 714h103l4 -17q6 -23 18 -68t22.5 -84t20.5 -76q44 -158 64 -224l34 -113l6 -20l4 -41l5 41l6 20l37 114q35 108 79 251q43 141 59 200l5 17h99l4 -17q23 -92 61 -228q44 -158 64 -224l34 -113l5 -20l6 -41l5 41l7 20l37 114q32 100 79 251q32 106 58 200l5 17h98
l-8 -29q-89 -299 -218 -660l-8 -25h-122l-8 27q-48 156 -102 345q-25 89 -41 159q-7 32 -9 107h-1l-4 -39q-6 -70 -36 -173q-25 -88 -61 -197q-17 -52 -67 -202l-8 -27h-120l-8 26q-16 48 -73 222q-19 60 -72 238l-27 99q-3 11 -8.5 31t-10 36t-8.5 29z" />
    <glyph glyph-name="X" unicode="X" horiz-adv-x="686" 
d="M138 0h-114q93 147 212 309l34 45l11 16l-11 16q-129 170 -218 310l-12 18h119l13 -21q54 -85 93 -143q26 -39 83 -118q75 103 119 171q58 91 70 111h110l-12 -18q-93 -147 -218 -310l-12 -16l12 -16l33 -45q120 -161 212 -309h-121l-14 23q-59 95 -102 160
q-75 110 -86 126q-113 -161 -187 -286z" />
    <glyph glyph-name="Y" unicode="Y" horiz-adv-x="676" 
d="M282 0v276l-12 17q-131 193 -248 401l-11 20h117l5 -10q42 -76 93 -164q39 -67 95 -157l15 -21l14 22q42 60 102 155q35 56 53 86q29 47 46 79l6 10h109l-10 -17q-116 -197 -262 -403l-13 -18v-276h-99z" />
    <glyph glyph-name="Z" unicode="Z" horiz-adv-x="645" 
d="M74 629v83h519q3 -19 3 -40q0 -44 -31 -88.5t-182 -217.5l-74 -84q-71 -82 -124 -147q-28 -38 -33 -45h444v-88h-553q-3 30 -3 42q0 44 31.5 89t181.5 219l75 85q68 77 124 147q22 28 33 45h-411z" />
    <glyph glyph-name="bracketleft" unicode="[" horiz-adv-x="398" 
d="M91 849h232v-65h-154v-960h154v-65h-232v1090z" />
    <glyph glyph-name="backslash" unicode="\" horiz-adv-x="605" 
d="M64 844l78 13l399 -1094l-79 -13z" />
    <glyph glyph-name="bracketright" unicode="]" horiz-adv-x="398" 
d="M75 849h232v-1090h-232v65h154v960h-154v65z" />
    <glyph glyph-name="asciicircum" unicode="^" 
d="M265 714h78l205 -352h-84l-162 285l-159 -285h-84z" />
    <glyph glyph-name="underscore" unicode="_" horiz-adv-x="500" 
d="M0 -192v59h500v-59h-500z" />
    <glyph glyph-name="grave" unicode="`" horiz-adv-x="500" 
d="M130 754l82 8l158 -198l-63 -10z" />
    <glyph glyph-name="a" unicode="a" horiz-adv-x="479" 
d="M81 357v84q91 53 179 53q97 0 127 -62q15 -31 15 -115v-307l-17 -2q-108 -16 -175 -16q-156 0 -156 132q0 81 58 121t192 52l11 1v16q0 60 -9 77q-16 28 -64 28q-76 0 -161 -62zM315 72v156q-96 -8 -135 -30t-39 -69q0 -69 79 -69q32 0 95 12z" />
    <glyph glyph-name="b" unicode="b" horiz-adv-x="566" 
d="M88 8v742h93v-276q58 19 113 19q103 0 162.5 -64t59.5 -174q0 -127 -75 -194.5t-216 -67.5q-62 0 -137 15zM181 403v-331q32 -4 60 -4q88 0 135 46.5t47 133.5q0 80 -41 125t-115 45q-40 0 -86 -15z" />
    <glyph glyph-name="c" unicode="c" horiz-adv-x="460" 
d="M423 465v-84q-52 37 -114 37q-76 0 -120 -47.5t-44 -130.5t43 -129t120 -46q60 0 121 42v-83q-62 -34 -135 -34q-111 0 -176.5 66t-65.5 178q0 116 69 187.5t181 71.5q62 0 121 -28z" />
    <glyph glyph-name="d" unicode="d" horiz-adv-x="563" 
d="M385 482v268h93v-736q-95 -21 -174 -21q-124 0 -189 61.5t-65 177.5q0 119 70 189.5t188 70.5q40 0 77 -10zM385 77v329q-33 11 -72 11q-80 0 -125 -47t-45 -131q0 -83 42 -127t121 -44q42 0 79 9z" />
    <glyph glyph-name="e" unicode="e" horiz-adv-x="526" 
d="M485 234h-344q0 -12 -2 -15q0 -73 43 -114t119 -41q88 0 160 57v-82q-74 -50 -170 -50q-113 0 -176 64t-63 178q0 118 63.5 190.5t166.5 72.5q115 0 169 -85q34 -50 34 -152v-23zM150 305h244q-11 114 -113 114q-52 0 -86 -30t-45 -84z" />
    <glyph glyph-name="f" unicode="f" horiz-adv-x="352" 
d="M36 401v71h77v20q0 80 14.5 127.5t48.5 80.5q56 54 137 54q23 0 47 -5v-73q-25 3 -39 3q-60 0 -87 -42q-28 -39 -28 -143v-22h121v-71h-121v-401h-93v401h-77z" />
    <glyph glyph-name="g" unicode="g" horiz-adv-x="563" 
d="M62 -219v96q80 -50 157 -50q112 0 139 92q10 31 10 91q0 3 2 4q-46 -20 -98 -20q-101 0 -161.5 63t-60.5 167q0 125 82.5 195t230.5 70q80 0 180 -19v-73q-61 10 -88 13v-18l2 -76l2 -97q2 -108 2 -134q0 -98 -8 -148t-30 -87q-29 -50 -83 -78t-121 -28q-74 0 -157 37z
M366 414h-6h-13q-98 0 -151 -48t-53 -137q0 -76 39 -118t108 -42q39 0 80 14v15v56q0 7 -0.5 33.5t-0.5 46.5l-2 96l-1 68v16z" />
    <glyph glyph-name="h" unicode="h" horiz-adv-x="562" 
d="M85 0v750h93v-280q62 23 122 23q100 0 145 -47q38 -41 38 -129v-317h-93v306q0 59 -25 85.5t-81 26.5q-49 0 -106 -24v-394h-93z" />
    <glyph glyph-name="i" unicode="i" horiz-adv-x="263" 
d="M86 0v486h93v-486h-93zM82 584v107h99v-107h-99z" />
    <glyph glyph-name="j" unicode="j" horiz-adv-x="262" 
d="M87 486h93v-353q0 -166 -31 -233q-17 -37 -42.5 -62.5t-70.5 -51.5l-81 37q45 24 69 47.5t38 55.5q15 33 20 80.5t5 149.5v330zM85 584v107h99v-107h-99z" />
    <glyph glyph-name="k" unicode="k" horiz-adv-x="534" 
d="M85 0v750h93v-471q116 97 219 207h111q-105 -110 -216 -204l-16 -14l14 -16q124 -141 236 -242l12 -10h-128q-83 78 -215 235l-17 20v-255h-93z" />
    <glyph glyph-name="l" unicode="l" horiz-adv-x="267" 
d="M88 0v750h93v-750h-93z" />
    <glyph glyph-name="m" unicode="m" horiz-adv-x="839" 
d="M85 0v460q111 33 207 33q76 0 131 -34q78 34 157 34q99 0 144 -51q36 -39 36 -125v-317h-93v307q0 59 -24 85t-77 26q-47 0 -98 -20q9 -28 9 -83v-315h-93v307q0 60 -25 85.5t-83 25.5q-46 0 -98 -16v-402h-93z" />
    <glyph glyph-name="n" unicode="n" horiz-adv-x="562" 
d="M85 0v460q108 33 208 33q107 0 153 -48q37 -40 37 -128v-317h-93v306q0 61 -25 86.5t-86 25.5q-49 0 -101 -17v-401h-93z" />
    <glyph glyph-name="o" unicode="o" horiz-adv-x="566" 
d="M52 237q0 119 63 188.5t171 69.5q106 0 167 -67t61 -183q0 -119 -63 -188.5t-171 -69.5q-106 0 -167 67t-61 183zM145 241q0 -86 35.5 -132.5t102.5 -46.5t102.5 46.5t35.5 132.5t-35.5 132.5t-102.5 46.5t-102.5 -46.5t-35.5 -132.5z" />
    <glyph glyph-name="p" unicode="p" horiz-adv-x="563" 
d="M85 -250v720q100 23 169 23q125 0 192 -62t67 -178q0 -119 -70.5 -188.5t-190.5 -69.5q-38 0 -74 7v-252h-93zM178 408v-331q39 -7 66 -7q85 0 130.5 46.5t45.5 131.5q0 81 -43.5 125.5t-122.5 44.5q-36 0 -76 -10z" />
    <glyph glyph-name="q" unicode="q" horiz-adv-x="563" 
d="M385 -250v257q-50 -14 -96 -14q-114 0 -176.5 63t-62.5 176q0 125 75.5 193t213.5 68q63 0 139 -16v-727h-93zM385 79v333q-28 6 -59 6q-88 0 -135.5 -46t-47.5 -132q0 -83 42 -127.5t121 -44.5q42 0 79 11z" />
    <glyph glyph-name="r" unicode="r" horiz-adv-x="382" 
d="M85 0v455q92 38 190 38q44 0 84 -13v-78q-39 16 -80 16q-50 0 -101 -22v-396h-93z" />
    <glyph glyph-name="s" unicode="s" horiz-adv-x="412" 
d="M58 15v92q53 -46 124 -46q41 0 65 17t24 45q0 34 -35 58q-14 10 -65 34q-63 31 -88 61t-25 76q0 64 47.5 103t124.5 39q62 0 119 -27v-85q-53 37 -112 37q-39 0 -62.5 -16.5t-23.5 -43.5q0 -24 16 -38.5t68 -39.5q67 -32 92 -59q37 -36 37 -92q0 -65 -49 -104.5
t-130 -39.5q-62 0 -127 29z" />
    <glyph glyph-name="t" unicode="t" horiz-adv-x="335" 
d="M27 401v71h81v129h83v-129h113v-71h-113v-252q0 -51 13.5 -68t54.5 -17q13 0 35 6v-67q-29 -7 -65 -7q-76 0 -105 41q-13 16 -16.5 36t-3.5 71v257h-77z" />
    <glyph glyph-name="u" unicode="u" horiz-adv-x="558" 
d="M79 486h93v-299q0 -66 25.5 -92t91.5 -26q46 0 91 9v408h93v-471q-112 -21 -196 -21q-107 0 -153 43q-25 22 -35 54t-10 89v306z" />
    <glyph glyph-name="v" unicode="v" horiz-adv-x="508" 
d="M24 486h99l2 -12q40 -169 108 -348l7 -18l9 -40l9 40l7 17q78 183 121 349l3 12h95l-6 -21q-68 -224 -178 -448l-8 -17h-96l-7 17q-105 238 -165 469z" />
    <glyph glyph-name="w" unicode="w" horiz-adv-x="833" 
d="M27 486h97l2 -12q24 -107 47 -186q29 -100 51 -162l4 -13l7 -45l7 45l133 373h88l123 -373l6 -45l6 45l4 12q26 65 58 164q25 78 52 185l3 12h91l-5 -21q-51 -191 -162 -448l-7 -17h-96l-94 288q-15 43 -26 125q-11 -78 -29 -125l-107 -288h-96l-7 17q-95 233 -150 469z
" />
    <glyph glyph-name="x" unicode="x" horiz-adv-x="512" 
d="M124 0h-100q67 114 171 242l8 10l-9 11l-15 20q-75 93 -141 203h109q52 -93 114 -178q64 88 113 178h100q-62 -105 -156 -223l-8 -11l7 -10l12 -14q106 -137 159 -228h-109q-52 94 -127 197q-76 -101 -128 -197z" />
    <glyph glyph-name="y" unicode="y" horiz-adv-x="512" 
d="M24 486h99l2 -12q38 -163 108 -348l7 -18l10 -40l11 40l7 17q75 178 121 349l3 12h96l-6 -21q-66 -207 -156 -405l-42 -92q-46 -97 -90 -206l-4 -12h-91q15 39 28 71q29 69 63 143l11 25q-118 262 -177 497z" />
    <glyph glyph-name="z" unicode="z" horiz-adv-x="489" 
d="M73 411v71h369q3 -18 3 -27q0 -36 -24.5 -70t-132.5 -147q-60 -62 -108 -116q-18 -21 -33 -43h294v-77h-394q-2 26 -2 28q0 42 28 86q22 30 46 57q62 67 66 71q108 118 118 129q11 12 33 38h-263z" />
    <glyph glyph-name="braceleft" unicode="{" horiz-adv-x="413" 
d="M32 271v58q56 3 82 28.5t26 77.5q0 42 -8 104q-6 48 -6 107q0 94 52.5 149t143.5 55q4 0 24 -2v-59q-6 1 -13 1q-125 0 -125 -140q0 -54 4 -106q4 -80 4 -104q0 -110 -99 -140q99 -30 99 -140q0 -24 -4 -104q-4 -52 -4 -106q0 -140 125 -140h13v-59q-11 -1 -24 -1
q-91 0 -143.5 55t-52.5 149q0 59 6 107q8 62 8 103q0 52 -26 77.5t-82 29.5z" />
    <glyph glyph-name="bar" unicode="|" horiz-adv-x="362" 
d="M142 -250v964h78v-964h-78z" />
    <glyph glyph-name="braceright" unicode="}" horiz-adv-x="413" 
d="M67 -249v59h14q125 0 125 140q0 28 -4 106q-4 53 -4 104q0 110 99 140q-99 30 -99 139q0 52 4 105q4 76 4 105q0 141 -128 141q-1 0 -4.5 -0.5t-6.5 -0.5v59q20 2 25 2q91 0 143.5 -55t52.5 -149q0 -45 -8 -107q-6 -78 -6 -104q0 -52 26 -77.5t81 -28.5v-58
q-55 -4 -81 -29.5t-26 -77.5q0 -25 6 -103q8 -64 8 -107q0 -94 -53 -149t-143 -55q-14 0 -25 1z" />
    <glyph glyph-name="asciitilde" unicode="~" 
d="M81 247l-10 77q67 41 130 41q37 0 111 -32q65 -28 98 -28q52 0 115 42l10 -76q-75 -41 -126 -41q-46 0 -115 30q-77 30 -99 30q-60 0 -114 -43z" />
    <glyph glyph-name="Euro" 
d="M-53 406v59h121q22 80 66 132q108 129 306 129q99 0 203 -43v-91q-92 51 -200 51q-103 0 -174 -46t-99 -132h409l-13 -59h-409v-50q0 -13 -2 -23h395l-13 -59h-374q23 -96 96.5 -149t185.5 -53q105 0 198 52v-91q-97 -44 -211 -44q-150 0 -250.5 77t-121.5 208h-113v59
h108q-1 9 -1 20q0 21 3 45v8h-110z" />
    <glyph glyph-name="quotesinglbase" horiz-adv-x="285" 
d="M42 -132l83 271h96l-112 -271h-67z" />
    <glyph glyph-name="florin" 
d="M93 296l15 71h126l19 80q20 86 42.5 135.5t57.5 81.5q71 65 179 65q39 0 72 -9l-20 -76q-31 10 -54 10q-79 0 -121 -54q-36 -47 -64 -168l-16 -65h170l-14 -71h-170l-117 -546h-95l117 546h-127z" />
    <glyph glyph-name="quotedblbase" horiz-adv-x="437" 
d="M42 -132l83 271h94l-112 -271h-65zM196 -132l83 271h94l-112 -271h-65z" />
    <glyph glyph-name="ellipsis" unicode="&#x85;" horiz-adv-x="1000" 
d="M110 0v115h114v-115h-114zM443 0v115h114v-115h-114zM775 0v115h114v-115h-114z" />
    <glyph glyph-name="dagger" 
d="M50 412v71h210v242h87v-242h209v-71h-209v-662h-87v662h-210z" />
    <glyph glyph-name="daggerdbl" 
d="M58 412v71h203v242h87v-242h201v-71h-201v-335h201v-71h-201v-256h-87v256h-203v71h203v335h-203z" />
    <glyph glyph-name="circumflex" horiz-adv-x="500" 
d="M89 559l138 189h47l138 -188l-56 -10l-109 132l-108 -132z" />
    <glyph glyph-name="perthousand" horiz-adv-x="1377" 
d="M57 554q0 94 46 149t125 55t124.5 -54.5t45.5 -149.5t-45.5 -150t-124.5 -55t-125 55.5t-46 149.5zM133 554q0 -68 25 -106.5t70 -38.5q44 0 69 38.5t25 106.5t-25 106t-69 38q-45 0 -70 -38t-25 -106zM688 764l67 -17l-490 -797l-67 17zM555 156q0 94 46 149t125 55
t125 -55t46 -149t-46 -149.5t-125 -55.5t-125 55.5t-46 149.5zM631 156q0 -68 25.5 -106.5t69.5 -38.5q45 0 70 38.5t25 106.5q0 67 -25 105.5t-70 38.5t-70 -38.5t-25 -105.5zM979 156q0 94 46 149t125 55t124.5 -55t45.5 -149q0 -95 -45.5 -150t-124.5 -55t-125 55.5
t-46 149.5zM1055 156q0 -68 25 -106.5t70 -38.5q44 0 69 38.5t25 106.5q0 67 -25 105.5t-69 38.5q-45 0 -70 -38.5t-25 -105.5z" />
    <glyph glyph-name="Scaron" horiz-adv-x="558" 
d="M105 976l68 10l131 -150l131 150l60 -10l-167 -207h-56zM63 32v107q95 -70 185 -70q64 0 102.5 29.5t38.5 79.5q0 46 -28.5 75.5t-106.5 67.5q-94 46 -132 81q-52 49 -52 126q0 88 65.5 143t171.5 55q90 0 170 -42v-98q-82 57 -164 57q-64 0 -102 -28.5t-38 -76.5t45 -83
q28 -21 94 -52q94 -46 131 -86q49 -49 49 -127q0 -93 -66.5 -148.5t-178.5 -55.5q-92 0 -184 46z" />
    <glyph glyph-name="guilsinglleft" horiz-adv-x="358" 
d="M64 265l142 207h74l-117 -207l119 -207h-76z" />
    <glyph glyph-name="OE" horiz-adv-x="1097" 
d="M515 714h516v-83h-385q43 -48 64.5 -98t30.5 -121h280v-83h-278q-7 -152 -97 -246h394v-83h-517q-68 -16 -123 -16q-156 0 -249 99t-93 265q0 180 104 284q96 96 242 96q49 0 111 -14zM161 356q0 -134 65 -211.5t179 -77.5q113 0 176.5 76.5t63.5 212.5t-63.5 212.5
t-175.5 76.5q-114 0 -179.5 -77.5t-65.5 -211.5z" />
    <glyph glyph-name="quoteleft" horiz-adv-x="278" 
d="M169 750h67l-83 -271h-96z" />
    <glyph glyph-name="quoteright" horiz-adv-x="286" 
d="M50 479l83 271h96l-112 -271h-67z" />
    <glyph glyph-name="quotedblleft" horiz-adv-x="430" 
d="M211 479l112 271h65l-82 -271h-95zM57 479l112 271h65l-83 -271h-94z" />
    <glyph glyph-name="quotedblright" horiz-adv-x="438" 
d="M50 479l83 271h94l-112 -271h-65zM204 479l83 271h94l-112 -271h-65z" />
    <glyph glyph-name="bullet" 
d="M205 203v202h197v-202h-197z" />
    <glyph glyph-name="endash" horiz-adv-x="500" 
d="M0 256v83h500v-83h-500z" />
    <glyph glyph-name="emdash" horiz-adv-x="1000" 
d="M0 256v83h1000v-83h-1000z" />
    <glyph glyph-name="tilde" horiz-adv-x="500" 
d="M99 570l-18 51q38 67 98 67q22 0 49 -10l50 -21q24 -9 47 -9q45 0 75 58l18 -51q-38 -67 -98 -67q-26 0 -50 10l-50 21q-22 9 -46 9q-45 0 -75 -58z" />
    <glyph glyph-name="trademark" horiz-adv-x="971" 
d="M20 655v59h354v-59h-142v-356h-71v356h-141zM422 299l1 20q5 99 11 179q7 101 17 200l1 16h63q29 0 38 -11t36 -76q17 -43 43 -108q34 -84 43 -155q7 64 43 155q43 108 56 137q17 41 26 49.5t35 8.5h59l2 -16l9 -99q5 -61 12 -158q4 -70 7 -122l1 -20h-72l-1 11
q0 22 -2 49q-2 48 -3 71q-1 26 -3 56l-6 99q0 4 -0.5 12t-0.5 13q0 10 3 58h-1q-10 -41 -45 -127q-25 -59 -84 -225l-6 -17h-63l-6 17l-24 67q-6 18 -17 47q-33 89 -43 111q-34 84 -44 127h-2q3 -48 3 -58q0 -17 -1 -25l-6 -99q-6 -95 -8 -176l-1 -11h-70z" />
    <glyph glyph-name="scaron" horiz-adv-x="412" 
d="M68 740l54 10l104 -132l104 132l49 -9l-133 -189h-45zM58 15v92q53 -46 124 -46q41 0 65 17t24 45q0 34 -35 58q-14 10 -65 34q-63 31 -88 61t-25 76q0 64 47.5 103t124.5 39q62 0 119 -27v-85q-53 37 -112 37q-39 0 -62.5 -16.5t-23.5 -43.5q0 -24 16 -38.5t68 -39.5
q67 -32 92 -59q37 -36 37 -92q0 -65 -49 -104.5t-130 -39.5q-62 0 -127 29z" />
    <glyph glyph-name="guilsinglright" horiz-adv-x="358" 
d="M76 472h77l141 -207l-141 -207h-75l117 207z" />
    <glyph glyph-name="oe" horiz-adv-x="878" 
d="M817 120v-81q-73 -49 -170 -49q-128 0 -188 85q-38 -47 -79 -67.5t-101 -20.5q-108 0 -169.5 66t-61.5 181q0 120 63 190.5t170 70.5q115 0 179 -93q35 49 76.5 71t100.5 22q116 0 170 -85q34 -55 34 -153v-23h-344v-16q0 -71 43 -112t118 -41q84 0 159 55zM141 238
q0 -84 35.5 -130t101.5 -46t101.5 46t35.5 130q0 88 -35.5 135t-101.5 47t-101.5 -47t-35.5 -135zM506 305h244q-11 115 -113 115q-52 0 -86 -30t-45 -85z" />
    <glyph glyph-name="Ydieresis" horiz-adv-x="676" 
d="M174 792v107h99v-107h-99zM411 792v107h99v-107h-99zM282 0v276l-12 17q-131 193 -248 401l-11 20h117l5 -10q42 -76 93 -164q39 -67 95 -157l15 -21l14 22q42 60 102 155q35 56 53 86q29 47 46 79l6 10h109l-10 -17q-116 -197 -262 -403l-13 -18v-276h-99z" />
    <glyph glyph-name="nbspace" unicode="&#xa0;" horiz-adv-x="200" 
 />
    <glyph glyph-name="exclamdown" unicode="&#xa1;" horiz-adv-x="420" 
d="M182 -221v511h99v-511h-99zM178 386v107h107v-107h-107z" />
    <glyph glyph-name="cent" unicode="&#xa2;" 
d="M335 682h54v-72q54 -4 106 -28v-81q-50 33 -106 38v-358q60 4 112 41v-80q-50 -28 -112 -33v-77h-54v76q-109 10 -169.5 74t-60.5 170q0 77 34.5 137t96.5 92q40 20 99 28v73zM335 183v353q-137 -29 -137 -177t137 -176z" />
    <glyph glyph-name="sterling" unicode="&#xa3;" 
d="M76 0v74q61 33 82.5 64t21.5 86q0 35 -4 68l-1 9h-132v65h124q-10 70 -10 126q0 106 66 170t175 64q85 0 161 -49v-99q-69 73 -153 73q-71 0 -111 -41.5t-40 -116.5q0 -55 8 -127h198v-65h-192q4 -36 4 -63q0 -56 -17 -93.5t-56 -67.5h389v-77h-513z" />
    <glyph glyph-name="currency" unicode="&#xa4;" 
d="M495 119l-74 75q-51 -34 -112 -34q-65 0 -116 36l-79 -78l-51 50l81 78q-33 47 -33 110t34 112l-80 79l49 50l81 -78q50 36 114 36q59 0 109 -30l73 71l51 -51l-72 -70q36 -51 36 -119q0 -69 -37 -114l74 -73zM309 487q-57 0 -89.5 -37t-32.5 -94q0 -55 34.5 -91.5
t87.5 -36.5q56 0 88 36t33 92q0 56 -33 93.5t-88 37.5z" />
    <glyph glyph-name="yen" unicode="&#xa5;" 
d="M83 129v53h166v69h-166v53h166v56l-11 14q-129 156 -242 324l-11 16h113l6 -8q25 -38 90 -130q51 -70 93 -125l12 -16l14 17q53 63 99 123q58 73 97 131l6 8h106l-10 -14q-59 -83 -125 -167q-73 -93 -132 -158l-12 -15v-56h167v-53h-167v-69h167v-53h-167v-129h-93v129
h-166z" />
    <glyph glyph-name="brokenbar" unicode="&#xa6;" horiz-adv-x="362" 
d="M142 -250v385h78v-385h-78zM142 329v385h78v-385h-78z" />
    <glyph glyph-name="section" unicode="&#xa7;" horiz-adv-x="579" 
d="M99 -224v90q67 -45 143 -45q58 0 92 26.5t34 71.5q0 42 -35 77q-15 13 -51 38q-9 6 -26 17.5t-21 14.5q-99 64 -136.5 113.5t-37.5 117.5q0 46 16.5 81.5t59.5 82.5q-24 42 -24 85q0 82 59.5 132t155.5 50q71 0 143 -31v-88q-64 44 -135 44q-56 0 -90.5 -26.5
t-34.5 -69.5q0 -45 45 -82q15 -13 53 -36l45 -27q98 -62 134.5 -111t36.5 -119q0 -50 -18 -89.5t-60 -82.5q19 -39 19 -80q0 -81 -61.5 -132.5t-158.5 -51.5q-68 0 -147 30zM316 323l-74 47q-23 15 -50 36q-38 -54 -38 -98q0 -41 28.5 -76t101.5 -82l67 -44q26 -18 44 -33
q37 39 37 94q0 44 -26 79t-90 77z" />
    <glyph glyph-name="dieresis" unicode="&#xa8;" horiz-adv-x="500" 
d="M115 590v97h93v-97h-93zM291 590v97h93v-97h-93z" />
    <glyph glyph-name="copyright" unicode="&#xa9;" horiz-adv-x="912" 
d="M619 227v-74q-64 -28 -137 -28q-113 0 -181 62.5t-68 167.5q0 108 69.5 174.5t182.5 66.5q68 0 134 -28v-74q-59 34 -123 34q-81 0 -128.5 -45.5t-47.5 -123.5q0 -77 46.5 -121.5t127.5 -44.5q66 0 125 34zM58 357q0 164 116.5 280t281.5 116q164 0 280.5 -116
t116.5 -280q0 -163 -116.5 -279t-280.5 -116q-165 0 -281.5 115.5t-116.5 279.5zM115 357q0 -144 100 -246t241 -102t240.5 101.5t99.5 246.5t-99.5 247t-240.5 102t-241 -102t-100 -247z" />
    <glyph glyph-name="ordfeminine" unicode="&#xaa;" horiz-adv-x="417" 
d="M68 607v73q78 47 156 47q85 0 111 -54q14 -27 14 -101v-269l-16 -2q-95 -14 -154 -14q-135 0 -135 116q0 71 49 105.5t168 45.5l10 1v14q0 51 -9 66q-13 24 -55 24q-67 0 -139 -52zM271 357v137q-84 -7 -117.5 -26.5t-33.5 -60.5q0 -60 68 -60q32 0 83 10z" />
    <glyph glyph-name="guillemotleft" unicode="&#xab;" horiz-adv-x="520" 
d="M248 265l119 207h73l-99 -207l101 -207h-75zM64 265l142 207h74l-118 -207l119 -207h-75z" />
    <glyph glyph-name="logicalnot" unicode="&#xac;" 
d="M535 179h-114v167h-350v71h464v-238z" />
    <glyph glyph-name="sfthyphen" unicode="&#xad;" horiz-adv-x="413" 
d="M71 257v83h271v-83h-271z" />
    <glyph glyph-name="registered" unicode="&#xae;" horiz-adv-x="912" 
d="M299 142v447l10 1q94 4 117 4q185 0 185 -133q0 -94 -95 -126l8 -9l29 -35q76 -96 136 -150h-110l-8 9l-16 19q-59 68 -117 148l-5 6q-5 0 -11.5 -0.5t-7.5 -0.5h-4q-4 0 -10.5 0.5t-13.5 0.5h-9v-181h-78zM377 532v-150h9h30q113 0 113 76t-102 76q-26 0 -41 -1zM58 357
q0 164 116.5 280t281.5 116q164 0 280.5 -116t116.5 -280t-116.5 -279.5t-281.5 -115.5q-164 0 -280.5 116t-116.5 279zM115 357q0 -144 100 -246t241 -102t240.5 101.5t99.5 246.5q0 146 -99 247.5t-241 101.5q-141 0 -241 -102t-100 -247z" />
    <glyph glyph-name="macron" unicode="&#xaf;" horiz-adv-x="500" 
d="M67 612v53h366v-53h-366z" />
    <glyph glyph-name="degree" unicode="&#xb0;" horiz-adv-x="451" 
d="M71 575q0 64 45 109t109 45t109.5 -45t45.5 -109q0 -65 -45 -110t-110 -45q-64 0 -109 45.5t-45 109.5zM135 574q0 -39 26.5 -66.5t63.5 -27.5q38 0 64.5 27.5t26.5 67.5q0 39 -26.5 66.5t-64.5 27.5t-64 -27.5t-26 -67.5z" />
    <glyph glyph-name="plusminus" unicode="&#xb1;" 
d="M81 346v71h183v198h78v-198h182v-71h-182v-206h-78v206h-183zM81 4v71h443v-71h-443z" />
    <glyph glyph-name="twosuperior" unicode="&#xb2;" horiz-adv-x="415" 
d="M41 305v65q78 42 139 88q51 40 73.5 73t22.5 70q0 40 -25.5 65t-67.5 25q-62 0 -119 -57v74q60 51 134 51q70 0 112 -41.5t42 -109.5q0 -54 -28.5 -98t-90.5 -89q-63 -43 -116 -66q45 12 74 12l180 2v-64h-330z" />
    <glyph glyph-name="threesuperior" unicode="&#xb3;" horiz-adv-x="402" 
d="M44 319v69q60 -39 123 -39q48 0 76 20t28 54q0 59 -83 76q-28 5 -75 5v56q70 2 109.5 22.5t39.5 55.5q0 28 -23 44.5t-61 16.5q-63 0 -114 -44v65q59 39 131 39q65 0 104 -30t39 -80q0 -85 -101 -108q52 -10 81 -41t29 -77q0 -61 -47.5 -97.5t-127.5 -36.5q-71 0 -128 30
z" />
    <glyph glyph-name="acute" unicode="&#xb4;" horiz-adv-x="500" 
d="M131 564l158 198l80 -8l-178 -200z" />
    <glyph glyph-name="uni00B5" unicode="&#xb5;" horiz-adv-x="541" 
d="M513 68h18q-21 -89 -110 -89q-33 0 -47.5 20.5t-23.5 55.5q-21 -21 -62 -43t-87 -22q-57 0 -84 30v-28q0 -29 13.5 -74t13.5 -60q0 -61 -43 -61q-39 0 -39 61q0 15 12 60t12 74v327q0 54 -9.5 69t-43.5 15h-7v22h12q12 0 29 -1t29 -1q10 0 24 1t24 1h13v-286
q0 -46 21.5 -67.5t70.5 -21.5q54 0 101 28v241q0 55 -9 69.5t-44 14.5h-9v22h14q11 0 28 -1t29 -1q9 0 24 1t24 1h14v-289q0 -58 9.5 -77.5t32.5 -19.5q7 0 13 1t9.5 2.5t8 5t6.5 5.5t6.5 7.5t6.5 7.5z" />
    <glyph glyph-name="paragraph" unicode="&#xb6;" horiz-adv-x="666" 
d="M167 -254v66q27 -3 42 -3q64 0 97 42q30 37 30 144v244q-31 -4 -52 -4q-104 0 -165.5 63.5t-61.5 169.5q0 165 145 221q68 25 212 25h161v-964h-78v893h-83v-640q0 -81 -13.5 -129t-45.5 -80q-55 -53 -142 -53q-22 0 -46 5z" />
    <glyph glyph-name="periodcentered" unicode="&#xb7;" horiz-adv-x="200" 
d="M42 302v115h114v-115h-114z" />
    <glyph glyph-name="cedilla" unicode="&#xb8;" horiz-adv-x="500" 
d="M157 -244v48q26 -10 52 -10q29 0 46 13.5t17 37.5q0 56 -103 63l81 100h49l-48 -65q91 -19 91 -95q0 -44 -36 -72.5t-92 -28.5q-29 0 -57 9z" />
    <glyph glyph-name="onesuperior" unicode="&#xb9;" horiz-adv-x="333" 
d="M187 304v369l-152 -49v65l223 74v-459h-71z" />
    <glyph glyph-name="ordmasculine" unicode="&#xba;" horiz-adv-x="484" 
d="M42 503q0 103 54.5 163.5t148.5 60.5q91 0 144 -58t53 -159q0 -103 -54.5 -163t-147.5 -60q-92 0 -145 57.5t-53 158.5zM124 507q0 -77 31 -118.5t87 -41.5t87 41.5t31 118.5t-31 118.5t-87 41.5t-87 -41.5t-31 -118.5z" />
    <glyph glyph-name="guillemotright" unicode="&#xbb;" horiz-adv-x="520" 
d="M78 472h75l119 -207l-119 -207h-73l99 207zM239 472h75l142 -207l-142 -207h-74l118 207z" />
    <glyph glyph-name="onequarter" unicode="&#xbc;" horiz-adv-x="876" 
d="M184 304v369l-149 -49v65l220 74v-459h-71zM645 764l67 -17l-490 -797l-67 17zM697 60h-243q43 98 147 228q69 86 101 110q25 21 52 21q8 0 14 -1v-299h73v-59h-73v-100h-71v100zM697 119v125q0 45 17 92q-86 -101 -158 -217h141z" />
    <glyph glyph-name="onehalf" unicode="&#xbd;" horiz-adv-x="947" 
d="M184 304v369l-149 -49v65l220 74v-459h-71zM645 764l67 -17l-490 -797l-67 17zM573 -34v65q89 48 138 87q52 41 74.5 74t22.5 69q0 41 -25.5 65.5t-68.5 24.5q-62 0 -117 -56v73q58 51 134 51q69 0 111 -41.5t42 -109.5q0 -103 -119 -186q-50 -37 -116 -67q44 13 74 13
l180 1v-63h-330z" />
    <glyph glyph-name="threequarters" unicode="&#xbe;" horiz-adv-x="938" 
d="M44 319v70q59 -40 123 -40q48 0 76 20t28 54q0 60 -83 76q-33 6 -75 6v56q69 1 109 21.5t40 55.5q0 28 -23 45t-61 17q-62 0 -114 -45v66q59 39 131 39q65 0 104 -30t39 -80q0 -86 -101 -109q52 -10 81 -40.5t29 -77.5q0 -61 -48 -97.5t-127 -36.5q-68 0 -128 30z
M706 764l67 -17l-490 -797l-67 17zM758 60h-242q41 97 146 228q67 84 101 110q27 21 52 21q9 0 14 -1v-299h74v-59h-74v-100h-71v100zM758 119v125q0 45 18 92q-91 -108 -158 -217h140z" />
    <glyph glyph-name="questiondown" unicode="&#xbf;" horiz-adv-x="618" 
d="M350 289h95q9 -28 9 -46q0 -40 -27 -78q-24 -33 -88 -79q-61 -45 -81 -72t-20 -62q0 -46 33.5 -73t89.5 -27q83 0 157 59v-98q-82 -44 -170 -44q-98 0 -155.5 47t-57.5 129q0 70 46 119q22 24 51 46l60 45q38 28 53.5 50.5t15.5 49.5q0 17 -11 34zM330 386v107h107v-107
h-107z" />
    <glyph glyph-name="Agrave" unicode="&#xc0;" horiz-adv-x="725" 
d="M174 964l89 22l200 -191l-66 -20zM31 0l10 30q97 274 266 660l11 24h110l11 -25q127 -311 242 -656l11 -33h-109l-6 18q-27 89 -71 217l-5 15h-279l-6 -17q-46 -122 -77 -216l-6 -17h-102zM253 327h221l-8 23q-34 101 -46 134q-20 62 -37 105l-14 38l-15 -39l-29 -71
q-1 -4 -3 -9t-6.5 -16.5t-9.5 -23.5q-2 -7 -25 -66q-6 -16 -11.5 -30t-7.5 -19z" />
    <glyph glyph-name="Aacute" unicode="&#xc1;" horiz-adv-x="725" 
d="M295 795l200 191l84 -22l-222 -189zM31 0l10 30q97 274 266 660l11 24h110l11 -25q127 -311 242 -656l11 -33h-109l-6 18q-27 89 -71 217l-5 15h-279l-6 -17q-46 -122 -77 -216l-6 -17h-102zM253 327h221l-8 23q-34 101 -46 134q-20 62 -37 105l-14 38l-15 -39l-29 -71
q-1 -4 -3 -9t-6.5 -16.5t-9.5 -23.5q-2 -7 -25 -66q-6 -16 -11.5 -30t-7.5 -19z" />
    <glyph glyph-name="Acircumflex" unicode="&#xc2;" horiz-adv-x="725" 
d="M185 777l167 207h57l166 -207l-68 -10l-131 150l-130 -150zM31 0l10 30q97 274 266 660l11 24h110l11 -25q127 -311 242 -656l11 -33h-109l-6 18q-27 89 -71 217l-5 15h-279l-6 -17q-46 -122 -77 -216l-6 -17h-102zM253 327h221l-8 23q-34 101 -46 134q-20 62 -37 105
l-14 38l-15 -39l-29 -71q-1 -4 -3 -9t-6.5 -16.5t-9.5 -23.5q-2 -7 -25 -66q-6 -16 -11.5 -30t-7.5 -19z" />
    <glyph glyph-name="Atilde" unicode="&#xc3;" horiz-adv-x="725" 
d="M203 788l-23 56q47 74 120 74q28 0 58 -11l61 -22q27 -9 56 -9q53 0 91 62l22 -56q-46 -74 -119 -74q-31 0 -60 11l-61 23q-29 8 -55 8q-53 0 -90 -62zM31 0l10 30q97 274 266 660l11 24h110l11 -25q127 -311 242 -656l11 -33h-109l-6 18q-27 89 -71 217l-5 15h-279
l-6 -17q-46 -122 -77 -216l-6 -17h-102zM253 327h221l-8 23q-34 101 -46 134q-20 62 -37 105l-14 38l-15 -39l-29 -71q-1 -4 -3 -9t-6.5 -16.5t-9.5 -23.5q-2 -7 -25 -66q-6 -16 -11.5 -30t-7.5 -19z" />
    <glyph glyph-name="Adieresis" unicode="&#xc4;" horiz-adv-x="725" 
d="M211 792v107h99v-107h-99zM448 792v107h99v-107h-99zM31 0l10 30q97 274 266 660l11 24h110l11 -25q127 -311 242 -656l11 -33h-109l-6 18q-27 89 -71 217l-5 15h-279l-6 -17q-46 -122 -77 -216l-6 -17h-102zM253 327h221l-8 23q-34 101 -46 134q-20 62 -37 105l-14 38
l-15 -39l-29 -71q-1 -4 -3 -9t-6.5 -16.5t-9.5 -23.5q-2 -7 -25 -66q-6 -16 -11.5 -30t-7.5 -19z" />
    <glyph glyph-name="Aring" unicode="&#xc5;" horiz-adv-x="725" 
d="M252 868q0 51 36 87t88 36q51 0 87 -36t36 -87q0 -52 -36 -88t-87 -36t-87.5 36t-36.5 88zM303 868q0 -32 21.5 -54.5t51.5 -22.5t51 22.5t21 54.5t-21 54t-51 22t-51.5 -22.5t-21.5 -53.5zM31 0l10 30q97 274 266 660l11 24h110l11 -25q127 -311 242 -656l11 -33h-109
l-6 18q-27 89 -71 217l-5 15h-279l-6 -17q-46 -122 -77 -216l-6 -17h-102zM253 327h221l-8 23q-34 101 -46 134q-20 62 -37 105l-14 38l-15 -39l-29 -71q-1 -4 -3 -9t-6.5 -16.5t-9.5 -23.5q-2 -7 -25 -66q-6 -16 -11.5 -30t-7.5 -19z" />
    <glyph glyph-name="AE" unicode="&#xc6;" horiz-adv-x="942" 
d="M28 0l10 29q56 160 132 345q51 126 134 316l11 24h561v-83h-419l6 -17q13 -31 72 -183l7 -18h324v-83h-295l7 -18q59 -168 74 -215l5 -14h228v-83h-306l-6 18q-9 28 -51 161l-5 15h-319l-6 -17q-1 -3 -3 -8t-5.5 -15.5t-7.5 -21.5q-1 -3 -4.5 -13t-5.5 -16l-31 -87
l-6 -16h-101zM229 277h260l-7 20q-20 57 -57 162q-9 27 -25 70t-20 53l-14 37l-16 -38q-45 -110 -57 -141q-4 -10 -31 -80q-20 -48 -24 -59z" />
    <glyph glyph-name="Ccedilla" unicode="&#xc7;" horiz-adv-x="710" 
d="M322 -265v52q26 -15 57 -15q32 0 50.5 15.5t18.5 41.5q0 63 -112 72l71 88q-161 10 -253.5 107.5t-92.5 256.5q0 168 105.5 270.5t279.5 102.5q103 0 204 -44v-94q-93 55 -198 55q-134 0 -211 -76t-77 -208t77.5 -208t211.5 -76q105 0 197 51v-94q-82 -37 -188 -43
l-37 -50q99 -20 99 -104q0 -49 -38.5 -79.5t-100.5 -30.5q-29 0 -63 10z" />
    <glyph glyph-name="Egrave" unicode="&#xc8;" horiz-adv-x="574" 
d="M104 963l89 22l200 -191l-67 -19zM93 0v712h413v-83h-314v-217h303v-83h-303v-246h322v-83h-421z" />
    <glyph glyph-name="Eacute" unicode="&#xc9;" horiz-adv-x="574" 
d="M245 794l200 191l84 -21l-222 -189zM93 0v712h413v-83h-314v-217h303v-83h-303v-246h322v-83h-421z" />
    <glyph glyph-name="Ecircumflex" unicode="&#xca;" horiz-adv-x="574" 
d="M113 776l167 208h57l166 -207l-68 -10l-131 150l-130 -150zM93 0v712h413v-83h-314v-217h303v-83h-303v-246h322v-83h-421z" />
    <glyph glyph-name="Edieresis" unicode="&#xcb;" horiz-adv-x="574" 
d="M138 792v107h99v-107h-99zM376 792v107h99v-107h-99zM93 0v712h413v-83h-314v-217h303v-83h-303v-246h322v-83h-421z" />
    <glyph glyph-name="Igrave" unicode="&#xcc;" horiz-adv-x="286" 
d="M-34 964l89 22l200 -191l-66 -20zM95 0v714h99v-714h-99z" />
    <glyph glyph-name="Iacute" unicode="&#xcd;" horiz-adv-x="287" 
d="M57 795l200 191l85 -22l-223 -189zM94 0v714h99v-714h-99z" />
    <glyph glyph-name="Icircumflex" unicode="&#xce;" horiz-adv-x="287" 
d="M-14 779l137 203h47l137 -203l-61 -10l-101 142l-103 -142zM95 0v714h99v-714h-99z" />
    <glyph glyph-name="Idieresis" unicode="&#xcf;" horiz-adv-x="286" 
d="M-5 800v97h99v-97h-99zM192 800v97h99v-97h-99zM94 0v714h99v-714h-99z" />
    <glyph glyph-name="Eth" unicode="&#xd0;" horiz-adv-x="799" 
d="M-4 337v65h132v309l20 1q98 7 167 7q203 0 306 -80q117 -92 117 -271q0 -190 -127 -288q-110 -84 -310 -84q-59 0 -126 3q-2 0 -18 1t-29 2v335h-132zM227 632v-230h165v-65h-165v-254q37 -4 85 -4q159 0 240 68q83 72 83 214q0 129 -73 199q-77 76 -236 76q-42 0 -99 -4
z" />
    <glyph glyph-name="Ntilde" unicode="&#xd1;" horiz-adv-x="783" 
d="M231 788l-22 56q46 74 119 74q28 0 58 -11l61 -22q29 -9 57 -9q54 0 90 62l23 -56q-47 -74 -120 -74q-31 0 -60 11l-60 23q-29 8 -55 8q-54 0 -91 -62zM93 0v714h96q31 0 47 -24l314 -492q27 -42 59 -130q-12 78 -12 139v507h93v-714h-97q-31 0 -46 24l-314 493
q-29 46 -59 129q12 -78 12 -139v-507h-93z" />
    <glyph glyph-name="Ograve" unicode="&#xd2;" horiz-adv-x="816" 
d="M214 964l89 21l200 -190l-66 -20zM61 349q0 172 96 275.5t256 103.5q157 0 249.5 -99.5t92.5 -268.5q0 -172 -95.5 -274t-256.5 -102q-156 0 -249 99.5t-93 265.5zM164 356q0 -135 65 -212t180 -77q113 0 178 77t65 211q0 136 -64 213t-177 77q-115 0 -181 -77.5
t-66 -211.5z" />
    <glyph glyph-name="Oacute" unicode="&#xd3;" horiz-adv-x="816" 
d="M330 795l200 190l84 -21l-223 -189zM61 349q0 172 96 275.5t256 103.5q157 0 249.5 -99.5t92.5 -268.5q0 -172 -95.5 -274t-256.5 -102q-156 0 -249 99.5t-93 265.5zM164 356q0 -135 65 -212t180 -77q113 0 178 77t65 211q0 136 -64 213t-177 77q-115 0 -181 -77.5
t-66 -211.5z" />
    <glyph glyph-name="Ocircumflex" unicode="&#xd4;" horiz-adv-x="816" 
d="M224 777l167 207h56l167 -207l-68 -10l-131 150l-131 -150zM61 349q0 172 96 275.5t256 103.5q157 0 249.5 -99.5t92.5 -268.5q0 -172 -95.5 -274t-256.5 -102q-156 0 -249 99.5t-93 265.5zM164 356q0 -135 65 -212t180 -77q113 0 178 77t65 211q0 136 -64 213t-177 77
q-115 0 -181 -77.5t-66 -211.5z" />
    <glyph glyph-name="Otilde" unicode="&#xd5;" horiz-adv-x="816" 
d="M245 788l-22 56q46 74 119 74q28 0 58 -11l61 -23q29 -9 57 -9q52 0 90 63l22 -56q-45 -75 -119 -75q-29 0 -60 12l-60 22q-27 9 -55 9q-53 0 -91 -62zM61 349q0 172 96 275.5t256 103.5q157 0 249.5 -99.5t92.5 -268.5q0 -172 -95.5 -274t-256.5 -102q-156 0 -249 99.5
t-93 265.5zM164 356q0 -135 65 -212t180 -77q113 0 178 77t65 211q0 136 -64 213t-177 77q-115 0 -181 -77.5t-66 -211.5z" />
    <glyph glyph-name="Odieresis" unicode="&#xd6;" horiz-adv-x="816" 
d="M249 792v107h99v-107h-99zM486 792v107h99v-107h-99zM61 349q0 172 96 275.5t256 103.5q157 0 249.5 -99.5t92.5 -268.5q0 -172 -95.5 -274t-256.5 -102q-156 0 -249 99.5t-93 265.5zM164 356q0 -135 65 -212t180 -77q113 0 178 77t65 211q0 136 -64 213t-177 77
q-115 0 -181 -77.5t-66 -211.5z" />
    <glyph glyph-name="multiply" unicode="&#xd7;" 
d="M83 462l55 55l167 -167l167 167l50 -50l-167 -167l167 -167l-55 -55l-167 167l-167 -167l-50 50l167 167z" />
    <glyph glyph-name="Oslash" unicode="&#xd8;" horiz-adv-x="823" 
d="M55 22l81 87q-71 96 -71 241q0 171 96 274t255 103q129 0 220 -72l71 78l51 -43l-76 -81q76 -101 76 -249q0 -172 -95 -274t-255 -102q-135 0 -227 77l-74 -81zM205 188l369 397q-63 59 -161 59q-114 0 -179.5 -77t-65.5 -210q0 -96 37 -169zM615 532l-371 -399
q40 -37 78 -51.5t91 -14.5q113 0 177.5 76t64.5 209q0 106 -40 180z" />
    <glyph glyph-name="Ugrave" unicode="&#xd9;" horiz-adv-x="736" 
d="M177 964l88 22l201 -191l-67 -20zM85 714h99v-437q0 -107 37 -151q46 -55 147 -55q110 0 155 66q29 43 29 140v437h99v-450q0 -126 -59 -194q-73 -82 -225 -82q-154 0 -224 82q-58 65 -58 194v450z" />
    <glyph glyph-name="Uacute" unicode="&#xda;" horiz-adv-x="736" 
d="M306 795l200 191l84 -22l-222 -188zM85 714h99v-437q0 -107 37 -151q46 -55 147 -55q110 0 155 66q29 43 29 140v437h99v-450q0 -126 -59 -194q-73 -82 -225 -82q-154 0 -224 82q-58 65 -58 194v450z" />
    <glyph glyph-name="Ucircumflex" unicode="&#xdb;" horiz-adv-x="736" 
d="M180 777l166 207h57l167 -207l-68 -10l-131 150l-131 -150zM85 714h99v-437q0 -107 37 -151q46 -55 147 -55q110 0 155 66q29 43 29 140v437h99v-450q0 -126 -59 -194q-73 -82 -225 -82q-154 0 -224 82q-58 65 -58 194v450z" />
    <glyph glyph-name="Udieresis" unicode="&#xdc;" horiz-adv-x="736" 
d="M205 792v107h99v-107h-99zM442 792v107h99v-107h-99zM85 714h99v-437q0 -107 37 -151q46 -55 147 -55q110 0 155 66q29 43 29 140v437h99v-450q0 -126 -59 -194q-73 -82 -225 -82q-154 0 -224 82q-58 65 -58 194v450z" />
    <glyph glyph-name="Yacute" unicode="&#xdd;" horiz-adv-x="676" 
d="M265 795l200 191l84 -22l-222 -189zM282 0v276l-12 17q-131 193 -248 401l-11 20h117l5 -10q42 -76 93 -164q39 -67 95 -157l15 -21l14 22q42 60 102 155q35 56 53 86q29 47 46 79l6 10h109l-10 -17q-116 -197 -262 -403l-13 -18v-276h-99z" />
    <glyph glyph-name="Thorn" unicode="&#xde;" horiz-adv-x="604" 
d="M93 0v714h99v-129h9q41 3 78 3q128 0 198 -51q79 -59 79 -169q0 -120 -92 -180q-70 -47 -203 -47q-40 0 -69 2v-143h-99zM192 501v-275q64 -2 69 -2q192 0 192 140q0 141 -179 141q-30 0 -82 -4z" />
    <glyph glyph-name="germandbls" unicode="&#xdf;" horiz-adv-x="581" 
d="M85 0v490q0 71 9.5 112t33.5 72q57 78 177 78q88 0 139.5 -43t51.5 -117q0 -43 -17.5 -74t-69.5 -81q-41 -38 -41 -68q0 -20 12 -33t61 -47q58 -40 79 -67q27 -36 27 -85q0 -65 -48.5 -106t-125.5 -41q-52 0 -103 24v84q45 -33 97 -33q38 0 62.5 18.5t24.5 47.5
q0 24 -15 41.5t-65 52.5q-49 36 -68 55q-31 33 -31 80q0 52 46 99l44 45q38 39 38 86q0 43 -28.5 68.5t-75.5 25.5q-75 0 -105 -65q-16 -38 -16 -127v-492h-93z" />
    <glyph glyph-name="agrave" unicode="&#xe0;" horiz-adv-x="479" 
d="M104 754l82 8l158 -198l-63 -10zM81 357v84q91 53 179 53q97 0 127 -62q15 -31 15 -115v-307l-17 -2q-108 -16 -175 -16q-156 0 -156 132q0 81 58 121t192 52l11 1v16q0 60 -9 77q-16 28 -64 28q-76 0 -161 -62zM315 72v156q-96 -8 -135 -30t-39 -69q0 -69 79 -69
q32 0 95 12z" />
    <glyph glyph-name="aacute" unicode="&#xe1;" horiz-adv-x="479" 
d="M190 564l158 198l80 -8l-178 -200zM81 357v84q91 53 179 53q97 0 127 -62q15 -31 15 -115v-307l-17 -2q-108 -16 -175 -16q-156 0 -156 132q0 81 58 121t192 52l11 1v16q0 60 -9 77q-16 28 -64 28q-76 0 -161 -62zM315 72v156q-96 -8 -135 -30t-39 -69q0 -69 79 -69
q32 0 95 12z" />
    <glyph glyph-name="acircumflex" unicode="&#xe2;" horiz-adv-x="479" 
d="M85 559l138 189h47l138 -188l-56 -10l-109 132l-108 -132zM81 357v84q91 53 179 53q97 0 127 -62q15 -31 15 -115v-307l-17 -2q-108 -16 -175 -16q-156 0 -156 132q0 81 58 121t192 52l11 1v16q0 60 -9 77q-16 28 -64 28q-76 0 -161 -62zM315 72v156q-96 -8 -135 -30
t-39 -69q0 -69 79 -69q32 0 95 12z" />
    <glyph glyph-name="atilde" unicode="&#xe3;" horiz-adv-x="479" 
d="M97 570l-18 51q38 67 98 67q22 0 49 -10l50 -21q24 -9 47 -9q45 0 75 58l18 -51q-38 -67 -98 -67q-26 0 -50 10l-50 21q-22 9 -46 9q-45 0 -75 -58zM81 357v84q91 53 179 53q97 0 127 -62q15 -31 15 -115v-307l-17 -2q-108 -16 -175 -16q-156 0 -156 132q0 81 58 121
t192 52l11 1v16q0 60 -9 77q-16 28 -64 28q-76 0 -161 -62zM315 72v156q-96 -8 -135 -30t-39 -69q0 -69 79 -69q32 0 95 12z" />
    <glyph glyph-name="adieresis" unicode="&#xe4;" horiz-adv-x="479" 
d="M117 590v97h93v-97h-93zM293 590v97h93v-97h-93zM81 357v84q91 53 179 53q97 0 127 -62q15 -31 15 -115v-307l-17 -2q-108 -16 -175 -16q-156 0 -156 132q0 81 58 121t192 52l11 1v16q0 60 -9 77q-16 28 -64 28q-76 0 -161 -62zM315 72v156q-96 -8 -135 -30t-39 -69
q0 -69 79 -69q32 0 95 12z" />
    <glyph glyph-name="aring" unicode="&#xe5;" horiz-adv-x="479" 
d="M145 653q0 46 32.5 79t78.5 33t79 -32.5t33 -79.5q0 -46 -33 -78.5t-79 -32.5t-78.5 32.5t-32.5 78.5zM196 653q0 -26 17.5 -45t42.5 -19t43 19t18 45q0 27 -18 46t-43 19t-42.5 -19t-17.5 -46zM81 357v84q91 53 179 53q97 0 127 -62q15 -31 15 -115v-307l-17 -2
q-108 -16 -175 -16q-156 0 -156 132q0 81 58 121t192 52l11 1v16q0 60 -9 77q-16 28 -64 28q-76 0 -161 -62zM315 72v156q-96 -8 -135 -30t-39 -69q0 -69 79 -69q32 0 95 12z" />
    <glyph glyph-name="ae" unicode="&#xe6;" horiz-adv-x="771" 
d="M76 357v83q90 53 178 53t120 -64q62 65 156 65q117 0 170 -85q34 -50 34 -152v-23h-343q-1 -7 -1 -15q0 -73 43 -114t119 -41q87 0 158 57v-82q-74 -50 -169 -50q-72 0 -145 37q-84 -34 -179 -34q-168 0 -168 130q0 80 58 121t191 54l11 1q1 15 1 39q0 44 -18 62.5
t-60 18.5q-73 0 -156 -61zM343 84q-20 35 -28 65.5t-9 75.5q-91 -7 -130.5 -29t-39.5 -65q0 -64 88 -64q58 0 119 17zM399 305h244q-11 114 -113 114q-52 0 -86 -30t-45 -84z" />
    <glyph glyph-name="ccedilla" unicode="&#xe7;" horiz-adv-x="460" 
d="M186 -244v48q26 -10 52 -10q29 0 46 13.5t17 37.5q0 56 -103 63l67 83q-101 11 -157 75t-56 168q0 115 69 186.5t181 71.5q62 0 121 -28v-83q-53 36 -114 36q-76 0 -120 -47t-44 -129t43 -128.5t120 -46.5q61 0 121 40v-83q-54 -29 -114 -33l-35 -47q91 -19 91 -95
q0 -44 -36 -72.5t-92 -28.5q-29 0 -57 9z" />
    <glyph glyph-name="egrave" unicode="&#xe8;" horiz-adv-x="527" 
d="M102 753l82 9l158 -199l-63 -10zM485 234h-344q0 -12 -2 -15q0 -73 43 -114t119 -41q88 0 160 57v-82q-74 -50 -170 -50q-113 0 -176 64t-63 178q0 118 63.5 190.5t166.5 72.5q115 0 169 -85q34 -50 34 -152v-23zM150 305h244q-11 114 -113 114q-52 0 -86 -30t-45 -84z
" />
    <glyph glyph-name="eacute" unicode="&#xe9;" horiz-adv-x="527" 
d="M226 563l158 199l80 -9l-178 -199zM485 234h-344q0 -12 -2 -15q0 -73 43 -114t119 -41q88 0 160 57v-82q-74 -50 -170 -50q-113 0 -176 64t-63 178q0 118 63.5 190.5t166.5 72.5q115 0 169 -85q34 -50 34 -152v-23zM150 305h244q-11 114 -113 114q-52 0 -86 -30t-45 -84z
" />
    <glyph glyph-name="ecircumflex" unicode="&#xea;" horiz-adv-x="527" 
d="M128 559l138 189h47l138 -189l-56 -9l-109 131l-108 -131zM485 234h-344q0 -12 -2 -15q0 -73 43 -114t119 -41q88 0 160 57v-82q-74 -50 -170 -50q-113 0 -176 64t-63 178q0 118 63.5 190.5t166.5 72.5q115 0 169 -85q34 -50 34 -152v-23zM150 305h244q-11 114 -113 114
q-52 0 -86 -30t-45 -84z" />
    <glyph glyph-name="edieresis" unicode="&#xeb;" horiz-adv-x="527" 
d="M157 589v97h93v-97h-93zM333 589v97h93v-97h-93zM485 234h-344q0 -12 -2 -15q0 -73 43 -114t119 -41q88 0 160 57v-82q-74 -50 -170 -50q-113 0 -176 64t-63 178q0 118 63.5 190.5t166.5 72.5q115 0 169 -85q34 -50 34 -152v-23zM150 305h244q-11 114 -113 114
q-52 0 -86 -30t-45 -84z" />
    <glyph glyph-name="igrave" unicode="&#xec;" horiz-adv-x="262" 
d="M-42 753l82 9l158 -198l-63 -11zM84 0v486h93v-486h-93z" />
    <glyph glyph-name="iacute" unicode="&#xed;" horiz-adv-x="261" 
d="M68 564l158 198l80 -9l-178 -199zM85 0v486h93v-486h-93z" />
    <glyph glyph-name="icircumflex" unicode="&#xee;" horiz-adv-x="261" 
d="M2 559l111 189h38l111 -189l-50 -9l-82 129l-83 -129zM84 0v486h93v-486h-93z" />
    <glyph glyph-name="idieresis" unicode="&#xef;" horiz-adv-x="260" 
d="M11 596v88h87v-88h-87zM163 596v88h87v-88h-87zM84 0v486h93v-486h-93z" />
    <glyph glyph-name="eth" unicode="&#xf0;" horiz-adv-x="572" 
d="M132 677v70q28 5 54 5q86 0 154 -43l87 72l33 -40l-79 -64q43 -43 70 -96q63 -128 63 -291q0 -145 -60 -224t-170 -79q-106 0 -169 68.5t-63 183.5q0 116 63.5 186t169.5 70q57 0 115 -29q-27 101 -82 159l-102 -82l-32 40l91 74q-43 20 -96 20h-47zM410 387
q-60 33 -116 33q-71 0 -110 -48t-39 -134q0 -82 37.5 -129t102.5 -47q66 0 101 54t35 158q0 47 -8 90z" />
    <glyph glyph-name="ntilde" unicode="&#xf1;" horiz-adv-x="562" 
d="M134 570l-19 50q39 67 99 67q24 0 48 -9l50 -21q27 -10 47 -10q44 0 75 58l19 -50q-40 -68 -99 -68q-24 0 -49 11l-51 20q-22 9 -45 9q-44 0 -75 -57zM85 0v460q108 33 208 33q107 0 153 -48q37 -40 37 -128v-317h-93v306q0 61 -25 86.5t-86 25.5q-49 0 -101 -17v-401
h-93z" />
    <glyph glyph-name="ograve" unicode="&#xf2;" horiz-adv-x="566" 
d="M102 753l82 9l158 -198l-63 -10zM52 237q0 119 63 188.5t171 69.5q106 0 167 -67t61 -183q0 -119 -63 -188.5t-171 -69.5q-106 0 -167 67t-61 183zM145 241q0 -86 35.5 -132.5t102.5 -46.5t102.5 46.5t35.5 132.5t-35.5 132.5t-102.5 46.5t-102.5 -46.5t-35.5 -132.5z
" />
    <glyph glyph-name="oacute" unicode="&#xf3;" horiz-adv-x="566" 
d="M222 564l158 198l80 -9l-177 -199zM52 237q0 119 63 188.5t171 69.5q106 0 167 -67t61 -183q0 -119 -63 -188.5t-171 -69.5q-106 0 -167 67t-61 183zM145 241q0 -86 35.5 -132.5t102.5 -46.5t102.5 46.5t35.5 132.5t-35.5 132.5t-102.5 46.5t-102.5 -46.5t-35.5 -132.5z
" />
    <glyph glyph-name="ocircumflex" unicode="&#xf4;" horiz-adv-x="566" 
d="M130 559l138 189h47l139 -189l-57 -9l-108 132l-109 -132zM52 237q0 119 63 188.5t171 69.5q106 0 167 -67t61 -183q0 -119 -63 -188.5t-171 -69.5q-106 0 -167 67t-61 183zM145 241q0 -86 35.5 -132.5t102.5 -46.5t102.5 46.5t35.5 132.5t-35.5 132.5t-102.5 46.5
t-102.5 -46.5t-35.5 -132.5z" />
    <glyph glyph-name="otilde" unicode="&#xf5;" horiz-adv-x="566" 
d="M144 570l-18 51q40 67 98 67q22 0 49 -10l50 -21q24 -9 47 -9q44 0 75 57l19 -50q-39 -67 -99 -67q-26 0 -50 10l-50 21q-23 9 -45 9q-43 0 -76 -58zM52 237q0 119 63 188.5t171 69.5q106 0 167 -67t61 -183q0 -119 -63 -188.5t-171 -69.5q-106 0 -167 67t-61 183z
M145 241q0 -86 35.5 -132.5t102.5 -46.5t102.5 46.5t35.5 132.5t-35.5 132.5t-102.5 46.5t-102.5 -46.5t-35.5 -132.5z" />
    <glyph glyph-name="odieresis" unicode="&#xf6;" horiz-adv-x="566" 
d="M157 590v97h93v-97h-93zM333 590v97h93v-97h-93zM52 237q0 119 63 188.5t171 69.5q106 0 167 -67t61 -183q0 -119 -63 -188.5t-171 -69.5q-106 0 -167 67t-61 183zM145 241q0 -86 35.5 -132.5t102.5 -46.5t102.5 46.5t35.5 132.5t-35.5 132.5t-102.5 46.5t-102.5 -46.5
t-35.5 -132.5z" />
    <glyph glyph-name="divide" unicode="&#xf7;" 
d="M71 264v71h464v-71h-464zM254 399v107h99v-107h-99zM254 90v107h99v-107h-99z" />
    <glyph glyph-name="oslash" unicode="&#xf8;" horiz-adv-x="574" 
d="M41 13l58 63q-43 65 -43 162q0 118 63.5 187.5t171.5 69.5q82 0 147 -49l52 57l38 -33l-56 -60q46 -66 46 -166q0 -119 -63 -188t-171 -69q-86 0 -151 52l-53 -58zM163 147l220 237q-39 36 -96 36q-65 0 -101.5 -46.5t-36.5 -131.5q0 -51 14 -95zM410 339l-221 -238
q38 -39 98 -39q66 0 102 46.5t36 132.5q0 53 -15 98z" />
    <glyph glyph-name="ugrave" unicode="&#xf9;" horiz-adv-x="558" 
d="M100 754l82 8l158 -198l-63 -10zM79 486h93v-299q0 -66 25.5 -92t91.5 -26q46 0 91 9v408h93v-471q-112 -21 -196 -21q-107 0 -153 43q-25 22 -35 54t-10 89v306z" />
    <glyph glyph-name="uacute" unicode="&#xfa;" horiz-adv-x="558" 
d="M223 564l157 198l81 -8l-178 -200zM79 486h93v-299q0 -66 25.5 -92t91.5 -26q46 0 91 9v408h93v-471q-112 -21 -196 -21q-107 0 -153 43q-25 22 -35 54t-10 89v306z" />
    <glyph glyph-name="ucircumflex" unicode="&#xfb;" horiz-adv-x="558" 
d="M125 559l139 189h47l138 -188l-57 -10l-108 132l-109 -132zM79 486h93v-299q0 -66 25.5 -92t91.5 -26q46 0 91 9v408h93v-471q-112 -21 -196 -21q-107 0 -153 43q-25 22 -35 54t-10 89v306z" />
    <glyph glyph-name="udieresis" unicode="&#xfc;" horiz-adv-x="558" 
d="M152 590v97h93v-97h-93zM329 590v97h93v-97h-93zM79 486h93v-299q0 -66 25.5 -92t91.5 -26q46 0 91 9v408h93v-471q-112 -21 -196 -21q-107 0 -153 43q-25 22 -35 54t-10 89v306z" />
    <glyph glyph-name="yacute" unicode="&#xfd;" horiz-adv-x="512" 
d="M197 564l158 198l80 -9l-178 -199zM24 486h99l2 -12q38 -163 108 -348l7 -18l10 -40l11 40l7 17q75 178 121 349l3 12h96l-6 -21q-66 -207 -156 -405l-42 -92q-46 -97 -90 -206l-4 -12h-91q15 39 28 71q29 69 63 143l11 25q-118 262 -177 497z" />
    <glyph glyph-name="thorn" unicode="&#xfe;" horiz-adv-x="566" 
d="M88 -250v1000h93v-266q40 9 84 9q119 0 185 -63t66 -177q0 -119 -70.5 -188.5t-190.5 -69.5q-38 0 -74 7v-252h-93zM181 407v-330q39 -7 66 -7q84 0 130 46.5t46 130.5q0 80 -43 125.5t-119 45.5q-33 0 -80 -11z" />
    <glyph glyph-name="ydieresis" unicode="&#xff;" horiz-adv-x="512" 
d="M131 590v97h93v-97h-93zM307 590v97h93v-97h-93zM24 486h99l2 -12q38 -163 108 -348l7 -18l10 -40l11 40l7 17q75 178 121 349l3 12h96l-6 -21q-66 -207 -156 -405l-42 -92q-46 -97 -90 -206l-4 -12h-91q15 39 28 71q29 69 63 143l11 25q-118 262 -177 497z" />
    <glyph glyph-name="Amacron" horiz-adv-x="725" 
d="M169 827v59h413v-59h-413zM31 0l10 30q97 274 266 660l11 24h110l11 -25q127 -311 242 -656l11 -33h-109l-6 18q-27 89 -71 217l-5 15h-279l-6 -17q-46 -122 -77 -216l-6 -17h-102zM253 327h221l-8 23q-34 101 -46 134q-20 62 -37 105l-14 38l-15 -39l-29 -71
q-1 -4 -3 -9t-6.5 -16.5t-9.5 -23.5q-2 -7 -25 -66q-6 -16 -11.5 -30t-7.5 -19z" />
    <glyph glyph-name="amacron" horiz-adv-x="479" 
d="M63 612v53h366v-53h-366zM81 357v84q91 53 179 53q97 0 127 -62q15 -31 15 -115v-307l-17 -2q-108 -16 -175 -16q-156 0 -156 132q0 81 58 121t192 52l11 1v16q0 60 -9 77q-16 28 -64 28q-76 0 -161 -62zM315 72v156q-96 -8 -135 -30t-39 -69q0 -69 79 -69q32 0 95 12z
" />
    <glyph glyph-name="Abreve" horiz-adv-x="725" 
d="M207 955h57q3 -44 16 -63q29 -43 100 -43q76 0 104 51q10 19 11 55h56q-1 -60 -15 -90q-36 -84 -157 -84q-88 0 -129 42t-43 132zM31 0l10 30q97 274 266 660l11 24h110l11 -25q127 -311 242 -656l11 -33h-109l-6 18q-27 89 -71 217l-5 15h-279l-6 -17q-46 -122 -77 -216
l-6 -17h-102zM253 327h221l-8 23q-34 101 -46 134q-20 62 -37 105l-14 38l-15 -39l-29 -71q-1 -4 -3 -9t-6.5 -16.5t-9.5 -23.5q-2 -7 -25 -66q-6 -16 -11.5 -30t-7.5 -19z" />
    <glyph glyph-name="abreve" horiz-adv-x="479" 
d="M104 722h49q1 -39 13 -56q24 -41 85 -41q95 0 99 97h47q-1 -53 -12 -81q-31 -76 -134 -76q-76 0 -111 37.5t-36 119.5zM81 357v84q91 53 179 53q97 0 127 -62q15 -31 15 -115v-307l-17 -2q-108 -16 -175 -16q-156 0 -156 132q0 81 58 121t192 52l11 1v16q0 60 -9 77
q-16 28 -64 28q-76 0 -161 -62zM315 72v156q-96 -8 -135 -30t-39 -69q0 -69 79 -69q32 0 95 12z" />
    <glyph glyph-name="Aogonek" horiz-adv-x="725" 
d="M31 0l10 30q97 274 266 660l11 24h110l11 -25q127 -311 242 -656l11 -33q-64 -7 -109.5 -51t-45.5 -100q0 -25 13.5 -40.5t36.5 -15.5q34 0 69 41l11 -46q-52 -55 -117 -55q-43 0 -69 25.5t-26 67.5q0 102 128 174l-6 18q-45 142 -71 217l-5 15h-279l-6 -17
q-44 -117 -77 -215l-6 -18h-102zM253 327h221l-8 23q-34 101 -46 134q-20 62 -37 105l-14 38l-15 -38l-29 -72q-1 -4 -3 -9t-6.5 -16.5t-9.5 -23.5q-2 -7 -25 -66q-6 -16 -11.5 -30t-7.5 -19z" />
    <glyph glyph-name="aogonek" horiz-adv-x="479" 
d="M81 356v84q89 53 179 53q96 0 127 -61q15 -31 15 -115v-308q-57 -6 -97 -44.5t-40 -86.5q0 -23 11.5 -36t31.5 -13q31 0 62 31l10 -42q-48 -49 -107 -49q-37 0 -60.5 23.5t-23.5 60.5q0 81 90 142l-12 -1q-31 -3 -58 -3q-155 0 -155 132q0 81 58 121t192 53l11 1v15
q0 59 -9 76q-16 29 -64 29q-76 0 -161 -62zM315 72v156q-95 -8 -134.5 -29.5t-39.5 -67.5q0 -65 79 -65q32 0 95 6z" />
    <glyph glyph-name="Cacute" horiz-adv-x="710" 
d="M356 795l200 191l85 -21l-223 -189zM650 127v-94q-97 -44 -211 -44q-173 0 -275.5 98.5t-102.5 265.5q0 169 105.5 271t279.5 102q105 0 204 -43v-94q-91 54 -198 54q-133 0 -210.5 -76.5t-77.5 -208.5t77.5 -209t211.5 -77q105 0 197 55z" />
    <glyph glyph-name="cacute" horiz-adv-x="462" 
d="M229 564l157 198l81 -9l-178 -199zM423 465v-84q-52 37 -114 37q-76 0 -120 -47.5t-44 -130.5t43 -129t120 -46q60 0 121 42v-83q-62 -34 -135 -34q-111 0 -176.5 66t-65.5 178q0 116 69 187.5t181 71.5q62 0 121 -28z" />
    <glyph glyph-name="Ccaron" horiz-adv-x="710" 
d="M237 976l68 10l131 -150l130 150l61 -10l-167 -207h-57zM650 127v-94q-97 -44 -211 -44q-173 0 -275.5 98.5t-102.5 265.5q0 169 105.5 271t279.5 102q105 0 204 -43v-94q-91 54 -198 54q-133 0 -210.5 -76.5t-77.5 -208.5t77.5 -209t211.5 -77q105 0 197 55z" />
    <glyph glyph-name="ccaron" horiz-adv-x="460" 
d="M131 740l56 10l109 -132l108 132l50 -9l-138 -189h-47zM423 465v-84q-52 37 -114 37q-76 0 -120 -47.5t-44 -130.5t43 -129t120 -46q60 0 121 42v-83q-62 -34 -135 -34q-111 0 -176.5 66t-65.5 178q0 116 69 187.5t181 71.5q62 0 121 -28z" />
    <glyph glyph-name="Dcaron" horiz-adv-x="763" 
d="M147 976l68 10l131 -150l130 150l61 -10l-167 -207h-57zM93 2v709l20 1q98 7 168 7q203 0 306 -80q116 -91 116 -272q0 -189 -126 -287q-110 -84 -311 -84q-59 0 -126 3q-2 0 -18 1t-29 2zM192 632v-549q37 -4 85 -4q159 0 240 68q83 72 83 214q0 129 -73 199
q-77 76 -237 76q-42 0 -98 -4z" />
    <glyph glyph-name="dcaron" horiz-adv-x="725" 
d="M572 521l70 229h81l-95 -229h-56zM387 482v268h93v-736q-95 -21 -174 -21q-124 0 -189 61.5t-65 177.5q0 119 70 189.5t188 70.5q40 0 77 -10zM387 77v329q-33 11 -72 11q-80 0 -125 -47t-45 -131q0 -83 42 -127t121 -44q42 0 79 9z" />
    <glyph glyph-name="Dcroat" horiz-adv-x="799" 
d="M-4 337v65h132v309l20 1q98 7 167 7q203 0 306 -80q117 -92 117 -271q0 -190 -127 -288q-110 -84 -310 -84q-59 0 -126 3q-2 0 -18 1t-29 2v335h-132zM227 632v-230h165v-65h-165v-254q37 -4 85 -4q159 0 240 68q83 72 83 214q0 129 -73 199q-77 76 -236 76q-42 0 -99 -4
z" />
    <glyph glyph-name="dcroat" horiz-adv-x="569" 
d="M256 583v53h129v114h93v-114h104v-53h-104v-569q-94 -21 -173 -21q-123 0 -188 61.5t-65 177.5q0 118 70 189t187 71q39 0 76 -10v101h-129zM385 77v329q-33 11 -71 11q-80 0 -124.5 -47t-44.5 -131q0 -82 42 -126.5t120 -44.5q41 0 78 9z" />
    <glyph glyph-name="Emacron" horiz-adv-x="574" 
d="M93 827v59h413v-59h-413zM93 0v712h413v-83h-314v-217h303v-83h-303v-246h322v-83h-421z" />
    <glyph glyph-name="emacron" horiz-adv-x="527" 
d="M102 611v53h366v-53h-366zM485 234h-344q0 -12 -2 -15q0 -73 43 -114t119 -41q88 0 160 57v-82q-74 -50 -170 -50q-113 0 -176 64t-63 178q0 118 63.5 190.5t166.5 72.5q115 0 169 -85q34 -50 34 -152v-23zM150 305h244q-11 114 -113 114q-52 0 -86 -30t-45 -84z" />
    <glyph glyph-name="Edotaccent" horiz-adv-x="574" 
d="M264 794v107h107v-107h-107zM93 0v712h413v-83h-314v-217h303v-83h-303v-246h322v-83h-421z" />
    <glyph glyph-name="edotaccent" horiz-adv-x="527" 
d="M239 583v107h99v-107h-99zM485 234h-344q0 -12 -2 -15q0 -73 43 -114t119 -41q88 0 160 57v-82q-74 -50 -170 -50q-113 0 -176 64t-63 178q0 118 63.5 190.5t166.5 72.5q115 0 169 -85q34 -50 34 -152v-23zM150 305h244q-11 114 -113 114q-52 0 -86 -30t-45 -84z" />
    <glyph glyph-name="Eogonek" horiz-adv-x="574" 
d="M93 0v714h413v-83h-314v-219h303v-83h-303v-246h322v-83q-64 -7 -108.5 -51t-44.5 -100q0 -25 13.5 -40t35.5 -15q35 0 69 41l11 -46q-52 -55 -116 -55q-43 0 -69 25.5t-26 67.5q0 100 126 173h-312z" />
    <glyph glyph-name="eogonek" horiz-adv-x="527" 
d="M485 234h-344q0 -12 -2 -15q0 -72 43 -113t119 -41q87 0 160 55v-82q-17 -12 -71 -38q-48 -21 -69 -42q-37 -37 -37 -86q0 -23 12.5 -36.5t32.5 -13.5q31 0 60 38l10 -42q-46 -49 -105 -49q-38 0 -62 23.5t-24 60.5q0 77 84 135q-116 2 -178 65t-62 178q0 118 63.5 190.5
t166.5 72.5q115 0 169 -85q34 -50 34 -152v-23zM150 305h244q-11 121 -113 121q-52 0 -86.5 -31.5t-44.5 -89.5z" />
    <glyph glyph-name="Ecaron" horiz-adv-x="574" 
d="M117 975l68 10l131 -150l131 150l60 -9l-166 -208h-57zM93 0v712h413v-83h-314v-217h303v-83h-303v-246h322v-83h-421z" />
    <glyph glyph-name="ecaron" horiz-adv-x="527" 
d="M126 740l56 9l109 -131l108 131l50 -9l-138 -189h-47zM485 234h-344q0 -12 -2 -15q0 -73 43 -114t119 -41q88 0 160 57v-82q-74 -50 -170 -50q-113 0 -176 64t-63 178q0 118 63.5 190.5t166.5 72.5q115 0 169 -85q34 -50 34 -152v-23zM150 305h244q-11 114 -113 114
q-52 0 -86 -30t-45 -84z" />
    <glyph glyph-name="Gbreve" horiz-adv-x="755" 
d="M271 955h57q1 -42 15 -62q29 -44 100 -44q57 0 85.5 25.5t29.5 80.5h56q-1 -90 -42.5 -132t-129.5 -42t-129 42t-42 132zM424 256v83h248v-318q-123 -30 -224 -30q-167 0 -264 79q-58 47 -90.5 121.5t-32.5 162.5q0 167 109.5 269.5t287.5 102.5q109 0 212 -43v-94
q-97 54 -208 54q-138 0 -218 -77t-80 -210q0 -135 80 -210q75 -72 214 -72q53 0 121 11v171h-155z" />
    <glyph glyph-name="gbreve" horiz-adv-x="563" 
d="M162 722h49q1 -39 13 -57q25 -40 85 -40q95 0 99 97h47q-1 -53 -12 -81q-31 -76 -134 -76q-76 0 -110.5 37.5t-36.5 119.5zM62 -219v96q80 -50 157 -50q112 0 139 92q10 31 10 91q0 3 2 4q-46 -20 -98 -20q-101 0 -161.5 63t-60.5 167q0 125 82.5 195t230.5 70
q80 0 180 -19v-73q-61 10 -88 13v-18l2 -76l2 -97q2 -108 2 -134q0 -98 -8 -148t-30 -87q-29 -50 -83 -78t-121 -28q-74 0 -157 37zM366 414h-6h-13q-98 0 -151 -48t-53 -137q0 -76 39 -118t108 -42q39 0 80 14v15v56q0 7 -0.5 33.5t-0.5 46.5l-2 96l-1 68v16z" />
    <glyph glyph-name="Gcommaaccent" horiz-adv-x="755" 
d="M345 -264l68 200h90l-83 -200h-75zM424 256v83h248v-318q-117 -30 -224 -30q-168 0 -264 78q-59 48 -91 122t-32 162q0 167 109.5 270t287.5 103q107 0 212 -44v-93q-99 54 -208 54q-138 0 -218 -77.5t-80 -210.5q0 -135 80 -210q74 -71 214 -71q62 0 121 11v171h-155z
" />
    <glyph glyph-name="gcommaaccent" horiz-adv-x="563" 
d="M271 561l73 176h67l-60 -176h-80zM62 -219v96q80 -50 157 -50q112 0 139 92q10 31 10 91q0 3 2 4q-46 -20 -98 -20q-101 0 -161.5 63t-60.5 167q0 125 82.5 195t230.5 70q80 0 180 -19v-73q-61 10 -88 13v-18l2 -76l2 -97q2 -108 2 -134q0 -98 -8 -148t-30 -87
q-29 -50 -83 -78t-121 -28q-74 0 -157 37zM366 414h-6h-13q-98 0 -151 -48t-53 -137q0 -76 39 -118t108 -42q39 0 80 14v15v56q0 7 -0.5 33.5t-0.5 46.5l-2 96l-1 68v16z" />
    <glyph glyph-name="Imacron" horiz-adv-x="299" 
d="M4 825v59h294v-59h-294zM100 0v714h99v-714h-99z" />
    <glyph glyph-name="imacron" horiz-adv-x="262" 
d="M-4 610v53h270v-53h-270zM85 0v486h93v-486h-93z" />
    <glyph glyph-name="Iogonek" horiz-adv-x="285" 
d="M93 0v714h99v-714q-99 -61 -99 -148q0 -28 13.5 -43.5t36.5 -15.5q35 0 70 41l11 -46q-52 -55 -118 -55q-44 0 -69.5 25.5t-25.5 69.5q0 82 113 172h-31z" />
    <glyph glyph-name="iogonek" horiz-adv-x="261" 
d="M82 593v97h99v-97h-99zM85 0v486h93v-486q-81 -58 -81 -121q0 -23 12 -36.5t33 -13.5q32 0 62 31l10 -42q-48 -49 -108 -49q-38 0 -61.5 23t-23.5 61q0 81 100 147h-36z" />
    <glyph glyph-name="Idotaccent" horiz-adv-x="285" 
d="M91 793v107h107v-107h-107zM94 0v714h99v-714h-99z" />
    <glyph glyph-name="dotlessi" horiz-adv-x="261" 
d="M85 0v486h93v-486h-93z" />
    <glyph glyph-name="Kcommaaccent" horiz-adv-x="652" 
d="M229 -264l67 200h91l-83 -200h-75zM93 0v714h99v-327l16 15q82 81 172 177q65 70 120 135h118q-119 -138 -290 -306l-30 -30l20 -23q106 -124 206 -229q56 -59 127 -126h-142q-140 142 -298 341l-19 24v-365h-99z" />
    <glyph glyph-name="kcommaaccent" horiz-adv-x="534" 
d="M190 -240l60 176h80l-74 -176h-66zM85 0v750h93v-471q110 91 219 207h111q-105 -110 -216 -204l-16 -14l14 -16q124 -141 236 -242l12 -10h-128q-87 81 -215 234l-17 20v-254h-93z" />
    <glyph glyph-name="Lacute" horiz-adv-x="549" 
d="M113 794l201 191l84 -21l-223 -189zM93 0v714h99v-631h322v-83h-421z" />
    <glyph glyph-name="lacute" horiz-adv-x="269" 
d="M76 816l158 199l80 -9l-178 -200zM89 0v750h93v-750h-93z" />
    <glyph glyph-name="Lcommaaccent" horiz-adv-x="549" 
d="M207 -264l68 200h90l-83 -200h-75zM93 0v714h99v-631h322v-83h-421z" />
    <glyph glyph-name="lcommaaccent" horiz-adv-x="268" 
d="M45 -240l60 176h80l-74 -176h-66zM88 0v750h93v-750h-93z" />
    <glyph glyph-name="Lcaron" horiz-adv-x="556" 
d="M344 505l74 245h87l-101 -245h-60zM93 0v714h99v-631h322v-83h-421z" />
    <glyph glyph-name="lcaron" horiz-adv-x="426" 
d="M273 521l70 229h81l-94 -229h-57zM88 0v750h93v-750h-93z" />
    <glyph glyph-name="Lslash" horiz-adv-x="579" 
d="M-14 338l137 69v307h99v-263l151 76l26 -59l-177 -91v-294h322v-83h-421v333l-111 -54z" />
    <glyph glyph-name="lslash" horiz-adv-x="283" 
d="M-11 358l111 83v309h93v-247l93 69l27 -43l-120 -90v-439h-93v377l-84 -63z" />
    <glyph glyph-name="Nacute" horiz-adv-x="783" 
d="M328 795l200 191l84 -22l-222 -189zM93 0v714h96q31 0 47 -24l314 -492q27 -42 59 -130q-12 78 -12 139v507h93v-714h-97q-31 0 -46 24l-314 493q-29 46 -59 129q12 -78 12 -139v-507h-93z" />
    <glyph glyph-name="nacute" horiz-adv-x="562" 
d="M222 564l158 198l80 -9l-178 -199zM85 0v460q108 33 208 33q107 0 153 -48q37 -40 37 -128v-317h-93v306q0 61 -25 86.5t-86 25.5q-49 0 -101 -17v-401h-93z" />
    <glyph glyph-name="Ncommaaccent" horiz-adv-x="783" 
d="M303 -264l67 200h91l-83 -200h-75zM93 0v714h96q31 0 47 -24l314 -492q27 -42 59 -130q-12 78 -12 139v507h93v-714h-97q-31 0 -46 24l-314 493q-29 46 -59 129q12 -78 12 -139v-507h-93z" />
    <glyph glyph-name="ncommaaccent" horiz-adv-x="562" 
d="M202 -240l59 176h80l-73 -176h-66zM85 0v460q108 33 208 33q107 0 153 -48q37 -40 37 -129v-316h-93v306q0 62 -25 87t-86 25q-49 0 -101 -17v-401h-93z" />
    <glyph glyph-name="Ncaron" horiz-adv-x="783" 
d="M213 976l67 10l131 -150l131 150l61 -10l-167 -207h-57zM93 0v714h96q31 0 47 -24l314 -492q27 -42 59 -130q-12 78 -12 139v507h93v-714h-97q-31 0 -46 24l-314 493q-29 46 -59 129q12 -78 12 -139v-507h-93z" />
    <glyph glyph-name="ncaron" horiz-adv-x="562" 
d="M121 740l56 9l109 -131l108 131l50 -9l-138 -189h-47zM85 0v460q108 33 208 33q107 0 153 -48q37 -40 37 -128v-317h-93v306q0 61 -25 86.5t-86 25.5q-49 0 -101 -17v-401h-93z" />
    <glyph glyph-name="Omacron" horiz-adv-x="816" 
d="M212 827v59h413v-59h-413zM61 349q0 172 96 275.5t256 103.5q157 0 249.5 -99.5t92.5 -268.5q0 -172 -95.5 -274t-256.5 -102q-156 0 -249 99.5t-93 265.5zM164 356q0 -135 65 -212t180 -77q113 0 178 77t65 211q0 136 -64 213t-177 77q-115 0 -181 -77.5t-66 -211.5z
" />
    <glyph glyph-name="omacron" horiz-adv-x="566" 
d="M106 612v53h366v-53h-366zM52 237q0 119 63 188.5t171 69.5q106 0 167 -67t61 -183q0 -119 -63 -188.5t-171 -69.5q-106 0 -167 67t-61 183zM145 241q0 -86 35.5 -132.5t102.5 -46.5t102.5 46.5t35.5 132.5t-35.5 132.5t-102.5 46.5t-102.5 -46.5t-35.5 -132.5z" />
    <glyph glyph-name="Ohungarumlaut" horiz-adv-x="816" 
d="M273 793l205 192l76 -19l-225 -191zM441 793l205 192l77 -19l-225 -191zM61 349q0 172 96 275.5t256 103.5q157 0 249.5 -99.5t92.5 -268.5q0 -172 -95.5 -274t-256.5 -102q-156 0 -249 99.5t-93 265.5zM164 356q0 -135 65 -212t180 -77q113 0 178 77t65 211
q0 136 -64 213t-177 77q-115 0 -181 -77.5t-66 -211.5z" />
    <glyph glyph-name="ohungarumlaut" horiz-adv-x="566" 
d="M173 564l155 194l73 -8l-175 -195zM311 564l154 194l73 -8l-174 -195zM52 237q0 119 63 188.5t171 69.5q106 0 167 -67t61 -183q0 -119 -63 -188.5t-171 -69.5q-106 0 -167 67t-61 183zM145 241q0 -86 35.5 -132.5t102.5 -46.5t102.5 46.5t35.5 132.5t-35.5 132.5
t-102.5 46.5t-102.5 -46.5t-35.5 -132.5z" />
    <glyph glyph-name="Racute" horiz-adv-x="671" 
d="M233 795l201 191l84 -22l-223 -189zM93 0v710l15 1q77 6 164 6q132 0 197 -44q80 -52 80 -158q0 -97 -68 -151q-29 -23 -86 -41l12 -16q77 -100 178 -220q9 -10 30 -34t30 -34l21 -21h-134q-21 24 -38 45q-35 42 -97 122q-6 8 -23 31.5t-28 37.5q-19 26 -43 58l-9 13
q-10 0 -23 -0.5t-16 -0.5q-7 0 -47 2h-16v-306h-99zM192 635v-251h18q20 -5 51 -5q86 0 125 23q60 34 60 108q0 132 -173 132q-43 0 -81 -7z" />
    <glyph glyph-name="racute" horiz-adv-x="383" 
d="M146 564l158 198l80 -9l-178 -199zM85 0v455q92 38 190 38q44 0 84 -13v-78q-39 16 -80 16q-50 0 -101 -22v-396h-93z" />
    <glyph glyph-name="Rcommaaccent" horiz-adv-x="671" 
d="M221 -264l68 200h91l-84 -200h-75zM93 0v710l15 1q89 7 164 7q130 0 197 -45q80 -52 80 -158q0 -95 -68 -151q-33 -24 -86 -41l12 -16q81 -106 178 -219q42 -49 60 -68q9 -10 21 -22h-134q-21 24 -38 45q-35 42 -97 122q-6 8 -23 31.5t-28 37.5q-41 56 -43 59l-9 12h-39
q-27 0 -47 1h-16v-306h-99zM192 635v-251h18q20 -4 51 -4q83 0 125 23q60 34 60 109q0 131 -173 131q-30 0 -81 -8z" />
    <glyph glyph-name="rcommaaccent" horiz-adv-x="382" 
d="M106 -240l60 176h80l-74 -176h-66zM85 0v454q90 39 190 39q45 0 84 -14v-77q-39 16 -80 16q-50 0 -101 -22v-396h-93z" />
    <glyph glyph-name="Rcaron" horiz-adv-x="671" 
d="M105 975l68 11l131 -150l130 150l61 -10l-167 -208h-57zM93 0v710l15 1q77 6 164 6q132 0 197 -44q80 -52 80 -158q0 -97 -68 -151q-29 -23 -86 -41l12 -16q77 -100 178 -220q9 -10 30 -34t30 -34l21 -21h-134q-21 24 -38 45q-35 42 -97 122q-6 8 -23 31.5t-28 37.5
q-19 26 -43 58l-9 13q-10 0 -23 -0.5t-16 -0.5q-7 0 -47 2h-16v-306h-99zM192 635v-251h18q20 -5 51 -5q86 0 125 23q60 34 60 108q0 132 -173 132q-43 0 -81 -7z" />
    <glyph glyph-name="rcaron" horiz-adv-x="382" 
d="M62 740l54 9l104 -131l105 131l48 -9l-133 -189h-45zM84 0v455q92 38 189 38q45 0 85 -13v-78q-39 16 -81 16q-50 0 -100 -22v-396h-93z" />
    <glyph glyph-name="Sacute" horiz-adv-x="558" 
d="M210 795l200 191l84 -22l-222 -189zM63 32v107q95 -70 185 -70q64 0 102.5 29.5t38.5 79.5q0 46 -28.5 75.5t-106.5 67.5q-94 46 -132 81q-52 49 -52 126q0 88 65.5 143t171.5 55q90 0 170 -42v-98q-82 57 -164 57q-64 0 -102 -28.5t-38 -76.5t45 -83q28 -21 94 -52
q94 -46 131 -86q49 -49 49 -127q0 -93 -66.5 -148.5t-178.5 -55.5q-92 0 -184 46z" />
    <glyph glyph-name="sacute" horiz-adv-x="413" 
d="M151 564l157 198l81 -8l-178 -200zM58 15v92q53 -46 124 -46q41 0 65 17t24 45q0 34 -35 58q-14 10 -65 34q-63 31 -88 61t-25 76q0 64 47.5 103t124.5 39q62 0 119 -27v-85q-53 37 -112 37q-39 0 -62.5 -16.5t-23.5 -43.5q0 -24 16 -38.5t68 -39.5q67 -32 92 -59
q37 -36 37 -92q0 -65 -49 -104.5t-130 -39.5q-62 0 -127 29z" />
    <glyph glyph-name="Scedilla" horiz-adv-x="559" 
d="M63 32v106q95 -67 185 -67q65 0 103 29.5t38 79.5q0 44 -28.5 74.5t-106.5 67.5q-94 46 -132 81q-52 49 -52 126q0 88 65.5 142.5t171.5 54.5q87 0 170 -42v-98q-82 57 -164 57q-64 0 -102 -28.5t-38 -76.5q0 -49 45 -83q27 -20 94 -53q93 -44 131 -84q49 -52 49 -128
q0 -78 -45.5 -129t-131.5 -69l-40 -53q99 -20 99 -104q0 -49 -38.5 -79.5t-100.5 -30.5q-29 0 -63 10v52q26 -15 58 -15q31 0 49.5 15.5t18.5 41.5q0 63 -112 72l69 85h-11q-90 0 -181 46z" />
    <glyph glyph-name="scedilla" horiz-adv-x="412" 
d="M58 15v91q55 -46 124 -46q41 0 65 17t24 45q0 34 -35 58q-14 10 -65 34q-63 31 -88 61t-25 76q0 64 47.5 103.5t124.5 39.5q60 0 119 -28v-85q-51 38 -112 38q-39 0 -62.5 -16.5t-23.5 -43.5q0 -24 16 -39t68 -39q67 -31 92 -58q37 -37 37 -94q0 -51 -31.5 -87.5
t-86.5 -49.5l-38 -49q91 -19 91 -95q0 -44 -35.5 -72.5t-92.5 -28.5q-27 0 -57 9v48q26 -10 53 -10q29 0 45.5 13.5t16.5 37.5q0 56 -102 63l63 77q-68 0 -132 30z" />
    <glyph glyph-name="Tcommaaccent" horiz-adv-x="634" 
d="M222 -264l67 200h91l-83 -200h-75zM268 0v631h-241v83h580v-83h-240v-631h-99z" />
    <glyph glyph-name="tcommaaccent" horiz-adv-x="335" 
d="M99 -240l59 176h80l-73 -176h-66zM27 401v71h81v130h83v-130h113v-71h-113v-251q0 -51 14 -68.5t54 -17.5q13 0 35 6v-67q-29 -7 -65 -7q-76 0 -105 41q-13 16 -16.5 36t-3.5 71v257h-77z" />
    <glyph glyph-name="Tcaron" horiz-adv-x="634" 
d="M126 976l67 10l131 -150l131 150l61 -10l-167 -207h-57zM268 0v631h-241v83h580v-83h-240v-631h-99z" />
    <glyph glyph-name="tcaron" horiz-adv-x="421" 
d="M273 539l64 211h82l-87 -211h-59zM27 401v71h81v129h83v-129h113v-71h-113v-252q0 -51 13.5 -68t54.5 -17q13 0 35 6v-67q-29 -7 -65 -7q-76 0 -105 41q-13 16 -16.5 36t-3.5 71v257h-77z" />
    <glyph glyph-name="Umacron" horiz-adv-x="736" 
d="M171 827v59h412v-59h-412zM85 714h99v-437q0 -107 37 -151q46 -55 147 -55q110 0 155 66q29 43 29 140v437h99v-450q0 -126 -59 -194q-73 -82 -225 -82q-154 0 -224 82q-58 65 -58 194v450z" />
    <glyph glyph-name="umacron" horiz-adv-x="558" 
d="M96 612v53h366v-53h-366zM79 486h93v-299q0 -66 25.5 -92t91.5 -26q46 0 91 9v408h93v-471q-112 -21 -196 -21q-107 0 -153 43q-25 22 -35 54t-10 89v306z" />
    <glyph glyph-name="Uring" horiz-adv-x="736" 
d="M254 868q0 51 36 87t87 36t87.5 -36t36.5 -87t-36.5 -87.5t-87.5 -36.5t-87 36.5t-36 87.5zM305 868q0 -32 20.5 -54.5t49.5 -22.5q28 0 48.5 22.5t20.5 54.5q0 31 -20 53.5t-49 22.5t-49.5 -22t-20.5 -54zM85 714h99v-437q0 -107 37 -151q46 -55 147 -55q110 0 155 66
q29 43 29 140v437h99v-450q0 -126 -59 -194q-73 -82 -225 -82q-154 0 -224 82q-58 65 -58 194v450z" />
    <glyph glyph-name="uring" horiz-adv-x="558" 
d="M173 654q0 46 32.5 78.5t78.5 32.5t78.5 -32.5t32.5 -78.5t-32.5 -79t-78.5 -33t-78.5 32.5t-32.5 79.5zM224 653q0 -26 17.5 -45t42.5 -19t42.5 19t17.5 45q0 27 -17.5 46t-42.5 19t-42.5 -19t-17.5 -46zM79 486h93v-299q0 -66 25.5 -92t91.5 -26q46 0 91 9v408h93v-471
q-112 -21 -196 -21q-107 0 -153 43q-25 22 -35 54t-10 89v306z" />
    <glyph glyph-name="Uhungarumlaut" horiz-adv-x="735" 
d="M221 793l205 193l76 -20l-224 -190zM390 793l205 193l76 -20l-225 -190zM85 714h99v-437q0 -107 37 -151q46 -55 147 -55q110 0 155 66q29 43 29 140v437h99v-450q0 -126 -59 -194q-73 -82 -225 -82q-154 0 -224 82q-58 65 -58 194v450z" />
    <glyph glyph-name="uhungarumlaut" horiz-adv-x="557" 
d="M160 564l155 194l73 -8l-175 -195zM297 564l155 194l73 -8l-174 -195zM79 486h93v-299q0 -66 25.5 -92t91.5 -26q46 0 91 9v408h93v-471q-112 -21 -196 -21q-107 0 -153 43q-25 22 -35 54t-10 89v306z" />
    <glyph glyph-name="Uogonek" horiz-adv-x="736" 
d="M85 714h99v-437q0 -107 37 -151q46 -55 147 -55q110 0 155 66q29 43 29 140v437h99v-450q0 -97 -31.5 -155.5t-101.5 -90.5l-60 -29q-49 -24 -75.5 -60.5t-26.5 -79.5q0 -26 13.5 -41t35.5 -15q34 0 68 41l11 -46q-52 -55 -117 -55q-42 0 -67.5 25.5t-25.5 67.5
q0 94 106 162h-15q-152 0 -222 82q-58 65 -58 194v450z" />
    <glyph glyph-name="uogonek" horiz-adv-x="558" 
d="M79 486h93v-300q0 -66 25.5 -92t91.5 -26q41 0 91 10v408h93v-471q-64 -14 -103.5 -51.5t-39.5 -85.5q0 -23 12 -36t33 -13q33 0 65 31l11 -42q-49 -49 -107 -49q-38 0 -61 23t-23 61q0 81 94 144q-45 -4 -78 -4q-106 0 -152 43q-25 22 -35 54t-10 89v307z" />
    <glyph glyph-name="Zacute" horiz-adv-x="645" 
d="M282 795l200 191l84 -22l-222 -189zM74 629v83h519q3 -19 3 -40q0 -44 -31 -88.5t-182 -217.5l-74 -84q-71 -82 -124 -147q-28 -38 -33 -45h444v-88h-553q-3 30 -3 42q0 44 31.5 89t181.5 219l75 85q68 77 124 147q22 28 33 45h-411z" />
    <glyph glyph-name="zacute" horiz-adv-x="486" 
d="M195 563l158 199l80 -9l-178 -199zM71 411v71h369q3 -18 3 -27q0 -36 -24.5 -70t-132.5 -147q-60 -62 -108 -116q-18 -21 -33 -43h294v-77h-394q-2 26 -2 28q0 42 28 86q22 30 46 57q62 67 66 71q108 118 118 129q11 12 33 38h-263z" />
    <glyph glyph-name="Zdotaccent" horiz-adv-x="645" 
d="M296 795v107h107v-107h-107zM74 629v83h519q3 -19 3 -40q0 -44 -31 -88.5t-182 -217.5l-74 -84q-71 -82 -124 -147q-28 -38 -33 -45h444v-88h-553q-3 30 -3 42q0 44 31.5 89t181.5 219l75 85q68 77 124 147q22 28 33 45h-411z" />
    <glyph glyph-name="zdotaccent" horiz-adv-x="486" 
d="M217 583v107h99v-107h-99zM71 411v71h369q3 -18 3 -27q0 -36 -24.5 -70t-132.5 -147q-60 -62 -108 -116q-18 -21 -33 -43h294v-77h-394q-2 26 -2 28q0 42 28 86q22 30 46 57q62 67 66 71q108 118 118 129q11 12 33 38h-263z" />
    <glyph glyph-name="Zcaron" horiz-adv-x="645" 
d="M151 975l68 11l131 -150l131 150l60 -10l-167 -208h-56zM74 629v83h519q3 -19 3 -40q0 -44 -31 -88.5t-182 -217.5l-74 -84q-71 -82 -124 -147q-28 -38 -33 -45h444v-88h-553q-3 30 -3 42q0 44 31.5 89t181.5 219l75 85q68 77 124 147q22 28 33 45h-411z" />
    <glyph glyph-name="zcaron" horiz-adv-x="486" 
d="M100 740l57 9l108 -131l109 131l50 -9l-139 -189h-47zM71 411v71h369q3 -18 3 -27q0 -36 -24.5 -70t-132.5 -147q-60 -62 -108 -116q-18 -21 -33 -43h294v-77h-394q-2 26 -2 28q0 42 28 86q22 30 46 57q62 67 66 71q108 118 118 129q11 12 33 38h-263z" />
    <glyph glyph-name="caron" horiz-adv-x="500" 
d="M88 740l57 10l108 -132l109 132l50 -9l-139 -189h-47z" />
    <glyph glyph-name="breve" horiz-adv-x="500" 
d="M103 722h49q1 -39 13 -56q24 -41 85 -41q95 0 99 97h47q-1 -53 -12 -81q-31 -76 -134 -76q-76 0 -111 37.5t-36 119.5z" />
    <glyph glyph-name="dotaccent" horiz-adv-x="500" 
d="M200 584v107h99v-107h-99z" />
    <glyph glyph-name="ring" horiz-adv-x="500" 
d="M138 653q0 46 32.5 79t78.5 33q47 0 79.5 -32.5t32.5 -79.5q0 -46 -33 -78.5t-79 -32.5t-78.5 32.5t-32.5 78.5zM189 653q0 -26 17.5 -45t42.5 -19t43 19t18 45q0 27 -18 46t-43 19t-42.5 -19t-17.5 -46z" />
    <glyph glyph-name="ogonek" horiz-adv-x="500" 
d="M275 19l72 -3q-117 -57 -117 -138q0 -23 12 -36t32 -13q29 0 62 30l10 -40q-47 -50 -105 -50q-39 0 -63 23.5t-24 67.5q0 90 121 159z" />
    <glyph glyph-name="hungarumlaut" horiz-adv-x="500" 
d="M67 564l155 194l73 -8l-174 -195zM205 564l155 194l72 -8l-174 -195z" />
    <glyph glyph-name="anoteleia" horiz-adv-x="200" 
d="M42 302v115h114v-115h-114z" />
    <glyph glyph-name="pi" horiz-adv-x="549" 
d="M488 136h18q0 -65 -31 -106t-73 -41q-35 0 -54.5 28t-19.5 76l18 256h-131l-22 -174q-16 -126 -29 -156q-15 -32 -45 -32q-25 0 -38.5 12t-13.5 31q0 17 10.5 32t23.5 25.5t26.5 33.5t18.5 54l27 174h-54q-22 0 -44 -14t-33 -42h-15l3 9q2 9 4.5 15.5t7 18.5t10 20.5
t13 20t17 19.5t21 15.5t26.5 11t32 3.5h338v-77h-111q-9 -148 -9 -172q0 -50 11.5 -77.5t46.5 -27.5q20 0 35.5 20t15.5 44z" />
    <glyph glyph-name="figuredash" horiz-adv-x="500" 
d="M0 256v83h500v-83h-500z" />
    <glyph glyph-name="afii00208" horiz-adv-x="1000" 
d="M0 256v83h1000v-83h-1000z" />
    <glyph glyph-name="fraction" horiz-adv-x="187" 
d="M-185 -33l490 797l67 -17l-490 -797z" />
    <glyph glyph-name="Omega" horiz-adv-x="768" 
d="M736 0h-295l16 139q28 11 52 28.5t48.5 48t38.5 79t14 109.5q0 115 -57 191t-168 76q-114 0 -169.5 -73.5t-55.5 -193.5q0 -117 46.5 -181t106.5 -84l16 -139h-295v149h25q9 -37 22 -49t44 -12h148l-2 28q-102 23 -158 106.5t-56 181.5q0 136 92 217.5t236 81.5
q149 0 238.5 -81t89.5 -218q0 -64 -20 -121t-70 -104t-124 -63l-3 -28h149q31 0 44 12t22 49h25v-149z" />
    <glyph glyph-name="partialdiff" horiz-adv-x="494" 
d="M104 627l-39 50q56 28 134 28q125 0 194 -89.5t69 -222.5q0 -107 -25.5 -196.5t-85 -150.5t-144.5 -61q-76 0 -121 47t-45 143q0 132 58.5 197.5t141.5 65.5q51 0 80 -14t61 -49q4 32 4 75q0 104 -39.5 156t-130.5 52q-17 0 -31.5 -1.5t-23.5 -3.5t-19.5 -6t-14 -6
t-13 -7.5t-10.5 -6.5zM377 335q-16 17 -25.5 25.5t-34 19.5t-52.5 11q-70 0 -106 -58t-36 -159q0 -86 22.5 -121.5t69.5 -35.5q137 0 162 318z" />
    <glyph glyph-name="Delta" horiz-adv-x="612" 
d="M608 0h-602l320 685zM484 46l-194 468l-218 -468h412z" />
    <glyph glyph-name="product" horiz-adv-x="823" 
d="M803 -101h-306v23q48 0 71.5 16t23.5 65v695h-356v-695q0 -49 23.5 -65t72.5 -16v-23h-307v23q50 0 73.5 16t23.5 65v628q0 98 -95 98v22h773v-22q-94 0 -94 -98v-628q0 -49 23.5 -65t73.5 -16v-23z" />
    <glyph glyph-name="summation" horiz-adv-x="713" 
d="M672 119h23q-30 -120 -43 -221q-72 11 -77 11h-503q-10 0 -29 -1.5t-29 -1.5l349 396l-347 456q8 0 46 -3.5t58 -3.5h497l6 -160h-20q-1 5 -4 13q-8 28 -14 41.5t-21.5 30t-43 23t-70.5 6.5h-263l273 -359l-294 -340h371q51 0 80 24t55 89z" />
    <glyph glyph-name="radical" horiz-adv-x="549" 
d="M515 912l-150 -950l-243 502l-96 -47l-16 33l146 72l197 -403l127 798z" />
    <glyph glyph-name="infinity" horiz-adv-x="713" 
d="M687 269q0 -62 -39 -103.5t-96 -41.5q-48 0 -86.5 22t-108.5 85q-62 -59 -104 -82.5t-99 -23.5q-58 0 -92.5 35.5t-34.5 98.5q0 62 39 103.5t96 41.5q48 0 86.5 -22t108.5 -85q63 59 104.5 82.5t98.5 23.5q58 0 92.5 -35.5t34.5 -98.5zM636 269q0 44 -26.5 65.5
t-65.5 21.5q-36 0 -68.5 -20t-85.5 -72q60 -50 94 -68.5t64 -18.5q88 0 88 92zM324 264q-60 50 -94 68.5t-64 18.5q-88 0 -88 -92q0 -44 26.5 -65.5t65.5 -21.5q36 0 68.5 20t85.5 72z" />
    <glyph glyph-name="integral" horiz-adv-x="274" 
d="M120 348v144q0 222 26 310q8 27 31 50.5t52 23.5q62 0 62 -54q0 -20 -15 -33t-37 -13q-14 0 -29.5 12.5t-20.5 12.5q-18 0 -18 -24v-6q0 -12 9.5 -130t9.5 -193l-1 -216q-1 -201 -38 -295q-32 -84 -93 -84q-26 0 -42 15t-16 34q0 18 12 34t34 16q23 0 36.5 -12t22.5 -12
q8 0 14.5 27t6.5 66v13q-6 201 -6 272v42z" />
    <glyph glyph-name="approxequal" horiz-adv-x="549" 
d="M449 344l30 -34q-18 -34 -49 -53t-63 -19q-16 0 -33 5l-120 39q-16 5 -34 7q-15 0 -27.5 -4t-21.5 -12t-14 -14t-11.5 -15t-6.5 -10l-36 37q49 71 117 71q24 0 42 -6l121 -38h24q19 0 43 11t39 35zM449 214l30 -34q-18 -34 -49 -52.5t-63 -18.5q-20 0 -33 4l-120 39
q-16 5 -34 7q-15 0 -27.5 -4t-21.5 -12t-14 -14t-11.5 -15t-6.5 -10l-36 37q49 71 117 71q24 0 42 -6l121 -38q7 1 24 1q53 0 82 45z" />
    <glyph glyph-name="notequal" 
d="M71 340v77h265l78 135l52 -31l-61 -104h130v-77h-169l-53 -85h222v-77h-265l-77 -135l-53 30l62 105h-131v77h174l52 85h-226z" />
    <glyph glyph-name="lessequal" 
d="M78 4v71h443v-71h-443zM78 333v73l443 204v-82l-352 -157l352 -157v-85z" />
    <glyph glyph-name="greaterequal" 
d="M85 4v71h443v-71h-443zM85 129v82l352 157l-352 158v84l443 -204v-73z" />
    <glyph glyph-name="lozenge" horiz-adv-x="494" 
d="M466 377l-194 -377h-60l-194 377l194 368h60zM406 377l-164 314l-164 -314l164 -323z" />
    <glyph glyph-name="fi" horiz-adv-x="616" 
d="M438 0v486h93v-486h-93zM437 593v97h99v-97h-99zM36 401v71h77v20q0 80 14.5 127.5t48.5 80.5q56 54 137 54q23 0 47 -5v-73q-25 3 -39 3q-60 0 -87 -42q-28 -39 -28 -143v-22h121v-71h-121v-401h-93v401h-77z" />
    <glyph glyph-name="fl" horiz-adv-x="629" 
d="M448 0v750h93v-750h-93zM36 401v71h77v20q0 80 14.5 127.5t48.5 80.5q56 54 137 54q23 0 47 -5v-73q-25 3 -39 3q-60 0 -87 -42q-28 -39 -28 -143v-22h121v-71h-121v-401h-93v401h-77z" />
    <glyph glyph-name="apple" horiz-adv-x="804" 
d="M586 760h3q11 -30 11 -75q0 -59 -20.5 -91t-70.5 -53q-9 -4 -29 -11.5t-28.5 -11.5t-20.5 -11t-16.5 -15t-4.5 -19q0 -59 29 -59q6 0 15.5 7t31.5 14.5t59 7.5q42 0 69.5 -14.5t39 -42.5t15 -52.5t3.5 -61.5q0 -118 -64 -199.5t-139 -81.5q-29 0 -41.5 8.5t-18.5 8.5
q-5 0 -19.5 -8.5t-48.5 -8.5q-23 0 -55 14.5t-68.5 45t-62 90.5t-25.5 138q0 164 135 164q44 0 71 -13t33 -13q19 0 19 33q0 14 -2.5 39.5t-2.5 41.5q0 100 54 139q17 13 57.5 22.5t66 23.5t25.5 44zM582 709q-7 -16 -20 -30.5t-21 -21t-32 -22t-29 -19.5q-57 -39 -80 -104
q13 25 27.5 42t24 24t29 19.5t31.5 20.5q66 48 70 91zM312 137q-25 51 -25 88q0 21 11 49t11 45q0 41 -30 41q-27 0 -39 -18.5t-12 -42.5q0 -56 84 -162z" />
    </font>
</defs>
</svg>
