<?xml version="1.0" standalone="no"?>
<!DOCTYPE svg PUBLIC "-//W3C//DTD SVG 1.1//EN" "http://www.w3.org/Graphics/SVG/1.1/DTD/svg11.dtd" >
<svg xmlns="http://www.w3.org/2000/svg" xmlns:xlink="http://www.w3.org/1999/xlink" version="1.1">
<metadata></metadata>
<defs>
<font id="plateletthinregular" horiz-adv-x="946" >
<font-face units-per-em="2048" ascent="1507" descent="-541" />
<missing-glyph horiz-adv-x="500" />
<glyph horiz-adv-x="0" />
<glyph unicode="&#xd;" />
<glyph unicode=" " />
<glyph unicode="!" d="M424 39q0 39 45 39h8q45 0 45 -39t-45 -39h-8q-45 0 -45 39zM426 451v856q0 45 45 45q51 0 51 -45v-856q0 -45 -45 -45q-51 0 -51 45z" />
<glyph unicode="&#x22;" d="M309 991v316q0 45 45 45q51 0 52 -45v-316q0 -45 -46 -45q-51 0 -51 45zM541 991v316q0 45 45 45q51 0 51 -45v-316q0 -45 -45 -45q-51 0 -51 45z" />
<glyph unicode="#" d="M166 909q0 39 45 39q88 0 88 90v13q0 90 -88 90q-45 0 -45 39t45 39q88 0 88 88q0 45 39 45t39 -45q0 -88 90 -88h12q90 0 90 88q0 45 39 45t39 -45q0 -88 88 -88q45 0 45 -39t-45 -39q-88 0 -88 -90v-13q0 -90 88 -90q45 0 45 -39t-45 -39q-88 0 -88 -88q0 -45 -39 -45 t-39 45q0 88 -90 88h-12q-90 0 -90 -88q0 -45 -39 -45t-39 45q0 88 -88 88q-45 0 -45 39zM377 1038q0 -90 90 -90h12q90 0 90 90v13q0 90 -90 90h-12q-90 0 -90 -90v-13z" />
<glyph unicode="$" d="M180 170q0 23 13.5 32t29.5 9q18 0 35 -18q39 -51 94.5 -87t120.5 -36q104 0 162 65q49 57 49 139q0 109 -104 156q-35 14 -107 25q-131 0 -208 70.5t-77 185.5q0 82 47.5 144.5t133.5 94.5q55 20 55 72v14q0 45 45 45q51 0 51 -45v-14q0 -49 63.5 -74.5t96.5 -60.5 q14 -14 14 -33q0 -18 -13 -30.5t-32 -12.5q-16 0 -39 16q-29 25 -61.5 38.5t-75.5 13.5q-78 0 -127 -37q-66 -49 -65 -131q0 -96 94 -142q31 -14 96 -26q133 0 215 -64q94 -72 94 -205q0 -106 -52 -176.5t-148 -103.5q-23 -8 -38.5 -26.5t-15.5 -45.5v-12q0 -45 -45 -45 q-51 0 -51 45v12q0 53 -58.5 72.5t-106.5 58.5t-77 86q-8 14 -8 31z" />
<glyph unicode="%" d="M166 1014q0 -82 50 -138.5t132 -56.5q80 0 131 57.5t51 137.5v164q0 80 -51 137t-131 57t-131 -57.5t-51 -136.5v-164zM209 535q0 -8 9 -21.5t26 -13.5q12 0 28 10l441 285q25 16 24 39q0 8 -6 18q-8 14 -26 14q-14 0 -33 -12l-441 -285q-23 -16 -22 -34zM244 1014v164 q0 51 25.5 85.5t78.5 34.5t79 -34.5t26 -85.5v-164q0 -53 -25 -87t-80 -34q-51 0 -77.5 35t-26.5 86zM416 174q0 -82 50 -138t132 -56q80 0 131 57t51 137v164q0 80 -51 137t-131 57t-131 -57t-51 -137v-164zM494 174v164q0 51 25.5 86t78.5 35t78.5 -35t25.5 -86v-164 q0 -53 -24.5 -87t-79.5 -34q-51 0 -77.5 35t-26.5 86z" />
<glyph unicode="&#x26;" d="M166 256q0 74 33 131q18 33 53 68q14 12 14 22t-14 25q-47 47 -64 84q-23 49 -22 104q0 125 70.5 200t169.5 75q61 0 104 -23q31 -16 59 -49q12 -16 13 -33q0 -20 -13.5 -30.5t-31.5 -10.5q-20 0 -35 15q-41 41 -96 40q-59 0 -101.5 -50t-42.5 -134q0 -86 52.5 -132 t181.5 -46h239q45 0 45 -39t-45 -39q-90 0 -90 -90v-88q0 -127 -66.5 -201.5t-172.5 -74.5q-98 0 -166 71q-74 78 -74 205zM262 256q0 -86 43 -136t101 -50q61 0 102 49t41 137v88q0 90 -90 90h-53q-59 0 -101.5 -46t-42.5 -132z" />
<glyph unicode="'" d="M426 991v316q0 45 45 45q51 0 51 -45v-316q0 -45 -45 -45q-51 0 -51 45z" />
<glyph unicode="(" d="M375 29v1024q0 129 81 224t199 95q41 0 41 -43q0 -41 -61.5 -49t-112.5 -73.5t-51 -153.5v-1024q0 -88 51 -153.5t112.5 -74t61.5 -49.5q0 -49 -51 -43q-115 12 -192.5 102.5t-77.5 217.5z" />
<glyph unicode=")" d="M250 -248q0 41 61.5 49.5t112.5 74t51 153.5v1024q0 88 -51 153.5t-112.5 73.5t-61.5 49q0 49 51 43q115 -12 192.5 -102t77.5 -217v-1024q0 -129 -76.5 -224.5t-183.5 -95.5q-61 0 -61 43z" />
<glyph unicode="*" d="M199 1167q0 8 8 21.5t29 13.5q12 0 32 -10l54 -33q39 -23 61 -22q53 0 53 75v95q0 45 37 45t37 -45v-95q0 -76 53 -75q27 0 62 22l53 33q16 10 33 10q20 0 30 -16q8 -12 2 -29.5t-24 -30.5l-76 -47q-45 -29 -45 -65q0 -35 45 -64l78 -49q29 -18 29 -41q-1 -8 -7 -18 q-8 -16 -30 -17q-20 0 -33 11l-55 34q-39 23 -62 23q-53 0 -53 -76v-96q0 -45 -37 -45t-37 45v96q0 76 -53 76q-27 0 -61 -23l-56 -34q-12 -10 -33 -11q-23 0 -30 17q-8 12 -2 29.5t24 29.5l78 49q45 27 45 64q0 39 -45 65l-76 47q-29 18 -28 41z" />
<glyph unicode="+" d="M166 473q0 39 45 39h125q90 0 90 90v133q0 45 45 45q51 0 51 -45v-133q0 -90 90 -90h123q45 0 45 -39t-45 -39h-123q-90 0 -90 -90v-133q0 -45 -45 -45q-51 0 -51 45v133q0 90 -90 90h-125q-45 0 -45 39z" />
<glyph unicode="," d="M250 -252q0 23 11 34t30 17q55 18 95 69.5t40 131.5v33q0 45 45 45q49 0 49 -45v-33q0 -111 -61.5 -190.5t-149.5 -98.5q-59 -14 -59 37z" />
<glyph unicode="-" d="M217 473q0 39 45 39h422q45 0 45 -39t-45 -39h-422q-45 0 -45 39z" />
<glyph unicode="." d="M424 39q0 39 45 39h8q45 0 45 -39t-45 -39h-8q-45 0 -45 39z" />
<glyph unicode="/" d="M166 -236q0 8 4 25l516 1518q16 45 55 45q37 0 37 -35q0 -17 -4 -25l-514 -1517q-16 -45 -55 -45t-39 34z" />
<glyph unicode="0" d="M166 301v344q0 133 85 227.5t222 94.5q135 0 221 -94.5t86 -227.5v-344q0 -133 -85 -227t-222 -94q-135 0 -221 94t-86 227zM262 301q0 -94 57.5 -162.5t153.5 -68.5t153.5 68.5t57.5 162.5v344q0 94 -57.5 163t-153.5 69t-153.5 -69t-57.5 -163v-344z" />
<glyph unicode="1" d="M166 39q0 39 45 39h125q90 0 90 90v465q0 90 -88 90q-23 0 -23 22q0 14 9 29l73 127q25 45 68 45h12q45 0 45 -45v-733q0 -90 88 -90h125q45 0 45 -39t-45 -39h-524q-45 0 -45 39z" />
<glyph unicode="2" d="M166 45q0 160 98 268q80 88 328 236q78 47 78 139q0 76 -47 129q-57 63 -152 64q-68 0 -117 -39q-31 -25 -63 -76q-12 -20 -39 -21q-14 0 -28.5 10.5t-14.5 35.5q0 14 6 26q31 59 92 101q74 49 164 49q135 0 215 -82q74 -76 74 -197q0 -145 -115 -213q-152 -90 -237 -160 q-109 -88 -119 -147q-8 -41 18.5 -65.5t69.5 -24.5h358q45 0 45 -39t-45 -39h-524q-45 0 -45 45z" />
<glyph unicode="3" d="M209 -250q0 20 18 37q10 8 27 8q25 0 37 -20q35 -53 63 -74q49 -37 119 -37q96 0 153.5 68.5t57.5 163.5v219q0 86 -53 145q-63 70 -180 70q-45 0 -45 45v10q0 45 45 45q106 0 169.5 61.5t63.5 153.5q0 94 -57.5 163t-153.5 69q-68 0 -117 -37q-37 -27 -65 -74 q-12 -20 -39 -21q-14 0 -28.5 10.5t-14.5 35.5q0 14 6 26q31 61 90 101q74 49 168 49q135 0 221 -94.5t86 -227.5q0 -68 -24.5 -121t-65.5 -92q-29 -29 -28 -51q0 -25 28 -53q43 -41 66.5 -93.5t23.5 -119.5v-219q0 -133 -85 -227.5t-222 -94.5q-94 0 -164 47 q-59 39 -94 103q-6 12 -6 26z" />
<glyph unicode="4" d="M166 45v41v31q0 10 8 28l244 746q20 55 61 55q43 0 43 -39q0 -10 -2 -16l-235 -713q-6 -23 -6 -39q0 -29 21.5 -45t70.5 -16h100q90 0 90 90v55q0 33 17 72l18 47q12 37 37 37t24 -45v-166q0 -90 78 -90q45 0 45 -39t-45 -39q-78 0 -78 -90v-270q0 -45 -45 -46 q-51 0 -51 46v270q0 90 -90 90h-260q-45 0 -45 45z" />
<glyph unicode="5" d="M166 354v502q0 90 90 90h412q45 0 45 -39t-45 -39h-316q-90 0 -90 -90v-198q0 -55 49 -56q10 0 27.5 8.5t55.5 18.5t79 10q135 0 221 -94t86 -227v-344q0 -133 -85 -227.5t-222 -94.5q-94 0 -166 47q-59 39 -92 103q-6 12 -6 26q0 25 14.5 35t30.5 10q25 0 37 -20 q31 -49 63 -74q49 -37 119 -37q96 0 153.5 68.5t57.5 163.5v344q0 94 -57.5 162.5t-153.5 68.5q-76 0 -131 -47q-43 -37 -62.5 -91t-58.5 -44l-18 4q-37 14 -37 61z" />
<glyph unicode="6" d="M166 301v199q0 147 38 291.5t99 255.5q49 88 115 165q49 59 108 113q31 27 72 27q29 0 29 -23q0 -14 -15 -29q-104 -102 -184 -215q-27 -35 -57.5 -98t-37.5 -91t-7 -38q0 -49 49 -49q8 0 32.5 6t65.5 6q135 0 221 -94t86 -227v-199q0 -133 -85 -227t-222 -94 q-135 0 -221 94t-86 227zM262 301q0 -94 57.5 -162.5t153.5 -68.5t153.5 68.5t57.5 162.5v199q0 94 -57.5 162.5t-153.5 68.5t-153.5 -68.5t-57.5 -162.5v-199z" />
<glyph unicode="7" d="M166 907q0 39 45 39h473q90 0 90 -88q0 -14 -7 -33.5t-17 -40.5q-23 -45 -43 -92q-33 -72 -54 -125q-43 -111 -78.5 -220t-56.5 -212q-49 -240 -49 -430l-2 -65q0 -45 -45 -46q-29 0 -39 13.5t-10 38.5l2 57q0 106 10 187t39 233q39 201 127 418q35 84 65.5 152.5t41 92 t10.5 37.5q0 20 -16.5 32.5t-45.5 12.5h-395q-45 0 -45 39z" />
<glyph unicode="8" d="M166 301v201q0 70 23.5 128t61.5 96t38 62q0 18 -26.5 53.5t-43 76t-16.5 94.5v90q0 113 78.5 191.5t191.5 78.5t191.5 -79t78.5 -191v-90q0 -49 -16 -92t-43 -76q-4 -6 -15.5 -24.5t-11.5 -31.5q0 -25 39 -63q33 -33 58.5 -95.5t25.5 -127.5v-201q0 -133 -85 -227 t-222 -94q-135 0 -221 94t-86 227zM262 301q0 -94 57.5 -162.5t153.5 -68.5t153.5 68.5t57.5 162.5v201q0 94 -57.5 162.5t-153.5 68.5t-153.5 -68.5t-57.5 -162.5v-201zM299 1012q0 -76 51 -129.5t123 -53.5t123 53.5t51 129.5v90q0 76 -51 129t-123 53t-123 -53t-51 -129 v-90z" />
<glyph unicode="9" d="M166 446v199q0 133 85 227.5t222 94.5q135 0 221 -94.5t86 -227.5v-199q0 -147 -37.5 -291.5t-99.5 -254.5q-49 -88 -115 -166q-49 -59 -108 -113q-31 -27 -72 -27q-29 0 -29 23q0 14 15 29q104 102 184 215q27 35 57.5 98.5t40.5 101.5q4 16 5 27q0 49 -50 49 q-4 0 -30.5 -6t-67.5 -6q-135 0 -221 94t-86 227zM262 446q0 -94 57.5 -162.5t153.5 -68.5t153.5 68.5t57.5 162.5v199q0 94 -57.5 163t-153.5 69t-153.5 -69t-57.5 -163v-199z" />
<glyph unicode=":" d="M424 39q0 39 45 39h8q45 0 45 -39t-45 -39h-8q-45 0 -45 39zM424 907q0 39 45 39h8q45 0 45 -39t-45 -39h-8q-45 0 -45 39z" />
<glyph unicode=";" d="M250 -252q0 23 11 34t30 17q55 18 95 69.5t40 131.5v33q0 45 45 45q49 0 49 -45v-33q0 -111 -61.5 -190.5t-149.5 -98.5q-59 -14 -59 37zM424 907q0 39 45 39h8q45 0 45 -39t-45 -39h-8q-45 0 -45 39z" />
<glyph unicode="&#x3c;" d="M166 473q0 25 15.5 40t43.5 30l494 231q16 6 29 6q33 0 32 -35q0 -35 -47 -55l-301 -137q-70 -31 -70 -80t70 -80l301 -135q47 -22 47 -55q0 -35 -32 -35q-12 0 -29 6l-494 227q-29 12 -41 25q-18 18 -18 47z" />
<glyph unicode="=" d="M166 338q0 39 45 39h524q45 0 45 -39t-45 -39h-524q-45 0 -45 39zM166 608q0 39 45 39h524q45 0 45 -39t-45 -39h-524q-45 0 -45 39z" />
<glyph unicode="&#x3e;" d="M166 203q0 33 47 55l301 135q70 31 70 80t-70 80l-301 137q-47 20 -47 55t35 35q10 0 26 -6l494 -231q31 -16 41 -25q18 -16 18 -45q0 -27 -16 -44t-43 -28l-494 -227q-16 -6 -28 -6q-33 0 -33 35z" />
<glyph unicode="?" d="M195 1202q0 14 6 27q33 59 92 98q72 45 166 45q133 0 220 -93t87 -222q0 -111 -59 -191q-51 -70 -144 -110q-57 -27 -57 -78v-227q0 -45 -45 -45q-51 0 -51 45v272q0 43 23.5 70.5t66.5 42.5q78 25 124 81t46 140q0 90 -59.5 157.5t-151.5 67.5q-68 0 -117 -33 q-37 -25 -66 -71q-12 -20 -38 -21q-14 0 -28.5 10.5t-14.5 34.5zM410 39q0 39 45 39q51 0 51 -39t-45 -39q-51 0 -51 39z" />
<glyph unicode="@" d="M166 301v344q0 133 85 227.5t222 94.5q135 0 221 -94.5t86 -227.5v-356q0 -51 -26.5 -76t-69.5 -25q-37 0 -68 25q-14 12 -32 0q-51 -37 -111 -37q-80 0 -131 55.5t-51 133.5v217q0 78 51 133t131 55q78 0 130 -56.5t52 -131.5v-269q0 -49 29 -49t29 49v332 q0 102 -67.5 178t-172.5 76q-106 0 -173 -74.5t-67 -179.5v-344q0 -102 68 -178t172 -76q47 0 79 12.5t69 40.5q10 8 26 9q16 0 23 -9q8 -8 8 -22q0 -18 -14 -31q-78 -68 -191 -67q-135 0 -221 94t-86 227zM387 365q0 -41 22.5 -68t63.5 -27q39 0 62.5 26t23.5 69v217 q0 41 -22.5 67.5t-63.5 26.5q-39 0 -62.5 -25.5t-23.5 -68.5v-217z" />
<glyph unicode="A" d="M166 45v600q0 133 85 227.5t222 94.5q135 0 221 -94.5t86 -227.5v-600q0 -45 -45 -45q-51 0 -51 45v299q0 90 -90 90h-242q-90 0 -90 -90v-299q0 -45 -45 -45q-51 0 -51 45zM262 602q0 -90 90 -90h242q90 0 90 90v43q0 94 -57.5 163t-153.5 69t-153.5 -69t-57.5 -163v-43 z" />
<glyph unicode="B" d="M166 301v600q0 45 47 45q27 0 41 -22q8 -14 25 -15q10 0 16 4q43 25 84 39.5t94 14.5q141 0 224 -73t83 -204q0 -68 -26 -115q-16 -31 -47 -55t-31 -47t28.5 -46.5t47.5 -55.5q28 -52 28 -115q0 -131 -83 -203.5t-224 -72.5q-135 0 -221 94t-86 227zM262 301 q0 -94 57.5 -162.5t153.5 -68.5q92 0 151.5 49t59.5 137q0 98 -82 143q-61 35 -151 35q-45 0 -45 39t45 39q119 0 182 57q51 45 51 121q0 90 -57.5 138.5t-153.5 48.5t-153.5 -69t-57.5 -163v-344z" />
<glyph unicode="C" d="M186 301v344q0 133 85 227.5t223 94.5q94 0 165 -47q61 -41 95 -103q6 -12 6 -24q0 -23 -21 -39q-10 -8 -26 -9q-25 0 -37 21q-31 47 -64 72q-51 39 -118 39q-96 0 -153.5 -69t-57.5 -163v-344q0 -94 57 -162.5t154 -68.5q70 0 118 36q33 25 68 74q16 23 41 23q8 0 14 -2 q6 -6 8 -6q20 -14 21 -41q0 -11 -6 -23q-33 -63 -92 -102q-74 -49 -172 -49q-135 0 -221.5 94t-86.5 227z" />
<glyph unicode="D" d="M166 90v766q0 90 90 90h217q137 0 222 -85t85 -216v-344q0 -129 -84 -215t-223 -86h-217q-90 0 -90 90zM262 168q0 -90 90 -90h121q96 0 153.5 65.5t57.5 157.5v344q0 92 -57.5 157.5t-153.5 65.5h-121q-90 0 -90 -90v-610z" />
<glyph unicode="E" d="M184 301v344q0 133 85 227.5t223 94.5q94 0 165 -47q61 -41 95 -103q6 -12 6 -24q0 -23 -21 -39q-10 -8 -26 -9q-25 0 -37 21q-31 47 -64 72q-51 39 -118 39q-96 0 -153.5 -69t-57.5 -163v-43q0 -90 90 -90h192q45 0 45 -39t-45 -39h-192q-90 0 -90 -90v-43 q0 -94 57 -162.5t154 -68.5q70 0 118 36q33 25 68 74q16 23 41 23q8 0 14 -2q6 -6 8 -6q20 -14 21 -41q0 -11 -6 -23q-33 -63 -92 -102q-74 -49 -172 -49q-135 0 -221.5 94t-86.5 227z" />
<glyph unicode="F" d="M225 45v600q0 133 85 227.5t222 94.5q74 0 144 -25q53 -18 104 -53q23 -16 23 -39q0 -6 -2 -12q-4 -9 -6 -11q-16 -23 -39 -22q-8 0 -25 8q-43 25 -96 44.5t-103 19.5q-96 0 -153 -69t-57 -163v-43q0 -90 90 -90h280q45 0 45 -39t-45 -39h-280q-90 0 -90 -90v-299 q0 -45 -46 -45q-51 0 -51 45z" />
<glyph unicode="G" d="M166 301v344q0 133 85 227.5t222 94.5q94 0 166 -47q61 -41 94 -103q6 -12 6 -24q0 -23 -20 -39q-10 -8 -27 -9q-25 0 -37 21q-31 47 -63 72q-51 39 -119 39q-96 0 -153.5 -69t-57.5 -163v-344q0 -94 57.5 -162.5t153.5 -68.5t153.5 68.5t57.5 162.5v43q0 90 -90 90h-76 q-45 0 -45 39t45 39h217q45 0 45 -45v-166q0 -133 -85 -227t-222 -94q-135 0 -221 94t-86 227z" />
<glyph unicode="H" d="M166 45v856q0 45 45 45q51 0 51 -45v-299q0 -90 90 -90h242q90 0 90 90v299q0 45 45 45q51 0 51 -45v-856q0 -45 -45 -45q-51 0 -51 45v299q0 90 -90 90h-242q-90 0 -90 -90v-299q0 -45 -45 -45q-51 0 -51 45z" />
<glyph unicode="I" d="M166 39q0 39 45 39h125q90 0 90 90v610q0 90 -90 90h-57q-45 0 -46 39q0 39 46 39h389q45 0 45 -39t-45 -39h-58q-90 0 -90 -90v-610q0 -90 90 -90h125q45 0 45 -39t-45 -39h-524q-45 0 -45 39z" />
<glyph unicode="J" d="M113 -309q0 10 2 14q6 6 6 8q16 23 39 23q8 0 24 -8q43 -25 96.5 -44.5t102.5 -19.5q96 0 153.5 68.5t57.5 163.5v882q0 90 -90 90h-127q-45 0 -45 39t45 39h223q90 0 90 -90v-960q0 -133 -85 -227.5t-222 -94.5q-74 0 -135.5 21.5t-112.5 56.5q-23 16 -22 39z" />
<glyph unicode="K" d="M166 45v856q0 45 45 45q51 0 51 -45v-299q0 -94 94 -94q68 0 111 80l166 317q10 18 24.5 29.5t40.5 11.5q41 0 41 -31q0 -10 -8 -24l-153 -283q-12 -29 -13 -49q0 -43 39 -63q74 -39 119 -103q57 -82 57 -190v-158q0 -45 -45 -45q-51 0 -51 45v158q0 94 -57.5 162.5 t-153.5 68.5t-153.5 -68.5t-57.5 -162.5v-158q0 -45 -45 -45q-51 0 -51 45z" />
<glyph unicode="L" d="M242 90v811q0 45 45 45q51 0 51 -45v-733q0 -90 90 -90h307q45 0 45 -39t-45 -39h-403q-90 0 -90 90z" />
<glyph unicode="M" d="M166 45v856q0 45 45 45h27q41 0 59 -45l131 -330q16 -41 45 -41q14 0 26.5 11.5t18.5 29.5l131 330q18 45 60 45h26q45 0 45 -45v-856q0 -45 -43 -45t-43 45v541q0 49 -30 49q-23 0 -39 -37l-113 -268q-16 -41 -39 -41t-39 41l-112 268q-16 37 -39 37q-31 0 -31 -49v-541 q0 -45 -43 -45t-43 45z" />
<glyph unicode="N" d="M166 45v856q0 45 45 45h29q37 0 59 -45l326 -620q18 -35 41 -35q29 0 28 47v608q0 45 43 45t43 -45v-856q0 -45 -45 -45h-26q-37 0 -60 45l-327 629q-18 35 -41 35q-29 0 -29 -47v-617q0 -45 -43 -45t-43 45z" />
<glyph unicode="O" d="M166 301v344q0 133 85 227.5t222 94.5q135 0 221 -94.5t86 -227.5v-344q0 -133 -85 -227t-222 -94q-135 0 -221 94t-86 227zM262 301q0 -94 57.5 -162.5t153.5 -68.5t153.5 68.5t57.5 162.5v344q0 94 -57.5 163t-153.5 69t-153.5 -69t-57.5 -163v-344z" />
<glyph unicode="P" d="M166 45v600q0 133 85 227.5t222 94.5q135 0 221 -94.5t86 -227.5t-85 -227t-222 -94q-68 0 -135 30q-16 6 -29 6q-47 0 -47 -55v-260q0 -45 -45 -45q-51 0 -51 45zM262 645q0 -94 57.5 -162.5t153.5 -68.5t153.5 68.5t57.5 162.5t-57.5 163t-153.5 69t-153.5 -69 t-57.5 -163z" />
<glyph unicode="Q" d="M166 430v215q0 133 85 227.5t222 94.5q135 0 221 -94.5t86 -227.5v-215q0 -72 -27.5 -135.5t-72.5 -106.5q-23 -27 -23 -47q0 -23 25 -41q34 -30 81 -30h3q45 0 45 -45t-45 -45q-115 0 -186 90q-14 16 -41 27.5t-66 11.5q-135 0 -221 94t-86 227zM262 430 q0 -94 57.5 -162.5t153.5 -68.5q49 0 49 53q0 33 -26.5 61.5t-69.5 38.5t-43 43q0 45 45 45q100 0 160 -92q25 -33 45 -33q25 0 37 33q2 6 8 32.5t6 49.5v215q0 94 -57.5 163t-153.5 69t-153.5 -69t-57.5 -163v-215z" />
<glyph unicode="R" d="M166 45v600q0 133 85 227.5t222 94.5q141 0 224 -73t83 -206q0 -63 -26 -110q-18 -33 -54 -66q-27 -27 -26 -43q0 -20 26 -47q35 -37 57.5 -89t22.5 -130v-158q0 -45 -45 -45q-51 0 -51 45v158q0 94 -57.5 162.5t-153.5 68.5h-121q-90 0 -90 -90v-299q0 -45 -45 -45 q-51 0 -51 45zM262 602q0 -90 90 -90h121q72 0 129 33q82 47 82 143q0 90 -59.5 139.5t-151.5 49.5q-96 0 -153.5 -69t-57.5 -163v-43z" />
<glyph unicode="S" d="M180 170q0 23 13.5 32t29.5 9q18 0 35 -18q39 -51 94.5 -87t120.5 -36q104 0 162 65q49 57 49 139q0 109 -104 156q-35 14 -107 25q-131 0 -208 70.5t-77 185.5q0 100 72 174q80 82 213 82q59 0 115.5 -22.5t91.5 -57.5q14 -14 14 -33q0 -18 -13 -30.5t-32 -12.5 q-16 0 -39 16q-29 25 -61.5 38.5t-75.5 13.5q-78 0 -127 -37q-65 -48 -65 -129q0 -98 94 -144q31 -14 96 -26q133 0 215 -64q94 -72 94 -205q0 -131 -82 -212.5t-225 -81.5q-96 0 -170 46t-115 113q-8 14 -8 31z" />
<glyph unicode="T" d="M166 907q0 39 45 39h524q45 0 45 -39t-45 -39h-123q-90 0 -90 -90v-733q0 -45 -45 -45q-51 0 -51 45v733q0 90 -90 90h-125q-45 0 -45 39z" />
<glyph unicode="U" d="M166 301v600q0 45 45 45q51 0 51 -45v-600q0 -94 57.5 -162.5t153.5 -68.5t153.5 68.5t57.5 162.5v600q0 45 45 45q51 0 51 -45v-600q0 -133 -85 -227t-222 -94q-135 0 -221 94t-86 227z" />
<glyph unicode="V" d="M174 891q-3 11 -3 20q0 35 44 35q45 0 61 -55l162 -565q12 -43 35 -43t35 43l162 565q16 55 61 55q23 0 35 -16t6 -39l-250 -852q-8 -27 -16 -39q-14 -20 -33 -20q-18 0 -29.5 17t-19.5 42z" />
<glyph unicode="W" d="M166 106v795q0 45 43 45t43 -45v-651q0 -47 29 -47q20 0 36 33l109 239q6 14 12 21q16 20 35 20q12 0 25.5 -11t21.5 -30l109 -239q14 -33 37 -33q29 0 28 47v651q0 45 43 45t43 -45v-795q0 -66 -22.5 -96t-59.5 -30q-33 0 -55 24q-29 31 -68 123l-53 125q-20 43 -49 43 t-49 -43l-53 -125q-37 -90 -63.5 -118.5t-59.5 -28.5q-37 0 -59.5 30.5t-22.5 95.5z" />
<glyph unicode="X" d="M164 33q0 6 8 22l223 365q16 25 17 53q0 31 -17 55l-223 363q-4 4 -6 12q-2 6 -2 10q0 33 47 33q16 0 30.5 -12t24.5 -29l156 -243q25 -41 51 -41q27 0 51 41l154 243q12 20 24.5 30.5t30.5 10.5q47 0 47 -33q0 -12 -8 -22l-221 -363q-16 -29 -16 -55q0 -25 16 -53 l221 -365q4 -4 6 -12q2 -6 2 -10q0 -33 -47 -33q-16 0 -30.5 12.5t-24.5 28.5l-154 244q-25 41 -51 41q-27 0 -51 -41l-156 -244q-12 -20 -24.5 -30.5t-30.5 -10.5q-47 0 -47 33z" />
<glyph unicode="Y" d="M164 913q0 33 47 33q16 0 30.5 -12t24.5 -29l156 -243q25 -41 51 -41q27 0 51 41l154 243q12 20 24.5 30.5t30.5 10.5q47 0 47 -33q0 -12 -8 -22l-221 -363q-31 -51 -31 -127v-356q0 -45 -45 -45q-49 0 -49 45v356q0 33 -8 69t-23 58l-223 363q-4 4 -6 12q-2 6 -2 10z " />
<glyph unicode="Z" d="M166 152q0 59 39 112l373 516q16 23 16 43q0 45 -57 45h-279q-45 0 -45 39t45 39h391q41 0 64.5 -21.5t23.5 -54.5q0 -31 -20 -59l-422 -588q-25 -35 -25 -67q0 -35 28 -56.5t75 -21.5h362q45 0 45 -39t-45 -39h-397q-82 0 -127 43t-45 109z" />
<glyph unicode="[" d="M291 -180v1442q0 90 90 90h231q45 0 45 -39t-45 -39h-135q-90 0 -90 -90v-1286q0 -90 90 -91h135q45 1 45 -38t-45 -39h-231q-90 0 -90 90z" />
<glyph unicode="\" d="M166 1319q0 33 37 33q39 0 55 -45l516 -1518q2 -8 2 -10q2 -8 2 -15q0 -35 -39 -34q-39 0 -55 45l-514 1517q-4 10 -4 27z" />
<glyph unicode="]" d="M289 -231q0 39 45 38h135q90 0 90 91v1286q0 90 -90 90h-135q-45 0 -45 39t45 39h231q90 0 90 -90v-1442q0 -90 -90 -90h-231q-45 0 -45 39z" />
<glyph unicode="^" d="M166 793q0 10 6 26l231 494q16 31 25 41q16 18 45 18q27 0 44.5 -16.5t27.5 -42.5l227 -494q6 -16 6 -28q0 -33 -35 -33q-33 0 -55 47l-135 301q-31 70 -80 70t-80 -70l-137 -301q-20 -47 -55 -47t-35 35z" />
<glyph unicode="_" d="M-2 -78h950v-78h-950v78z" />
<glyph unicode="`" d="M350 1319q0 33 45 33q35 0 60 -21q16 -14 39 -51l94 -158q6 -12 6 -20q0 -20 -19 -21q-23 0 -55 35l-153 168q-16 20 -17 35z" />
<glyph unicode="a" d="M166 301q0 133 85 227.5t222 94.5q80 0 143 -35q14 -8 27 -8q41 0 41 65q0 94 -57.5 163t-153.5 69q-76 0 -149 -33q-20 -8 -29 -8q-23 0 -35 22q-4 6 -4 21q0 27 25 41q35 20 85 33.5t107 13.5q135 0 221 -94.5t86 -227.5v-600q0 -45 -47 -45q-27 0 -38 18.5t-27 18.5 q-4 0 -17 -4q-39 -23 -83 -38t-95 -15q-135 0 -221 94t-86 227zM262 301q0 -94 57.5 -162.5t153.5 -68.5t153.5 68.5t57.5 162.5t-57.5 162.5t-153.5 68.5t-153.5 -68.5t-57.5 -162.5z" />
<glyph unicode="b" d="M166 301v1006q0 45 45 45q51 0 51 -45v-322q0 -55 49 -55q10 0 27.5 8t55.5 18.5t79 10.5q141 0 224 -73t83 -204q0 -57 -26 -108q-16 -33 -45 -64t-29 -45t27.5 -45t44.5 -63q28 -56 28 -109q0 -131 -83 -203.5t-224 -72.5q-135 0 -221 94t-86 227zM262 301 q0 -94 57.5 -162.5t153.5 -68.5q92 0 151.5 49t59.5 137q0 98 -82 143q-61 35 -151 35q-45 0 -45 39t45 39q119 0 182 57q51 45 51 121q0 90 -57.5 138.5t-153.5 48.5t-153.5 -69t-57.5 -163v-344z" />
<glyph unicode="c" d="M186 301v344q0 133 85 227.5t223 94.5q94 0 165 -47q61 -41 95 -103q6 -12 6 -24q0 -23 -21 -39q-10 -8 -26 -9q-25 0 -37 21q-31 47 -64 72q-51 39 -118 39q-96 0 -153.5 -69t-57.5 -163v-344q0 -94 57 -162.5t154 -68.5q70 0 118 36q33 25 68 74q16 23 41 23q8 0 14 -2 q6 -6 8 -6q20 -14 21 -41q0 -11 -6 -23q-33 -63 -92 -102q-74 -49 -172 -49q-135 0 -221.5 94t-86.5 227z" />
<glyph unicode="d" d="M166 301v344q0 133 85 227.5t222 94.5q72 0 135 -31q16 -6 29 -6q47 0 47 55v322q0 45 45 45q51 0 51 -45v-1262q0 -45 -47 -45q-27 0 -38 18.5t-27 18.5q-4 0 -17 -4q-39 -23 -83 -38t-95 -15q-135 0 -221 94t-86 227zM262 301q0 -94 57.5 -162.5t153.5 -68.5 t153.5 68.5t57.5 162.5v344q0 94 -57.5 163t-153.5 69t-153.5 -69t-57.5 -163v-344z" />
<glyph unicode="e" d="M166 301v344q0 133 85 227.5t222 94.5q135 0 221 -94.5t86 -227.5v-121q0 -90 -90 -90h-338q-90 0 -90 -90v-43q0 -94 57.5 -162.5t153.5 -68.5q70 0 119 36q33 25 67 74q16 23 41 23q8 0 15 -2q6 -6 8 -6q20 -14 20 -41q0 -10 -6 -23q-33 -63 -92 -102q-74 -49 -172 -49 q-135 0 -221 94t-86 227zM262 602q0 -90 90 -90h242q90 0 90 90v43q0 94 -57.5 163t-153.5 69t-153.5 -69t-57.5 -163v-43z" />
<glyph unicode="f" d="M125 907q0 39 45 39h31q90 0 90 90v15q0 133 85 227t222 94q74 0 143 -24q53 -18 105 -54q23 -16 22 -39q0 -6 -2 -12q-4 -8 -6 -10q-16 -23 -39 -23q-8 0 -24 9q-43 25 -96.5 44t-102.5 19q-96 0 -153.5 -68.5t-57.5 -162.5v-15q0 -90 90 -90h279q45 0 45 -39t-45 -39 h-279q-90 0 -90 -90v-733q0 -45 -45 -45q-51 0 -51 45v733q0 90 -90 90h-31q-45 0 -45 39z" />
<glyph unicode="g" d="M166 645q0 133 85 227.5t222 94.5q29 0 78 -11q18 -4 39 -4q27 0 75 29t70 31q5 1 9 1q36 0 36 -46v-11q0 -35 -31.5 -45t-31.5 -43q0 -25 18.5 -54.5t31.5 -70.5t13 -98q0 -129 -69 -219q-78 -100 -207 -100q-90 0 -90 -90v-66q0 -90 90 -90q119 0 197.5 -69.5 t78.5 -180.5t-88 -183.5t-237 -72.5q-74 0 -137.5 20.5t-112.5 51.5q-25 16 -25 39q0 12 9.5 28.5t29.5 16.5q14 0 29 -9q39 -25 90 -42t115 -17q104 0 167.5 45t63.5 123q0 76 -63.5 123t-167.5 47h-88q-45 0 -46 45v217q0 45 -15 82t-46 68q-39 41 -65.5 101t-26.5 132z M262 645q0 -94 57.5 -162.5t153.5 -68.5t153.5 68.5t57.5 162.5t-57.5 163t-153.5 69t-153.5 -69t-57.5 -163z" />
<glyph unicode="h" d="M166 45v1262q0 45 45 45q51 0 51 -45v-322q0 -55 49 -55q10 0 27.5 8t55.5 18.5t79 10.5q135 0 221 -94.5t86 -227.5v-600q0 -45 -45 -45q-51 0 -51 45v600q0 94 -57.5 163t-153.5 69t-153.5 -69t-57.5 -163v-600q0 -45 -45 -45q-51 0 -51 45z" />
<glyph unicode="i" d="M301 301v600q0 45 45 45q51 0 51 -45v-600q0 -94 57.5 -162.5t153.5 -68.5q45 0 86 18q12 6 27 6q23 0 37 -20q6 -10 6 -23q0 -29 -27 -43q-55 -28 -124 -28h-5q-135 0 -221 94t-86 227zM301 1313q0 39 45 39q51 0 51 -39t-45 -39q-51 0 -51 39z" />
<glyph unicode="j" d="M66 -309q0 10 2 14q6 6 6 8q16 23 39 23q8 0 24 -8q43 -25 96.5 -44.5t102.5 -19.5q96 0 153.5 68.5t57.5 163.5v1005q0 45 45 45q51 0 51 -45v-1005q0 -133 -85 -227.5t-222 -94.5q-74 0 -135.5 21.5t-112.5 56.5q-23 16 -22 39zM547 1313q0 39 45 39q51 0 51 -39 t-45 -39q-51 0 -51 39z" />
<glyph unicode="k" d="M166 45v1262q0 45 45 45q51 0 51 -45v-705q0 -94 94 -94q68 0 111 80l166 317q10 18 24.5 29.5t40.5 11.5q41 0 41 -31q0 -10 -8 -24l-153 -283q-12 -29 -13 -49q0 -43 39 -63q74 -39 119 -103q57 -82 57 -190v-158q0 -45 -45 -45q-51 0 -51 45v158q0 94 -57.5 162.5 t-153.5 68.5t-153.5 -68.5t-57.5 -162.5v-158q0 -45 -45 -45q-51 0 -51 45z" />
<glyph unicode="l" d="M256 301v1006q0 45 45 45q51 0 51 -45v-1006q0 -94 57.5 -162.5t153.5 -68.5q41 0 73 13t56.5 31.5t44.5 18.5q17 0 25 -8q16 -12 16 -33q0 -20 -24.5 -43.5t-74.5 -46t-116 -22.5q-135 0 -221 94t-86 227z" />
<glyph unicode="m" d="M166 45v737q0 84 44 134.5t128 50.5q55 0 100 -29q23 -14 35 -14q14 0 35 14q45 29 100 29q86 0 129 -49.5t43 -135.5v-737q0 -45 -45 -45q-51 0 -51 45v737q0 94 -80 95q-84 0 -84 -95v-602q0 -45 -47 -45t-47 45v602q0 94 -84 95q-80 0 -80 -95v-737q0 -45 -45 -45 q-51 0 -51 45z" />
<glyph unicode="n" d="M166 45v856q0 45 47 45q27 0 41 -22q8 -14 25 -15q10 0 16 4q39 23 83 38.5t95 15.5q135 0 221 -94.5t86 -227.5v-600q0 -45 -45 -45q-51 0 -51 45v600q0 94 -57.5 163t-153.5 69t-153.5 -69t-57.5 -163v-600q0 -45 -45 -45q-51 0 -51 45z" />
<glyph unicode="o" d="M166 301v344q0 133 85 227.5t222 94.5q135 0 221 -94.5t86 -227.5v-344q0 -133 -85 -227t-222 -94q-135 0 -221 94t-86 227zM262 301q0 -94 57.5 -162.5t153.5 -68.5t153.5 68.5t57.5 162.5v344q0 94 -57.5 163t-153.5 69t-153.5 -69t-57.5 -163v-344z" />
<glyph unicode="p" d="M166 -360v1005q0 133 85 227.5t222 94.5q135 0 221 -94.5t86 -227.5v-344q0 -133 -85 -227t-222 -94q-72 0 -135 30q-16 6 -29 6q-47 0 -47 -55v-321q0 -45 -45 -46q-51 0 -51 46zM262 301q0 -94 57.5 -162.5t153.5 -68.5t153.5 68.5t57.5 162.5v344q0 94 -57.5 163 t-153.5 69t-153.5 -69t-57.5 -163v-344z" />
<glyph unicode="q" d="M166 301v344q0 133 85 227.5t222 94.5q135 0 221 -94.5t86 -227.5v-344q0 -100 -49 -179t-130 -123t-81 -118v-10q0 -82 51 -141q45 -51 100.5 -63.5t55.5 -51.5q0 -42 -42 -42q-5 0 -11 1q-102 14 -176 97t-74 200v10q0 76 -80 119t-129 122t-49 179zM262 301 q0 -94 57.5 -162.5t153.5 -68.5t153.5 68.5t57.5 162.5v344q0 94 -57.5 163t-153.5 69t-153.5 -69t-57.5 -163v-344z" />
<glyph unicode="r" d="M223 45v600q0 133 85 227.5t222 94.5q74 0 144 -25q53 -18 104 -53q23 -16 23 -39q0 -6 -2 -12q-4 -9 -6 -11q-16 -23 -39 -22q-8 0 -25 8q-43 25 -96 44.5t-103 19.5q-96 0 -153.5 -69t-57.5 -163v-600q0 -45 -45 -45q-51 0 -51 45z" />
<glyph unicode="s" d="M180 170q0 23 13.5 32t29.5 9q18 0 35 -18q39 -51 94.5 -87t120.5 -36q104 0 162 65q49 57 49 139q0 109 -104 156q-35 14 -107 25q-131 0 -208 70.5t-77 185.5q0 100 72 174q80 82 213 82q59 0 115.5 -22.5t91.5 -57.5q14 -14 14 -33q0 -18 -13 -30.5t-32 -12.5 q-16 0 -39 16q-29 25 -61.5 38.5t-75.5 13.5q-78 0 -127 -37q-65 -48 -65 -129q0 -98 94 -144q31 -14 96 -26q133 0 215 -64q94 -72 94 -205q0 -131 -82 -212.5t-225 -81.5q-96 0 -170 46t-115 113q-8 14 -8 31z" />
<glyph unicode="t" d="M106 907q0 39 46 39h30q90 0 90 90v135q0 45 45 46q51 0 52 -46v-135q0 -90 90 -90h211q45 0 45 -39t-45 -39h-211q-90 0 -90 -90v-477q0 -94 57 -162.5t154 -68.5q41 0 72.5 13t56 31.5t45.5 18.5q16 0 24 -8q16 -12 17 -33q0 -20 -25 -43.5t-75 -46t-115 -22.5 q-135 0 -221.5 94t-86.5 227v477q0 90 -90 90h-30q-45 0 -46 39z" />
<glyph unicode="u" d="M166 301v600q0 45 45 45q51 0 51 -45v-600q0 -94 57.5 -162.5t153.5 -68.5t153.5 68.5t57.5 162.5v600q0 45 45 45q51 0 51 -45v-856q0 -45 -47 -45q-27 0 -38 18.5t-27 18.5q-4 0 -17 -4q-39 -23 -83 -38t-95 -15q-135 0 -221 94t-86 227z" />
<glyph unicode="v" d="M174 891q-3 11 -3 20q0 35 44 35q45 0 61 -55l162 -565q12 -43 35 -43t35 43l162 565q16 55 61 55q23 0 35 -16t6 -39l-250 -852q-8 -27 -16 -39q-14 -20 -33 -20q-18 0 -29.5 17t-19.5 42z" />
<glyph unicode="w" d="M166 164v737q0 45 45 45q51 0 51 -45v-737q0 -94 80 -94q84 0 84 94v332q0 45 47 45t47 -45v-332q0 -94 84 -94q80 0 80 94v737q0 45 45 45q51 0 51 -45v-737q0 -84 -44 -134t-128 -50q-55 0 -100 28q-25 14 -35 15q-6 0 -35 -15q-44 -28 -96 -28h-4q-86 0 -129 49 t-43 135z" />
<glyph unicode="x" d="M164 913q0 33 47 33q16 0 30.5 -12t24.5 -29l156 -243q25 -41 51 -41q27 0 51 41l154 243q12 20 24.5 30.5t30.5 10.5q47 0 47 -33q0 -12 -8 -22l-178 -291q-16 -29 -16 -51q0 -37 36 -57q78 -43 122 -119t44 -170v-158q0 -45 -45 -45q-51 0 -51 45v158q0 94 -57.5 162.5 t-153.5 68.5t-153.5 -68.5t-57.5 -162.5v-158q0 -45 -45 -45q-51 0 -51 45v158q0 94 44 170t122 119q37 20 37 59q0 23 -17 49l-180 291q-4 4 -6 12q-2 6 -2 10z" />
<glyph unicode="y" d="M166 301v600q0 45 45 45q51 0 51 -45v-600q0 -94 57.5 -162.5t153.5 -68.5t153.5 68.5t57.5 162.5v600q0 45 45 45q51 0 51 -45v-1005q0 -133 -85 -227.5t-222 -94.5q-74 0 -135.5 21.5t-112.5 56.5q-23 16 -22 39q0 10 2 14q6 6 6 8q16 23 39 23q8 0 24 -8 q43 -25 96.5 -44.5t102.5 -19.5q96 0 153.5 68.5t57.5 163.5v65q0 55 -49 55q-10 0 -27.5 -8t-55.5 -18t-79 -10q-135 0 -221 94t-86 227z" />
<glyph unicode="z" d="M166 152q0 59 39 112l373 516q16 23 16 43q0 45 -57 45h-279q-45 0 -45 39t45 39h391q41 0 64.5 -21.5t23.5 -54.5q0 -31 -20 -59l-422 -588q-25 -35 -25 -67q0 -35 28 -56.5t75 -21.5h362q45 0 45 -39t-45 -39h-397q-82 0 -127 43t-45 109z" />
<glyph unicode="{" d="M244 541q0 39 45 39q90 0 90 90v383q0 129 81 224t199 95q41 0 41 -43q0 -41 -61 -49t-112.5 -73.5t-51.5 -153.5v-1024q0 -88 51.5 -153.5t112.5 -74t61 -49.5q0 -49 -51 -43q-115 12 -192.5 102.5t-77.5 217.5v383q0 90 -90 90q-45 0 -45 39z" />
<glyph unicode="|" d="M426 -360v1667q0 45 45 45q51 0 51 -45v-1667q0 -45 -45 -46q-51 0 -51 46z" />
<glyph unicode="}" d="M246 -248q0 41 61.5 49.5t112.5 74t51 153.5v1024q0 88 -51 153.5t-112.5 73.5t-61.5 49q0 49 51 43q115 -12 192.5 -102t77.5 -217v-383q0 -90 90 -90q45 0 45 -39t-45 -39q-90 0 -90 -90v-383q0 -129 -76.5 -224.5t-183.5 -95.5q-61 0 -61 43z" />
<glyph unicode="~" d="M168 436q-16 37 31 64q63 39 139 39q53 0 174 -35q63 -18 96 -19q51 0 101 39q16 16 39 17q14 -1 24 -13q8 -8 8 -22q0 -20 -24 -43q-68 -55 -148 -55q-53 0 -174 34q-63 18 -96 19q-29 0 -53.5 -7.5t-59.5 -27.5q-16 -8 -24 -8q-23 0 -33 18z" />
<glyph unicode="&#xa0;" />
<glyph unicode="&#xa1;" d="M424 907q0 39 45 39h8q45 0 45 -39t-45 -39h-8q-45 0 -45 39zM426 -360v856q0 45 45 45q51 0 51 -45v-856q0 -45 -45 -46q-51 0 -51 46z" />
<glyph unicode="&#xa2;" d="M186 301v344q0 109 54.5 187.5t154.5 117.5q53 20 54 72v14q0 45 45 45q51 0 51 -45v-14q0 -47 53 -72q109 -49 156 -133q6 -12 6 -24q0 -23 -21 -39q-10 -8 -26 -9q-25 0 -37 21q-31 47 -64 72q-51 39 -118 39q-96 0 -153.5 -69t-57.5 -163v-344q0 -94 57 -162.5 t154 -68.5q70 0 118 36q33 25 68 74q16 23 41 23q8 0 14 -2q6 -6 8 -6q20 -14 21 -41q0 -11 -6 -23q-23 -39 -64 -75t-95 -58.5t-54 -75.5v-12q0 -45 -45 -45q-51 0 -51 45v12q0 53 -56 74q-94 33 -150.5 116t-56.5 189z" />
<glyph unicode="&#xa3;" d="M135 473q0 39 45 39h21q90 0 90 90v86q0 117 74.5 198t187.5 81q51 0 101.5 -23.5t78.5 -54.5q12 -16 12 -33q0 -18 -12 -30.5t-28 -12.5q-20 0 -41 18.5t-50.5 32t-60.5 13.5q-74 0 -120 -54.5t-46 -134.5v-86q0 -90 90 -90h86q45 0 45 -39t-45 -39h-86q-90 0 -90 -90 v-176q0 -90 90 -90h258q45 0 45 -39t-45 -39h-524q-45 0 -45 39t45 39q80 0 80 90v176q0 90 -90 90h-21q-45 0 -45 39z" />
<glyph unicode="&#xa4;" horiz-adv-x="0" />
<glyph unicode="&#xa5;" d="M164 913q0 33 47 33q16 0 30.5 -12t24.5 -29l156 -243q25 -41 51 -41q27 0 51 41l154 243q12 20 24.5 30.5t30.5 10.5q47 0 47 -33q0 -12 -8 -22l-213 -350q-33 -53 -35 -74q-6 -41 20.5 -65.5t69.5 -24.5h121q45 0 45 -39t-45 -39h-125q-90 0 -90 -90v-164 q0 -45 -45 -45q-49 0 -49 45v164q0 90 -90 90h-125q-45 0 -45 39t45 39h121q102 0 90 90q-2 12 -9 26.5t-26 47.5l-215 350q-4 4 -6 12q-2 6 -2 10z" />
<glyph unicode="&#xa6;" d="M426 664v643q0 45 45 45q51 0 51 -45v-643q0 -45 -45 -46q-51 0 -51 46z" />
<glyph unicode="&#xa7;" d="M168 -100q0 23 13.5 32t29.5 9q18 0 35 -19q39 -51 94 -87t121 -36q106 0 164 62q49 53 49 137q0 78 -57.5 127t-157.5 49q-131 0 -208 79t-77 198q0 106 82 194q18 18 18 37q0 14 -18 33q-39 37 -59.5 76.5t-20.5 99.5q0 98 72 170q80 80 213 80q59 0 115.5 -22.5 t91.5 -57.5q14 -14 14 -33q0 -18 -13.5 -30.5t-31.5 -12.5q-16 0 -39 16q-29 25 -61.5 38.5t-75.5 13.5q-78 0 -127 -37q-66 -49 -66 -125q0 -74 72 -123q63 -43 133 -43q139 0 217 -78t78 -196q0 -55 -21.5 -102.5t-58.5 -86.5q-25 -29 -24 -43q0 -16 24 -41q39 -41 55 -72 q25 -47 25 -108q0 -129 -82 -209t-225 -80q-96 0 -170 46t-115 114q-8 14 -8 31zM266 451q0 -82 56.5 -134.5t142.5 -52.5q96 0 153.5 49.5t57.5 135.5t-59.5 139t-151.5 53q-90 0 -144.5 -52t-54.5 -138z" />
<glyph unicode="&#xa8;" d="M307 1120q0 39 45 39h8q46 0 46 -39t-46 -39h-8q-45 0 -45 39zM541 1120q0 39 45 39h8q45 0 45 -39t-45 -39h-8q-45 0 -45 39z" />
<glyph unicode="&#xa9;" d="M166 301v344q0 133 85 227.5t222 94.5q135 0 221 -94.5t86 -227.5v-344q0 -133 -85 -227t-222 -94q-135 0 -221 94t-86 227zM281 377q0 -82 57 -141.5t145 -59.5q51 0 95 24.5t73 67.5q8 16 8 33q0 20 -13 29.5t-28 9.5q-10 0 -20 -6t-18 -17q-16 -25 -39 -39t-58 -14 q-49 0 -78.5 34t-29.5 79v192q0 47 28.5 80t79.5 33q35 0 54.5 -12.5t38 -38t40.5 -25.5q8 0 24.5 9.5t16.5 31.5q0 16 -6 29q-23 43 -66.5 68.5t-101.5 25.5q-90 0 -146 -58.5t-56 -142.5v-192z" />
<glyph unicode="&#xaa;" d="M426 293q0 45 45 45q51 0 51 -45v-653q0 -45 -45 -46q-51 0 -51 46v653zM426 653v654q0 45 45 45q51 0 51 -45v-654q0 -45 -45 -45q-51 0 -51 45z" />
<glyph unicode="&#xab;" d="M225 473q0 76 52.5 128t128.5 52q45 0 45 -37q0 -39 -45 -38q-41 0 -73 -30t-32 -75q0 -43 30.5 -73.5t74.5 -30.5q45 0 45 -39q0 -37 -45 -37q-76 0 -128.5 52t-52.5 128zM496 473q0 76 52 128t128 52q45 0 45 -37q0 -39 -45 -38q-41 0 -73 -30t-32 -75q0 -43 31 -73.5 t74 -30.5q45 0 45 -39q0 -37 -45 -37q-76 0 -128 52t-52 128z" />
<glyph unicode="&#xac;" horiz-adv-x="0" />
<glyph unicode="&#xad;" d="M217 473q0 39 45 39h422q45 0 45 -39t-45 -39h-422q-45 0 -45 39z" />
<glyph unicode="&#xae;" d="M166 301v344q0 133 85 227.5t222 94.5q135 0 221 -94.5t86 -227.5v-344q0 -133 -85 -227t-222 -94q-135 0 -221 94t-86 227zM268 252q0 -45 47 -45t47 45v332q0 53 29 83.5t78 30.5t80 -21.5t31 -64.5q0 -41 -32 -61.5t-77 -20.5q-41 0 -41 -41t41 -40q45 0 77 -30 t32 -81v-86q0 -45 47 -45t47 45v86q0 55 -14.5 86t-38.5 51q-14 14 0 27q29 23 41 48t12 62q0 80 -57.5 127t-145.5 47q-90 0 -146.5 -56t-56.5 -146v-332z" />
<glyph unicode="&#xaf;" d="M307 1120q0 39 45 39h242q45 0 45 -39t-45 -39h-242q-45 0 -45 39z" />
<glyph unicode="&#xb0;" d="M293 1192q0 76 52 128t128 52t128 -52t52 -128t-52 -128t-128 -52t-128 52t-52 128zM369 1192q0 -43 30.5 -74t73.5 -31t74 31t31 74t-31 73.5t-74 30.5t-73.5 -30.5t-30.5 -73.5z" />
<glyph unicode="&#xb1;" d="M166 39q0 39 45 39h524q45 0 45 -39t-45 -39h-524q-45 0 -45 39zM166 504q0 39 45 39h125q90 0 90 90v133q0 45 45 45q51 0 51 -45v-133q0 -90 90 -90h123q45 0 45 -39t-45 -39h-123q-90 0 -90 -90v-133q0 -45 -45 -45q-51 0 -51 45v133q0 90 -90 90h-125q-45 0 -45 39z " />
<glyph unicode="&#xb2;" d="M289 856q0 76 39 126t135 87q55 20 78.5 47t23.5 60q0 49 -27.5 78.5t-64.5 29.5q-66 0 -96 -59q-20 -37 -53 -21q-18 10 -19 31q0 14 6 27q45 96 162 96q72 0 121 -51.5t49 -130.5q0 -63 -34 -104.5t-91 -65.5q-78 -33 -102.5 -52.5t-24.5 -42.5q0 -29 43 -28h176 q45 0 45 -35q0 -37 -45 -37h-276q-45 0 -45 45z" />
<glyph unicode="&#xb3;" d="M307 928q0 18 19 30q14 8 28.5 2t24.5 -22q33 -61 94 -61q41 0 67.5 24.5t26.5 61.5q0 82 -100 81q-45 0 -45 35q0 37 45 37q94 0 94 84q0 37 -24.5 61.5t-63.5 24.5q-61 0 -96 -61q-12 -23 -33 -23q-14 0 -20 4q-16 8 -17 31q0 12 6 25q45 96 160 96q68 0 114 -44 t46 -114q0 -49 -33 -96q-8 -16 -8 -21q0 -8 10 -18q39 -39 39 -102q0 -68 -43 -113t-125 -45q-51 0 -95 26.5t-65 69.5q-6 12 -6 27z" />
<glyph unicode="&#xb4;" d="M350 1102q0 10 6 20l95 158q20 33 38 49q27 23 60 23q45 0 45 -35q0 -13 -16 -33l-154 -168q-35 -35 -55 -35q-18 0 -19 21z" />
<glyph unicode="&#xb5;" d="M166 -360v1261q0 45 45 45q51 0 51 -45v-600q0 -94 57.5 -162.5t153.5 -68.5t153.5 68.5t57.5 162.5v600q0 45 45 45q51 0 51 -45v-856q0 -45 -47 -45q-27 0 -38 18.5t-27 18.5q-4 0 -17 -4q-39 -23 -83 -38t-95 -15q-72 0 -135 30q-16 6 -29 6q-47 0 -47 -55v-321 q0 -45 -45 -46q-51 0 -51 46z" />
<glyph unicode="&#xb6;" d="M166 1034q0 129 90 223.5t217 94.5h293q45 0 45 -39t-45 -39h-31q-90 0 -90 -90v-1499q0 -90 -90 -91h-164q-90 0 -90 91v1001q0 74 -57 137q-35 43 -56.5 94.5t-21.5 116.5zM397 -238q0 -90 76 -90q41 0 58.5 21.5t17.5 68.5v1422q0 90 -76 90t-76 -90v-1422z" />
<glyph unicode="&#xb7;" d="M424 473q0 39 45 39h8q45 0 45 -39t-45 -39h-8q-45 0 -45 39z" />
<glyph unicode="&#xb8;" d="M344 -268q0 16 12 26q25 18 51.5 -13.5t59.5 -31.5q31 0 51.5 22.5t20.5 49.5q0 53 -53.5 67.5t-53.5 53.5v90q0 45 35 45t35 -45v-47q0 -23 26 -37q80 -41 80 -127q0 -59 -41 -100t-100 -41q-39 0 -67.5 17t-49.5 46q-6 12 -6 25z" />
<glyph unicode="&#xb9;" d="M291 848q0 35 45 35h53q45 0 45 45v243q0 45 -45 46q-25 0 -24 24q0 10 10 27l33 47q25 37 59 37q45 0 45 -45v-379q0 -45 45 -45h53q45 0 45 -35q0 -37 -45 -37h-274q-45 0 -45 37z" />
<glyph unicode="&#xba;" d="M166 473q0 39 45 39h524q45 0 45 -39t-45 -39h-524q-45 0 -45 39z" />
<glyph unicode="&#xbb;" d="M225 330q0 39 45 39q41 0 73 29.5t32 74.5q0 43 -31 74t-74 31q-45 0 -45 38q0 37 45 37q76 0 128.5 -52t52.5 -128t-52.5 -128t-128.5 -52q-45 0 -45 37zM496 330q0 39 45 39q41 0 72.5 29.5t31.5 74.5q0 43 -30.5 74t-73.5 31q-45 0 -45 38q0 37 45 37q76 0 128 -52 t52 -128t-52.5 -128t-127.5 -52q-45 0 -45 37z" />
<glyph unicode="&#xbc;" d="M166 848q0 -37 45 -37h274q45 0 45 37q0 35 -45 35h-53q-45 0 -45 45v379q0 45 -45 45q-35 0 -59 -37l-33 -47q-4 -4 -6 -11q-4 -10 -4 -18q0 -23 24 -22q45 0 45 -46v-243q0 -45 -45 -45h-53q-45 0 -45 -35zM209 512q0 -8 9 -21.5t26 -13.5q12 0 28 10l441 285 q25 16 24 39q0 8 -6 18q-8 14 -26 15q-14 0 -33 -13l-441 -284q-23 -16 -22 -35zM424 213q0 -39 25.5 -63.5t70.5 -24.5h72q45 0 45 -45v-35q0 -45 37 -45t37 45v35q0 45 34 45q35 0 35 37t-35 37t-34 45v90q0 29 -21 28q-23 0 -43 -43q-10 -20 -10 -75q0 -47 -45 -47h-43 q-47 0 -47 32q0 8 6 25l88 238q18 49 -27 49q-23 0 -33 -10.5t-18 -32.5l-80 -211q-14 -37 -14 -74z" />
<glyph unicode="&#xbd;" d="M166 848q0 -37 45 -37h274q45 0 45 37q0 35 -45 35h-53q-45 0 -45 45v379q0 45 -45 45q-35 0 -59 -37l-33 -47q-4 -4 -6 -11q-4 -10 -4 -18q0 -23 24 -22q45 0 45 -46v-243q0 -45 -45 -45h-53q-45 0 -45 -35zM209 508q0 -8 9 -21.5t26 -13.5q12 0 28 10l441 285 q25 16 24 39q0 8 -6 18q-8 14 -26 15q-14 0 -33 -13l-441 -284q-23 -16 -22 -35zM414 45q0 -45 45 -45h276q45 0 45 37q0 35 -45 35h-176q-43 0 -43 28q0 23 24.5 42.5t102.5 52.5q57 25 91 65.5t34 104.5q0 80 -49 131t-121 51q-117 0 -162 -96q-6 -16 -6 -27q0 -18 19 -31 q33 -16 53 21q31 59 96 59q37 0 64.5 -29.5t27.5 -78.5q0 -33 -21.5 -58.5t-80.5 -48.5q-94 -37 -134 -87t-40 -126z" />
<glyph unicode="&#xbe;" d="M166 928q0 -14 6 -27q45 -96 160 -96q82 0 125 45t43 113q0 63 -39 102q-10 10 -10 20q0 6 8 19q33 47 33 96q0 72 -45.5 115t-114.5 43q-55 0 -97 -25.5t-63 -70.5q-6 -16 -6 -27q0 -23 16 -29q6 -4 21 -4q20 0 33 23q35 61 96 61q37 0 62.5 -25.5t25.5 -60.5 q0 -84 -94 -84q-45 0 -45 -37q0 -35 45 -35q100 0 100 -81q0 -39 -25.5 -62.5t-68.5 -23.5q-61 0 -94 61q-20 39 -54 20q-18 -12 -18 -30zM209 522q0 -8 9 -21.5t26 -13.5q12 0 28 11l441 284q25 16 24 39q0 9 -6 19q-8 14 -26 14q-14 0 -33 -12l-441 -285q-23 -16 -22 -35z M424 213q0 -39 25.5 -63.5t70.5 -24.5h72q45 0 45 -45v-35q0 -45 37 -45t37 45v35q0 45 34 45q35 0 35 37t-35 37t-34 45v90q0 29 -21 28q-23 0 -43 -43q-10 -20 -10 -75q0 -47 -45 -47h-43q-47 0 -47 32q0 8 6 25l88 238q18 49 -27 49q-23 0 -33 -10.5t-18 -32.5l-80 -211 q-14 -37 -14 -74z" />
<glyph unicode="&#xbf;" d="M211 -111q0 111 59 191q51 70 144 110q57 27 57 78v228q0 45 45 45q51 0 51 -45v-273q0 -43 -23.5 -70.5t-66.5 -41.5q-78 -25 -124 -81.5t-46 -140.5q0 -90 59.5 -157.5t151.5 -67.5q68 0 117 33q37 25 65 72q12 20 39 20q14 0 28.5 -10t14.5 -35q0 -15 -6 -27 q-33 -59 -98.5 -101t-159.5 -42q-133 0 -220 93t-87 222zM471 907q0 39 45 39q51 0 51 -39t-45 -39q-51 0 -51 39z" />
<glyph unicode="&#xc0;" d="M166 45v600q0 133 85 227.5t222 94.5q135 0 221 -94.5t86 -227.5v-600q0 -45 -45 -45q-51 0 -51 45v299q0 90 -90 90h-242q-90 0 -90 -90v-299q0 -45 -45 -45q-51 0 -51 45zM262 602q0 -90 90 -90h242q90 0 90 90v43q0 94 -57.5 163t-153.5 69t-153.5 -69t-57.5 -163v-43 zM268 1319q0 33 45 33q35 0 60 -21q16 -14 39 -51l94 -158q6 -12 6 -20q0 -20 -19 -21q-23 0 -55 35l-153 168q-16 20 -17 35z" />
<glyph unicode="&#xc1;" d="M166 45v600q0 133 85 227.5t222 94.5q135 0 221 -94.5t86 -227.5v-600q0 -45 -45 -45q-51 0 -51 45v299q0 90 -90 90h-242q-90 0 -90 -90v-299q0 -45 -45 -45q-51 0 -51 45zM262 602q0 -90 90 -90h242q90 0 90 90v43q0 94 -57.5 163t-153.5 69t-153.5 -69t-57.5 -163v-43 zM416 1102q0 10 6 20l95 158q20 33 38 49q27 23 60 23q45 0 45 -35q0 -13 -16 -33l-154 -168q-35 -35 -55 -35q-18 0 -19 21z" />
<glyph unicode="&#xc2;" d="M166 45v600q0 133 85 227.5t222 94.5q135 0 221 -94.5t86 -227.5v-600q0 -45 -45 -45q-51 0 -51 45v299q0 90 -90 90h-242q-90 0 -90 -90v-299q0 -45 -45 -45q-51 0 -51 45zM262 602q0 -90 90 -90h242q90 0 90 90v43q0 94 -57.5 163t-153.5 69t-153.5 -69t-57.5 -163v-43 zM293 1126q0 76 52 128.5t128 52.5t128 -52.5t52 -128.5q0 -45 -37 -45q-39 0 -38 45q0 41 -30 73t-75 32q-43 0 -73.5 -31t-30.5 -74q0 -45 -39 -45q-37 0 -37 45z" />
<glyph unicode="&#xc3;" d="M166 45v600q0 133 85 227.5t222 94.5q135 0 221 -94.5t86 -227.5v-600q0 -45 -45 -45q-51 0 -51 45v299q0 90 -90 90h-242q-90 0 -90 -90v-299q0 -45 -45 -45q-51 0 -51 45zM262 602q0 -90 90 -90h242q90 0 90 90v43q0 94 -57.5 163t-153.5 69t-153.5 -69t-57.5 -163v-43 zM307 1106q0 29 38 55.5t79 26.5q25 0 56.5 -13.5t41.5 -13.5q14 0 27 4q12 4 30.5 16.5t30.5 12.5q29 0 29 -33q0 -29 -36 -54.5t-81 -25.5q-23 0 -53.5 13.5t-44.5 13.5q-23 0 -64 -27q-10 -6 -22 -6q-31 0 -31 31z" />
<glyph unicode="&#xc4;" d="M166 45v600q0 133 85 227.5t222 94.5q135 0 221 -94.5t86 -227.5v-600q0 -45 -45 -45q-51 0 -51 45v299q0 90 -90 90h-242q-90 0 -90 -90v-299q0 -45 -45 -45q-51 0 -51 45zM262 602q0 -90 90 -90h242q90 0 90 90v43q0 94 -57.5 163t-153.5 69t-153.5 -69t-57.5 -163v-43 zM307 1120q0 39 45 39h8q46 0 46 -39t-46 -39h-8q-45 0 -45 39zM541 1120q0 39 45 39h8q45 0 45 -39t-45 -39h-8q-45 0 -45 39z" />
<glyph unicode="&#xc5;" d="M166 45v600q0 133 85 227.5t222 94.5q135 0 221 -94.5t86 -227.5v-600q0 -45 -45 -45q-51 0 -51 45v299q0 90 -90 90h-242q-90 0 -90 -90v-299q0 -45 -45 -45q-51 0 -51 45zM262 602q0 -90 90 -90h242q90 0 90 90v43q0 94 -57.5 163t-153.5 69t-153.5 -69t-57.5 -163v-43 zM293 1239q0 76 52 128t128 52t128 -52t52 -128t-52 -128t-128 -52t-128 52t-52 128zM369 1239q0 -43 30.5 -73.5t73.5 -30.5t74 30.5t31 73.5t-31 73.5t-74 30.5t-73.5 -30.5t-30.5 -73.5z" />
<glyph unicode="&#xc6;" horiz-adv-x="1892" d="M166 45v600q0 133 85 227.5t222 94.5q135 0 221 -94.5t86 -227.5v-43q0 -90 90 -90h152q90 0 90 90v43q0 133 85 227.5t222 94.5q135 0 221 -94.5t86 -227.5q0 -45 -45 -45q-51 0 -51 45q0 94 -57 163t-154 69q-96 0 -153.5 -69t-57.5 -163v-43q0 -90 90 -90h140 q45 0 45 -39t-45 -39h-140q-90 0 -90 -90v-43q0 -94 57.5 -162.5t153.5 -68.5t153.5 68.5t57.5 162.5q0 45 45 45q51 0 51 -45q0 -133 -85 -227t-222 -94q-135 0 -221 94t-86 227v43q0 90 -90 90h-152q-90 0 -90 -90v-299q0 -45 -45 -45q-51 0 -51 45v299q0 90 -90 90h-242 q-90 0 -90 -90v-299q0 -45 -45 -45q-51 0 -51 45zM262 602q0 -90 90 -90h242q90 0 90 90v43q0 94 -57.5 163t-153.5 69t-153.5 -69t-57.5 -163v-43z" />
<glyph unicode="&#xc7;" d="M186 301v344q0 133 85 227.5t223 94.5q94 0 165 -47q61 -41 95 -103q6 -12 6 -24q0 -23 -21 -39q-10 -8 -26 -9q-25 0 -37 21q-31 47 -64 72q-51 39 -118 39q-96 0 -153.5 -69t-57.5 -163v-344q0 -94 57 -162.5t154 -68.5q70 0 118 36q33 25 68 74q16 23 41 23q8 0 14 -2 q6 -6 8 -6q18 -12 19 -41q0 -19 -8 -29q-66 -98 -183 -137q-45 -14 -45 -39q0 -23 27 -37q80 -41 80 -127q0 -59 -41 -100t-100 -41q-39 0 -68 17t-49 46q-6 12 -6 25q0 16 12 26q25 18 51.5 -13.5t59.5 -31.5q31 0 51 22.5t20 49.5q0 53 -53 67.5t-53 53.5q-6 61 -75 89 t-126 101q-70 90 -70 205z" />
<glyph unicode="&#xc8;" d="M184 301v344q0 133 85 227.5t223 94.5q94 0 165 -47q61 -41 95 -103q6 -12 6 -24q0 -23 -21 -39q-10 -8 -26 -9q-25 0 -37 21q-31 47 -64 72q-51 39 -118 39q-96 0 -153.5 -69t-57.5 -163v-43q0 -90 90 -90h192q45 0 45 -39t-45 -39h-192q-90 0 -90 -90v-43 q0 -94 57 -162.5t154 -68.5q70 0 118 36q33 25 68 74q16 23 41 23q8 0 14 -2q6 -6 8 -6q20 -14 21 -41q0 -11 -6 -23q-33 -63 -92 -102q-74 -49 -172 -49q-135 0 -221.5 94t-86.5 227zM280 1319q0 33 45 33q35 0 60 -21q16 -14 39 -51l94 -158q6 -12 6 -20q0 -20 -19 -21 q-23 0 -55 35l-153 168q-16 20 -17 35z" />
<glyph unicode="&#xc9;" d="M182 301q0 -133 85 -227t222 -94q96 0 170 49q64 41 95 102q6 12 6 25q0 23 -21 39q-10 8 -24 8q-27 0 -39 -23q-43 -63 -87 -86.5t-100 -23.5q-96 0 -153 68.5t-57 162.5v43q0 90 90 90h192q45 0 45 39t-45 39h-192q-90 0 -90 90v43q0 94 57 163t153 69q68 0 117 -37 q35 -27 66 -74q12 -20 39 -21q14 0 24 9q20 14 21 41q0 10 -6 22q-33 63 -93 103q-72 47 -168 47q-135 0 -221 -94.5t-86 -227.5v-344zM371 1102q0 -20 18 -21q23 0 55 35l154 168q16 20 16 35q0 33 -45 33q-35 0 -59 -21q-16 -14 -39 -51l-94 -158q-6 -12 -6 -20z" />
<glyph unicode="&#xca;" d="M184 301v344q0 133 85 227.5t223 94.5q94 0 165 -47q61 -41 95 -103q6 -12 6 -24q0 -23 -21 -39q-10 -8 -26 -9q-25 0 -37 21q-31 47 -64 72q-51 39 -118 39q-96 0 -153.5 -69t-57.5 -163v-43q0 -90 90 -90h192q45 0 45 -39t-45 -39h-192q-90 0 -90 -90v-43 q0 -94 57 -162.5t154 -68.5q70 0 118 36q33 25 68 74q16 23 41 23q8 0 14 -2q6 -6 8 -6q20 -14 21 -41q0 -11 -6 -23q-33 -63 -92 -102q-74 -49 -172 -49q-135 0 -221.5 94t-86.5 227zM293 1126q0 76 52 128.5t128 52.5t128 -52.5t52 -128.5q0 -45 -37 -45q-39 0 -38 45 q0 41 -30 73t-75 32q-43 0 -73.5 -31t-30.5 -74q0 -45 -39 -45q-37 0 -37 45z" />
<glyph unicode="&#xcb;" d="M184 301v344q0 133 85 227.5t223 94.5q94 0 165 -47q61 -41 95 -103q6 -12 6 -24q0 -23 -21 -39q-10 -8 -26 -9q-25 0 -37 21q-31 47 -64 72q-51 39 -118 39q-96 0 -153.5 -69t-57.5 -163v-43q0 -90 90 -90h192q45 0 45 -39t-45 -39h-192q-90 0 -90 -90v-43 q0 -94 57 -162.5t154 -68.5q70 0 118 36q33 25 68 74q16 23 41 23q8 0 14 -2q6 -6 8 -6q20 -14 21 -41q0 -11 -6 -23q-33 -63 -92 -102q-74 -49 -172 -49q-135 0 -221.5 94t-86.5 227zM307 1120q0 39 45 39h8q46 0 46 -39t-46 -39h-8q-45 0 -45 39zM541 1120q0 39 45 39h8 q45 0 45 -39t-45 -39h-8q-45 0 -45 39z" />
<glyph unicode="&#xcc;" d="M166 39q0 39 45 39h125q90 0 90 90v610q0 90 -90 90h-57q-45 0 -46 39q0 39 46 39h389q45 0 45 -39t-45 -39h-58q-90 0 -90 -90v-610q0 -90 90 -90h125q45 0 45 -39t-45 -39h-524q-45 0 -45 39zM258 1319q0 33 45 33q35 0 60 -21q16 -14 39 -51l94 -158q6 -12 6 -20 q0 -20 -19 -21q-23 0 -55 35l-153 168q-16 20 -17 35z" />
<glyph unicode="&#xcd;" d="M166 39q0 39 45 39h125q90 0 90 90v610q0 90 -90 90h-57q-45 0 -46 39q0 39 46 39h389q45 0 45 -39t-45 -39h-58q-90 0 -90 -90v-610q0 -90 90 -90h125q45 0 45 -39t-45 -39h-524q-45 0 -45 39zM436 1102q0 10 6 20l95 158q20 33 38 49q27 23 60 23q45 0 45 -35 q0 -13 -16 -33l-154 -168q-35 -35 -55 -35q-18 0 -19 21z" />
<glyph unicode="&#xce;" d="M166 39q0 39 45 39h125q90 0 90 90v610q0 90 -90 90h-57q-45 0 -46 39q0 39 46 39h389q45 0 45 -39t-45 -39h-58q-90 0 -90 -90v-610q0 -90 90 -90h125q45 0 45 -39t-45 -39h-524q-45 0 -45 39zM293 1126q0 76 52 128.5t128 52.5t128 -52.5t52 -128.5q0 -45 -37 -45 q-39 0 -38 45q0 41 -30 73t-75 32q-43 0 -73.5 -31t-30.5 -74q0 -45 -39 -45q-37 0 -37 45z" />
<glyph unicode="&#xcf;" d="M166 39q0 39 45 39h125q90 0 90 90v610q0 90 -90 90h-57q-45 0 -46 39q0 39 46 39h389q45 0 45 -39t-45 -39h-58q-90 0 -90 -90v-610q0 -90 90 -90h125q45 0 45 -39t-45 -39h-524q-45 0 -45 39zM307 1120q0 39 45 39h8q46 0 46 -39t-46 -39h-8q-45 0 -45 39zM541 1120 q0 39 45 39h8q45 0 45 -39t-45 -39h-8q-45 0 -45 39z" />
<glyph unicode="&#xd0;" d="M43 473q0 39 45 39q78 0 78 90v254q0 90 90 90h217q137 0 222 -85t85 -216v-344q0 -129 -84 -215t-223 -86h-217q-90 0 -90 90v254q0 90 -78 90q-45 0 -45 39zM262 168q0 -90 90 -90h121q96 0 153.5 65.5t57.5 157.5v344q0 92 -57.5 157.5t-153.5 65.5h-121 q-90 0 -90 -90v-176q0 -90 90 -90h76q45 0 45 -39t-45 -39h-76q-90 0 -90 -90v-176z" />
<glyph unicode="&#xd1;" d="M166 45v856q0 45 45 45h29q37 0 59 -45l326 -620q18 -35 41 -35q29 0 28 47v608q0 45 43 45t43 -45v-856q0 -45 -45 -45h-26q-37 0 -60 45l-327 629q-18 35 -41 35q-29 0 -29 -47v-617q0 -45 -43 -45t-43 45zM307 1106q0 29 38 55.5t79 26.5q25 0 56.5 -13.5t41.5 -13.5 q14 0 27 4q12 4 30.5 16.5t30.5 12.5q29 0 29 -33q0 -29 -36 -54.5t-81 -25.5q-23 0 -53.5 13.5t-44.5 13.5q-23 0 -64 -27q-10 -6 -22 -6q-31 0 -31 31z" />
<glyph unicode="&#xd2;" d="M166 301v344q0 133 85 227.5t222 94.5q135 0 221 -94.5t86 -227.5v-344q0 -133 -85 -227t-222 -94q-135 0 -221 94t-86 227zM262 301q0 -94 57.5 -162.5t153.5 -68.5t153.5 68.5t57.5 162.5v344q0 94 -57.5 163t-153.5 69t-153.5 -69t-57.5 -163v-344zM268 1319 q0 33 45 33q35 0 60 -21q16 -14 39 -51l94 -158q6 -12 6 -20q0 -20 -19 -21q-23 0 -55 35l-153 168q-16 20 -17 35z" />
<glyph unicode="&#xd3;" d="M166 301v344q0 133 85 227.5t222 94.5q135 0 221 -94.5t86 -227.5v-344q0 -133 -85 -227t-222 -94q-135 0 -221 94t-86 227zM262 301q0 -94 57.5 -162.5t153.5 -68.5t153.5 68.5t57.5 162.5v344q0 94 -57.5 163t-153.5 69t-153.5 -69t-57.5 -163v-344zM420 1102 q0 10 6 20l95 158q20 33 38 49q27 23 60 23q45 0 45 -35q0 -13 -16 -33l-154 -168q-35 -35 -55 -35q-18 0 -19 21z" />
<glyph unicode="&#xd4;" d="M166 301v344q0 133 85 227.5t222 94.5q135 0 221 -94.5t86 -227.5v-344q0 -133 -85 -227t-222 -94q-135 0 -221 94t-86 227zM262 301q0 -94 57.5 -162.5t153.5 -68.5t153.5 68.5t57.5 162.5v344q0 94 -57.5 163t-153.5 69t-153.5 -69t-57.5 -163v-344zM293 1126 q0 76 52 128.5t128 52.5t128 -52.5t52 -128.5q0 -45 -37 -45q-39 0 -38 45q0 41 -30 73t-75 32q-43 0 -73.5 -31t-30.5 -74q0 -45 -39 -45q-37 0 -37 45z" />
<glyph unicode="&#xd5;" d="M166 301v344q0 133 85 227.5t222 94.5q135 0 221 -94.5t86 -227.5v-344q0 -133 -85 -227t-222 -94q-135 0 -221 94t-86 227zM262 301q0 -94 57.5 -162.5t153.5 -68.5t153.5 68.5t57.5 162.5v344q0 94 -57.5 163t-153.5 69t-153.5 -69t-57.5 -163v-344zM307 1106 q0 29 38 55.5t79 26.5q25 0 56.5 -13.5t41.5 -13.5q14 0 27 4q12 4 30.5 16.5t30.5 12.5q29 0 29 -33q0 -29 -36 -54.5t-81 -25.5q-23 0 -53.5 13.5t-44.5 13.5q-23 0 -64 -27q-10 -6 -22 -6q-31 0 -31 31z" />
<glyph unicode="&#xd6;" d="M166 301v344q0 133 85 227.5t222 94.5q135 0 221 -94.5t86 -227.5v-344q0 -133 -85 -227t-222 -94q-135 0 -221 94t-86 227zM262 301q0 -94 57.5 -162.5t153.5 -68.5t153.5 68.5t57.5 162.5v344q0 94 -57.5 163t-153.5 69t-153.5 -69t-57.5 -163v-344zM307 1120 q0 39 45 39h8q46 0 46 -39t-46 -39h-8q-45 0 -45 39zM541 1120q0 39 45 39h8q45 0 45 -39t-45 -39h-8q-45 0 -45 39z" />
<glyph unicode="&#xd7;" d="M240 655q0 18 14 33l4 4q14 14 33 15q18 0 31 -15l94 -92q31 -31 65 -31q33 0 64 31l86 86q16 16 33 16q14 0 26 -12t12 -26q0 -16 -16 -33l-86 -86q-31 -31 -31 -66q0 -33 31 -63l92 -94q16 -16 17 -31q0 -16 -17 -33l-4 -4q-16 -16 -31 -16q-16 0 -32 16l-95 94 q-31 31 -63 31q-33 0 -64 -31l-88 -88q-16 -16 -32 -16q-14 0 -26.5 12t-12.5 27q0 16 16 32l88 88q31 31 31 64t-31 63l-94 95q-14 14 -14 30z" />
<glyph unicode="&#xd8;" d="M166 301v344q0 133 85 227.5t222 94.5q135 0 221 -94.5t86 -227.5v-344q0 -133 -85 -227t-222 -94q-135 0 -221 94t-86 227zM262 438q0 -29 12.5 -43t30.5 -14q14 0 19 2q10 4 28 23l250 280q31 37 31 76q0 43 -37 74q-23 18 -53.5 29.5t-69.5 11.5q-96 0 -153.5 -69 t-57.5 -163v-207zM313 184q0 -43 37 -73q23 -18 53.5 -29.5t69.5 -11.5q96 0 153.5 68.5t57.5 162.5v207q0 29 -12.5 43t-30.5 14q-14 0 -18 -2q-10 -4 -29 -22l-250 -281q-31 -37 -31 -76z" />
<glyph unicode="&#xd9;" d="M166 301v600q0 45 45 45q51 0 51 -45v-600q0 -94 57.5 -162.5t153.5 -68.5t153.5 68.5t57.5 162.5v600q0 45 45 45q51 0 51 -45v-600q0 -133 -85 -227t-222 -94q-135 0 -221 94t-86 227zM282 1319q0 33 45 33q35 0 60 -21q16 -14 39 -51l94 -158q6 -12 6 -20 q0 -20 -19 -21q-23 0 -55 35l-153 168q-16 20 -17 35z" />
<glyph unicode="&#xda;" d="M166 301v600q0 45 45 45q51 0 51 -45v-600q0 -94 57.5 -162.5t153.5 -68.5t153.5 68.5t57.5 162.5v600q0 45 45 45q51 0 51 -45v-600q0 -133 -85 -227t-222 -94q-135 0 -221 94t-86 227zM403 1102q0 10 6 20l95 158q20 33 38 49q27 23 60 23q45 0 45 -35q0 -13 -16 -33 l-154 -168q-35 -35 -55 -35q-18 0 -19 21z" />
<glyph unicode="&#xdb;" d="M166 301v600q0 45 45 45q51 0 51 -45v-600q0 -94 57.5 -162.5t153.5 -68.5t153.5 68.5t57.5 162.5v600q0 45 45 45q51 0 51 -45v-600q0 -133 -85 -227t-222 -94q-135 0 -221 94t-86 227zM293 1126q0 76 52 128.5t128 52.5t128 -52.5t52 -128.5q0 -45 -37 -45 q-39 0 -38 45q0 41 -30 73t-75 32q-43 0 -73.5 -31t-30.5 -74q0 -45 -39 -45q-37 0 -37 45z" />
<glyph unicode="&#xdc;" d="M166 301v600q0 45 45 45q51 0 51 -45v-600q0 -94 57.5 -162.5t153.5 -68.5t153.5 68.5t57.5 162.5v600q0 45 45 45q51 0 51 -45v-600q0 -133 -85 -227t-222 -94q-135 0 -221 94t-86 227zM307 1120q0 39 45 39h8q46 0 46 -39t-46 -39h-8q-45 0 -45 39zM541 1120 q0 39 45 39h8q45 0 45 -39t-45 -39h-8q-45 0 -45 39z" />
<glyph unicode="&#xdd;" d="M164 913q0 33 47 33q16 0 30.5 -12t24.5 -29l156 -243q25 -41 51 -41q27 0 51 41l154 243q12 20 24.5 30.5t30.5 10.5q47 0 47 -33q0 -12 -8 -22l-221 -363q-31 -51 -31 -127v-356q0 -45 -45 -45q-49 0 -49 45v356q0 33 -8 69t-23 58l-223 363q-4 4 -6 12q-2 6 -2 10z M418 1102q0 10 6 20l95 158q20 33 38 49q27 23 60 23q45 0 45 -35q0 -13 -16 -33l-154 -168q-35 -35 -55 -35q-18 0 -19 21z" />
<glyph unicode="&#xde;" d="M166 45v1262q0 45 45 45q51 0 51 -45v-322q0 -55 49 -55q10 0 27 6q68 31 135 31q135 0 221 -94.5t86 -227.5t-85 -227t-222 -94q-68 0 -135 30q-16 6 -29 6q-47 0 -47 -55v-260q0 -45 -45 -45q-51 0 -51 45zM262 645q0 -94 57.5 -162.5t153.5 -68.5t153.5 68.5 t57.5 162.5t-57.5 163t-153.5 69t-153.5 -69t-57.5 -163z" />
<glyph unicode="&#xdf;" d="M166 -360v1005q0 133 85 227.5t222 94.5q133 0 217 -76t84 -201q0 -63 -22 -110q-14 -31 -44 -61t-30 -46t32.5 -47t51 -77t18.5 -93q0 -131 -87 -203.5t-238 -72.5q-49 0 -49 45t47 45q231 0 231 186q0 98 -82 143q-61 35 -151 35q-45 0 -45 39t45 39q86 0 147 37 q80 47 80 141q0 84 -59.5 135.5t-145.5 51.5q-96 0 -153.5 -69t-57.5 -163v-1005q0 -45 -45 -46q-51 0 -51 46z" />
<glyph unicode="&#xe0;" horiz-adv-x="948" d="M166 301q0 133 85 227.5t222 94.5q80 0 143 -35q14 -8 27 -8q41 0 41 65q0 94 -57.5 163t-153.5 69q-76 0 -149 -33q-20 -8 -29 -8q-23 0 -35 22q-4 6 -4 21q0 27 25 41q35 20 85 33.5t107 13.5q135 0 221 -94.5t86 -227.5v-600q0 -45 -47 -45q-27 0 -38 18.5t-27 18.5 q-4 0 -17 -4q-39 -23 -83 -38t-95 -15q-135 0 -221 94t-86 227zM262 301q0 -94 57.5 -162.5t153.5 -68.5t153.5 68.5t57.5 162.5t-57.5 162.5t-153.5 68.5t-153.5 -68.5t-57.5 -162.5zM313 1319q0 33 45 33q35 0 60 -21q16 -14 39 -51l94 -158q6 -12 6 -20q0 -20 -19 -21 q-23 0 -55 35l-153 168q-16 20 -17 35z" />
<glyph unicode="&#xe1;" d="M166 301q0 133 85 227.5t222 94.5q80 0 143 -35q14 -8 27 -8q41 0 41 65q0 94 -57.5 163t-153.5 69q-76 0 -149 -33q-20 -8 -29 -8q-23 0 -35 22q-4 6 -4 21q0 27 25 41q35 20 85 33.5t107 13.5q135 0 221 -94.5t86 -227.5v-600q0 -45 -47 -45q-27 0 -38 18.5t-27 18.5 q-4 0 -17 -4q-39 -23 -83 -38t-95 -15q-135 0 -221 94t-86 227zM262 301q0 -94 57.5 -162.5t153.5 -68.5t153.5 68.5t57.5 162.5t-57.5 162.5t-153.5 68.5t-153.5 -68.5t-57.5 -162.5zM418 1102q0 10 6 20l95 158q20 33 38 49q27 23 60 23q45 0 45 -35q0 -13 -16 -33 l-154 -168q-35 -35 -55 -35q-18 0 -19 21z" />
<glyph unicode="&#xe2;" d="M166 301q0 133 85 227.5t222 94.5q80 0 143 -35q14 -8 27 -8q41 0 41 65q0 94 -57.5 163t-153.5 69q-76 0 -149 -33q-20 -8 -29 -8q-23 0 -35 22q-4 6 -4 21q0 27 25 41q35 20 85 33.5t107 13.5q135 0 221 -94.5t86 -227.5v-600q0 -45 -47 -45q-27 0 -38 18.5t-27 18.5 q-4 0 -17 -4q-39 -23 -83 -38t-95 -15q-135 0 -221 94t-86 227zM262 301q0 -94 57.5 -162.5t153.5 -68.5t153.5 68.5t57.5 162.5t-57.5 162.5t-153.5 68.5t-153.5 -68.5t-57.5 -162.5zM301 1126q0 76 52 128.5t128 52.5t128 -52.5t52 -128.5q0 -45 -37 -45q-39 0 -38 45 q0 41 -30 73t-75 32q-43 0 -73.5 -31t-30.5 -74q0 -45 -39 -45q-37 0 -37 45z" />
<glyph unicode="&#xe3;" d="M166 301q0 133 85 227.5t222 94.5q80 0 143 -35q14 -8 27 -8q41 0 41 65q0 94 -57.5 163t-153.5 69q-76 0 -149 -33q-20 -8 -29 -8q-23 0 -35 22q-4 6 -4 21q0 27 25 41q35 20 85 33.5t107 13.5q135 0 221 -94.5t86 -227.5v-600q0 -45 -47 -45q-27 0 -38 18.5t-27 18.5 q-4 0 -17 -4q-39 -23 -83 -38t-95 -15q-135 0 -221 94t-86 227zM262 301q0 -94 57.5 -162.5t153.5 -68.5t153.5 68.5t57.5 162.5t-57.5 162.5t-153.5 68.5t-153.5 -68.5t-57.5 -162.5zM307 1106q0 29 38 55.5t79 26.5q25 0 56.5 -13.5t41.5 -13.5q14 0 27 4q12 4 30.5 16.5 t30.5 12.5q29 0 29 -33q0 -29 -36 -54.5t-81 -25.5q-23 0 -53.5 13.5t-44.5 13.5q-23 0 -64 -27q-10 -6 -22 -6q-31 0 -31 31z" />
<glyph unicode="&#xe4;" d="M166 301q0 133 85 227.5t222 94.5q80 0 143 -35q14 -8 27 -8q41 0 41 65q0 94 -57.5 163t-153.5 69q-76 0 -149 -33q-20 -8 -29 -8q-23 0 -35 22q-4 6 -4 21q0 27 25 41q35 20 85 33.5t107 13.5q135 0 221 -94.5t86 -227.5v-600q0 -45 -47 -45q-27 0 -38 18.5t-27 18.5 q-4 0 -17 -4q-39 -23 -83 -38t-95 -15q-135 0 -221 94t-86 227zM262 301q0 -94 57.5 -162.5t153.5 -68.5t153.5 68.5t57.5 162.5t-57.5 162.5t-153.5 68.5t-153.5 -68.5t-57.5 -162.5zM307 1120q0 39 45 39h8q46 0 46 -39t-46 -39h-8q-45 0 -45 39zM541 1120q0 39 45 39h8 q45 0 45 -39t-45 -39h-8q-45 0 -45 39z" />
<glyph unicode="&#xe5;" d="M166 301q0 133 85 227.5t222 94.5q80 0 143 -35q14 -8 27 -8q41 0 41 65q0 94 -57.5 163t-153.5 69q-76 0 -149 -33q-20 -8 -29 -8q-23 0 -35 22q-4 6 -4 21q0 27 25 41q35 20 85 33.5t107 13.5q135 0 221 -94.5t86 -227.5v-600q0 -45 -47 -45q-27 0 -38 18.5t-27 18.5 q-4 0 -17 -4q-39 -23 -83 -38t-95 -15q-135 0 -221 94t-86 227zM262 301q0 -94 57.5 -162.5t153.5 -68.5t153.5 68.5t57.5 162.5t-57.5 162.5t-153.5 68.5t-153.5 -68.5t-57.5 -162.5zM293 1239q0 76 52 128t128 52t128 -52t52 -128t-52 -128t-128 -52t-128 52t-52 128z M369 1239q0 -43 30.5 -73.5t73.5 -30.5t74 30.5t31 73.5t-31 73.5t-74 30.5t-73.5 -30.5t-30.5 -73.5z" />
<glyph unicode="&#xe6;" horiz-adv-x="1892" d="M166 256q0 127 88 191.5t219 64.5h121q90 0 90 90v43q0 94 -57.5 163t-153.5 69t-153.5 -69t-57.5 -163q0 -45 -45 -45q-51 0 -51 45q0 133 85 227.5t222 94.5q135 0 221 -94.5t86 -227.5v-43q0 -90 90 -90h152q90 0 90 90v43q0 133 85 227.5t222 94.5q131 0 219 -76 t88 -201q0 -127 -92 -194q-84 -61 -215 -62h-121q-90 0 -90 -90v-43q0 -94 57.5 -162.5t153.5 -68.5t153.5 68.5t57.5 162.5q0 45 45 45q51 0 51 -45q0 -133 -85 -227t-222 -94q-135 0 -221 94t-86 227v43q0 90 -90 90h-152q-90 0 -90 -90v-43q0 -133 -85 -227t-222 -94 q-131 0 -219 75.5t-88 200.5zM258 256q0 -82 58.5 -134t156.5 -52q96 0 153.5 68.5t57.5 162.5v43q0 90 -90 90h-121q-96 0 -155.5 -47t-59.5 -131zM1208 602q0 -90 90 -90h121q96 0 155.5 47t59.5 131q0 82 -58 134.5t-157 52.5q-96 0 -153.5 -69t-57.5 -163v-43z" />
<glyph unicode="&#xe7;" d="M186 301v344q0 133 85 227.5t223 94.5q94 0 165 -47q61 -41 95 -103q6 -12 6 -24q0 -23 -21 -39q-10 -8 -26 -9q-25 0 -37 21q-31 47 -64 72q-51 39 -118 39q-96 0 -153.5 -69t-57.5 -163v-344q0 -94 57 -162.5t154 -68.5q70 0 118 36q33 25 68 74q16 23 41 23q8 0 14 -2 q6 -6 8 -6q18 -12 19 -41q0 -19 -8 -29q-66 -98 -183 -137q-45 -14 -45 -39q0 -23 27 -37q80 -41 80 -127q0 -59 -41 -100t-100 -41q-39 0 -68 17t-49 46q-6 12 -6 25q0 16 12 26q25 18 51.5 -13.5t59.5 -31.5q31 0 51 22.5t20 49.5q0 53 -53 67.5t-53 53.5q-6 61 -75 89 t-126 101q-70 90 -70 205z" />
<glyph unicode="&#xe8;" d="M166 301v344q0 133 85 227.5t222 94.5q135 0 221 -94.5t86 -227.5v-121q0 -90 -90 -90h-338q-90 0 -90 -90v-43q0 -94 57.5 -162.5t153.5 -68.5q70 0 119 36q33 25 67 74q16 23 41 23q8 0 15 -2q6 -6 8 -6q20 -14 20 -41q0 -10 -6 -23q-33 -63 -92 -102q-74 -49 -172 -49 q-135 0 -221 94t-86 227zM262 602q0 -90 90 -90h242q90 0 90 90v43q0 94 -57.5 163t-153.5 69t-153.5 -69t-57.5 -163v-43zM274 1319q0 33 45 33q35 0 60 -21q16 -14 39 -51l94 -158q6 -12 6 -20q0 -20 -19 -21q-23 0 -55 35l-153 168q-16 20 -17 35z" />
<glyph unicode="&#xe9;" d="M166 301v344q0 133 85 227.5t222 94.5q135 0 221 -94.5t86 -227.5v-121q0 -90 -90 -90h-338q-90 0 -90 -90v-43q0 -94 57.5 -162.5t153.5 -68.5q70 0 119 36q33 25 67 74q16 23 41 23q8 0 15 -2q6 -6 8 -6q20 -14 20 -41q0 -10 -6 -23q-33 -63 -92 -102q-74 -49 -172 -49 q-135 0 -221 94t-86 227zM262 602q0 -90 90 -90h242q90 0 90 90v43q0 94 -57.5 163t-153.5 69t-153.5 -69t-57.5 -163v-43zM399 1102q0 10 6 20l95 158q20 33 38 49q27 23 60 23q45 0 45 -35q0 -13 -16 -33l-154 -168q-35 -35 -55 -35q-18 0 -19 21z" />
<glyph unicode="&#xea;" d="M166 301v344q0 133 85 227.5t222 94.5q135 0 221 -94.5t86 -227.5v-121q0 -90 -90 -90h-338q-90 0 -90 -90v-43q0 -94 57.5 -162.5t153.5 -68.5q70 0 119 36q33 25 67 74q16 23 41 23q8 0 15 -2q6 -6 8 -6q20 -14 20 -41q0 -10 -6 -23q-33 -63 -92 -102q-74 -49 -172 -49 q-135 0 -221 94t-86 227zM262 602q0 -90 90 -90h242q90 0 90 90v43q0 94 -57.5 163t-153.5 69t-153.5 -69t-57.5 -163v-43zM293 1126q0 76 52 128.5t128 52.5t128 -52.5t52 -128.5q0 -45 -37 -45q-39 0 -38 45q0 41 -30 73t-75 32q-43 0 -73.5 -31t-30.5 -74q0 -45 -39 -45 q-37 0 -37 45z" />
<glyph unicode="&#xeb;" d="M166 301v344q0 133 85 227.5t222 94.5q135 0 221 -94.5t86 -227.5v-121q0 -90 -90 -90h-338q-90 0 -90 -90v-43q0 -94 57.5 -162.5t153.5 -68.5q70 0 119 36q33 25 67 74q16 23 41 23q8 0 15 -2q6 -6 8 -6q20 -14 20 -41q0 -10 -6 -23q-33 -63 -92 -102q-74 -49 -172 -49 q-135 0 -221 94t-86 227zM262 602q0 -90 90 -90h242q90 0 90 90v43q0 94 -57.5 163t-153.5 69t-153.5 -69t-57.5 -163v-43zM307 1120q0 39 45 39h8q46 0 46 -39t-46 -39h-8q-45 0 -45 39zM541 1120q0 39 45 39h8q45 0 45 -39t-45 -39h-8q-45 0 -45 39z" />
<glyph unicode="&#xec;" d="M301 301v600q0 45 45 45q51 0 51 -45v-600q0 -94 57.5 -162.5t153.5 -68.5q45 0 86 18q12 6 27 6q23 0 37 -20q6 -10 6 -23q0 -29 -27 -43q-57 -29 -129 -28q-135 0 -221 94t-86 227zM301 1319q0 33 45 33q35 0 60 -21q16 -14 39 -51l94 -158q6 -12 6 -20q0 -20 -19 -21 q-23 0 -55 35l-153 168q-16 20 -17 35z" />
<glyph unicode="&#xed;" d="M301 301v600q0 45 45 45q51 0 51 -45v-600q0 -94 57.5 -162.5t153.5 -68.5q45 0 86 18q12 6 27 6q23 0 37 -20q6 -10 6 -23q0 -29 -27 -43q-57 -29 -129 -28q-135 0 -221 94t-86 227zM323 1102q0 10 6 20l95 158q20 33 38 49q27 23 60 23q45 0 45 -35q0 -13 -16 -33 l-154 -168q-35 -35 -55 -35q-18 0 -19 21z" />
<glyph unicode="&#xee;" d="M301 301v600q0 45 45 45q51 0 51 -45v-600q0 -94 57.5 -162.5t153.5 -68.5q45 0 86 18q12 6 27 6q23 0 37 -20q6 -10 6 -23q0 -29 -27 -43q-57 -29 -129 -28q-135 0 -221 94t-86 227zM301 1126q0 76 52 128.5t128 52.5t128 -52.5t52 -128.5q0 -45 -37 -45q-39 0 -38 45 q0 41 -30 73t-75 32q-43 0 -73.5 -31t-30.5 -74q0 -45 -39 -45q-37 0 -37 45z" />
<glyph unicode="&#xef;" d="M301 301v600q0 45 45 45q51 0 51 -45v-600q0 -94 57.5 -162.5t153.5 -68.5q45 0 86 18q12 6 27 6q23 0 37 -20q6 -10 6 -23q0 -29 -27 -43q-57 -29 -129 -28q-135 0 -221 94t-86 227zM301 1120q0 39 45 39h8q46 0 46 -39t-46 -39h-8q-45 0 -45 39zM535 1120q0 39 45 39h8 q45 0 45 -39t-45 -39h-8q-45 0 -45 39z" />
<glyph unicode="&#xf0;" d="M166 301v344q0 133 85 227.5t222 94.5q20 0 37.5 -2t37 -6.5t25.5 -4.5q23 0 35.5 14.5t12.5 37.5q0 8 -6.5 32.5t-30 58t-58.5 60.5q-23 16 -41 17q-29 0 -45 -27l-34 -55q-16 -23 -35 -23q-10 0 -21 6q-18 12 -18 31q0 8 8 24l31 50q10 16 10 32q0 37 -50 49.5 t-110 12.5q-45 0 -45 39t45 39q94 0 185 -25q51 -14 75 29q18 27 39 26q10 0 24.5 -8t14.5 -24q0 -12 -10 -28.5t-10 -39.5t18 -39q129 -113 180 -268q43 -131 43 -330v-344q0 -133 -85 -227t-222 -94q-135 0 -221 94t-86 227zM262 301q0 -94 57.5 -162.5t153.5 -68.5 t153.5 68.5t57.5 162.5v344q0 94 -57.5 163t-153.5 69t-153.5 -69t-57.5 -163v-344z" />
<glyph unicode="&#xf1;" d="M166 45v856q0 45 47 45q27 0 41 -22q8 -14 25 -15q10 0 16 4q39 23 83 38.5t95 15.5q135 0 221 -94.5t86 -227.5v-600q0 -45 -45 -45q-51 0 -51 45v600q0 94 -57.5 163t-153.5 69t-153.5 -69t-57.5 -163v-600q0 -45 -45 -45q-51 0 -51 45zM307 1106q0 29 38 55.5t79 26.5 q25 0 56.5 -13.5t41.5 -13.5q14 0 27 4q12 4 30.5 16.5t30.5 12.5q29 0 29 -33q0 -29 -36 -54.5t-81 -25.5q-23 0 -53.5 13.5t-44.5 13.5q-23 0 -64 -27q-10 -6 -22 -6q-31 0 -31 31z" />
<glyph unicode="&#xf2;" d="M166 301v344q0 133 85 227.5t222 94.5q135 0 221 -94.5t86 -227.5v-344q0 -133 -85 -227t-222 -94q-135 0 -221 94t-86 227zM262 301q0 -94 57.5 -162.5t153.5 -68.5t153.5 68.5t57.5 162.5v344q0 94 -57.5 163t-153.5 69t-153.5 -69t-57.5 -163v-344zM268 1319 q0 33 45 33q35 0 60 -21q16 -14 39 -51l94 -158q6 -12 6 -20q0 -20 -19 -21q-23 0 -55 35l-153 168q-16 20 -17 35z" />
<glyph unicode="&#xf3;" d="M166 301v344q0 133 85 227.5t222 94.5q135 0 221 -94.5t86 -227.5v-344q0 -133 -85 -227t-222 -94q-135 0 -221 94t-86 227zM262 301q0 -94 57.5 -162.5t153.5 -68.5t153.5 68.5t57.5 162.5v344q0 94 -57.5 163t-153.5 69t-153.5 -69t-57.5 -163v-344zM420 1102 q0 10 6 20l95 158q20 33 38 49q27 23 60 23q45 0 45 -35q0 -13 -16 -33l-154 -168q-35 -35 -55 -35q-18 0 -19 21z" />
<glyph unicode="&#xf4;" d="M166 301v344q0 133 85 227.5t222 94.5q135 0 221 -94.5t86 -227.5v-344q0 -133 -85 -227t-222 -94q-135 0 -221 94t-86 227zM262 301q0 -94 57.5 -162.5t153.5 -68.5t153.5 68.5t57.5 162.5v344q0 94 -57.5 163t-153.5 69t-153.5 -69t-57.5 -163v-344zM293 1126 q0 76 52 128.5t128 52.5t128 -52.5t52 -128.5q0 -45 -37 -45q-39 0 -38 45q0 41 -30 73t-75 32q-43 0 -73.5 -31t-30.5 -74q0 -45 -39 -45q-37 0 -37 45z" />
<glyph unicode="&#xf5;" d="M166 301v344q0 133 85 227.5t222 94.5q135 0 221 -94.5t86 -227.5v-344q0 -133 -85 -227t-222 -94q-135 0 -221 94t-86 227zM262 301q0 -94 57.5 -162.5t153.5 -68.5t153.5 68.5t57.5 162.5v344q0 94 -57.5 163t-153.5 69t-153.5 -69t-57.5 -163v-344zM307 1106 q0 29 38 55.5t79 26.5q25 0 56.5 -13.5t41.5 -13.5q14 0 27 4q12 4 30.5 16.5t30.5 12.5q29 0 29 -33q0 -29 -36 -54.5t-81 -25.5q-23 0 -53.5 13.5t-44.5 13.5q-23 0 -64 -27q-10 -6 -22 -6q-31 0 -31 31z" />
<glyph unicode="&#xf6;" d="M166 301v344q0 133 85 227.5t222 94.5q135 0 221 -94.5t86 -227.5v-344q0 -133 -85 -227t-222 -94q-135 0 -221 94t-86 227zM262 301q0 -94 57.5 -162.5t153.5 -68.5t153.5 68.5t57.5 162.5v344q0 94 -57.5 163t-153.5 69t-153.5 -69t-57.5 -163v-344zM307 1120 q0 39 45 39h8q46 0 46 -39t-46 -39h-8q-45 0 -45 39zM541 1120q0 39 45 39h8q45 0 45 -39t-45 -39h-8q-45 0 -45 39z" />
<glyph unicode="&#xf7;" d="M166 473q0 39 45 39h524q45 0 45 -39t-45 -39h-524q-45 0 -45 39zM424 205q0 39 45 39h8q45 0 45 -39t-45 -39h-8q-45 0 -45 39zM424 741q0 39 45 39h8q45 0 45 -39t-45 -39h-8q-45 0 -45 39z" />
<glyph unicode="&#xf8;" d="M166 301v344q0 133 85 227.5t222 94.5q135 0 221 -94.5t86 -227.5v-344q0 -133 -85 -227t-222 -94q-135 0 -221 94t-86 227zM262 438q0 -29 12.5 -43t30.5 -14q14 0 19 2q10 4 28 23l250 280q31 37 31 76q0 43 -37 74q-23 18 -53.5 29.5t-69.5 11.5q-96 0 -153.5 -69 t-57.5 -163v-207zM313 184q0 -43 37 -73q23 -18 53.5 -29.5t69.5 -11.5q96 0 153.5 68.5t57.5 162.5v207q0 29 -12.5 43t-30.5 14q-14 0 -18 -2q-10 -4 -29 -22l-250 -281q-31 -37 -31 -76z" />
<glyph unicode="&#xf9;" d="M166 301v600q0 45 45 45q51 0 51 -45v-600q0 -94 57.5 -162.5t153.5 -68.5t153.5 68.5t57.5 162.5v600q0 45 45 45q51 0 51 -45v-856q0 -45 -47 -45q-27 0 -38 18.5t-27 18.5q-4 0 -17 -4q-39 -23 -83 -38t-95 -15q-135 0 -221 94t-86 227zM282 1319q0 33 45 33 q35 0 60 -21q16 -14 39 -51l94 -158q6 -12 6 -20q0 -20 -19 -21q-23 0 -55 35l-153 168q-16 20 -17 35z" />
<glyph unicode="&#xfa;" d="M166 301v600q0 45 45 45q51 0 51 -45v-600q0 -94 57.5 -162.5t153.5 -68.5t153.5 68.5t57.5 162.5v600q0 45 45 45q51 0 51 -45v-856q0 -45 -47 -45q-27 0 -38 18.5t-27 18.5q-4 0 -17 -4q-39 -23 -83 -38t-95 -15q-135 0 -221 94t-86 227zM405 1102q0 10 6 20l95 158 q20 33 38 49q27 23 60 23q45 0 45 -35q0 -13 -16 -33l-154 -168q-35 -35 -55 -35q-18 0 -19 21z" />
<glyph unicode="&#xfb;" d="M166 301v600q0 45 45 45q51 0 51 -45v-600q0 -94 57.5 -162.5t153.5 -68.5t153.5 68.5t57.5 162.5v600q0 45 45 45q51 0 51 -45v-856q0 -45 -47 -45q-27 0 -38 18.5t-27 18.5q-4 0 -17 -4q-39 -23 -83 -38t-95 -15q-135 0 -221 94t-86 227zM293 1126q0 76 52 128.5 t128 52.5t128 -52.5t52 -128.5q0 -45 -37 -45q-39 0 -38 45q0 41 -30 73t-75 32q-43 0 -73.5 -31t-30.5 -74q0 -45 -39 -45q-37 0 -37 45z" />
<glyph unicode="&#xfc;" d="M166 301v600q0 45 45 45q51 0 51 -45v-600q0 -94 57.5 -162.5t153.5 -68.5t153.5 68.5t57.5 162.5v600q0 45 45 45q51 0 51 -45v-856q0 -45 -47 -45q-27 0 -38 18.5t-27 18.5q-4 0 -17 -4q-39 -23 -83 -38t-95 -15q-135 0 -221 94t-86 227zM307 1120q0 39 45 39h8 q46 0 46 -39t-46 -39h-8q-45 0 -45 39zM541 1120q0 39 45 39h8q45 0 45 -39t-45 -39h-8q-45 0 -45 39z" />
<glyph unicode="&#xfd;" d="M166 301v600q0 45 45 45q51 0 51 -45v-600q0 -94 57.5 -162.5t153.5 -68.5t153.5 68.5t57.5 162.5v600q0 45 45 45q51 0 51 -45v-1005q0 -133 -85 -227.5t-222 -94.5q-74 0 -135.5 21.5t-112.5 56.5q-23 16 -22 39q0 10 2 14q6 6 6 8q16 23 39 23q8 0 24 -8 q43 -25 96.5 -44.5t102.5 -19.5q96 0 153.5 68.5t57.5 163.5v65q0 55 -49 55q-10 0 -27.5 -8t-55.5 -18t-79 -10q-135 0 -221 94t-86 227zM395 1102q0 10 6 20l95 158q20 33 38 49q27 23 60 23q45 0 45 -35q0 -13 -16 -33l-154 -168q-35 -35 -55 -35q-18 0 -19 21z" />
<glyph unicode="&#xfe;" d="M166 -360v1667q0 45 45 45q51 0 51 -45v-322q0 -55 49 -55q10 0 27.5 8t55.5 18.5t79 10.5q135 0 221 -94.5t86 -227.5v-344q0 -133 -85 -227t-222 -94q-72 0 -135 30q-16 6 -29 6q-47 0 -47 -55v-321q0 -45 -45 -46q-51 0 -51 46zM262 301q0 -94 57.5 -162.5 t153.5 -68.5t153.5 68.5t57.5 162.5v344q0 94 -57.5 163t-153.5 69t-153.5 -69t-57.5 -163v-344z" />
<glyph unicode="&#xff;" d="M166 301v600q0 45 45 45q51 0 51 -45v-600q0 -94 57.5 -162.5t153.5 -68.5t153.5 68.5t57.5 162.5v600q0 45 45 45q51 0 51 -45v-1005q0 -133 -85 -227.5t-222 -94.5q-74 0 -135.5 21.5t-112.5 56.5q-23 16 -22 39q0 10 2 14q6 6 6 8q16 23 39 23q8 0 24 -8 q43 -25 96.5 -44.5t102.5 -19.5q96 0 153.5 68.5t57.5 163.5v65q0 55 -49 55q-10 0 -27.5 -8t-55.5 -18t-79 -10q-135 0 -221 94t-86 227zM307 1120q0 39 45 39h8q46 0 46 -39t-46 -39h-8q-45 0 -45 39zM541 1120q0 39 45 39h8q45 0 45 -39t-45 -39h-8q-45 0 -45 39z" />
<glyph unicode="&#x152;" horiz-adv-x="1892" d="M166 301v344q0 133 85 227.5t222 94.5q135 0 221 -94.5t86 -227.5v-43q0 -90 90 -90h152q90 0 90 90v43q0 133 85 227.5t222 94.5q135 0 221 -94.5t86 -227.5q0 -45 -45 -45q-51 0 -51 45q0 94 -57 163t-154 69q-96 0 -153.5 -69t-57.5 -163v-43q0 -90 90 -90h140 q45 0 45 -39t-45 -39h-140q-90 0 -90 -90v-43q0 -94 57.5 -162.5t153.5 -68.5t153.5 68.5t57.5 162.5q0 45 45 45q51 0 51 -45q0 -133 -85 -227t-222 -94q-135 0 -221 94t-86 227v43q0 90 -90 90h-152q-90 0 -90 -90v-43q0 -133 -85 -227t-222 -94q-135 0 -221 94t-86 227z M262 301q0 -94 57.5 -162.5t153.5 -68.5t153.5 68.5t57.5 162.5v344q0 94 -57.5 163t-153.5 69t-153.5 -69t-57.5 -163v-344z" />
<glyph unicode="&#x153;" horiz-adv-x="1892" d="M166 301v344q0 133 85 227.5t222 94.5q135 0 221 -94.5t86 -227.5v-43q0 -90 90 -90h152q90 0 90 90v43q0 133 85 227.5t222 94.5q131 0 219 -76t88 -201q0 -127 -92 -194q-84 -61 -215 -62h-121q-90 0 -90 -90v-43q0 -94 57.5 -162.5t153.5 -68.5t153.5 68.5t57.5 162.5 q0 45 45 45q51 0 51 -45q0 -133 -85 -227t-222 -94q-135 0 -221 94t-86 227v43q0 90 -90 90h-152q-90 0 -90 -90v-43q0 -133 -85 -227t-222 -94q-135 0 -221 94t-86 227zM262 301q0 -94 57.5 -162.5t153.5 -68.5t153.5 68.5t57.5 162.5v344q0 94 -57.5 163t-153.5 69 t-153.5 -69t-57.5 -163v-344zM1208 602q0 -90 90 -90h121q96 0 155.5 47t59.5 131q0 82 -58 134.5t-157 52.5q-96 0 -153.5 -69t-57.5 -163v-43z" />
<glyph unicode="&#x178;" d="M164 913q0 33 47 33q16 0 30.5 -12t24.5 -29l156 -243q25 -41 51 -41q27 0 51 41l154 243q12 20 24.5 30.5t30.5 10.5q47 0 47 -33q0 -12 -8 -22l-221 -363q-31 -51 -31 -127v-356q0 -45 -45 -45q-49 0 -49 45v356q0 33 -8 69t-23 58l-223 363q-4 4 -6 12q-2 6 -2 10z M307 1120q0 39 45 39h8q46 0 46 -39t-46 -39h-8q-45 0 -45 39zM541 1120q0 39 45 39h8q45 0 45 -39t-45 -39h-8q-45 0 -45 39z" />
<glyph unicode="&#x2c6;" d="M293 1126q0 76 52 128.5t128 52.5t128 -52.5t52 -128.5q0 -45 -37 -45q-39 0 -38 45q0 41 -30 73t-75 32q-43 0 -73.5 -31t-30.5 -74q0 -45 -39 -45q-37 0 -37 45z" />
<glyph unicode="&#x2dc;" d="M307 1106q0 29 38 55.5t79 26.5q25 0 56.5 -13.5t41.5 -13.5q14 0 27 4q12 4 30.5 16.5t30.5 12.5q29 0 29 -33q0 -29 -36 -54.5t-81 -25.5q-23 0 -53.5 13.5t-44.5 13.5q-23 0 -64 -27q-10 -6 -22 -6q-31 0 -31 31z" />
<glyph unicode="&#x2000;" horiz-adv-x="709" />
<glyph unicode="&#x2001;" horiz-adv-x="1419" />
<glyph unicode="&#x2002;" horiz-adv-x="709" />
<glyph unicode="&#x2003;" horiz-adv-x="1419" />
<glyph unicode="&#x2004;" horiz-adv-x="473" />
<glyph unicode="&#x2005;" horiz-adv-x="354" />
<glyph unicode="&#x2006;" horiz-adv-x="236" />
<glyph unicode="&#x2007;" horiz-adv-x="236" />
<glyph unicode="&#x2008;" horiz-adv-x="177" />
<glyph unicode="&#x2009;" horiz-adv-x="283" />
<glyph unicode="&#x200a;" horiz-adv-x="78" />
<glyph unicode="&#x2010;" d="M217 473q0 39 45 39h422q45 0 45 -39t-45 -39h-422q-45 0 -45 39z" />
<glyph unicode="&#x2011;" d="M217 473q0 39 45 39h422q45 0 45 -39t-45 -39h-422q-45 0 -45 39z" />
<glyph unicode="&#x2012;" d="M217 473q0 39 45 39h422q45 0 45 -39t-45 -39h-422q-45 0 -45 39z" />
<glyph unicode="&#x2013;" d="M166 473q0 39 45 39h524q45 0 45 -39t-45 -39h-524q-45 0 -45 39z" />
<glyph unicode="&#x2014;" horiz-adv-x="1892" d="M166 473q0 39 45 39h1470q45 0 45 -39t-45 -39h-1470q-45 0 -45 39z" />
<glyph unicode="&#x2018;" d="M340 1051v32q0 111 61.5 191t149.5 98q59 14 59 -37q0 -23 -11.5 -34t-29.5 -17q-55 -18 -92 -65q-43 -55 -43 -136v-32q0 -45 -45 -45q-49 0 -49 45z" />
<glyph unicode="&#x2019;" d="M338 1022q0 23 11 34t30 17q55 18 95 69.5t40 131.5v33q0 45 45 45q49 0 49 -45v-33q0 -111 -61.5 -190.5t-149.5 -98.5q-59 -14 -59 37z" />
<glyph unicode="&#x201a;" d="M250 -252q0 23 11 34t30 17q55 18 95 69.5t40 131.5v33q0 45 45 45q49 0 49 -45v-33q0 -111 -61.5 -190.5t-149.5 -98.5q-59 -14 -59 37z" />
<glyph unicode="&#x201c;" d="M203 1051v32q0 111 61.5 191t149.5 98q59 14 59 -37q0 -23 -11.5 -34t-29.5 -17q-55 -18 -92 -65q-43 -55 -43 -136v-32q0 -45 -45 -45q-49 0 -49 45zM473 1051v32q0 111 61.5 191t149.5 98q59 14 59 -37q0 -23 -11.5 -34t-29.5 -17q-55 -18 -92 -65q-43 -55 -43 -136 v-32q0 -45 -45 -45q-49 0 -49 45z" />
<glyph unicode="&#x201d;" d="M203 1022q0 23 11 34t30 17q55 18 95 69.5t40 131.5v33q0 45 45 45q49 0 49 -45v-33q0 -111 -61.5 -190.5t-149.5 -98.5q-59 -14 -59 37zM473 1022q0 23 11.5 34t29.5 17q55 18 95 69.5t40 131.5v33q0 45 45 45q49 0 49 -45v-33q0 -111 -61 -190.5t-150 -98.5 q-59 -14 -59 37z" />
<glyph unicode="&#x201e;" d="M203 -252q0 23 11 34t30 17q55 18 95 69.5t40 131.5v33q0 45 45 45q49 0 49 -45v-33q0 -111 -61.5 -190.5t-149.5 -98.5q-59 -14 -59 37zM473 -252q0 23 11.5 34t29.5 17q55 18 95 69.5t40 131.5v33q0 45 45 45q49 0 49 -45v-33q0 -111 -61 -190.5t-150 -98.5 q-59 -14 -59 37z" />
<glyph unicode="&#x2022;" d="M166 473q0 127 90 217t217 90t217 -90t90 -217t-90 -217t-217 -90t-217 90t-90 217z" />
<glyph unicode="&#x2026;" horiz-adv-x="1892" d="M166 39q0 39 45 39h8q45 0 45 -39t-45 -39h-8q-45 0 -45 39zM651 39q0 39 45 39h9q45 0 45 -39t-45 -39h-9q-45 0 -45 39zM1141 39q0 39 45 39h8q45 0 45 -39t-45 -39h-8q-45 0 -45 39zM1628 39q0 39 45 39h8q45 0 45 -39t-45 -39h-8q-45 0 -45 39z" />
<glyph unicode="&#x202f;" horiz-adv-x="283" />
<glyph unicode="&#x2039;" d="M360 473q0 76 52.5 128t128.5 52q45 0 45 -37q0 -39 -45 -38q-41 0 -73 -30t-32 -75q0 -43 31 -73.5t74 -30.5q45 0 45 -39q0 -37 -45 -37q-76 0 -128.5 52t-52.5 128z" />
<glyph unicode="&#x203a;" d="M360 330q0 39 46 39q41 0 72.5 29.5t31.5 74.5q0 43 -30.5 74t-73.5 31q-45 0 -46 38q0 37 46 37q76 0 128 -52t52 -128t-52.5 -128t-127.5 -52q-45 0 -46 37z" />
<glyph unicode="&#x205f;" horiz-adv-x="354" />
<glyph unicode="&#x2122;" d="M166 1315q0 37 45 37h199q55 0 96 -25q16 -10 26 -10q12 0 27 10q37 25 86 25q61 0 98 -39t37 -101v-356q0 -45 -37 -45q-39 0 -38 45v352q0 70 -66 70t-66 -70v-147q0 -45 -36 -45q-39 0 -39 45v147q0 70 -66 70t-65 -70v-352q0 -45 -37 -45q-39 0 -39 45v379 q0 45 -45 45h-35q-45 0 -45 35z" />
<glyph unicode="&#x25fc;" horiz-adv-x="942" d="M0 0v942h942v-942h-942z" />
</font>
</defs>
</svg>
