<?xml version="1.0" standalone="no"?>
<!DOCTYPE svg PUBLIC "-//W3C//DTD SVG 1.1//EN" "http://www.w3.org/Graphics/SVG/1.1/DTD/svg11.dtd" >
<svg xmlns="http://www.w3.org/2000/svg" xmlns:xlink="http://www.w3.org/1999/xlink" version="1.1">
<metadata>
Created by FontForge 20160407 at Thu Jul 21 05:14:27 2016
 By Jimmy Warting
</metadata>
<defs>
<font id="TriplexSerif-Light" horiz-adv-x="300" >
  <font-face 
    font-family="TriplexSerif"
    font-weight="300"
    font-stretch="normal"
    units-per-em="1000"
    panose-1="2 0 3 0 0 0 0 0 0 0"
    ascent="750"
    descent="-250"
    x-height="460"
    cap-height="600"
    bbox="-25 -230 887 864"
    underline-thickness="60"
    underline-position="-190"
    stemh="71"
    stemv="72"
    unicode-range="U+0009-F002"
  />
<missing-glyph horiz-adv-x="500" 
d="M31 0v675h438v-675h-438zM72 40h356v595h-356v-595zM275 286c-68 -9 -84 26 -84 51c0 69 102 83 102 130c0 18 -15 38 -58 38c-39 0 -74 -12 -100 -44l-11 4c11 49 64 97 139 97c69 0 114 -31 114 -86c0 -88 -136 -101 -136 -149c0 -12 7 -26 38 -28zM242 123
c-27 0 -49 22 -49 51s22 51 49 51c28 0 50 -22 50 -51s-22 -51 -50 -51z" />
    <glyph glyph-name="fi" unicode="fi" horiz-adv-x="490" 
d="M422 70h35v-70h-142v70h35v320h-170v-320h35v-70h-140v70h35v320h-75v70h75v52c0 95 64 170 157 188l21 -61c-64 -11 -108 -62 -108 -127v-52h242v-390z" />
    <glyph glyph-name="fl" unicode="fl" horiz-adv-x="540" 
d="M450 70h35v-70h-140v70h35v559h-92c-64 -11 -108 -62 -108 -127v-42h85v-70h-85v-320h35v-70h-140v70h35v320h-75v70h75v42c0 95 64 170 157 188h183v-620z" />
    <glyph glyph-name=".notdef" horiz-adv-x="500" 
d="M31 0v675h438v-675h-438zM72 40h356v595h-356v-595zM275 286c-68 -9 -84 26 -84 51c0 69 102 83 102 130c0 18 -15 38 -58 38c-39 0 -74 -12 -100 -44l-11 4c11 49 64 97 139 97c69 0 114 -31 114 -86c0 -88 -136 -101 -136 -149c0 -12 7 -26 38 -28zM242 123
c-27 0 -49 22 -49 51s22 51 49 51c28 0 50 -22 50 -51s-22 -51 -50 -51z" />
    <glyph glyph-name="space" unicode=" " horiz-adv-x="230" 
 />
    <glyph glyph-name="exclam" unicode="!" 
d="M197 43c0 -28 -24 -52 -52 -52s-52 24 -52 52s24 52 52 52s52 -24 52 -52zM185 690v-500h-80v500h80z" />
    <glyph glyph-name="quotedbl" unicode="&#x22;" horiz-adv-x="440" 
d="M90 609c-1 3 -9 22 -9 37c0 29 24 54 54 54s54 -25 54 -54c0 -15 -8 -34 -9 -37l-30 -95h-30zM261 609c-1 3 -9 22 -9 37c0 29 24 54 54 54s54 -25 54 -54c0 -15 -8 -34 -9 -37l-30 -95h-30z" />
    <glyph glyph-name="numbersign" unicode="#" horiz-adv-x="430" 
d="M152 255l-23 -115l-63 10l21 105h-47v60h59l22 115h-46v60h58l23 115l63 -10l-21 -105h80l23 115l63 -10l-21 -105h47v-60h-59l-22 -115h46v-60h-58l-23 -115l-63 10l21 105h-80zM186 430l-22 -115h80l22 115h-80z" />
    <glyph glyph-name="dollar" unicode="$" horiz-adv-x="360" 
d="M217 577c42 -7 72 -27 88 -47l-45 -55c-30 30 -48 37 -80 37s-70 -22 -70 -62s35 -54 70 -68l40 -17c45 -19 95 -50 95 -125c0 -60 -43 -111 -98 -131v-109h-74v101c-49 5 -87 29 -118 64l47 57c28 -37 60 -54 93 -54c43 0 80 27 80 67s-27 55 -63 70l-42 17
c-67 27 -100 63 -100 128c0 58 45 110 103 125v105h74v-103z" />
    <glyph glyph-name="percent" unicode="%" horiz-adv-x="630" 
d="M470 284c75 0 127 -67 127 -145c0 -77 -52 -144 -127 -144s-128 67 -128 144c0 78 53 145 128 145zM289 455c-1 -77 -52 -144 -127 -144s-128 67 -128 144c0 78 53 144 128 145h5h383l-389 -606l-61 39l326 500h-157c15 -26 20 -47 20 -78zM92 455c0 -43 27 -87 70 -87
s69 44 69 87s-26 88 -69 88c-44 0 -70 -44 -70 -88zM400 139c0 -43 27 -87 70 -87s69 44 69 87s-26 88 -69 88c-44 0 -70 -44 -70 -88z" />
    <glyph glyph-name="ampersand" unicode="&#x26;" horiz-adv-x="540" 
d="M195 325c-50 20 -95 66 -95 135c0 90 80 150 185 150c60 0 120 -36 145 -65l-40 -60c-15 15 -55 55 -110 55c-70 0 -105 -35 -105 -85c0 -70 79 -105 145 -105h10v-60h-15c-80 0 -165 -38 -165 -120c0 -67 70 -115 140 -115c45 0 85 15 110 37v153h70v-190
c-55 -50 -133 -70 -180 -70c-111 0 -215 65 -215 185c0 82 50 130 120 155z" />
    <glyph glyph-name="quoteright" unicode="&#x2019;" horiz-adv-x="280" 
d="M116 544c5 8 13 34 13 48c-20 3 -40 26 -40 53c0 30 21 55 51 55s54 -28 54 -70c0 -70 -49 -130 -79 -150l-29 25c17 20 23 27 30 39z" />
    <glyph glyph-name="parenleft" unicode="(" horiz-adv-x="350" 
d="M40 335c0 188 63 309 210 425l40 -70c-121 -98 -173 -198 -173 -355s52 -257 173 -355l-40 -70c-147 116 -210 237 -210 425z" />
    <glyph glyph-name="parenright" unicode=")" horiz-adv-x="350" 
d="M100 -90l-40 70c121 98 173 198 173 355s-52 257 -173 355l40 70c147 -116 210 -237 210 -425s-63 -309 -210 -425z" />
    <glyph glyph-name="asterisk" unicode="*" horiz-adv-x="320" 
d="M111 553l-86 32l25 65l85 -55v95h50v-95l85 55l25 -65l-86 -32l86 -33l-25 -65l-85 55v-95h-50v95l-85 -55l-25 65z" />
    <glyph glyph-name="plus" unicode="+" horiz-adv-x="410" 
d="M170 484h70v-119h100v-70h-100v-121h-70v121h-100v70h100v119z" />
    <glyph glyph-name="comma" unicode="," horiz-adv-x="280" 
d="M92 -56c5 8 15 34 15 48c-20 3 -40 26 -40 53c0 30 23 55 53 55s56 -28 56 -70c0 -70 -51 -130 -81 -150l-33 25c17 20 23 27 30 39z" />
    <glyph glyph-name="hyphen" unicode="-" horiz-adv-x="420" 
d="M340 290h-270v80h270v-80z" />
    <glyph glyph-name="period" unicode="." horiz-adv-x="280" 
d="M174 45c0 -30 -24 -54 -54 -54s-54 24 -54 54s24 54 54 54s54 -24 54 -54z" />
    <glyph glyph-name="slash" unicode="/" horiz-adv-x="380" 
d="M25 0l252 624l69 -26l-252 -624z" />
    <glyph glyph-name="zero" unicode="0" horiz-adv-x="555" 
d="M280 610c148 0 221 -162 221 -310s-73 -310 -221 -310s-221 162 -221 310s73 310 221 310zM135 300c0 -100 37 -238 145 -238s145 138 145 238s-37 238 -145 238s-145 -138 -145 -238z" />
    <glyph glyph-name="one" unicode="1" 
d="M210 600v-600h-69v472c-22 -15 -48 -28 -70 -32l-30 61c73 29 111 56 169 99z" />
    <glyph glyph-name="two" unicode="2" horiz-adv-x="430" 
d="M50 0c5 120 56 178 110 240l75 85c31 35 65 85 65 125c0 50 -35 90 -100 90c-58 0 -100 -35 -115 -55l-43 55c26 25 83 70 168 70c95 0 162 -65 162 -155c0 -70 -37 -115 -72 -155l-88 -100c-41 -48 -72 -95 -77 -130h170v45h70v-115h-325z" />
    <glyph glyph-name="three" unicode="3" horiz-adv-x="440" 
d="M125 290v62c107 0 165 43 165 103c0 45 -30 87 -95 87c-55 0 -90 -32 -110 -52l-40 55c33 30 80 65 155 65c95 0 160 -60 160 -150c0 -60 -40 -115 -95 -135c65 -15 123 -63 123 -145c0 -110 -98 -190 -208 -190c-55 0 -104 15 -115 20v80c25 -15 70 -30 110 -30
c80 0 140 45 140 115c0 75 -65 115 -190 115z" />
    <glyph glyph-name="four" unicode="4" horiz-adv-x="470" 
d="M366 70h35v-70h-140v70h35v70h-238l48 104c47 102 88 248 85 346v10h70v-10c0 -103 -35 -226 -83 -362l-6 -17h124v132h70v-132h72v-71h-72v-70z" />
    <glyph glyph-name="five" unicode="5" horiz-adv-x="440" 
d="M94 600h263v-71h-193v-142c112 3 211 -63 211 -177c0 -212 -261 -231 -299 -212v65c24 -19 229 -10 229 147c0 69 -67 106 -141 106h-70v284z" />
    <glyph glyph-name="six" unicode="6" horiz-adv-x="470" 
d="M45 221c0 124 43 279 270 389l45 -60c-40 -15 -115 -50 -160 -102c-38 -44 -60 -80 -75 -148c40 32 80 50 125 50c105 0 175 -79 175 -180s-85 -180 -190 -180c-113 0 -190 82 -190 231zM122 170c0 -70 58 -112 118 -112c62 0 112 50 112 112c0 65 -52 110 -112 110
c-62 0 -118 -42 -118 -110z" />
    <glyph glyph-name="seven" unicode="7" horiz-adv-x="450" 
d="M45 600h350l-78 -169c-72 -157 -127 -294 -127 -426v-5h-70v5c0 138 53 278 125 442l36 82h-166v-47h-70v118z" />
    <glyph glyph-name="eight" unicode="8" horiz-adv-x="485" 
d="M162 327c-52 24 -85 65 -85 123c0 90 76 160 166 160c89 0 165 -71 165 -160c0 -59 -34 -100 -87 -123c70 -23 117 -78 117 -152c0 -105 -90 -185 -195 -185s-196 80 -196 185c0 74 45 128 115 152zM368 175c0 66 -59 115 -125 115s-124 -49 -124 -115s58 -115 124 -115
s125 49 125 115zM338 450c0 51 -44 90 -95 90s-94 -39 -94 -90s43 -90 94 -90s95 39 95 90z" />
    <glyph glyph-name="nine" unicode="9" horiz-adv-x="470" 
d="M425 390c0 -135 -43 -290 -270 -400l-45 60c40 15 115 50 160 102c38 44 60 80 75 148c-35 -30 -80 -48 -125 -48c-105 0 -175 76 -175 178c0 101 85 180 190 180c115 0 190 -80 190 -220zM345 430c0 68 -50 112 -113 112c-62 0 -112 -50 -112 -112
c0 -65 50 -110 110 -110c62 0 115 42 115 110z" />
    <glyph glyph-name="colon" unicode=":" horiz-adv-x="280" 
d="M172 43c0 -28 -24 -52 -52 -52s-52 24 -52 52s24 52 52 52s52 -24 52 -52zM172 343c0 -28 -24 -52 -52 -52s-52 24 -52 52s24 52 52 52s52 -24 52 -52z" />
    <glyph glyph-name="semicolon" unicode=";" horiz-adv-x="280" 
d="M172 343c0 -28 -24 -52 -52 -52s-52 24 -52 52s24 52 52 52s52 -24 52 -52zM92 -56c5 8 15 34 15 48c-20 3 -40 26 -40 53c0 30 23 55 53 55s56 -28 56 -70c0 -70 -51 -130 -81 -150l-33 25c17 20 23 27 30 39z" />
    <glyph glyph-name="less" unicode="&#x3c;" horiz-adv-x="310" 
d="M63 290l131 188l54 -45l-100 -143l100 -145l-50 -47z" />
    <glyph glyph-name="equal" unicode="=" horiz-adv-x="390" 
d="M70 369v70h250v-70h-250zM70 219v70h250v-70h-250z" />
    <glyph glyph-name="greater" unicode="&#x3e;" horiz-adv-x="310" 
d="M247 290l-135 -192l-50 47l100 145l-100 143l54 45z" />
    <glyph glyph-name="question" unicode="?" horiz-adv-x="464" 
d="M247 43c0 -28 -24 -52 -52 -52s-52 24 -52 52s24 52 52 52s52 -24 52 -52zM230 285v-130h-70v195c120 0 178 50 178 150c0 75 -53 130 -128 130c-48 0 -90 -15 -130 -55l-45 55c40 40 100 70 180 70c115 0 200 -80 200 -195c0 -135 -95 -210 -185 -220z" />
    <glyph glyph-name="at" unicode="@" horiz-adv-x="696" 
d="M348 158c-9 -34 -7 -56 6 -83c87 8 226 135 226 241c0 109 -92 184 -230 184c-61 0 -141 -21 -205 -62l-32 57c74 47 162 77 245 77c166 0 304 -108 304 -238c0 -162 -170 -325 -343 -338c-19 18 -32 37 -39 59c-38 -38 -86 -63 -137 -63c-95 0 -120 80 -120 126
c0 140 116 258 222 258c50 0 84 -25 102 -62c16 20 36 39 60 59l43 -42c-48 -34 -74 -70 -88 -122zM289 184c16 61 0 126 -61 126c-72 0 -134 -110 -134 -178c0 -40 23 -74 66 -74c61 0 113 65 129 126z" />
    <glyph glyph-name="A" unicode="A" horiz-adv-x="530" 
d="M98 -10l-74 22l215 588h52l215 -588l-74 -22l-49 141h-236zM265 473l-93 -268h186z" />
    <glyph glyph-name="B" unicode="B" horiz-adv-x="466" 
d="M43 0v74h37v452h-37v74h167c125 0 190 -55 190 -145c0 -60 -40 -115 -90 -135c75 -20 115 -70 115 -144c0 -104 -80 -176 -205 -176h-177zM220 72c76 0 130 40 130 103c0 65 -60 105 -140 105h-56v-208h66zM205 352c65 0 120 38 120 98c0 50 -40 78 -115 78h-56v-176h51z
" />
    <glyph glyph-name="C" unicode="C" horiz-adv-x="480" 
d="M270 538c-112 0 -150 -128 -150 -238s45 -238 150 -238c53 0 90 19 123 60l52 -52c-49 -56 -100 -80 -175 -80c-149 0 -226 161 -226 310s75 310 226 310c69 0 116 -21 165 -69v-91h-74v61c-31 20 -54 27 -91 27z" />
    <glyph glyph-name="D" unicode="D" horiz-adv-x="542" 
d="M43 0v74h37v452h-37v74h204c149 0 247 -141 251 -290c5 -155 -96 -310 -251 -310h-204zM154 526v-452h93c114 0 179 122 175 236c-4 108 -67 216 -175 216h-93z" />
    <glyph glyph-name="E" unicode="E" horiz-adv-x="410" 
d="M43 0v74h37v452h-37v74h311v-74h-200v-174h170v-74h-170v-204h210v-74h-321z" />
    <glyph glyph-name="F" unicode="F" horiz-adv-x="377" 
d="M43 0v74h37v452h-37v74h291v-74h-180v-184h170v-74h-170v-194h37v-74h-148z" />
    <glyph glyph-name="G" unicode="G" horiz-adv-x="540" 
d="M475 541v-91h-74v55c-25 17 -59 33 -116 33c-116 0 -169 -132 -165 -248c4 -110 55 -228 165 -228c43 0 81 15 116 49v184h74v-205c-48 -67 -108 -100 -190 -100c-150 0 -237 150 -241 300c-4 156 85 318 241 320c79 1 132 -16 190 -69z" />
    <glyph glyph-name="H" unicode="H" horiz-adv-x="544" 
d="M154 74h37v-74h-148v74h37v452h-37v74h148v-74h-37v-184h236v184h-37v74h148v-74h-37v-452h37v-74h-148v74h37v194h-236v-194z" />
    <glyph glyph-name="I" unicode="I" horiz-adv-x="266" 
d="M171 74h37v-74h-150v74h37v452h-37v74h150v-74h-37v-452z" />
    <glyph glyph-name="J" unicode="J" horiz-adv-x="280" 
d="M183 84c0 -87 -29 -148 -94 -204l-56 56c50 38 74 84 74 148v442h-37v74h150v-74h-37v-442z" />
    <glyph glyph-name="K" unicode="K" horiz-adv-x="500" 
d="M154 319l237 286l52 -44l-210 -251l243 -267l-57 -53l-265 304v-220h37v-74h-147v74h37v452h-37v74h147v-74h-37v-207z" />
    <glyph glyph-name="L" unicode="L" horiz-adv-x="380" 
d="M43 0v74h37v452h-37v74h148v-74h-37v-452h200v-74h-311z" />
    <glyph glyph-name="M" unicode="M" horiz-adv-x="700" 
d="M311 0l-137 446l-77 -456l-74 17l114 593h64l142 -476l142 476h64l114 -593l-74 -17l-77 456l-137 -446h-64z" />
    <glyph glyph-name="N" unicode="N" horiz-adv-x="590" 
d="M90 600h74l276 -450v376h-37v74h148v-74h-37v-526h-74l-276 450v-376h37v-74h-148v74h37v526z" />
    <glyph glyph-name="O" unicode="O" horiz-adv-x="556" 
d="M278 610c151 0 231 -159 231 -310s-80 -310 -231 -310s-231 159 -231 310s80 310 231 310zM123 300c0 -100 44 -238 155 -238s155 138 155 238s-44 238 -155 238s-155 -138 -155 -238z" />
    <glyph glyph-name="P" unicode="P" horiz-adv-x="450" 
d="M155 74h37v-74h-148v74h37v452h-37v74h169c115 0 216 -85 216 -200s-101 -200 -216 -200h-58v-126zM155 526v-252h58c73 0 140 53 140 126s-67 126 -140 126h-58z" />
    <glyph glyph-name="Q" unicode="Q" horiz-adv-x="556" 
d="M363 10l102 -103l-52 -52l-135 135c-151 0 -231 159 -231 310s80 310 231 310s231 -159 231 -310c0 -120 -49 -243 -146 -290zM123 300c0 -100 44 -238 155 -238s155 138 155 238s-44 238 -155 238s-155 -138 -155 -238z" />
    <glyph glyph-name="R" unicode="R" horiz-adv-x="480" 
d="M213 600c106 0 202 -80 201 -186c-1 -87 -63 -150 -123 -170l168 -201l-57 -53l-192 238h-55v-154h37v-74h-148v74h37v452h-37v74h169zM155 302h58c65 0 125 47 125 112s-58 112 -125 112h-58v-224z" />
    <glyph glyph-name="S" unicode="S" horiz-adv-x="420" 
d="M125 93c23 -21 51 -31 80 -31c50 0 90 43 90 98c0 48 -30 73 -85 105l-35 20c-65 37 -125 80 -125 170c0 87 82 155 170 155c55 0 93 -19 122 -47v-100h-74v63c-16 8 -34 14 -53 14c-47 0 -90 -35 -90 -85c0 -45 35 -71 85 -100l35 -20c60 -35 125 -80 125 -170
c0 -95 -75 -175 -175 -175c-70 0 -118 35 -144 64v103h74v-64z" />
    <glyph glyph-name="T" unicode="T" horiz-adv-x="426" 
d="M250 74h37v-74h-148v74h37v452h-150v74h374v-74h-150v-452z" />
    <glyph glyph-name="U" unicode="U" horiz-adv-x="574" 
d="M499 250c0 -149 -81 -260 -212 -260s-212 111 -212 260v276h-37v74h148v-74h-37v-276c0 -109 48 -186 138 -186s138 77 138 186v276h-37v74h148v-74h-37v-276z" />
    <glyph glyph-name="V" unicode="V" horiz-adv-x="550" 
d="M449 610l74 -24l-220 -586h-62l-220 586l74 24l177 -483z" />
    <glyph glyph-name="W" unicode="W" horiz-adv-x="740" 
d="M403 600l112 -456l132 466l69 -17l-169 -593h-64l-112 426l-112 -426h-64l-169 593l69 17l132 -466l112 456h64z" />
    <glyph glyph-name="X" unicode="X" horiz-adv-x="530" 
d="M264 357l172 253l63 -42l-185 -266l185 -268l-59 -44l-176 257l-176 -257l-59 44l185 268l-185 266l63 42z" />
    <glyph glyph-name="Y" unicode="Y" horiz-adv-x="520" 
d="M298 74h37v-74h-150v74h37v161l-199 339l71 36l166 -299l166 299l71 -36l-199 -339v-161z" />
    <glyph glyph-name="Z" unicode="Z" horiz-adv-x="468" 
d="M342 72v82h74v-154h-376l244 529h-158v-82h-74v153h346l-247 -528h191z" />
    <glyph glyph-name="bracketleft" unicode="[" horiz-adv-x="302" 
d="M124 -1h76v-74h-150v825h150v-74h-76v-677z" />
    <glyph glyph-name="backslash" unicode="\" horiz-adv-x="380" 
d="M345 0l-69 -26l-252 624l69 26z" />
    <glyph glyph-name="bracketright" unicode="]" 
d="M176 676h-76v74h150v-825h-150v74h76v677z" />
    <glyph glyph-name="asciicircum" unicode="^" horiz-adv-x="400" 
d="M331 485l-131 101l-131 -101l-48 30l179 179l179 -179z" />
    <glyph glyph-name="underscore" unicode="_" horiz-adv-x="500" 
d="M0 -70v70h500v-70h-500z" />
    <glyph glyph-name="quoteleft" unicode="&#x2018;" horiz-adv-x="280" 
d="M196 505l-29 -25c-30 20 -79 80 -79 150c0 42 24 70 54 70s51 -25 51 -55c0 -27 -20 -50 -40 -53c0 -14 8 -40 13 -48c7 -12 13 -19 30 -39z" />
    <glyph glyph-name="a" unicode="a" horiz-adv-x="462" 
d="M360 198c0 -66 24 -112 76 -152l-52 -52c-18 11 -47 46 -64 75c-24 -46 -81 -79 -135 -79c-83 0 -146 59 -146 150c0 99 68 150 176 150h75c0 63 -32 112 -95 112c-24 0 -41 -9 -58 -24l-42 54c31 26 59 38 100 38c104 0 165 -81 165 -175v-97zM290 198v29h-75
c-75 0 -104 -34 -104 -87c0 -46 37 -82 74 -82c72 0 110 83 110 83s-5 35 -5 57z" />
    <glyph glyph-name="b" unicode="b" horiz-adv-x="535" 
d="M172 401c0 0 51 69 125 69c121 0 196 -111 196 -240s-75 -240 -196 -240c-71 0 -123 44 -151 88c-17 -32 -42 -65 -68 -84l-52 52c52 40 76 86 76 152v422h-35v70h105v-289zM172 230c0 -82 43 -170 125 -170s124 88 124 170s-42 170 -124 170s-125 -88 -125 -170z" />
    <glyph glyph-name="c" unicode="c" horiz-adv-x="427" 
d="M310 377c-25 17 -46 23 -77 23c-81 -1 -119 -89 -119 -170s38 -170 119 -170c46 0 81 19 105 57l53 -47c-40 -55 -89 -81 -158 -80c-119 2 -191 112 -191 240s77 240 191 240c63 0 106 -19 147 -66v-86h-70v59z" />
    <glyph glyph-name="d" unicode="d" horiz-adv-x="535" 
d="M433 198c0 -66 24 -112 76 -152l-52 -52c-27 21 -51 52 -68 84c-28 -44 -80 -88 -151 -88c-121 0 -196 111 -196 240s75 240 196 240c78 0 125 -69 125 -69v219h-35v70h105v-492zM238 400c-82 0 -124 -88 -124 -170s42 -170 124 -170s125 88 125 170s-43 170 -125 170z
" />
    <glyph glyph-name="e" unicode="e" horiz-adv-x="430" 
d="M228 58c73 0 104 56 104 56l54 -44s-58 -80 -158 -80c-127 0 -186 113 -186 240s68 240 186 240c174 0 176 -215 163 -250h-276c0 -91 38 -162 113 -162zM319 290c0 41 -16 112 -91 112c-89 0 -107 -112 -107 -112h198z" />
    <glyph glyph-name="f" unicode="f" 
d="M180 70h35v-70h-140v70h35v320h-75v70h75v52c0 95 64 170 157 188l21 -61c-64 -11 -108 -62 -108 -127v-52h85v-70h-85v-320z" />
    <glyph glyph-name="g" unicode="g" horiz-adv-x="535" 
d="M433 10c0 -117 -78 -230 -195 -230c-69 0 -119 25 -159 80l53 47c26 -39 59 -57 106 -57c79 0 125 81 125 160v49s-48 -69 -125 -69c-118 0 -196 111 -196 240s75 240 196 240c71 0 123 -44 151 -88c17 32 42 63 68 84l52 -52c-52 -40 -76 -86 -76 -152v-252zM363 230
c0 82 -43 170 -125 170s-124 -88 -124 -170s42 -170 124 -170s125 88 125 170z" />
    <glyph glyph-name="h" unicode="h" horiz-adv-x="500" 
d="M350 70v250c0 41 -22 80 -70 80c-85 0 -130 -98 -130 -98v-232h35v-70h-140v70h35v550h-35v70h105v-295s49 77 151 77c79 0 119 -52 119 -137v-265h35v-70h-140v70h35z" />
    <glyph glyph-name="i" unicode="i" horiz-adv-x="262" 
d="M178 592c0 -26 -21 -47 -47 -47s-47 21 -47 47s21 47 47 47s47 -21 47 -47zM167 70h35v-70h-142v70h35v320h-35v70h107v-390z" />
    <glyph glyph-name="j" unicode="j" horiz-adv-x="250" 
d="M177 592c0 -26 -21 -47 -47 -47s-47 21 -47 47s21 47 47 47s47 -21 47 -47zM165 -16c0 -87 -29 -148 -94 -204l-52 52c52 40 76 86 76 152l-1 406h-35v70h106v-476z" />
    <glyph glyph-name="k" unicode="k" horiz-adv-x="460" 
d="M150 690v-436l216 216l48 -48l-178 -178l204 -204l-50 -50l-240 240v-160h35v-70h-140v70h35v550h-35v70h105z" />
    <glyph glyph-name="l" unicode="l" horiz-adv-x="262" 
d="M167 70h35v-70h-142v70h35v550h-35v70h107v-620z" />
    <glyph glyph-name="m" unicode="m" horiz-adv-x="752" 
d="M352 70v251c0 39 -22 75 -68 75c-67 0 -112 -103 -112 -103v-223h35v-70h-140v70h35v192c0 66 -24 112 -76 152l52 52c33 -27 54 -56 71 -91c0 0 70 97 145 97c58 0 95 -31 118 -82c0 0 62 82 132 82c74 0 128 -58 128 -141v-261h35v-70h-140v70h35v251
c0 39 -26 75 -68 75c-67 0 -112 -103 -112 -103v-223h35v-70h-140v70h35z" />
    <glyph glyph-name="n" unicode="n" horiz-adv-x="522" 
d="M102 70v192c0 66 -24 112 -76 152l52 52c37 -31 54 -56 71 -91c0 0 67 97 161 97c76 0 132 -58 132 -143v-259h35v-70h-140v70h35v249c0 43 -28 77 -78 77c-76 0 -122 -105 -122 -105v-221h35v-70h-140v70h35z" />
    <glyph glyph-name="o" unicode="o" horiz-adv-x="476" 
d="M238 470c121 0 196 -111 196 -240s-75 -240 -196 -240s-196 111 -196 240s75 240 196 240zM114 230c0 -82 42 -170 124 -170s124 88 124 170s-42 170 -124 170s-124 -88 -124 -170z" />
    <glyph glyph-name="p" unicode="p" horiz-adv-x="535" 
d="M102 262c0 66 -24 112 -76 152l52 52c26 -21 51 -52 68 -84c28 44 80 88 151 88c118 0 196 -111 196 -240s-78 -240 -196 -240c-79 0 -125 69 -125 69v-279h-70v482zM297 60c82 0 124 88 124 170s-42 170 -124 170s-125 -88 -125 -170c0 -111 43 -170 125 -170z" />
    <glyph glyph-name="q" unicode="q" horiz-adv-x="535" 
d="M389 382c17 32 41 63 68 84l52 -52c-52 -40 -76 -86 -76 -152v-482h-70v279s-47 -69 -125 -69c-118 0 -196 111 -196 240s75 240 196 240c71 0 123 -44 151 -88zM363 230c0 82 -43 170 -125 170s-124 -88 -124 -170s42 -170 124 -170s125 88 125 170z" />
    <glyph glyph-name="r" unicode="r" horiz-adv-x="320" 
d="M172 70h35v-70h-140v70h35v192c0 66 -24 112 -76 152l52 52c36 -30 54 -56 71 -91c0 0 69 99 148 95v-85c-90 0 -125 -109 -125 -109v-206z" />
    <glyph glyph-name="s" unicode="s" horiz-adv-x="370" 
d="M238 388c-17 11 -32 14 -53 14c-32 0 -70 -22 -70 -62s35 -54 70 -68l40 -17c45 -19 95 -50 95 -125c0 -78 -73 -140 -150 -140c-55 0 -90 20 -121 46v89h70v-52c9 -7 29 -15 51 -15c43 0 80 27 80 67s-27 55 -63 70l-42 17c-67 27 -100 63 -100 128c0 70 65 130 140 130
c62 0 102 -24 123 -48v-82h-70v48z" />
    <glyph glyph-name="t" unicode="t" horiz-adv-x="310" 
d="M185 192c0 -66 24 -112 76 -152l-52 -52c-65 56 -94 117 -94 204v198h-80v70h80v140h70v-140h85v-70h-85v-198z" />
    <glyph glyph-name="u" unicode="u" horiz-adv-x="512" 
d="M150 139c0 -40 29 -75 72 -75c73 0 118 98 118 98v228h-35v70h105v-272c0 -66 24 -112 76 -152l-52 -52c-35 29 -55 57 -73 94c0 0 -60 -90 -155 -90c-71 0 -126 58 -126 141v261h-34v70h104v-321z" />
    <glyph glyph-name="v" unicode="v" horiz-adv-x="455" 
d="M366 465l70 -27l-185 -438h-48l-185 438l70 27l139 -347z" />
    <glyph glyph-name="w" unicode="w" horiz-adv-x="640" 
d="M330 450l100 -312l119 327l65 -27l-167 -438h-34l-97 267l-97 -267h-34l-167 438l65 27l119 -327l100 312h28z" />
    <glyph glyph-name="x" unicode="x" horiz-adv-x="460" 
d="M229 283l142 187l54 -45l-150 -193l150 -195l-50 -47l-146 191l-146 -191l-50 47l150 195l-150 193l54 45z" />
    <glyph glyph-name="y" unicode="y" horiz-adv-x="470" 
d="M381 470l65 -27l-310 -673l-61 33l123 255l-170 385l65 27l144 -332z" />
    <glyph glyph-name="z" unicode="z" horiz-adv-x="410" 
d="M120 392v-45h-70v113h310l-207 -392h137v45h70v-113h-320l207 392h-127z" />
    <glyph glyph-name="braceleft" unicode="{" 
d="M127 335l79 -79s-1 -92 -1 -98c0 -103 20 -112 84 -175l-31 -69c-82 52 -128 118 -128 207c0 6 4 100 4 100l-114 114l114 114s-4 94 -4 100c0 89 46 155 128 207l31 -69c-64 -63 -85 -72 -84 -175c0 -6 1 -98 1 -98z" />
    <glyph glyph-name="bar" unicode="|" horiz-adv-x="333" 
d="M182 -222h-76v971h76v-971z" />
    <glyph glyph-name="braceright" unicode="}" 
d="M94 414c0 0 1 92 1 98c1 103 -20 112 -84 175l31 69c82 -52 128 -118 128 -207c0 -6 -4 -100 -4 -100l114 -114l-114 -114s4 -94 4 -100c0 -89 -46 -155 -128 -207l-31 69c64 63 84 72 84 175c0 6 -1 98 -1 98l79 79z" />
    <glyph glyph-name="asciitilde" unicode="~" horiz-adv-x="420" 
d="M126 347c-26 -7 -40 -29 -48 -54l-26 42c16 52 52 91 108 90c58 -1 79 -82 135 -66c27 7 40 29 48 54l27 -42c-17 -52 -53 -91 -108 -90c-59 1 -80 82 -136 66z" />
    <glyph glyph-name="exclamdown" unicode="&#xa1;" 
d="M145 375c-28 0 -52 24 -52 52s24 52 52 52s52 -24 52 -52s-24 -52 -52 -52zM105 -220v500h80v-500h-80z" />
    <glyph glyph-name="cent" unicode="&#xa2;" horiz-adv-x="464" 
d="M240 510c-81 -2 -119 -89 -119 -170s38 -170 119 -170c46 0 81 19 105 57l53 -47c-31 -44 -71 -70 -121 -77v-103h-74v104c-5 2 -154 34 -154 236c0 201 150 235 154 236v104h74v-102c44 -7 80 -28 110 -64v-86h-70v59c-25 17 -46 23 -77 23z" />
    <glyph glyph-name="sterling" unicode="&#xa3;" horiz-adv-x="378" 
d="M105 0v260h-75v80h75v82c0 98 70 176 167 188l21 -71c-62 -6 -108 -55 -108 -117v-82h115v-80h-115v-180h170v-80h-250z" />
    <glyph glyph-name="fraction" unicode="&#x2044;" horiz-adv-x="325" 
d="M26 3l226 621l60 -21l-226 -621z" />
    <glyph glyph-name="fraction" unicode="&#x2215;" horiz-adv-x="325" 
d="M26 3l226 621l60 -21l-226 -621z" />
    <glyph glyph-name="yen" unicode="&#xa5;" horiz-adv-x="520" 
d="M298 74h37v-74h-150v74h37v85h-114v76h114l-199 339l71 36l166 -299l166 299l71 -36l-199 -339h113v-76h-113v-85z" />
    <glyph glyph-name="florin" unicode="&#x192;" 
d="M180 -16c0 -87 -29 -148 -94 -204l-52 52c52 40 76 86 76 152v406h-75v70h75v52c0 95 64 170 157 188l21 -61c-64 -11 -108 -62 -108 -127v-52h85v-70h-85v-406z" />
    <glyph glyph-name="quotesingle" unicode="'" horiz-adv-x="270" 
d="M90 609c-1 3 -9 22 -9 37c0 29 24 54 54 54s54 -25 54 -54c0 -15 -8 -34 -9 -37l-30 -95h-30z" />
    <glyph glyph-name="quotedblleft" unicode="&#x201c;" horiz-adv-x="440" 
d="M356 505l-29 -25c-30 20 -79 80 -79 150c0 42 24 70 54 70s51 -25 51 -55c0 -27 -20 -50 -40 -53c0 -14 8 -40 13 -48c7 -12 13 -19 30 -39zM186 505l-29 -25c-30 20 -79 80 -79 150c0 42 24 70 54 70s51 -25 51 -55c0 -27 -20 -50 -40 -53c0 -14 8 -40 13 -48
c7 -12 13 -19 30 -39z" />
    <glyph glyph-name="guillemotleft" unicode="&#xab;" horiz-adv-x="480" 
d="M233 290l131 188l54 -45l-100 -143l100 -145l-50 -47zM63 290l131 188l54 -45l-100 -143l100 -145l-50 -47z" />
    <glyph glyph-name="endash" unicode="&#x2013;" horiz-adv-x="570" 
d="M570 300h-570v70h570v-70z" />
    <glyph glyph-name="dagger" unicode="&#x2020;" horiz-adv-x="330" 
d="M195 -220h-70v610h-90v70h90v230h70v-230h90v-70h-90v-610z" />
    <glyph glyph-name="paragraph" unicode="&#xb6;" horiz-adv-x="500" 
d="M407 70h35v-70h-107v526h-98v-526h-107v70h35v197c-82 15 -137 83 -137 167s53 166 137 166h277v-70h-35v-460z" />
    <glyph glyph-name="bullet" unicode="&#x2022;" 
d="M150 500c55 0 100 -45 100 -100s-45 -100 -100 -100s-100 45 -100 100s45 100 100 100z" />
    <glyph glyph-name="quotedblbase" unicode="&#x201e;" horiz-adv-x="440" 
d="M96 -57c5 8 13 34 13 48c-20 3 -40 26 -40 53c0 30 21 55 51 55s54 -28 54 -70c0 -70 -49 -130 -79 -150l-29 25c17 20 23 27 30 39zM266 -57c5 8 13 34 13 48c-20 3 -40 26 -40 53c0 30 21 55 51 55s54 -28 54 -70c0 -70 -49 -130 -79 -150l-29 25c17 20 23 27 30 39z
" />
    <glyph glyph-name="quotedblright" unicode="&#x201d;" horiz-adv-x="440" 
d="M116 544c5 8 13 34 13 48c-20 3 -40 26 -40 53c0 30 21 55 51 55s54 -28 54 -70c0 -70 -49 -130 -79 -150l-29 25c17 20 23 27 30 39zM286 544c5 8 13 34 13 48c-20 3 -40 26 -40 53c0 30 21 55 51 55s54 -28 54 -70c0 -70 -49 -130 -79 -150l-29 25c17 20 23 27 30 39z
" />
    <glyph glyph-name="guillemotright" unicode="&#xbb;" horiz-adv-x="480" 
d="M120 98l-50 47l100 145l-100 143l54 45l131 -188zM290 98l-50 47l100 145l-100 143l54 45l131 -188z" />
    <glyph glyph-name="ellipsis" unicode="&#x2026;" horiz-adv-x="840" 
d="M174 45c0 -30 -24 -54 -54 -54s-54 24 -54 54s24 54 54 54s54 -24 54 -54zM454 45c0 -30 -24 -54 -54 -54s-54 24 -54 54s24 54 54 54s54 -24 54 -54zM734 45c0 -30 -24 -54 -54 -54s-54 24 -54 54s24 54 54 54s54 -24 54 -54z" />
    <glyph glyph-name="perthousand" unicode="&#x2030;" horiz-adv-x="924" 
d="M470 284c75 0 127 -67 127 -145c0 -77 -52 -144 -127 -144s-128 67 -128 144c0 78 53 145 128 145zM289 455c-1 -77 -52 -144 -127 -144s-128 67 -128 144c0 78 53 145 128 145h388l-389 -606l-61 39l326 500h-157c15 -26 20 -47 20 -78zM760 284c75 0 127 -67 127 -145
c0 -77 -52 -144 -127 -144s-128 67 -128 144c0 78 53 145 128 145zM400 139c0 -43 27 -87 70 -87s69 44 69 87s-26 88 -69 88c-44 0 -70 -44 -70 -88zM92 455c0 -43 27 -87 70 -87s69 44 69 87s-26 88 -69 88c-44 0 -70 -44 -70 -88zM690 139c0 -43 27 -87 70 -87
s69 44 69 87s-26 88 -69 88c-44 0 -70 -44 -70 -88z" />
    <glyph glyph-name="questiondown" unicode="&#xbf;" horiz-adv-x="464" 
d="M215 427c0 28 24 52 52 52s52 -24 52 -52s-24 -52 -52 -52s-52 24 -52 52zM232 190v126h70v-198h-42c-78 0 -145 -70 -137 -148c7 -71 58 -120 129 -128c44 -5 113 19 143 74l47 -54c-47 -67 -108 -92 -190 -92c-113 0 -199 88 -205 200s74 207 185 220z" />
    <glyph glyph-name="grave" unicode="`" horiz-adv-x="262" 
d="M48 659c-11 7 -19 13 -29 23c-20 20 -29 48 -11 66s46 9 66 -11c10 -10 16 -18 23 -29l53 -81l-21 -21z" />
    <glyph glyph-name="acute" unicode="&#xb4;" horiz-adv-x="262" 
d="M44 613l-21 21l53 81c7 11 13 19 23 29c20 20 48 29 66 11s9 -46 -11 -66c-10 -10 -18 -16 -29 -23z" />
    <glyph glyph-name="circumflex" unicode="&#x2c6;" horiz-adv-x="400" 
d="M258 606l-109 84l-109 -84l-40 25l149 149l149 -149z" />
    <glyph glyph-name="tilde" unicode="&#x2dc;" horiz-adv-x="350" 
d="M67 687c-22 -6 -33 -24 -40 -45l-22 35c14 43 44 76 90 75c49 -1 66 -68 113 -55c22 6 33 24 40 45l22 -35c-14 -43 -44 -76 -90 -75c-49 1 -66 68 -113 55z" />
    <glyph glyph-name="macron" unicode="&#xaf;" 
d="M50 745v50h200v-50h-200z" />
    <glyph glyph-name="macron" unicode="&#x2c9;" 
d="M50 745v50h200v-50h-200z" />
    <glyph glyph-name="breve" unicode="&#x2d8;" horiz-adv-x="360" 
d="M80 815c0 -55 45 -100 100 -100s100 45 100 100l30 -20c2 -73 -57 -135 -130 -135s-132 62 -130 135z" />
    <glyph glyph-name="dotaccent" unicode="&#x2d9;" horiz-adv-x="218" 
d="M109 795c27 -1 49 -22 49 -49s-22 -48 -49 -49s-49 22 -49 49s22 50 49 49z" />
    <glyph glyph-name="dieresis" unicode="&#xa8;" horiz-adv-x="362" 
d="M214 706c26 0 48 -22 48 -48s-22 -48 -48 -48s-48 22 -48 48s22 48 48 48zM48 707c26 0 48 -22 48 -48s-22 -48 -48 -48s-48 22 -48 48s22 48 48 48z" />
    <glyph glyph-name="ring" unicode="&#x2da;" horiz-adv-x="258" 
d="M99 805c55 0 99 -44 99 -99s-44 -99 -99 -99s-99 44 -99 99s44 99 99 99zM49 706c0 -27 23 -50 50 -50s50 23 50 50s-23 50 -50 50s-50 -23 -50 -50z" />
    <glyph glyph-name="cedilla" unicode="&#xb8;" horiz-adv-x="252" 
d="M150 35l40 -20l-60 -60c40 0 80 -25 80 -65c0 -55 -66 -85 -125 -85h-15v40h15c28 0 63 5 63 35c0 28 -34 35 -62 35h-56z" />
    <glyph glyph-name="hungarumlaut" unicode="&#x2dd;" horiz-adv-x="384" 
d="M80 670l-21 21l53 81c7 11 13 19 23 29c20 20 48 29 66 11s9 -46 -11 -66c-10 -10 -18 -16 -29 -23zM215 670l-21 21l53 81c7 11 13 19 23 29c20 20 48 29 66 11s9 -46 -11 -66c-10 -10 -18 -16 -29 -23z" />
    <glyph glyph-name="ogonek" unicode="&#x2db;" horiz-adv-x="256" 
d="M101 -53c-4 -25 12 -52 37 -53c21 -1 40 13 43 34l25 -17c-6 -41 -40 -67 -81 -66c-43 1 -75 35 -75 80c0 55 61 102 113 84l-1 -30c-25 10 -56 -5 -61 -32z" />
    <glyph glyph-name="caron" unicode="&#x2c7;" horiz-adv-x="398" 
d="M298 760l-149 -149l-149 149l40 25l109 -84l109 84z" />
    <glyph glyph-name="emdash" unicode="&#x2014;" horiz-adv-x="700" 
d="M700 300h-700v70h700v-70z" />
    <glyph glyph-name="AE" unicode="&#xc6;" horiz-adv-x="675" 
d="M99 -20l-74 41l343 579h264v-74h-190v-174h160v-74h-160v-204h200v-74h-274v131h-186zM368 465l-144 -260h144v260z" />
    <glyph glyph-name="Lslash" unicode="&#x141;" horiz-adv-x="380" 
d="M90 240l-33 -35l-49 38l82 88v195h-37v74h148v-74h-37v-116l30 32l48 -39l-78 -83v-246h200v-74h-311v74h37v166z" />
    <glyph glyph-name="Oslash" unicode="&#xd8;" horiz-adv-x="565" 
d="M482 580l56 -48l-57 -64c23 -51 35 -110 35 -168c0 -151 -80 -310 -231 -310c-69 0 -123 33 -161 82l-36 -40l-55 48l53 59c-21 50 -32 106 -32 161c0 151 80 310 231 310c66 0 118 -30 156 -77zM391 478c-25 36 -60 60 -106 60c-111 0 -155 -138 -155 -238
c0 -31 4 -65 13 -97zM175 128c25 -39 61 -66 110 -66c111 0 155 138 155 238c0 33 -5 71 -16 106z" />
    <glyph glyph-name="OE" unicode="&#x152;" horiz-adv-x="744" 
d="M280 -10c-151 2 -231 159 -231 310s80 310 231 310c66 0 114 -28 157 -79v69h264v-74h-190v-174h160v-74h-160v-204h200v-74h-274v71c-44 -53 -87 -82 -157 -81zM125 300c0 -100 44 -238 155 -238s155 138 155 238s-44 238 -155 238s-155 -138 -155 -238z" />
    <glyph glyph-name="ae" unicode="&#xe6;" horiz-adv-x="680" 
d="M325 79c0 0 -40 -89 -140 -89c-83 0 -146 59 -146 150c0 99 70 150 176 150h75c0 67 -35 112 -95 112c-34 0 -58 -24 -58 -24l-42 54s37 38 100 38c102 0 140 -78 140 -78c37 56 89 78 141 78c173 0 178 -216 163 -250h-277s-2 -162 114 -162c73 0 104 56 104 56l54 -44
s-58 -80 -158 -80c-64 0 -117 30 -151 89zM290 198v29h-75c-75 0 -104 -34 -104 -87c0 -46 37 -82 74 -82c72 0 110 83 110 83s-5 35 -5 57zM567 290c0 41 -16 112 -91 112c-89 0 -107 -112 -107 -112h198z" />
    <glyph glyph-name="dotlessi" unicode="&#x131;" horiz-adv-x="262" 
d="M167 70h35v-70h-142v70h35v320h-35v70h107v-390z" />
    <glyph glyph-name="lslash" unicode="&#x142;" horiz-adv-x="262" 
d="M167 449l31 33l48 -39l-79 -85v-288h35v-70h-142v70h35v211l-34 -36l-49 38l83 89v248h-35v70h107v-241z" />
    <glyph glyph-name="oslash" unicode="&#xf8;" horiz-adv-x="486" 
d="M398 464l56 -48l-46 -51c20 -39 31 -86 31 -135c0 -129 -75 -240 -196 -240c-51 0 -93 19 -126 51l-33 -37l-55 48l45 51c-17 37 -27 81 -27 127c0 129 75 240 196 240c48 0 88 -17 120 -46zM315 371c-19 18 -43 29 -72 29c-82 0 -124 -88 -124 -170c0 -23 3 -46 9 -67z
M165 94c20 -21 46 -34 78 -34c82 0 124 88 124 170c0 26 -4 52 -12 76z" />
    <glyph glyph-name="oe" unicode="&#x153;" horiz-adv-x="760" 
d="M395 83c-36 -61 -92 -93 -157 -93c-121 0 -196 111 -196 240s75 240 196 240c65 0 122 -33 158 -94c31 61 98 94 152 94c174 0 178 -216 163 -250h-277v-6c0 -45 27 -154 114 -156c46 -1 80 17 104 56l54 -44c-38 -57 -89 -80 -158 -80c-70 0 -119 32 -153 93zM639 290
c4 36 -16 112 -91 112c-86 0 -107 -108 -107 -109v-3h198zM114 230c0 -82 42 -170 124 -170s124 88 124 170s-42 170 -124 170s-124 -88 -124 -170z" />
    <glyph glyph-name="germandbls" unicode="&#xdf;" horiz-adv-x="509" 
d="M152 0h-109v74h37v372c0 92 69 164 168 165c94 1 175 -71 175 -165c0 -56 -38 -97 -92 -118c73 -22 122 -75 122 -157c0 -109 -103 -178 -216 -178c-12 0 -20 4 -31 7l9 68c8 -1 13 -3 22 -3c68 0 144 39 144 106c0 78 -81 121 -159 121h-14v60l8 1c64 8 133 35 135 93
c1 54 -49 94 -103 93c-52 -1 -96 -41 -96 -93v-446z" />
    <glyph glyph-name=".null" horiz-adv-x="0" 
 />
    <glyph glyph-name="Eth" unicode="&#xd0;" horiz-adv-x="585" 
d="M109 266h-91v80h91v180h-37v74h204c149 0 247 -141 251 -290c5 -155 -96 -310 -251 -310h-204v74h37v192zM183 346h105v-80h-105v-192h93c114 0 179 122 175 236c-4 108 -67 216 -175 216h-93v-180z" />
    <glyph glyph-name="eth" unicode="&#xf0;" horiz-adv-x="480" 
d="M247 474l-77 -83l-49 38l76 81c-31 19 -62 32 -83 40l45 60c32 -15 60 -31 85 -49l63 67l48 -39l-62 -66c111 -96 136 -208 136 -302c0 -149 -77 -231 -190 -231c-105 0 -190 79 -190 180s70 180 175 180c45 0 85 -18 125 -50c-15 68 -37 104 -75 148c-8 9 -17 18 -27 26
zM234 280c-60 0 -112 -45 -112 -110c0 -62 50 -112 112 -112c60 0 118 42 118 112c0 68 -56 110 -118 110z" />
    <glyph glyph-name="Scaron" unicode="&#x160;" horiz-adv-x="420" 
d="M125 93c23 -21 51 -31 80 -31c50 0 90 43 90 98c0 48 -30 73 -85 105l-35 20c-65 37 -125 80 -125 170c0 87 82 155 170 155c55 0 93 -19 122 -47v-100h-74v63c-16 8 -34 14 -53 14c-47 0 -90 -35 -90 -85c0 -45 35 -71 85 -100l35 -20c60 -35 125 -80 125 -170
c0 -95 -75 -175 -175 -175c-70 0 -118 35 -144 64v103h74v-64zM364 832l-149 -149l-149 149l40 25l109 -84l109 84z" />
    <glyph glyph-name="scaron" unicode="&#x161;" horiz-adv-x="370" 
d="M238 388c-17 11 -32 14 -53 14c-32 0 -70 -22 -70 -62s35 -54 70 -68l40 -17c45 -19 95 -50 95 -125c0 -78 -73 -140 -150 -140c-55 0 -90 20 -121 46v89h70v-52c9 -7 29 -15 51 -15c43 0 80 27 80 67s-27 55 -63 70l-42 17c-67 27 -100 63 -100 128c0 70 65 130 140 130
c62 0 102 -24 123 -48v-82h-70v48zM336 694l-149 -149l-149 149l40 25l109 -84l109 84z" />
    <glyph glyph-name="Yacute" unicode="&#xdd;" horiz-adv-x="520" 
d="M298 74h37v-74h-150v74h37v161l-199 339l71 36l166 -299l166 299l71 -36l-199 -339v-161zM238 686l-21 21l53 81c7 11 13 19 23 29c20 20 48 29 66 11s9 -46 -11 -66c-10 -10 -18 -16 -29 -23z" />
    <glyph glyph-name="yacute" unicode="&#xfd;" horiz-adv-x="470" 
d="M381 470l65 -27l-310 -673l-61 33l123 255l-170 385l65 27l144 -332zM209 546l-21 21l53 81c7 11 13 19 23 29c20 20 48 29 66 11s9 -46 -11 -66c-10 -10 -18 -16 -29 -23z" />
    <glyph glyph-name="Thorn" unicode="&#xde;" horiz-adv-x="450" 
d="M155 74h37v-74h-148v74h37v452h-37v74h111v-74h58c115 0 216 -85 216 -200s-101 -200 -216 -200h-58v-52zM155 452v-252h58c73 0 140 53 140 126s-67 126 -140 126h-58z" />
    <glyph glyph-name="thorn" unicode="&#xfe;" horiz-adv-x="525" 
d="M162 690v-289s46 69 125 69c118 0 196 -111 196 -240s-78 -240 -196 -240c-79 0 -125 69 -125 69v-279h-70v840h-35v70h105zM287 60c82 0 124 88 124 170s-42 170 -124 170s-125 -59 -125 -170s43 -170 125 -170z" />
    <glyph glyph-name="Zcaron" unicode="&#x17d;" horiz-adv-x="468" 
d="M342 72v82h74v-154h-376l244 529h-158v-82h-74v153h346l-247 -528h191zM376 828l-149 -149l-149 149l40 25l109 -84l109 84z" />
    <glyph glyph-name="zcaron" unicode="&#x17e;" horiz-adv-x="410" 
d="M120 392v-45h-70v113h310l-207 -392h137v45h70v-113h-320l207 392h-127zM346 694l-149 -149l-149 149l40 25l109 -84l109 84z" />
    <glyph glyph-name="onehalf" unicode="&#xbd;" horiz-adv-x="783" 
d="M163 600v-357h-55v357h55zM612 283c0 13 -15 40 -51 40c-23 0 -52 -28 -60 -46l-37 47c16 21 49 55 92 55c58 0 112 -34 112 -96c0 -105 -92 -132 -136 -228h139v-56h-206v12c0 125 147 189 147 272zM167 0l252 624l53 -22l-252 -624z" />
    <glyph glyph-name="onequarter" unicode="&#xbc;" horiz-adv-x="758" 
d="M163 600v-357h-55v357h55zM167 0l252 624l53 -22l-252 -624zM622 -1h-56v84h-146l33 72c25 56 50 135 50 218h56c0 -115 -50 -233 -50 -233h57v79h56v-79h44v-57h-44v-84z" />
    <glyph glyph-name="onesuperior" unicode="&#xb9;" 
d="M163 600v-357h-55v357h55z" />
    <glyph glyph-name="threequarters" unicode="&#xbe;" horiz-adv-x="808" 
d="M107 404v50h11c40 4 82 18 82 52c0 31 -11 49 -56 49c-23 0 -51 -17 -61 -40l-27 44c9 20 51 50 88 50c77 0 119 -47 112 -107c-4 -32 -19 -54 -44 -69c36 -14 62 -44 62 -89c0 -75 -67 -119 -137 -119c-29 0 -68 15 -68 15l13 56c15 -8 36 -15 55 -15c40 0 81 29 81 63
c0 40 -49 60 -96 60h-15zM243 0l252 624l53 -22l-252 -624zM698 -1h-56v84h-146l33 72c25 56 50 135 50 218h56c0 -115 -50 -233 -50 -233h57v79h56v-79h44v-57h-44v-84z" />
    <glyph glyph-name="threesuperior" unicode="&#xb3;" horiz-adv-x="358" 
d="M107 404v50h11c40 4 82 18 82 52c0 31 -11 49 -56 49c-23 0 -51 -17 -61 -40l-27 44c9 20 51 50 88 50c77 0 119 -47 112 -107c-4 -32 -19 -54 -44 -69c36 -14 62 -44 62 -89c0 -75 -67 -119 -137 -119c-29 0 -68 15 -68 15l13 56c15 -8 36 -15 55 -15c40 0 81 29 81 63
c0 40 -49 60 -96 60h-15z" />
    <glyph glyph-name="twosuperior" unicode="&#xb2;" horiz-adv-x="430" 
d="M240 507c0 13 -15 40 -51 40c-23 0 -52 -28 -60 -46l-37 47c16 21 49 55 92 55c58 0 112 -34 112 -96c0 -105 -92 -132 -136 -228h139v-56h-206v12c0 125 147 189 147 272z" />
    <glyph glyph-name="brokenbar" unicode="&#xa6;" horiz-adv-x="333" 
d="M106 335h76v-335h-76v335zM106 749h76v-331h-76v331z" />
    <glyph glyph-name="minus" unicode="&#x2212;" horiz-adv-x="388" 
d="M296 290h-221v80h221v-80z" />
    <glyph glyph-name="multiply" unicode="&#xd7;" horiz-adv-x="460" 
d="M229 383l92 107l54 -45l-100 -113l100 -115l-50 -47l-96 111l-96 -111l-50 47l100 115l-100 113l54 45z" />
    <glyph glyph-name="Adieresis" unicode="&#xc4;" horiz-adv-x="530" 
d="M98 -10l-74 22l215 588h52l215 -588l-74 -22l-49 141h-236zM265 473l-93 -268h186zM345 781c26 0 48 -22 48 -48s-22 -48 -48 -48s-48 22 -48 48s22 48 48 48zM179 782c26 0 48 -22 48 -48s-22 -48 -48 -48s-48 22 -48 48s22 48 48 48z" />
    <glyph glyph-name="Aring" unicode="&#xc5;" horiz-adv-x="530" 
d="M98 -10l-74 22l215 588h52l215 -588l-74 -22l-49 141h-236zM265 473l-93 -268h186zM269 850c55 0 99 -44 99 -99s-44 -99 -99 -99s-99 44 -99 99s44 99 99 99zM219 751c0 -27 23 -50 50 -50s50 23 50 50s-23 50 -50 50s-50 -23 -50 -50z" />
    <glyph glyph-name="Ccedilla" unicode="&#xc7;" horiz-adv-x="480" 
d="M229 -6c-122 27 -185 171 -185 306c0 149 75 310 226 310c69 0 116 -21 165 -69v-91h-74v61c-31 20 -54 27 -91 27c-112 0 -150 -128 -150 -238s45 -238 150 -238c53 0 90 19 123 60l52 -52c-46 -52 -93 -77 -160 -80l-35 -35c40 0 80 -25 80 -65c0 -55 -66 -85 -125 -85
h-15v40h15c28 0 63 5 63 35c0 28 -34 35 -62 35h-56z" />
    <glyph glyph-name="Eacute" unicode="&#xc9;" horiz-adv-x="410" 
d="M43 0v74h37v452h-37v74h311v-74h-200v-174h170v-74h-170v-204h210v-74h-321zM171 690l-21 21l53 81c7 11 13 19 23 29c20 20 48 29 66 11s9 -46 -11 -66c-10 -10 -18 -16 -29 -23z" />
    <glyph glyph-name="Ntilde" unicode="&#xd1;" horiz-adv-x="590" 
d="M90 600h74l276 -450v376h-37v74h148v-74h-37v-526h-74l-276 450v-376h37v-74h-148v74h37v526zM219 742c-22 -6 -33 -24 -40 -45l-22 35c14 43 44 76 90 75c49 -1 66 -68 113 -55c22 6 33 24 40 45l22 -35c-14 -43 -44 -76 -90 -75c-49 1 -66 68 -113 55z" />
    <glyph glyph-name="Odieresis" unicode="&#xd6;" horiz-adv-x="554" 
d="M278 610c151 0 231 -159 231 -310s-80 -310 -231 -310s-231 159 -231 310s80 310 231 310zM123 300c0 -100 44 -238 155 -238s155 138 155 238s-44 238 -155 238s-155 -138 -155 -238zM368 781c26 0 48 -22 48 -48s-22 -48 -48 -48s-48 22 -48 48s22 48 48 48zM202 782
c26 0 48 -22 48 -48s-22 -48 -48 -48s-48 22 -48 48s22 48 48 48z" />
    <glyph glyph-name="Udieresis" unicode="&#xdc;" horiz-adv-x="574" 
d="M499 250c0 -149 -81 -260 -212 -260s-212 111 -212 260v276h-37v74h148v-74h-37v-276c0 -109 48 -186 138 -186s138 77 138 186v276h-37v74h148v-74h-37v-276zM359 786c26 0 48 -22 48 -48s-22 -48 -48 -48s-48 22 -48 48s22 48 48 48zM193 787c26 0 48 -22 48 -48
s-22 -48 -48 -48s-48 22 -48 48s22 48 48 48z" />
    <glyph glyph-name="aacute" unicode="&#xe1;" horiz-adv-x="462" 
d="M360 198c0 -66 24 -112 76 -152l-52 -52c-18 11 -47 46 -64 75c-24 -46 -81 -79 -135 -79c-83 0 -146 59 -146 150c0 99 68 150 176 150h75c0 63 -32 112 -95 112c-24 0 -41 -9 -58 -24l-42 54c31 26 59 38 100 38c104 0 165 -81 165 -175v-97zM290 198v29h-75
c-75 0 -104 -34 -104 -87c0 -46 37 -82 74 -82c72 0 110 83 110 83s-5 35 -5 57zM183 552l-21 21l53 81c7 11 13 19 23 29c20 20 48 29 66 11s9 -46 -11 -66c-10 -10 -18 -16 -29 -23z" />
    <glyph glyph-name="agrave" unicode="&#xe0;" horiz-adv-x="462" 
d="M360 198c0 -66 24 -112 76 -152l-52 -52c-18 11 -47 46 -64 75c-24 -46 -81 -79 -135 -79c-83 0 -146 59 -146 150c0 99 68 150 176 150h75c0 63 -32 112 -95 112c-24 0 -41 -9 -58 -24l-42 54c31 26 59 38 100 38c104 0 165 -81 165 -175v-97zM290 198v29h-75
c-75 0 -104 -34 -104 -87c0 -46 37 -82 74 -82c72 0 110 83 110 83s-5 35 -5 57zM161 604c-11 7 -19 13 -29 23c-20 20 -29 48 -11 66s46 9 66 -11c10 -10 16 -18 23 -29l53 -81l-21 -21z" />
    <glyph glyph-name="acircumflex" unicode="&#xe2;" horiz-adv-x="462" 
d="M360 198c0 -66 24 -112 76 -152l-52 -52c-18 11 -47 46 -64 75c-24 -46 -81 -79 -135 -79c-83 0 -146 59 -146 150c0 99 68 150 176 150h75c0 63 -32 112 -95 112c-24 0 -41 -9 -58 -24l-42 54c31 26 59 38 100 38c104 0 165 -81 165 -175v-97zM290 198v29h-75
c-75 0 -104 -34 -104 -87c0 -46 37 -82 74 -82c72 0 110 83 110 83s-5 35 -5 57zM318 546l-109 84l-109 -84l-40 25l149 149l149 -149z" />
    <glyph glyph-name="adieresis" unicode="&#xe4;" horiz-adv-x="462" 
d="M360 198c0 -66 24 -112 76 -152l-52 -52c-18 11 -47 46 -64 75c-24 -46 -81 -79 -135 -79c-83 0 -146 59 -146 150c0 99 68 150 176 150h75c0 63 -32 112 -95 112c-24 0 -41 -9 -58 -24l-42 54c31 26 59 38 100 38c104 0 165 -81 165 -175v-97zM290 198v29h-75
c-75 0 -104 -34 -104 -87c0 -46 37 -82 74 -82c72 0 110 83 110 83s-5 35 -5 57zM304 648c26 0 48 -22 48 -48s-22 -48 -48 -48s-48 22 -48 48s22 48 48 48zM138 649c26 0 48 -22 48 -48s-22 -48 -48 -48s-48 22 -48 48s22 48 48 48z" />
    <glyph glyph-name="atilde" unicode="&#xe3;" horiz-adv-x="462" 
d="M360 198c0 -66 24 -112 76 -152l-52 -52c-18 11 -47 46 -64 75c-24 -46 -81 -79 -135 -79c-83 0 -146 59 -146 150c0 99 68 150 176 150h75c0 63 -32 112 -95 112c-24 0 -41 -9 -58 -24l-42 54c31 26 59 38 100 38c104 0 165 -81 165 -175v-97zM290 198v29h-75
c-75 0 -104 -34 -104 -87c0 -46 37 -82 74 -82c72 0 110 83 110 83s-5 35 -5 57zM160 601c-22 -6 -33 -24 -40 -45l-22 35c14 43 44 76 90 75c49 -1 66 -68 113 -55c22 6 33 24 40 45l22 -35c-14 -43 -44 -76 -90 -75c-49 1 -66 68 -113 55z" />
    <glyph glyph-name="aring" unicode="&#xe5;" horiz-adv-x="462" 
d="M360 198c0 -66 24 -112 76 -152l-52 -52c-18 11 -47 46 -64 75c-24 -46 -81 -79 -135 -79c-83 0 -146 59 -146 150c0 99 68 150 176 150h75c0 63 -32 112 -95 112c-24 0 -41 -9 -58 -24l-42 54c31 26 59 38 100 38c104 0 165 -81 165 -175v-97zM290 198v29h-75
c-75 0 -104 -34 -104 -87c0 -46 37 -82 74 -82c72 0 110 83 110 83s-5 35 -5 57zM218 731c55 0 99 -44 99 -99s-44 -99 -99 -99s-99 44 -99 99s44 99 99 99zM168 632c0 -27 23 -50 50 -50s50 23 50 50s-23 50 -50 50s-50 -23 -50 -50z" />
    <glyph glyph-name="ccedilla" unicode="&#xe7;" horiz-adv-x="426" 
d="M175 0c-84 31 -133 124 -133 230c0 128 77 240 191 240c63 0 106 -19 147 -66v-86h-70v59c-25 17 -46 23 -77 23c-81 -1 -119 -89 -119 -170s38 -170 119 -170c46 0 81 19 105 57l53 -47c-40 -55 -89 -81 -158 -80h-8l-35 -35c40 0 80 -25 80 -65c0 -55 -66 -85 -125 -85
h-15v40h15c28 0 63 5 63 35c0 28 -34 35 -62 35h-56z" />
    <glyph glyph-name="eacute" unicode="&#xe9;" horiz-adv-x="430" 
d="M228 58c73 0 104 56 104 56l54 -44s-58 -80 -158 -80c-127 0 -186 113 -186 240s68 240 186 240c174 0 176 -215 163 -250h-276c0 -91 38 -162 113 -162zM319 290c0 41 -16 112 -91 112c-89 0 -107 -112 -107 -112h198zM199 552l-21 21l53 81c7 11 13 19 23 29
c20 20 48 29 66 11s9 -46 -11 -66c-10 -10 -18 -16 -29 -23z" />
    <glyph glyph-name="egrave" unicode="&#xe8;" horiz-adv-x="430" 
d="M228 58c73 0 104 56 104 56l54 -44s-58 -80 -158 -80c-127 0 -186 113 -186 240s68 240 186 240c174 0 176 -215 163 -250h-276c0 -91 38 -162 113 -162zM319 290c0 41 -16 112 -91 112c-89 0 -107 -112 -107 -112h198zM189 604c-11 7 -19 13 -29 23
c-20 20 -29 48 -11 66s46 9 66 -11c10 -10 16 -18 23 -29l53 -81l-21 -21z" />
    <glyph glyph-name="ecircumflex" unicode="&#xea;" horiz-adv-x="430" 
d="M228 58c73 0 104 56 104 56l54 -44s-58 -80 -158 -80c-127 0 -186 113 -186 240s68 240 186 240c174 0 176 -215 163 -250h-276c0 -91 38 -162 113 -162zM319 290c0 41 -16 112 -91 112c-89 0 -107 -112 -107 -112h198zM340 548l-109 84l-109 -84l-40 25l149 149
l149 -149z" />
    <glyph glyph-name="edieresis" unicode="&#xeb;" horiz-adv-x="430" 
d="M228 58c73 0 104 56 104 56l54 -44s-58 -80 -158 -80c-127 0 -186 113 -186 240s68 240 186 240c174 0 176 -215 163 -250h-276c0 -91 38 -162 113 -162zM319 290c0 41 -16 112 -91 112c-89 0 -107 -112 -107 -112h198zM316 646c26 0 48 -22 48 -48s-22 -48 -48 -48
s-48 22 -48 48s22 48 48 48zM150 647c26 0 48 -22 48 -48s-22 -48 -48 -48s-48 22 -48 48s22 48 48 48z" />
    <glyph glyph-name="iacute" unicode="&#xed;" horiz-adv-x="262" 
d="M167 70h35v-70h-142v70h35v320h-35v70h107v-390zM93 550l-21 21l53 81c7 11 13 19 23 29c20 20 48 29 66 11s9 -46 -11 -66c-10 -10 -18 -16 -29 -23z" />
    <glyph glyph-name="igrave" unicode="&#xec;" horiz-adv-x="262" 
d="M167 70h35v-70h-142v70h35v320h-35v70h107v-390zM66 602c-11 7 -19 13 -29 23c-20 20 -29 48 -11 66s46 9 66 -11c10 -10 16 -18 23 -29l53 -81l-21 -21z" />
    <glyph glyph-name="icircumflex" unicode="&#xee;" horiz-adv-x="262" 
d="M167 70h35v-70h-142v70h35v320h-35v70h107v-390zM233 550l-109 84l-109 -84l-40 25l149 149l149 -149z" />
    <glyph glyph-name="idieresis" unicode="&#xef;" horiz-adv-x="262" 
d="M167 70h35v-70h-142v70h35v320h-35v70h107v-390zM203 646c26 0 48 -22 48 -48s-22 -48 -48 -48s-48 22 -48 48s22 48 48 48zM37 647c26 0 48 -22 48 -48s-22 -48 -48 -48s-48 22 -48 48s22 48 48 48z" />
    <glyph glyph-name="ntilde" unicode="&#xf1;" horiz-adv-x="522" 
d="M102 70v192c0 66 -24 112 -76 152l52 52c37 -31 54 -56 71 -91c0 0 67 97 161 97c76 0 132 -58 132 -143v-259h35v-70h-140v70h35v249c0 43 -28 77 -78 77c-76 0 -122 -105 -122 -105v-221h35v-70h-140v70h35zM189 603c-22 -6 -33 -24 -40 -45l-22 35c14 43 44 76 90 75
c49 -1 66 -68 113 -55c22 6 33 24 40 45l22 -35c-14 -43 -44 -76 -90 -75c-49 1 -66 68 -113 55z" />
    <glyph glyph-name="oacute" unicode="&#xf3;" horiz-adv-x="476" 
d="M238 470c121 0 196 -111 196 -240s-75 -240 -196 -240s-196 111 -196 240s75 240 196 240zM114 230c0 -82 42 -170 124 -170s124 88 124 170s-42 170 -124 170s-124 -88 -124 -170zM201 550l-21 21l53 81c7 11 13 19 23 29c20 20 48 29 66 11s9 -46 -11 -66
c-10 -10 -18 -16 -29 -23z" />
    <glyph glyph-name="ograve" unicode="&#xf2;" horiz-adv-x="476" 
d="M238 470c121 0 196 -111 196 -240s-75 -240 -196 -240s-196 111 -196 240s75 240 196 240zM114 230c0 -82 42 -170 124 -170s124 88 124 170s-42 170 -124 170s-124 -88 -124 -170zM201 604c-11 7 -19 13 -29 23c-20 20 -29 48 -11 66s46 9 66 -11c10 -10 16 -18 23 -29
l53 -81l-21 -21z" />
    <glyph glyph-name="ocircumflex" unicode="&#xf4;" horiz-adv-x="476" 
d="M238 470c121 0 196 -111 196 -240s-75 -240 -196 -240s-196 111 -196 240s75 240 196 240zM114 230c0 -82 42 -170 124 -170s124 88 124 170s-42 170 -124 170s-124 -88 -124 -170zM348 546l-109 84l-109 -84l-40 25l149 149l149 -149z" />
    <glyph glyph-name="odieresis" unicode="&#xf6;" horiz-adv-x="476" 
d="M238 470c121 0 196 -111 196 -240s-75 -240 -196 -240s-196 111 -196 240s75 240 196 240zM114 230c0 -82 42 -170 124 -170s124 88 124 170s-42 170 -124 170s-124 -88 -124 -170zM323 648c26 0 48 -22 48 -48s-22 -48 -48 -48s-48 22 -48 48s22 48 48 48zM157 649
c26 0 48 -22 48 -48s-22 -48 -48 -48s-48 22 -48 48s22 48 48 48z" />
    <glyph glyph-name="otilde" unicode="&#xf5;" horiz-adv-x="476" 
d="M238 470c121 0 196 -111 196 -240s-75 -240 -196 -240s-196 111 -196 240s75 240 196 240zM114 230c0 -82 42 -170 124 -170s124 88 124 170s-42 170 -124 170s-124 -88 -124 -170zM176 601c-22 -6 -33 -24 -40 -45l-22 35c14 43 44 76 90 75c49 -1 66 -68 113 -55
c22 6 33 24 40 45l22 -35c-14 -43 -44 -76 -90 -75c-49 1 -66 68 -113 55z" />
    <glyph glyph-name="uacute" unicode="&#xfa;" horiz-adv-x="512" 
d="M150 139c0 -40 29 -75 72 -75c73 0 118 98 118 98v228h-35v70h105v-272c0 -66 24 -112 76 -152l-52 -52c-35 29 -55 57 -73 94c0 0 -60 -90 -155 -90c-71 0 -126 58 -126 141v261h-34v70h104v-321zM213 551l-21 21l53 81c7 11 13 19 23 29c20 20 48 29 66 11
s9 -46 -11 -66c-10 -10 -18 -16 -29 -23z" />
    <glyph glyph-name="ugrave" unicode="&#xf9;" horiz-adv-x="512" 
d="M150 139c0 -40 29 -75 72 -75c73 0 118 98 118 98v228h-35v70h105v-272c0 -66 24 -112 76 -152l-52 -52c-35 29 -55 57 -73 94c0 0 -60 -90 -155 -90c-71 0 -126 58 -126 141v261h-34v70h104v-321zM199 605c-11 7 -19 13 -29 23c-20 20 -29 48 -11 66s46 9 66 -11
c10 -10 16 -18 23 -29l53 -81l-21 -21z" />
    <glyph glyph-name="ucircumflex" unicode="&#xfb;" horiz-adv-x="512" 
d="M150 139c0 -40 29 -75 72 -75c73 0 118 98 118 98v228h-35v70h105v-272c0 -66 24 -112 76 -152l-52 -52c-35 29 -55 57 -73 94c0 0 -60 -90 -155 -90c-71 0 -126 58 -126 141v261h-34v70h104v-321zM353 546l-109 84l-109 -84l-40 25l149 149l149 -149z" />
    <glyph glyph-name="udieresis" unicode="&#xfc;" horiz-adv-x="512" 
d="M150 139c0 -40 29 -75 72 -75c73 0 118 98 118 98v228h-35v70h105v-272c0 -66 24 -112 76 -152l-52 -52c-35 29 -55 57 -73 94c0 0 -60 -90 -155 -90c-71 0 -126 58 -126 141v261h-34v70h104v-321zM325 646c26 0 48 -22 48 -48s-22 -48 -48 -48s-48 22 -48 48
s22 48 48 48zM159 647c26 0 48 -22 48 -48s-22 -48 -48 -48s-48 22 -48 48s22 48 48 48z" />
    <glyph glyph-name="degree" unicode="&#xb0;" horiz-adv-x="400" 
d="M199 610c77 0 139 -62 139 -139s-62 -139 -139 -139s-139 62 -139 139s62 139 139 139zM126 471c0 -40 33 -73 73 -73s73 33 73 73s-33 73 -73 73s-73 -33 -73 -73z" />
    <glyph glyph-name="registered" unicode="&#xae;" horiz-adv-x="620" 
d="M310 588c164 0 297 -133 297 -297s-133 -297 -297 -297s-297 133 -297 297s133 297 297 297zM75 291c0 -129 106 -235 235 -235s235 106 235 235s-106 235 -235 235s-235 -106 -235 -235zM202 146v54h27v192h-27v54h104c58 0 112 -41 111 -99c-1 -39 -21 -68 -56 -84
l80 -96l-51 -29l-87 111h-15v-103h-86zM288 308h18c25 0 51 14 51 39s-18 40 -51 40h-18v-79z" />
    <glyph glyph-name="copyright" unicode="&#xa9;" horiz-adv-x="620" 
d="M310 588c164 0 297 -133 297 -297s-133 -297 -297 -297s-297 133 -297 297s133 297 297 297zM75 291c0 -129 106 -235 235 -235s235 106 235 235s-106 235 -235 235s-235 -106 -235 -235zM403 418v-64h-56v35c-7 2 -22 6 -36 6c-46 -3 -64 -53 -64 -99s18 -98 64 -100
c27 -1 46 7 62 28l37 -43c-27 -31 -57 -43 -99 -43c-78 0 -124 80 -124 158s49 157 124 157c38 0 65 -10 92 -35z" />
    <glyph glyph-name="trademark" unicode="&#x2122;" horiz-adv-x="670" 
d="M176 354h27v-54h-113v54h27v187h-77v59h214v-59h-78v-187zM413 300l-58 201l-27 -206l-59 8l57 297h54l60 -216l60 216h54l57 -297l-59 -8l-28 206l-57 -201h-54z" />
    <glyph glyph-name="lessequal" unicode="&#x2264;" 
d="M63 290l131 188l54 -45l-100 -143l100 -145l-50 -47z" />
    <glyph glyph-name="greaterequal" unicode="&#x2265;" 
d="M120 98l-50 47l100 145l-100 143l54 45l131 -188z" />
    <glyph glyph-name="mu" unicode="&#xb5;" horiz-adv-x="512" 
d="M150 1v-221h-70v610h-34v70h104v-321c0 -40 29 -75 72 -75c73 0 118 98 118 98v228h-35v70h105v-272c0 -66 24 -112 76 -152l-52 -52c-35 29 -55 57 -73 94c0 0 -60 -90 -155 -90c-20 0 -39 5 -56 13z" />
    <glyph glyph-name="mu" unicode="&#x3bc;" horiz-adv-x="512" 
d="M150 1v-221h-70v610h-34v70h104v-321c0 -40 29 -75 72 -75c73 0 118 98 118 98v228h-35v70h105v-272c0 -66 24 -112 76 -152l-52 -52c-35 29 -55 57 -73 94c0 0 -60 -90 -155 -90c-20 0 -39 5 -56 13z" />
    <glyph glyph-name="partialdiff" unicode="&#x2202;" horiz-adv-x="480" 
d="M247 474l-77 -83l-49 38l76 81c-31 19 -62 32 -83 40l45 60c32 -15 60 -31 85 -49l63 67l48 -39l-62 -66c111 -96 136 -208 136 -302c0 -149 -77 -231 -190 -231c-105 0 -190 79 -190 180s70 180 175 180c45 0 85 -18 125 -50c-15 68 -37 104 -75 148c-8 9 -17 18 -27 26
zM234 280c-60 0 -112 -45 -112 -110c0 -62 50 -112 112 -112c60 0 118 42 118 112c0 68 -56 110 -118 110z" />
    <glyph glyph-name="nbspace" unicode="&#xa0;" horiz-adv-x="230" 
 />
    <glyph glyph-name="Agrave" unicode="&#xc0;" horiz-adv-x="530" 
d="M98 -10l-74 22l215 588h52l215 -588l-74 -22l-49 141h-236zM265 473l-93 -268h186zM214 743c-11 7 -19 13 -29 23c-20 20 -29 48 -11 66s46 9 66 -11c10 -10 16 -18 23 -29l53 -81l-21 -21z" />
    <glyph glyph-name="Atilde" unicode="&#xc3;" horiz-adv-x="530" 
d="M98 -10l-74 22l215 588h52l215 -588l-74 -22l-49 141h-236zM265 473l-93 -268h186zM192 742c-22 -6 -33 -24 -40 -45l-22 35c14 43 44 76 90 75c49 -1 66 -68 113 -55c22 6 33 24 40 45l22 -35c-14 -43 -44 -76 -90 -75c-49 1 -66 68 -113 55z" />
    <glyph glyph-name="Otilde" unicode="&#xd5;" horiz-adv-x="554" 
d="M278 610c151 0 231 -159 231 -310s-80 -310 -231 -310s-231 159 -231 310s80 310 231 310zM123 300c0 -100 44 -238 155 -238s155 138 155 238s-44 238 -155 238s-155 -138 -155 -238zM199 744c-22 -6 -33 -24 -40 -45l-22 35c14 43 44 76 90 75c49 -1 66 -68 113 -55
c22 6 33 24 40 45l22 -35c-14 -43 -44 -76 -90 -75c-49 1 -66 68 -113 55z" />
    <glyph glyph-name="ydieresis" unicode="&#xff;" horiz-adv-x="470" 
d="M381 470l65 -27l-310 -673l-61 33l123 255l-170 385l65 27l144 -332zM325 646c26 0 48 -22 48 -48s-22 -48 -48 -48s-48 22 -48 48s22 48 48 48zM159 647c26 0 48 -22 48 -48s-22 -48 -48 -48s-48 22 -48 48s22 48 48 48z" />
    <glyph glyph-name="Ydieresis" unicode="&#x178;" horiz-adv-x="520" 
d="M298 74h37v-74h-150v74h37v161l-199 339l71 36l166 -299l166 299l71 -36l-199 -339v-161zM349 781c26 0 48 -22 48 -48s-22 -48 -48 -48s-48 22 -48 48s22 48 48 48zM183 782c26 0 48 -22 48 -48s-22 -48 -48 -48s-48 22 -48 48s22 48 48 48z" />
    <glyph glyph-name="Acircumflex" unicode="&#xc2;" horiz-adv-x="530" 
d="M98 -10l-74 22l215 588h52l215 -588l-74 -22l-49 141h-236zM265 473l-93 -268h186zM371 688l-109 84l-109 -84l-40 25l149 149l149 -149z" />
    <glyph glyph-name="Ecircumflex" unicode="&#xca;" horiz-adv-x="410" 
d="M43 0v74h37v452h-37v74h311v-74h-200v-174h170v-74h-170v-204h210v-74h-321zM307 690l-109 84l-109 -84l-40 25l149 149l149 -149z" />
    <glyph glyph-name="Aacute" unicode="&#xc1;" horiz-adv-x="530" 
d="M98 -10l-74 22l215 588h52l215 -588l-74 -22l-49 141h-236zM265 473l-93 -268h186zM238 689l-21 21l53 81c7 11 13 19 23 29c20 20 48 29 66 11s9 -46 -11 -66c-10 -10 -18 -16 -29 -23z" />
    <glyph glyph-name="Edieresis" unicode="&#xcb;" horiz-adv-x="410" 
d="M43 0v74h37v452h-37v74h311v-74h-200v-174h170v-74h-170v-204h210v-74h-321zM292 785c26 0 48 -22 48 -48s-22 -48 -48 -48s-48 22 -48 48s22 48 48 48zM126 786c26 0 48 -22 48 -48s-22 -48 -48 -48s-48 22 -48 48s22 48 48 48z" />
    <glyph glyph-name="Egrave" unicode="&#xc8;" horiz-adv-x="410" 
d="M43 0v74h37v452h-37v74h311v-74h-200v-174h170v-74h-170v-204h210v-74h-321zM176 741c-11 7 -19 13 -29 23c-20 20 -29 48 -11 66s46 9 66 -11c10 -10 16 -18 23 -29l53 -81l-21 -21z" />
    <glyph glyph-name="Iacute" unicode="&#xcd;" horiz-adv-x="266" 
d="M171 74h37v-74h-150v74h37v452h-37v74h150v-74h-37v-452zM99 689l-21 21l53 81c7 11 13 19 23 29c20 20 48 29 66 11s9 -46 -11 -66c-10 -10 -18 -16 -29 -23z" />
    <glyph glyph-name="Icircumflex" unicode="&#xce;" horiz-adv-x="266" 
d="M171 74h37v-74h-150v74h37v452h-37v74h150v-74h-37v-452zM243 690l-109 84l-109 -84l-40 25l149 149l149 -149z" />
    <glyph glyph-name="Idieresis" unicode="&#xcf;" horiz-adv-x="266" 
d="M171 74h37v-74h-150v74h37v452h-37v74h150v-74h-37v-452zM212 785c26 0 48 -22 48 -48s-22 -48 -48 -48s-48 22 -48 48s22 48 48 48zM46 786c26 0 48 -22 48 -48s-22 -48 -48 -48s-48 22 -48 48s22 48 48 48z" />
    <glyph glyph-name="Igrave" unicode="&#xcc;" horiz-adv-x="266" 
d="M171 74h37v-74h-150v74h37v452h-37v74h150v-74h-37v-452zM63 745c-11 7 -19 13 -29 23c-20 20 -29 48 -11 66s46 9 66 -11c10 -10 16 -18 23 -29l53 -81l-21 -21z" />
    <glyph glyph-name="Oacute" unicode="&#xd3;" horiz-adv-x="554" 
d="M278 610c151 0 231 -159 231 -310s-80 -310 -231 -310s-231 159 -231 310s80 310 231 310zM123 300c0 -100 44 -238 155 -238s155 138 155 238s-44 238 -155 238s-155 -138 -155 -238zM246 691l-21 21l53 81c7 11 13 19 23 29c20 20 48 29 66 11s9 -46 -11 -66
c-10 -10 -18 -16 -29 -23z" />
    <glyph glyph-name="Ocircumflex" unicode="&#xd4;" horiz-adv-x="554" 
d="M278 610c151 0 231 -159 231 -310s-80 -310 -231 -310s-231 159 -231 310s80 310 231 310zM123 300c0 -100 44 -238 155 -238s155 138 155 238s-44 238 -155 238s-155 -138 -155 -238zM378 689l-109 84l-109 -84l-40 25l149 149l149 -149z" />
    <glyph glyph-name="Ograve" unicode="&#xd2;" horiz-adv-x="554" 
d="M278 610c151 0 231 -159 231 -310s-80 -310 -231 -310s-231 159 -231 310s80 310 231 310zM123 300c0 -100 44 -238 155 -238s155 138 155 238s-44 238 -155 238s-155 -138 -155 -238zM232 743c-11 7 -19 13 -29 23c-20 20 -29 48 -11 66s46 9 66 -11
c10 -10 16 -18 23 -29l53 -81l-21 -21z" />
    <glyph glyph-name="Uacute" unicode="&#xda;" horiz-adv-x="574" 
d="M499 250c0 -149 -81 -260 -212 -260s-212 111 -212 260v276h-37v74h148v-74h-37v-276c0 -109 48 -186 138 -186s138 77 138 186v276h-37v74h148v-74h-37v-276zM249 689l-21 21l53 81c7 11 13 19 23 29c20 20 48 29 66 11s9 -46 -11 -66c-10 -10 -18 -16 -29 -23z" />
    <glyph glyph-name="Ucircumflex" unicode="&#xdb;" horiz-adv-x="574" 
d="M499 250c0 -149 -81 -260 -212 -260s-212 111 -212 260v276h-37v74h148v-74h-37v-276c0 -109 48 -186 138 -186s138 77 138 186v276h-37v74h148v-74h-37v-276zM389 690l-109 84l-109 -84l-40 25l149 149l149 -149z" />
    <glyph glyph-name="Ugrave" unicode="&#xd9;" horiz-adv-x="574" 
d="M499 250c0 -149 -81 -260 -212 -260s-212 111 -212 260v276h-37v74h148v-74h-37v-276c0 -109 48 -186 138 -186s138 77 138 186v276h-37v74h148v-74h-37v-276zM212 743c-11 7 -19 13 -29 23c-20 20 -29 48 -11 66s46 9 66 -11c10 -10 16 -18 23 -29l53 -81l-21 -21z" />
    <glyph glyph-name="softhyphen" unicode="&#xad;" horiz-adv-x="420" 
d="M340 290h-270v80h270v-80z" />
    <glyph glyph-name="HT" unicode="&#x9;" horiz-adv-x="230" 
 />
    <glyph glyph-name="CR" unicode="&#xd;" horiz-adv-x="230" 
 />
    <glyph glyph-name="zero.osfprop" horiz-adv-x="476" 
d="M238 470c121 0 196 -111 196 -240s-75 -240 -196 -240s-196 111 -196 240s75 240 196 240zM114 230c0 -82 42 -170 124 -170s124 88 124 170s-42 170 -124 170s-124 -88 -124 -170z" />
    <glyph glyph-name="one.osfprop" horiz-adv-x="262" 
d="M167 70h35v-70h-142v70h35v320h-35v70h142v-70h-35v-320z" />
    <glyph glyph-name="two.osfprop" horiz-adv-x="430" 
d="M55 0c0 85 50 135 105 180l85 70c30 25 50 55 50 80c0 55 -47 72 -85 72c-40 0 -75 -18 -105 -57l-47 47c42 50 92 78 162 78c75 0 145 -50 145 -140c0 -52 -33 -95 -75 -128l-65 -52c-19 -15 -75 -55 -75 -80h150v45h70v-115h-315z" />
    <glyph glyph-name="three.osfprop" horiz-adv-x="440" 
d="M124 150v62c107 0 165 43 165 103c0 45 -30 87 -95 87c-55 0 -90 -32 -110 -52l-40 55c33 30 80 65 155 65c95 0 160 -60 160 -150c0 -60 -40 -115 -95 -135c65 -15 123 -63 123 -145c0 -110 -98 -190 -208 -190c-55 0 -104 15 -115 20v80c25 -15 70 -30 110 -30
c80 0 140 45 140 115c0 75 -65 115 -190 115z" />
    <glyph glyph-name="four.osfprop" horiz-adv-x="470" 
d="M366 0v-140h-70v140h-238l48 104c47 102 88 248 85 346v10h70v-10c0 -103 -35 -226 -83 -362l-6 -17h124v132h70v-132h72v-71h-72z" />
    <glyph glyph-name="five.osfprop" horiz-adv-x="440" 
d="M94 460h263v-71h-193v-142c112 3 211 -63 211 -177c0 -212 -261 -231 -299 -212v65c24 -19 229 -10 229 147c0 69 -67 106 -141 106h-70v284z" />
    <glyph glyph-name="six.osfprop" horiz-adv-x="470" 
d="M45 221c0 124 43 279 270 389l45 -60c-40 -15 -115 -50 -160 -102c-38 -44 -60 -80 -75 -148c40 32 80 50 125 50c105 0 175 -79 175 -180s-85 -180 -190 -180c-113 0 -190 82 -190 231zM122 170c0 -70 58 -112 118 -112c62 0 112 50 112 112c0 65 -52 110 -112 110
c-62 0 -118 -42 -118 -110z" />
    <glyph glyph-name="seven.osfprop" horiz-adv-x="450" 
d="M281 389h-236v71h350l-78 -169c-72 -157 -127 -294 -127 -426v-5h-70v5c0 138 53 278 125 442z" />
    <glyph glyph-name="eight.osfprop" horiz-adv-x="500" 
d="M159 327c-52 24 -85 65 -85 123c0 90 76 160 166 160c89 0 165 -71 165 -160c0 -59 -34 -100 -87 -123c70 -23 117 -78 117 -152c1 -105 -90 -185 -195 -185s-196 80 -196 185c0 74 45 128 115 152zM365 175c0 66 -59 115 -125 115s-124 -49 -124 -115s58 -115 124 -115
s125 49 125 115zM335 450c0 51 -44 90 -95 90s-94 -39 -94 -90s43 -90 94 -90s95 39 95 90z" />
    <glyph glyph-name="nine.osfprop" horiz-adv-x="470" 
d="M425 250c0 -135 -43 -290 -270 -400l-45 60c40 15 115 50 160 102c38 44 60 80 75 148c-35 -30 -80 -48 -125 -48c-105 0 -175 76 -175 178c0 101 85 180 190 180c115 0 190 -80 190 -220zM345 290c0 68 -50 112 -113 112c-62 0 -112 -50 -112 -112
c0 -65 50 -110 110 -110c62 0 115 42 115 110z" />
    <glyph glyph-name="quotedblrev" unicode="&#x201f;" horiz-adv-x="440" 
d="M327 700l29 -25c-17 -20 -23 -27 -30 -39c-5 -8 -13 -34 -13 -48c20 -3 40 -26 40 -53c0 -30 -21 -55 -51 -55s-54 28 -54 70c0 70 49 130 79 150zM157 700l29 -25c-17 -20 -23 -27 -30 -39c-5 -8 -13 -34 -13 -48c20 -3 40 -26 40 -53c0 -30 -21 -55 -51 -55
s-54 28 -54 70c0 70 49 130 79 150z" />
    <glyph glyph-name="quoteleftrev" unicode="&#x201b;" horiz-adv-x="280" 
d="M167 700l29 -25c-17 -20 -23 -27 -30 -39c-5 -8 -13 -34 -13 -48c20 -3 40 -26 40 -53c0 -30 -21 -55 -51 -55s-54 28 -54 70c0 70 49 130 79 150z" />
    </font>
</defs>
</svg>
