<?xml version="1.0" standalone="no"?>
<!DOCTYPE svg PUBLIC "-//W3C//DTD SVG 1.1//EN" "http://www.w3.org/Graphics/SVG/1.1/DTD/svg11.dtd" >
<svg xmlns="http://www.w3.org/2000/svg" xmlns:xlink="http://www.w3.org/1999/xlink" version="1.1">
<metadata>
Created by FontForge 20161116 at Fri Sep 22 00:58:27 2000
 By Jimmy Wärting
Copyright (c) 1990 Adobe Systems Incorporated.  All Rights Reserved.Univers is a trademark of Linotype AG and/or its subsidiaries.
</metadata>
<defs>
<font id="UniversLT-ThinUltraCondensed" horiz-adv-x="204" >
  <font-face 
    font-family="Univers LT 39 ThinUltraCn"
    font-weight="400"
    font-stretch="normal"
    units-per-em="1000"
    panose-1="2 11 2 0 0 0 0 0 0 0"
    ascent="800"
    descent="-200"
    x-height="502"
    cap-height="722"
    bbox="-40 -188 1000 863"
    underline-thickness="50"
    underline-position="-125"
    unicode-range="U+0020-2122"
  />
<missing-glyph horiz-adv-x="500" 
d="M63 0v811h375v-811h-375zM125 63h250v686h-250v-686z" />
    <glyph glyph-name=".notdef" horiz-adv-x="500" 
d="M63 0v811h375v-811h-375zM125 63h250v686h-250v-686z" />
    <glyph glyph-name=".null" horiz-adv-x="0" 
 />
    <glyph glyph-name="nonmarkingreturn" horiz-adv-x="112" 
 />
    <glyph glyph-name="space" unicode=" " horiz-adv-x="112" 
 />
    <glyph glyph-name="exclam" unicode="!" horiz-adv-x="167" 
d="M58 722h52l-12 -556h-28zM62 0v52h44v-52h-44z" />
    <glyph glyph-name="quotedbl" unicode="&#x22;" horiz-adv-x="167" 
d="M22 566v156h30v-156h-30zM115 566v156h30v-156h-30z" />
    <glyph glyph-name="numbersign" unicode="#" horiz-adv-x="224" 
d="M92 0l31 238h-55l-31 -238h-30l31 238h-48v30h52l25 186h-49v30h53l31 238h30l-31 -238h55l31 238h30l-31 -238h48v-30h-52l-25 -186h49v-30h-53l-31 -238h-30zM127 268l25 186h-55l-25 -186h55z" />
    <glyph glyph-name="dollar" unicode="$" horiz-adv-x="224" 
d="M161 530v119q0 47 -49 47t-49 -47v-108q0 -40 16 -69l88 -157q30 -54 30 -109v-146q0 -58 -72 -64v-81h-30v81q-68 7 -68 67v138h36v-128q0 -47 49 -47t49 47v123q0 56 -21 93l-89 158q-24 43 -24 99v117q0 57 68 63v80h30v-80q72 -2 72 -65v-131h-36z" />
    <glyph glyph-name="percent" unicode="%" horiz-adv-x="278" 
d="M15 388v298q0 40 45 40t45 -40v-298q0 -40 -45 -40t-45 40zM79 391v292q0 21 -19 21t-19 -21v-292q0 -21 19 -21t19 21zM173 36v298q0 40 45 40t45 -40v-298q0 -40 -45 -40t-45 40zM237 39v292q0 21 -19 21t-19 -21v-292q0 -21 19 -21t19 21zM57 -35l135 792h28
l-135 -792h-28z" />
    <glyph glyph-name="ampersand" unicode="&#x26;" horiz-adv-x="241" 
d="M214 0l-19 62q-9 30 -11 49h-2v-23q0 -92 -82 -92q-43 0 -60.5 30t-17.5 95v130q0 58 14 88l38 81l-27 88q-11 36 -11 91v56q0 71 66 71t66 -64v-68q0 -49 -13 -85l-46 -97l46 -145q14 -43 15 -96h2v249h30v-148q0 -22 -2 -59q-2 -46 -2 -59l46 -154h-30zM58 266v-155
q0 -85 47 -85q55 0 55 88v25l-72 239l-15 -30q-15 -41 -15 -82zM132 577v80q0 39 -31 39q-29 0 -29 -37v-92q0 -31 8 -58l16 -54l23 51q13 29 13 71z" />
    <glyph glyph-name="quotesingle" unicode="'" horiz-adv-x="112" 
d="M41 566v156h30v-156h-30z" />
    <glyph glyph-name="parenleft" unicode="(" horiz-adv-x="130" 
d="M110 -156h-26q-48 211 -48 439t48 439h26q-34 -181 -34 -439q0 -265 34 -439z" />
    <glyph glyph-name="parenright" unicode=")" horiz-adv-x="130" 
d="M20 722h26q48 -211 48 -439t-48 -439h-26q34 181 34 439q0 265 -34 439z" />
    <glyph glyph-name="asterisk" unicode="*" horiz-adv-x="222" 
d="M12 612v35l84 -9l-49 69l30 15l33 -75l34 75l30 -15l-48 -69l84 9v-35l-84 9l48 -68l-30 -17l-34 76l-33 -76l-30 17l49 68z" />
    <glyph glyph-name="plus" unicode="+" horiz-adv-x="600" 
d="M285 0v238h-238v30h238v238h30v-238h238v-30h-238v-238h-30z" />
    <glyph glyph-name="comma" unicode="," horiz-adv-x="112" 
d="M24 -78l20 130h44l-34 -130h-30z" />
    <glyph glyph-name="hyphenminus" unicode="-" horiz-adv-x="111" 
d="M9 238v26h93v-26h-93z" />
    <glyph glyph-name="period" unicode="." horiz-adv-x="112" 
d="M34 0v52h44v-52h-44z" />
    <glyph glyph-name="slash" unicode="/" 
d="M14 -65l146 852h30l-146 -852h-30z" />
    <glyph glyph-name="zero" unicode="0" horiz-adv-x="224" 
d="M34 65v596q0 65 78 65t78 -69v-592q0 -69 -78 -69t-78 69zM70 652v-582q0 -44 42 -44t42 44v582q0 44 -42 44t-42 -44z" />
    <glyph glyph-name="one" unicode="1" horiz-adv-x="224" 
d="M103 0v662h-2l-41 -68v54l49 74h30v-722h-36z" />
    <glyph glyph-name="two" unicode="2" horiz-adv-x="224" 
d="M34 0v46l104 413q9 36 9 78v115q0 44 -37 44q-36 0 -36 -54v-92h-36v97q0 79 73 79q72 0 72 -76v-109q0 -56 -13 -106l-106 -405h126v-30h-156z" />
    <glyph glyph-name="three" unicode="3" horiz-adv-x="224" 
d="M90 354v30h11q28 0 39 15q9 12 9 44v209q0 44 -40 44q-36 0 -36 -44v-100h-36v106q0 68 72 68q76 0 76 -69v-225q0 -48 -45 -61v-2q50 -7 50 -67v-237q0 -69 -78 -69t-78 69v117h36v-112q0 -44 41 -44q43 0 43 44v232q0 31 -10.5 41.5t-40.5 10.5h-13z" />
    <glyph glyph-name="four" unicode="4" horiz-adv-x="224" 
d="M135 0v193h-114v49l94 480h56v-499h42v-30h-42v-193h-36zM135 223v469h-2q-6 -51 -15 -103l-67 -366h84z" />
    <glyph glyph-name="five" unicode="5" horiz-adv-x="224" 
d="M190 406v-326q0 -84 -80 -84q-76 0 -76 90v97h36v-108q0 -49 42 -49t42 56v321q0 47 -33 47q-31 0 -40 -26.5t-11 -111.5l-36 4l8 406h135v-30h-98l-10 -249l2 -2q13 39 54 39q65 0 65 -74z" />
    <glyph glyph-name="six" unicode="6" horiz-adv-x="224" 
d="M151 534v118q0 44 -40 44q-41 0 -41 -44v-212h2q9 33 55 33q63 0 63 -74v-334q0 -69 -79 -69q-77 0 -77 69v592q0 69 77 69q76 0 76 -69v-123h-36zM154 70v327q0 46 -40 46q-17 0 -30.5 -16t-13.5 -40v-317q0 -44 46 -44q38 0 38 44z" />
    <glyph glyph-name="seven" unicode="7" horiz-adv-x="224" 
d="M34 692v30h156v-33l-84 -689h-40l88 692h-120z" />
    <glyph glyph-name="eight" unicode="8" horiz-adv-x="224" 
d="M34 65v275q0 52 43 57v2q-37 6 -37 61v201q0 65 71 65q73 0 73 -65v-201q0 -55 -37 -61v-2q43 -5 43 -57v-275q0 -69 -79 -69q-77 0 -77 69zM148 450v209q0 37 -36 37t-36 -37v-209q0 -37 36 -37t36 37zM154 70v269q0 44 -43 44q-41 0 -41 -44v-269q0 -44 41 -44
q43 0 43 44z" />
    <glyph glyph-name="nine" unicode="9" horiz-adv-x="224" 
d="M73 188v-118q0 -44 40 -44q41 0 41 44v212h-2q-9 -33 -55 -33q-63 0 -63 74v334q0 69 79 69q77 0 77 -69v-592q0 -69 -77 -69q-76 0 -76 69v123h36zM70 652v-327q0 -46 40 -46q17 0 30.5 16t13.5 40v317q0 44 -46 44q-38 0 -38 -44z" />
    <glyph glyph-name="colon" unicode=":" horiz-adv-x="112" 
d="M34 450v52h44v-52h-44zM34 0v52h44v-52h-44z" />
    <glyph glyph-name="semicolon" unicode=";" horiz-adv-x="112" 
d="M24 -78l20 130h44l-34 -130h-30zM44 450v52h44v-52h-44z" />
    <glyph glyph-name="less" unicode="&#x3c;" horiz-adv-x="600" 
d="M47 243v30l506 245v-30l-476 -230l476 -232v-30z" />
    <glyph glyph-name="equal" unicode="=" horiz-adv-x="600" 
d="M47 335v30h506v-30h-506zM47 141v30h506v-30h-506z" />
    <glyph glyph-name="greater" unicode="&#x3e;" horiz-adv-x="600" 
d="M553 273v-30l-506 -247v30l476 232l-476 230v30z" />
    <glyph glyph-name="question" unicode="?" horiz-adv-x="222" 
d="M45 554v100q0 72 68 72q42 0 59.5 -18t17.5 -67v-96q0 -50 -20 -110l-18 -54q-20 -60 -20 -99v-116h-36v140q0 37 29 112t29 114v120q0 44 -38 44q-35 0 -35 -45v-97h-36zM94 0v52h44v-52h-44z" />
    <glyph glyph-name="at" unicode="@" horiz-adv-x="800" 
d="M519 431q0 112 -94 112q-85 0 -143 -86q-53 -77 -53 -164q0 -55 28 -85.5t77 -30.5q64 0 124.5 81.5t60.5 172.5zM549 490l23 69h40l-95 -289q-15 -46 -15 -58q0 -15 12 -25t28 -10q69 0 126 77.5t57 170.5q0 119 -96 195q-89 70 -212 70q-142 0 -242 -98.5t-100 -234.5
q0 -140 101 -232.5t243 -92.5q85 0 161.5 39t122.5 105h40q-45 -82 -134.5 -131t-189.5 -49q-167 0 -275.5 104.5t-108.5 263.5q0 154 110 258t270 104q150 0 249 -83q101 -86 101 -221q0 -108 -76 -194.5t-161 -86.5q-66 0 -66 70h-2q-54 -70 -139 -70q-58 0 -95 43
t-37 104q0 109 67 197q71 94 175 94q46 0 77 -26.5t37 -62.5h4z" />
    <glyph glyph-name="A" unicode="A" 
d="M172 0l-23 211h-99l-22 -211h-36l81 722h56l83 -722h-40zM54 241h92l-25 237q-9 73 -20 218h-2q-6 -73 -19 -218z" />
    <glyph glyph-name="B" unicode="B" horiz-adv-x="241" 
d="M33 0v722h86q84 0 84 -77v-210q0 -57 -63 -61v-2q68 -4 68 -67v-228q0 -77 -78 -77h-97zM73 386h43q47 0 47 51v210q0 26 -11 35.5t-38 9.5h-41v-306zM116 356h-43v-326h41q54 0 54 44v230q0 52 -52 52z" />
    <glyph glyph-name="C" unicode="C" 
d="M19 74v574q0 78 85 78q81 0 81 -78v-119h-40v113q0 54 -41 54q-45 0 -45 -45v-580q0 -45 45 -45q41 0 41 54v123h40v-129q0 -78 -81 -78q-85 0 -85 78z" />
    <glyph glyph-name="D" unicode="D" horiz-adv-x="241" 
d="M33 0v722h85q90 0 90 -77v-568q0 -77 -90 -77h-85zM73 30h41q54 0 54 44v574q0 44 -54 44h-41v-662z" />
    <glyph glyph-name="E" unicode="E" horiz-adv-x="185" 
d="M33 0v722h137v-30h-97v-306h91v-30h-91v-326h104v-30h-144z" />
    <glyph glyph-name="F" unicode="F" horiz-adv-x="167" 
d="M33 0v722h137v-30h-97v-306h93v-30h-93v-356h-40z" />
    <glyph glyph-name="G" unicode="G" horiz-adv-x="241" 
d="M128 318v30h80v-330l-5 -3q-32 -19 -82 -19q-88 0 -88 78v574q0 78 88 78q87 0 87 -78v-117h-40v112q0 24 -13.5 38.5t-33.5 14.5q-21 0 -34.5 -14.5t-13.5 -38.5v-572q0 -45 48 -45q27 0 47 12v280h-40z" />
    <glyph glyph-name="H" unicode="H" horiz-adv-x="241" 
d="M33 0v722h40v-336h95v336h40v-722h-40v356h-95v-356h-40z" />
    <glyph glyph-name="I" unicode="I" horiz-adv-x="112" 
d="M36 0v722h40v-722h-40z" />
    <glyph glyph-name="J" unicode="J" horiz-adv-x="185" 
d="M2 193h40v-122q0 -45 35 -45t35 45v651h40v-652q0 -34 -21 -54t-54 -20t-54 20t-21 54v123z" />
    <glyph glyph-name="K" unicode="K" 
d="M33 0v722h40v-722h-40zM178 0l-105 382l99 340h36l-99 -340l109 -382h-40z" />
    <glyph glyph-name="L" unicode="L" horiz-adv-x="185" 
d="M33 0v722h40v-692h105v-30h-145z" />
    <glyph glyph-name="M" unicode="M" horiz-adv-x="333" 
d="M36 0v722h66l44 -435q14 -138 18 -257h2q10 169 19 257l46 435h66v-722h-40v448q0 62 4 244h-2l-68 -692h-50l-41 402q-11 104 -26 290h-2q-1 -55 2 -141q2 -92 2 -103v-448h-40z" />
    <glyph glyph-name="N" unicode="N" horiz-adv-x="259" 
d="M33 0v722h60l101 -692h2q-10 200 -10 232v460h40v-722h-60l-70 460q-5 31 -28 232h-2q1 -52 4 -131q3 -69 3 -79v-482h-40z" />
    <glyph glyph-name="O" unicode="O" horiz-adv-x="241" 
d="M208 648v-574q0 -78 -87 -78q-88 0 -88 78v574q0 78 88 78q87 0 87 -78zM168 75v572q0 49 -47 49q-48 0 -48 -49v-572q0 -49 48 -49q47 0 47 49z" />
    <glyph glyph-name="P" unicode="P" horiz-adv-x="222" 
d="M33 0v722h90q82 0 82 -69v-236q0 -69 -82 -69h-50v-348h-40zM73 378h43q49 0 49 43v226q0 45 -49 45h-43v-314z" />
    <glyph glyph-name="Q" unicode="Q" horiz-adv-x="241" 
d="M33 74v574q0 78 88 78q87 0 87 -78v-558q0 -44 -26 -62v-2q7 0 23 2q13 2 20 2h11v-30h-68l-47 -4q-41 -3 -64.5 18.5t-23.5 59.5zM168 75v573q0 48 -47 48q-48 0 -48 -48v-573q0 -49 48 -49q47 0 47 49z" />
    <glyph glyph-name="R" unicode="R" horiz-adv-x="241" 
d="M33 0v722h90q82 0 82 -67v-213q0 -66 -62 -71v-2q62 -5 62 -65v-304h-40v304q0 52 -55 52h-37v-356h-40zM73 386h39q53 0 53 48v213q0 45 -49 45h-43v-306z" />
    <glyph glyph-name="S" unicode="S" horiz-adv-x="209" 
d="M55 201v-131q0 -44 46 -44q49 0 49 46v124q0 53 -21 93l-84 159q-26 49 -26 98v105q0 75 83 75q82 0 82 -67v-129h-36v125q0 41 -43 41t-43 -43v-112q0 -38 16 -69l82 -157q30 -57 30 -109v-136q0 -74 -86 -74q-85 0 -85 77v128h36z" />
    <glyph glyph-name="T" unicode="T" horiz-adv-x="168" 
d="M64 0v692h-71v30h182v-30h-71v-692h-40z" />
    <glyph glyph-name="U" unicode="U" horiz-adv-x="241" 
d="M168 722h40v-648q0 -78 -87 -78q-88 0 -88 78v648h40v-647q0 -49 48 -49q47 0 47 49v647z" />
    <glyph glyph-name="V" unicode="V" 
d="M75 0l-78 722h40l48 -476q6 -72 17 -216h2q5 72 17 216l47 476h39l-78 -722h-54z" />
    <glyph glyph-name="W" unicode="W" horiz-adv-x="333" 
d="M225 0l-42 458q-8 78 -18 234h-2q-5 -78 -16 -236l-40 -456h-53l-51 722h36l29 -442q6 -83 13 -250h2q4 84 15 250l39 442h56l38 -442q14 -160 17 -250h2q3 84 12 250l33 442h35l-54 -722h-51z" />
    <glyph glyph-name="X" unicode="X" 
d="M76 376l-74 346h40l60 -318h2l64 318h36l-76 -346l81 -376h-40l-65 348h-2l-71 -348h-36z" />
    <glyph glyph-name="Y" unicode="Y" 
d="M103 331l62 391h40l-83 -437v-285h-40v285l-83 437h40l62 -391h2z" />
    <glyph glyph-name="Z" unicode="Z" horiz-adv-x="167" 
d="M0 0v40l122 652h-111v30h147v-40l-122 -652h131v-30h-167z" />
    <glyph glyph-name="bracketleft" unicode="[" horiz-adv-x="167" 
d="M45 -156v878h102v-30h-66v-818h66v-30h-102z" />
    <glyph glyph-name="backslash" unicode="\" 
d="M160 -65l-146 852h30l146 -852h-30z" />
    <glyph glyph-name="bracketright" unicode="]" horiz-adv-x="167" 
d="M122 722v-878h-102v30h66v818h-66v30h102z" />
    <glyph glyph-name="asciicircum" unicode="^" horiz-adv-x="600" 
d="M561 269h-30l-230 423l-232 -423h-30l244 453h36z" />
    <glyph glyph-name="underscore" unicode="_" horiz-adv-x="500" 
d="M500 -125h-500v50h500v-50z" />
    <glyph glyph-name="grave" unicode="`" horiz-adv-x="94" 
d="M46 592l-58 96h44l40 -96h-26z" />
    <glyph glyph-name="a" unicode="a" horiz-adv-x="185" 
d="M61 359h-36v96q0 51 69 51q66 0 66 -51v-455h-36v25h-2q-14 -29 -47 -29q-50 0 -50 45v191q0 70 83 70h16v145q0 29 -30 29q-33 0 -33 -29v-88zM61 226v-177q0 -23 27 -23q16 0 26 16t10 39v191h-10q-53 0 -53 -46z" />
    <glyph glyph-name="b" unicode="b" 
d="M33 0v722h36v-241h2q13 25 47 25q53 0 53 -59v-388q0 -63 -55 -63q-30 0 -44 23h-3v-19h-36zM69 430v-369q0 -35 37 -35q29 0 29 35v381q0 34 -32 34q-15 0 -24.5 -14.5t-9.5 -31.5z" />
    <glyph glyph-name="c" unicode="c" horiz-adv-x="167" 
d="M112 168h36v-112q0 -60 -64 -60q-65 0 -65 60v390q0 60 65 60q64 0 64 -60v-101h-36v97q0 34 -28 34q-29 0 -29 -34v-387q0 -29 29 -29q28 0 28 27v115z" />
    <glyph glyph-name="d" unicode="d" 
d="M33 59v388q0 59 53 59q34 0 47 -25h2v241h36v-722h-36v19h-3q-14 -23 -44 -23q-55 0 -55 63zM135 61v369q0 17 -9.5 31.5t-24.5 14.5q-32 0 -32 -34v-381q0 -35 29 -35q37 0 37 35z" />
    <glyph glyph-name="e" unicode="e" horiz-adv-x="185" 
d="M124 167h36v-111q0 -60 -68 -60q-67 0 -67 60v390q0 60 67 60q68 0 68 -60v-202h-99v-184q0 -34 31 -34q32 0 32 34v107zM124 274v168q0 34 -32 34q-31 0 -31 -34v-168h63z" />
    <glyph glyph-name="f" unicode="f" horiz-adv-x="111" 
d="M33 0v472h-28v30h28v171q0 49 50 49h23v-30h-16q-21 0 -21 -28v-162h37v-30h-37v-472h-36z" />
    <glyph glyph-name="g" unicode="g" 
d="M38 -57h36v-63q0 -38 31 -38q30 0 30 42v146h-2q-10 -23 -42 -23q-58 0 -58 67v373q0 59 53 59q34 0 47 -25h2v21h36v-620q0 -70 -67 -70q-66 0 -66 59v72zM69 442v-368q0 -41 33 -41t33 53v344q0 17 -9.5 31.5t-24.5 14.5q-32 0 -32 -34z" />
    <glyph glyph-name="h" unicode="h" 
d="M33 0v722h36v-247h2q14 31 47 31q53 0 53 -59v-447h-36v434q0 42 -30 42q-14 0 -25 -14.5t-11 -40.5v-421h-36z" />
    <glyph glyph-name="i" unicode="i" horiz-adv-x="94" 
d="M29 0v502h36v-502h-36zM25 636v52h44v-52h-44z" />
    <glyph glyph-name="j" unicode="j" horiz-adv-x="94" 
d="M65 502v-641q0 -45 -37 -45h-27v26h8q20 0 20 27v633h36zM25 636v52h44v-52h-44z" />
    <glyph glyph-name="k" unicode="k" horiz-adv-x="185" 
d="M33 0v722h36v-722h-36zM147 0l-78 288l75 214h36l-73 -211l76 -291h-36z" />
    <glyph glyph-name="l" unicode="l" horiz-adv-x="94" 
d="M29 0v722h36v-722h-36z" />
    <glyph glyph-name="m" unicode="m" horiz-adv-x="296" 
d="M28 0v502h36v-27h2q14 31 47 31q41 0 47 -33h2q13 33 53 33q53 0 53 -59v-447h-36v434q0 42 -30 42q-14 0 -25 -14.5t-11 -40.5v-421h-36v439q0 37 -30 37q-14 0 -24 -14q-12 -17 -12 -46v-416h-36z" />
    <glyph glyph-name="n" unicode="n" 
d="M33 0v502h36v-27h2q14 31 47 31q53 0 53 -59v-447h-36v434q0 42 -30 42q-14 0 -25 -14.5t-11 -40.5v-421h-36z" />
    <glyph glyph-name="o" unicode="o" 
d="M33 61v380q0 65 69 65t69 -65v-380q0 -29 -19 -47t-50 -18t-50 18t-19 47zM69 441v-380q0 -35 33 -35t33 35v380q0 35 -33 35t-33 -35z" />
    <glyph glyph-name="p" unicode="p" 
d="M33 -184v686h36v-21h2q13 25 47 25q53 0 53 -59v-388q0 -63 -55 -63q-33 0 -45 23h-2v-203h-36zM69 430v-369q0 -35 37 -35q29 0 29 35v381q0 34 -32 34q-15 0 -24.5 -14.5t-9.5 -31.5z" />
    <glyph glyph-name="q" unicode="q" 
d="M135 -184v203h-2q-16 -23 -45 -23q-55 0 -55 63v388q0 59 53 59q34 0 47 -25h2v21h36v-686h-36zM135 61v369q0 17 -9.5 31.5t-24.5 14.5q-32 0 -32 -34v-381q0 -35 29 -35q37 0 37 35z" />
    <glyph glyph-name="r" unicode="r" horiz-adv-x="130" 
d="M33 0v502h36v-27h2q14 31 50 31v-30q-52 0 -52 -55v-421h-36z" />
    <glyph glyph-name="s" unicode="s" horiz-adv-x="167" 
d="M18 167h36v-111q0 -30 30 -30q29 0 29 30v86q0 44 -12 64l-70 116q-13 22 -13 57v71q0 56 65 56q64 0 64 -58v-87h-36v81q0 34 -28 34q-29 0 -29 -34v-68q0 -27 14 -50l18 -30l47 -74q16 -25 16 -65v-100q0 -59 -67 -59q-64 0 -64 53v118z" />
    <glyph glyph-name="t" unicode="t" horiz-adv-x="130" 
d="M8 472v30h31v89l36 20v-109h44v-30h-44v-418q0 -28 21 -28h23v-30h-30q-50 0 -50 49v427h-31z" />
    <glyph glyph-name="u" unicode="u" 
d="M171 0h-36v27h-2q-14 -31 -47 -31q-53 0 -53 59v447h36v-434q0 -42 30 -42q14 0 25 14.5t11 40.5v421h36v-502z" />
    <glyph glyph-name="v" unicode="v" horiz-adv-x="168" 
d="M59 0l-52 502h36l40 -480h2l40 480h36l-52 -502h-50z" />
    <glyph glyph-name="w" unicode="w" horiz-adv-x="278" 
d="M268 502l-40 -502h-45l-41 472h-2l-45 -472h-45l-40 502h36l24 -472h2l47 472h46l41 -472h2l24 472h36z" />
    <glyph glyph-name="x" unicode="x" horiz-adv-x="167" 
d="M125 0l-41 234h-2l-46 -234h-30l53 259l-53 243h36l40 -211h2l42 211h30l-50 -243l55 -259h-36z" />
    <glyph glyph-name="y" unicode="y" horiz-adv-x="167" 
d="M162 502l-86 -686h-30l21 180l-62 506h36l42 -434h2l41 434h36z" />
    <glyph glyph-name="z" unicode="z" horiz-adv-x="130" 
d="M3 0v40l89 432h-83v30h118v-44l-89 -428h89v-30h-124z" />
    <glyph glyph-name="braceleft" unicode="{" horiz-adv-x="222" 
d="M34 268v30q22 0 40.5 18.5t18.5 48.5v244q0 63 14.5 88t48.5 25h32v-30h-26q-33 0 -33 -83v-236q0 -39 -18 -62.5t-41 -26.5v-2q23 -3 40 -25q19 -25 19 -64v-236q0 -83 33 -83h26v-30h-32q-34 0 -48.5 25t-14.5 88v244q0 30 -20 50q-17 17 -39 17z" />
    <glyph glyph-name="bar" unicode="|" horiz-adv-x="222" 
d="M93 -4v730h36v-730h-36z" />
    <glyph glyph-name="braceright" unicode="}" horiz-adv-x="222" 
d="M34 -156v30h26q33 0 33 83v236q0 39 19 64q17 22 40 25v2q-23 3 -41 26.5t-18 62.5v236q0 83 -33 83h-26v30h32q34 0 48.5 -25t14.5 -88v-244q0 -30 20 -50q17 -17 39 -17v-30q-22 0 -39 -17q-20 -20 -20 -50v-244q0 -63 -14.5 -88t-48.5 -25h-32z" />
    <glyph glyph-name="asciitilde" unicode="~" horiz-adv-x="600" 
d="M98 197v0l-26 22q27 42 47 58q30 25 75 25q42 0 111 -34t101 -34q56 0 96 75l26 -22q-26 -43 -47 -59q-30 -24 -75 -24q-41 0 -110 34t-102 34q-34 0 -61 -27q-12 -12 -35 -48z" />
    <glyph glyph-name="Euro" horiz-adv-x="224" 
d="M216 654q-2 7 -8 16t-20 17q-10 6 -19.5 7.5t-17.5 1.5q-11 0 -21.5 -2t-18.5 -9q-10 -8 -11.5 -16.5t-1.5 -17.5v-215h80l-6 -30h-74v-70h62l-6 -30h-56v-235q0 -9 4 -18.5t9 -14.5q8 -8 19 -10t22 -2q9 0 18.5 1.5t20.5 7.5q16 9 27 24v-40q-6 -5 -13 -9.5t-14 -6.5
q-11 -5 -21.5 -6t-18.5 -1q-27 0 -41 5.5t-19 8.5q-19 13 -24 30.5t-5 33.5v232h-62l6 30h56v70h-62l6 30h56v212q0 16 3.5 31t20.5 29q16 13 34 15.5t31 2.5q11 0 22.5 -2t23.5 -8q10 -5 16 -11t11 -13z" />
    <glyph glyph-name="Euro" unicode="&#x20ac;" horiz-adv-x="224" 
d="M216 654q-2 7 -8 16t-20 17q-10 6 -19.5 7.5t-17.5 1.5q-11 0 -21.5 -2t-18.5 -9q-10 -8 -11.5 -16.5t-1.5 -17.5v-215h80l-6 -30h-74v-70h62l-6 -30h-56v-235q0 -9 4 -18.5t9 -14.5q8 -8 19 -10t22 -2q9 0 18.5 1.5t20.5 7.5q16 9 27 24v-40q-6 -5 -13 -9.5t-14 -6.5
q-11 -5 -21.5 -6t-18.5 -1q-27 0 -41 5.5t-19 8.5q-19 13 -24 30.5t-5 33.5v232h-62l6 30h56v70h-62l6 30h56v212q0 16 3.5 31t20.5 29q16 13 34 15.5t31 2.5q11 0 22.5 -2t23.5 -8q10 -5 16 -11t11 -13z" />
    <glyph glyph-name="quotesinglbase" unicode="&#x201a;" horiz-adv-x="112" 
d="M22 -104l24 156h44l-38 -156h-30z" />
    <glyph glyph-name="florin" unicode="&#x192;" horiz-adv-x="224" 
d="M54 418l1 30h39l10 209q2 40 15.5 54.5t50.5 14.5h9v-30h-14q-7 0 -12 -2q-11 -7 -13 -47l-10 -199h39l-1 -30h-38l-22 -476q-1 -31 -15 -41.5t-45 -10.5h-16v30h8q31 0 32 25l22 473h-40z" />
    <glyph glyph-name="quotedblbase" unicode="&#x201e;" horiz-adv-x="167" 
d="M10 -104l24 156h44l-38 -156h-30zM89 -104l24 156h44l-38 -156h-30z" />
    <glyph glyph-name="ellipsis" unicode="&#x2026;" horiz-adv-x="1000" 
d="M145 0v52h44v-52h-44zM478 0v52h44v-52h-44zM811 0v52h44v-52h-44z" />
    <glyph glyph-name="dagger" unicode="&#x2020;" horiz-adv-x="222" 
d="M96 0v578h-90v30h90v114h30v-114h90v-30h-90v-578h-30z" />
    <glyph glyph-name="daggerdbl" unicode="&#x2021;" horiz-adv-x="222" 
d="M96 0v134h-90v30h90v410h-90v30h90v118h30v-118h90v-30h-90v-410h90v-30h-90v-134h-30z" />
    <glyph glyph-name="circumflex" unicode="&#x2c6;" horiz-adv-x="94" 
d="M-14 592l46 96h30l46 -96h-30l-31 66l-31 -66h-30z" />
    <glyph glyph-name="perthousand" unicode="&#x2030;" horiz-adv-x="407" 
d="M302 36v298q0 40 45 40t45 -40v-298q0 -40 -45 -40t-45 40zM366 39v292q0 21 -19 21t-19 -21v-292q0 -21 19 -21t19 21zM15 388v298q0 40 45 40t45 -40v-298q0 -40 -45 -40t-45 40zM79 391v292q0 21 -19 21t-19 -21v-292q0 -21 19 -21t19 21zM173 36v298q0 40 45 40
t45 -40v-298q0 -40 -45 -40t-45 40zM237 39v292q0 21 -19 21t-19 -21v-292q0 -21 19 -21t19 21zM58 -35l135 792h28l-135 -792h-28z" />
    <glyph glyph-name="Scaron" unicode="&#x160;" horiz-adv-x="209" 
d="M55 201v-131q0 -44 46 -44q49 0 49 46v124q0 53 -21 93l-84 159q-26 49 -26 98v105q0 75 83 75q82 0 82 -67v-129h-36v125q0 41 -43 41t-43 -43v-112q0 -38 16 -69l82 -157q30 -57 30 -109v-136q0 -74 -86 -74q-85 0 -85 77v128h36zM90 767l-46 96h30l31 -66l31 66h30
l-46 -96h-30z" />
    <glyph glyph-name="guilsinglleft" unicode="&#x2039;" horiz-adv-x="112" 
d="M70 0l-54 251l54 251h26l-44 -251l44 -251h-26z" />
    <glyph glyph-name="OE" unicode="&#x152;" horiz-adv-x="333" 
d="M209 30h103v-30h-124q-12 0 -35 -2t-35 -2q-85 0 -85 78v574q0 78 84 78q13 0 38 -2t38 -2h112v-30h-96v-306h91v-30h-91v-326zM169 33v657q-24 6 -44 6q-52 0 -52 -56v-565q0 -49 48 -49q38 0 48 7z" />
    <glyph glyph-name="Zcaron" horiz-adv-x="167" 
d="M0 0v40l122 652h-111v30h147v-40l-122 -652h131v-30h-167zM69 767l-46 96h30l31 -66l31 66h30l-46 -96h-30z" />
    <glyph glyph-name="Zcaron" unicode="&#x17d;" horiz-adv-x="167" 
d="M0 0v40l122 652h-111v30h147v-40l-122 -652h131v-30h-167zM69 767l-46 96h30l31 -66l31 66h30l-46 -96h-30z" />
    <glyph glyph-name="quoteleft" unicode="&#x2018;" horiz-adv-x="112" 
d="M22 566l38 156h30l-24 -156h-44z" />
    <glyph glyph-name="quoteright" unicode="&#x2019;" horiz-adv-x="112" 
d="M22 566l24 156h44l-38 -156h-30z" />
    <glyph glyph-name="quotedblleft" unicode="&#x201c;" horiz-adv-x="167" 
d="M89 566l38 156h30l-24 -156h-44zM10 566l38 156h30l-24 -156h-44z" />
    <glyph glyph-name="quotedblright" unicode="&#x201d;" horiz-adv-x="167" 
d="M10 566l24 156h44l-38 -156h-30zM89 566l24 156h44l-38 -156h-30z" />
    <glyph glyph-name="bullet" unicode="&#x2022;" horiz-adv-x="500" 
d="M69 361q0 75 53 128t128 53t128 -53t53 -128t-53 -128t-128 -53t-128 53t-53 128z" />
    <glyph glyph-name="endash" unicode="&#x2013;" horiz-adv-x="500" 
d="M0 238v26h500v-26h-500z" />
    <glyph glyph-name="emdash" unicode="&#x2014;" horiz-adv-x="1000" 
d="M0 238v26h1000v-26h-1000z" />
    <glyph glyph-name="tilde" unicode="&#x2dc;" horiz-adv-x="94" 
d="M-6 610h-22v7q0 55 36 55q13 0 37 -15q30 -15 36 -15q19 0 19 27v5h22v-7q0 -55 -36 -55q-14 0 -40 15t-35 15q-17 0 -17 -26v-6z" />
    <glyph glyph-name="trademark" unicode="&#x2122;" horiz-adv-x="990" 
d="M209 310v382h-144v30h318v-30h-144v-382h-30zM829 310v382h-6l-163 -382h-22l-163 382h-6v-382h-30v412h52l158 -364l158 364h52v-412h-30z" />
    <glyph glyph-name="scaron" unicode="&#x161;" horiz-adv-x="167" 
d="M18 167h36v-111q0 -30 30 -30q29 0 29 30v86q0 44 -12 64l-70 116q-13 22 -13 57v71q0 56 65 56q64 0 64 -58v-87h-36v81q0 34 -28 34q-29 0 -29 -34v-68q0 -27 14 -50l18 -30l47 -74q16 -25 16 -65v-100q0 -59 -67 -59q-64 0 -64 53v118zM69 592l-46 96h30l31 -66l31 66
h30l-46 -96h-30z" />
    <glyph glyph-name="guilsinglright" unicode="&#x203a;" horiz-adv-x="112" 
d="M16 0l44 251l-44 251h26l54 -251l-54 -251h-26z" />
    <glyph glyph-name="oe" unicode="&#x153;" horiz-adv-x="278" 
d="M221 274v168q0 34 -31 34t-31 -34v-168h62zM221 167h36v-111q0 -60 -67 -60q-37 0 -51 27q-18 -27 -49 -27t-50 18t-19 47v380q0 65 69 65q33 0 50 -26q14 26 50 26q67 0 67 -60v-202h-98v-184q0 -34 31 -34t31 34v107zM123 62v379q0 35 -33 35t-33 -35v-379
q0 -36 33 -36t33 36z" />
    <glyph glyph-name="zcaron" horiz-adv-x="130" 
d="M3 0v40l89 432h-83v30h118v-44l-89 -428h89v-30h-124zM50 592l-46 96h30l31 -66l31 66h30l-46 -96h-30z" />
    <glyph glyph-name="zcaron" unicode="&#x17e;" horiz-adv-x="130" 
d="M3 0v40l89 432h-83v30h118v-44l-89 -428h89v-30h-124zM50 592l-46 96h30l31 -66l31 66h30l-46 -96h-30z" />
    <glyph glyph-name="Ydieresis" unicode="&#x178;" 
d="M103 331l62 391h40l-83 -437v-285h-40v285l-83 437h40l62 -391h2zM127 811v52h44v-52h-44zM33 811v52h44v-52h-44z" />
    <glyph glyph-name="nonbreakingspace" unicode="&#xa0;" horiz-adv-x="112" 
 />
    <glyph glyph-name="exclamdown" unicode="&#xa1;" horiz-adv-x="167" 
d="M110 -184h-52l12 556h28zM62 486v52h44v-52h-44z" />
    <glyph glyph-name="cent" unicode="&#xa2;" horiz-adv-x="224" 
d="M140 343v99q0 34 -27 34q-29 0 -29 -34v-387q0 -29 29 -29q27 0 27 27v114h36v-111q0 -60 -52 -60v-64h-26v64q-50 0 -50 70v380q0 32 19 48q15 12 31 12v57h26v-57q23 0 37.5 -15.5t14.5 -38.5v-109h-36z" />
    <glyph glyph-name="sterling" unicode="&#xa3;" horiz-adv-x="224" 
d="M22 0v30h25v336h-32v30h32v249q0 81 85 81t85 -81v-47h-36v47q0 51 -49 51t-49 -51v-249h51v-30h-51v-336h134v-30h-195z" />
    <glyph glyph-name="currency" unicode="&#xa4;" horiz-adv-x="224" 
d="M-1 261l27 27q-27 29 -27 73q0 41 27 73l-27 27l12 12l27 -27q32 27 73 27q44 0 73 -27l27 27l12 -12l-27 -27q27 -32 27 -73q0 -40 -27 -73l27 -27l-12 -12l-27 27q-32 -27 -73 -27t-73 27l-27 -27zM21 361q0 -37 26.5 -63.5t63.5 -26.5t63.5 26.5t26.5 63.5t-26.5 63.5
t-63.5 26.5t-63.5 -26.5t-26.5 -63.5z" />
    <glyph glyph-name="yen" unicode="&#xa5;" horiz-adv-x="224" 
d="M94 221v60l-2 10h-71v30h65l-77 401h40l62 -391h2l62 391h40l-77 -401h65v-30h-71l-2 -10v-60h73v-30h-73v-191h-36v191h-73v30h73z" />
    <glyph glyph-name="brokenbar" unicode="&#xa6;" horiz-adv-x="222" 
d="M93 -4v263h36v-263h-36zM93 463v263h36v-263h-36z" />
    <glyph glyph-name="section" unicode="&#xa7;" horiz-adv-x="222" 
d="M32 0v30q34 -4 63 -4q63 0 63 61v46q0 33 -25 56l-87 80q-18 17 -18 65v70q0 51 75 82l-31 23q-44 33 -44 86v44q0 38 21.5 62.5t64.5 24.5q25 0 69 -4v-30q-48 4 -65 4q-54 0 -54 -58v-41q0 -41 28 -62l63 -47q39 -29 39 -67v-88q0 -37 -19 -57q-15 -17 -53 -31l39 -33
q33 -28 33 -76v-55q0 -46 -23 -65.5t-77 -19.5q-36 0 -62 4zM158 319v88q0 36 -35 64q-35 -16 -47 -28t-12 -33v-80q0 -38 41 -68q31 15 42 26t11 31z" />
    <glyph glyph-name="dieresis" unicode="&#xa8;" horiz-adv-x="94" 
d="M72 636v52h44v-52h-44zM-22 636v52h44v-52h-44z" />
    <glyph glyph-name="copyright" unicode="&#xa9;" horiz-adv-x="800" 
d="M600 440h-40q-11 55 -51 86t-101 31q-86 0 -136 -63q-44 -55 -44 -131q0 -84 46 -140q48 -59 126 -59q128 0 160 123h40q-11 -72 -64.5 -115.5t-135.5 -43.5q-94 0 -151 59q-61 63 -61 175q0 105 64 170q61 61 156 61q78 0 128 -37q52 -40 64 -116zM725 361
q0 136 -95.5 232.5t-229.5 96.5t-229.5 -96.5t-95.5 -232.5t95.5 -232.5t229.5 -96.5t229.5 96.5t95.5 232.5zM35 361q0 152 107 258.5t258 106.5q152 0 258.5 -106.5t106.5 -258.5q0 -151 -106.5 -258t-258.5 -107q-151 0 -258 107t-107 258z" />
    <glyph glyph-name="ordfeminine" unicode="&#xaa;" horiz-adv-x="120" 
d="M11 637v55q0 34 48 34q51 0 51 -34v-261h-30v13h-2q-8 -17 -34 -17q-34 0 -34 30v106q0 42 61 42h9v81q0 18 -19 18q-20 0 -20 -18v-49h-30zM80 482v101h-6q-34 0 -34 -27v-91q0 -16 16 -16q24 0 24 33z" />
    <glyph glyph-name="guillemotleft" unicode="&#xab;" horiz-adv-x="185" 
d="M73 0l-54 251l54 251h26l-44 -251l44 -251h-26zM140 0l-54 251l54 251h26l-44 -251l44 -251h-26z" />
    <glyph glyph-name="logicalnot" unicode="&#xac;" horiz-adv-x="600" 
d="M523 108v227h-476v30h506v-257h-30z" />
    <glyph glyph-name="hyphen" unicode="&#xad;" horiz-adv-x="111" 
d="M9 238v26h93v-26h-93z" />
    <glyph glyph-name="registered" unicode="&#xae;" horiz-adv-x="800" 
d="M264 145v434h166q143 0 143 -121q0 -99 -116 -117l128 -196h-40l-128 197h-113v-197h-40zM304 378h111q118 0 118 81q0 84 -108 84h-121v-165zM400 32q134 0 229.5 96.5t95.5 232.5t-95.5 232.5t-229.5 96.5t-229.5 -96.5t-95.5 -232.5t95.5 -232.5t229.5 -96.5zM35 361
q0 152 107 258.5t258 106.5q152 0 258.5 -106.5t106.5 -258.5q0 -151 -106.5 -258t-258.5 -107q-151 0 -258 107t-107 258z" />
    <glyph glyph-name="macron" unicode="&#xaf;" horiz-adv-x="94" 
d="M-18 630v30h130v-30h-130z" />
    <glyph glyph-name="degree" unicode="&#xb0;" horiz-adv-x="286" 
d="M43 626q0 41 29.5 70.5t70.5 29.5t70.5 -29.5t29.5 -70.5t-29.5 -70.5t-70.5 -29.5t-70.5 29.5t-29.5 70.5zM217 626q0 31 -21.5 52.5t-52.5 21.5t-52.5 -21.5t-21.5 -52.5t21.5 -52.5t52.5 -21.5t52.5 21.5t21.5 52.5z" />
    <glyph glyph-name="plusminus" unicode="&#xb1;" horiz-adv-x="600" 
d="M285 312v194h30v-194h238v-30h-238v-194h-30v194h-238v30h238zM47 0v30h506v-30h-506z" />
    <glyph glyph-name="twosuperior" unicode="&#xb2;" horiz-adv-x="146" 
d="M18 291v27l71 247q6 21 6 47v69q0 23 -24 23t-24 -29v-55h-30v58q0 48 57 48q51 0 51 -46v-65q0 -37 -8 -64l-69 -234h81v-26h-111z" />
    <glyph glyph-name="threesuperior" unicode="&#xb3;" horiz-adv-x="146" 
d="M16 399h30v-64q0 -26 27 -26t27 26v136q0 18 -7 23.5t-26 5.5h-6v22h5q31 0 31 34v121q0 27 -26 27q-23 0 -23 -27v-56h-30v64q0 41 56 41q53 0 53 -42v-135q0 -32 -36 -34v-2q39 -6 39 -42v-143q0 -41 -54 -41q-60 0 -60 41v71z" />
    <glyph glyph-name="acute" unicode="&#xb4;" horiz-adv-x="94" 
d="M22 592l40 96h44l-58 -96h-26z" />
    <glyph glyph-name="mu" unicode="&#xb5;" 
d="M171 0h-36v27h-2q-14 -31 -38 -31q-19 0 -30 12h-2q6 -78 6 -80v-112h-36v686h36v-424q0 -52 30 -52q14 0 25 14.5t11 40.5v421h36v-502z" />
    <glyph glyph-name="paragraph" unicode="&#xb6;" horiz-adv-x="320" 
d="M158 0v431q-43 0 -77 33q-41 41 -41 113q0 74 45 112q39 33 103 33h102v-722h-36v692h-60v-692h-36z" />
    <glyph glyph-name="periodcentered" unicode="&#xb7;" horiz-adv-x="112" 
d="M6 321q0 21 14.5 35.5t35.5 14.5t35.5 -14.5t14.5 -35.5t-14.5 -35.5t-35.5 -14.5t-35.5 14.5t-14.5 35.5z" />
    <glyph glyph-name="periodcentered" unicode="&#x2219;" horiz-adv-x="112" 
d="M6 321q0 21 14.5 35.5t35.5 14.5t35.5 -14.5t14.5 -35.5t-14.5 -35.5t-35.5 -14.5t-35.5 14.5t-14.5 35.5z" />
    <glyph glyph-name="cedilla" unicode="&#xb8;" horiz-adv-x="94" 
d="M24 0h19l-3 -33q14 2 19 2q31 0 31 -33q0 -43 -55 -43q-22 0 -28 4l2 17q12 -3 25 -3q30 0 30 23q0 17 -21 17q-17 0 -25 -5z" />
    <glyph glyph-name="onesuperior" unicode="&#xb9;" horiz-adv-x="146" 
d="M57 291v339q0 20 4 52l-4 -2l-32 -37v40l32 39h30v-431h-30z" />
    <glyph glyph-name="ordmasculine" unicode="&#xba;" horiz-adv-x="144" 
d="M20 466v221q0 39 51 39q53 0 53 -39v-221q0 -39 -53 -39q-51 0 -51 39zM94 470v213q0 21 -23 21q-21 0 -21 -21v-213q0 -21 21 -21q23 0 23 21z" />
    <glyph glyph-name="guillemotright" unicode="&#xbb;" horiz-adv-x="185" 
d="M86 0l44 251l-44 251h26l54 -251l-54 -251h-26zM19 0l44 251l-44 251h26l54 -251l-54 -251h-26z" />
    <glyph glyph-name="onequarter" unicode="&#xbc;" horiz-adv-x="333" 
d="M262 0v108h-81v35l63 288h48v-297h31v-26h-31v-108h-30zM262 134v179q0 14 1 40.5t1 39.5v16h-2l-55 -275h55zM77 -35l135 792h28l-135 -792h-28zM47 291v339q0 20 4 52l-4 -2l-32 -37v40l32 39h30v-431h-30z" />
    <glyph glyph-name="onehalf" unicode="&#xbd;" horiz-adv-x="333" 
d="M62 -35l135 792h28l-135 -792h-28zM47 291v339q0 20 4 52l-4 -2l-32 -37v40l32 39h30v-431h-30zM207 0v27l71 247q6 21 6 47v69q0 23 -24 23t-24 -29v-55h-30v58q0 48 57 48q51 0 51 -46v-65q0 -37 -8 -64l-69 -234h81v-26h-111z" />
    <glyph glyph-name="threequarters" unicode="&#xbe;" horiz-adv-x="333" 
d="M262 0v108h-81v35l63 288h48v-297h31v-26h-31v-108h-30zM262 134v179q0 14 1 40.5t1 39.5v16h-2l-55 -275h55zM92 -35l135 792h28l-135 -792h-28zM12 621v64q0 41 56 41q53 0 53 -42v-135q0 -32 -36 -34v-2q39 -6 39 -42v-143q0 -41 -54 -41q-60 0 -60 41v71h30v-64
q0 -26 27 -26t27 26v136q0 18 -7 23.5t-26 5.5h-6v22h5q31 0 31 34v121q0 27 -26 27q-23 0 -23 -27v-56h-30z" />
    <glyph glyph-name="questiondown" unicode="&#xbf;" horiz-adv-x="222" 
d="M141 -113v97h36v-100q0 -72 -68 -72q-42 0 -59.5 18t-17.5 67v96q0 50 20 110l18 54q20 60 20 99v116h36v-140q0 -37 -29 -112t-29 -114v-120q0 -44 38 -44q35 0 35 45zM84 486v52h44v-52h-44z" />
    <glyph glyph-name="Agrave" unicode="&#xc0;" 
d="M172 0l-23 211h-99l-22 -211h-36l81 722h56l83 -722h-40zM54 241h92l-25 237q-9 73 -20 218h-2q-6 -73 -19 -218zM101 767l-58 96h44l40 -96h-26z" />
    <glyph glyph-name="Aacute" unicode="&#xc1;" 
d="M172 0l-23 211h-99l-22 -211h-36l81 722h56l83 -722h-40zM54 241h92l-25 237q-9 73 -20 218h-2q-6 -73 -19 -218zM77 767l40 96h44l-58 -96h-26z" />
    <glyph glyph-name="Acircumflex" unicode="&#xc2;" 
d="M172 0l-23 211h-99l-22 -211h-36l81 722h56l83 -722h-40zM54 241h92l-25 237q-9 73 -20 218h-2q-6 -73 -19 -218zM41 767l46 96h30l46 -96h-30l-31 66l-31 -66h-30z" />
    <glyph glyph-name="Atilde" unicode="&#xc3;" 
d="M172 0l-23 211h-99l-22 -211h-36l81 722h56l83 -722h-40zM54 241h92l-25 237q-9 73 -20 218h-2q-6 -73 -19 -218zM49 785h-22v7q0 55 36 55q13 0 37 -15q30 -15 36 -15q19 0 19 27v5h22v-7q0 -55 -36 -55q-14 0 -40 15t-35 15q-17 0 -17 -26v-6z" />
    <glyph glyph-name="Adieresis" unicode="&#xc4;" 
d="M172 0l-23 211h-99l-22 -211h-36l81 722h56l83 -722h-40zM54 241h92l-25 237q-9 73 -20 218h-2q-6 -73 -19 -218zM127 811v52h44v-52h-44zM33 811v52h44v-52h-44z" />
    <glyph glyph-name="Aring" unicode="&#xc5;" 
d="M172 0l-23 211h-99l-22 -211h-36l81 722h56l83 -722h-40zM54 241h92l-25 237q-9 73 -20 218h-2q-6 -73 -19 -218zM48 808q0 23 16 39t38 16t38 -16t16 -39q0 -22 -15.5 -38t-38.5 -16q-22 0 -38 16t-16 38zM70 808q0 -32 32 -32t32 32q0 33 -32 33t-32 -33z" />
    <glyph glyph-name="AE" unicode="&#xc6;" horiz-adv-x="315" 
d="M0 0l128 722h174v-30h-117l16 -306h92v-30h-92l16 -326h85v-30h-118l-10 211h-102l-36 -211h-36zM76 241h94l-14 451h-2z" />
    <glyph glyph-name="Ccedilla" unicode="&#xc7;" 
d="M185 203v-129q0 -78 -81 -78l-3 -29q14 2 19 2q31 0 31 -33q0 -43 -55 -43q-22 0 -28 4l2 17q12 -3 25 -3q30 0 30 23q0 17 -21 17q-17 0 -25 -5l6 54q-66 6 -66 74v574q0 78 85 78q81 0 81 -78v-119h-40v113q0 54 -41 54q-45 0 -45 -45v-580q0 -45 45 -45q41 0 41 54
v123h40z" />
    <glyph glyph-name="Egrave" unicode="&#xc8;" horiz-adv-x="185" 
d="M33 0v722h137v-30h-97v-306h91v-30h-91v-326h104v-30h-144zM92 767l-58 96h44l40 -96h-26z" />
    <glyph glyph-name="Eacute" unicode="&#xc9;" horiz-adv-x="185" 
d="M33 0v722h137v-30h-97v-306h91v-30h-91v-326h104v-30h-144zM68 767l40 96h44l-58 -96h-26z" />
    <glyph glyph-name="Ecircumflex" unicode="&#xca;" horiz-adv-x="185" 
d="M33 0v722h137v-30h-97v-306h91v-30h-91v-326h104v-30h-144zM32 767l46 96h30l46 -96h-30l-31 66l-31 -66h-30z" />
    <glyph glyph-name="Edieresis" unicode="&#xcb;" horiz-adv-x="185" 
d="M33 0v722h137v-30h-97v-306h91v-30h-91v-326h104v-30h-144zM118 811v52h44v-52h-44zM24 811v52h44v-52h-44z" />
    <glyph glyph-name="Igrave" unicode="&#xcc;" horiz-adv-x="112" 
d="M36 0v722h40v-722h-40zM55 767l-58 96h44l40 -96h-26z" />
    <glyph glyph-name="Iacute" unicode="&#xcd;" horiz-adv-x="112" 
d="M36 0v722h40v-722h-40zM31 767l40 96h44l-58 -96h-26z" />
    <glyph glyph-name="Icircumflex" unicode="&#xce;" horiz-adv-x="112" 
d="M36 0v722h40v-722h-40zM-5 767l46 96h30l46 -96h-30l-31 66l-31 -66h-30z" />
    <glyph glyph-name="Idieresis" unicode="&#xcf;" horiz-adv-x="112" 
d="M36 0v722h40v-722h-40zM81 811v52h44v-52h-44zM-13 811v52h44v-52h-44z" />
    <glyph glyph-name="Eth" unicode="&#xd0;" horiz-adv-x="241" 
d="M33 0v374h-33v30h33v318h85q90 0 90 -77v-568q0 -77 -90 -77h-85zM73 30h41q54 0 54 44v574q0 44 -54 44h-41v-288h55v-30h-55v-344z" />
    <glyph glyph-name="Ntilde" unicode="&#xd1;" horiz-adv-x="259" 
d="M33 0v722h60l101 -692h2q-10 200 -10 232v460h40v-722h-60l-70 460q-5 31 -28 232h-2q1 -52 4 -131q3 -69 3 -79v-482h-40zM77 785h-22v7q0 55 36 55q13 0 37 -15q30 -15 36 -15q19 0 19 27v5h22v-7q0 -55 -36 -55q-14 0 -40 15t-35 15q-17 0 -17 -26v-6z" />
    <glyph glyph-name="Ograve" unicode="&#xd2;" horiz-adv-x="241" 
d="M208 648v-574q0 -78 -87 -78q-88 0 -88 78v574q0 78 88 78q87 0 87 -78zM168 75v572q0 49 -47 49q-48 0 -48 -49v-572q0 -49 48 -49q47 0 47 49zM120 767l-58 96h44l40 -96h-26z" />
    <glyph glyph-name="Oacute" unicode="&#xd3;" horiz-adv-x="241" 
d="M208 648v-574q0 -78 -87 -78q-88 0 -88 78v574q0 78 88 78q87 0 87 -78zM168 75v572q0 49 -47 49q-48 0 -48 -49v-572q0 -49 48 -49q47 0 47 49zM96 767l40 96h44l-58 -96h-26z" />
    <glyph glyph-name="Ocircumflex" unicode="&#xd4;" horiz-adv-x="241" 
d="M208 648v-574q0 -78 -87 -78q-88 0 -88 78v574q0 78 88 78q87 0 87 -78zM168 75v572q0 49 -47 49q-48 0 -48 -49v-572q0 -49 48 -49q47 0 47 49zM60 767l46 96h30l46 -96h-30l-31 66l-31 -66h-30z" />
    <glyph glyph-name="Otilde" unicode="&#xd5;" horiz-adv-x="241" 
d="M208 648v-574q0 -78 -87 -78q-88 0 -88 78v574q0 78 88 78q87 0 87 -78zM168 75v572q0 49 -47 49q-48 0 -48 -49v-572q0 -49 48 -49q47 0 47 49zM68 785h-22v7q0 55 36 55q13 0 37 -15q30 -15 36 -15q19 0 19 27v5h22v-7q0 -55 -36 -55q-14 0 -40 15t-35 15
q-17 0 -17 -26v-6z" />
    <glyph glyph-name="Odieresis" unicode="&#xd6;" horiz-adv-x="241" 
d="M208 648v-574q0 -78 -87 -78q-88 0 -88 78v574q0 78 88 78q87 0 87 -78zM168 75v572q0 49 -47 49q-48 0 -48 -49v-572q0 -49 48 -49q47 0 47 49zM146 811v52h44v-52h-44zM52 811v52h44v-52h-44z" />
    <glyph glyph-name="multiply" unicode="&#xd7;" horiz-adv-x="600" 
d="M79 54l199 199l-199 198l22 23l199 -198l198 198l23 -23l-199 -198l199 -199l-23 -22l-198 198l-199 -198z" />
    <glyph glyph-name="Oslash" unicode="&#xd8;" horiz-adv-x="241" 
d="M73 233l95 384v30q0 49 -47 49q-48 0 -48 -49v-352q0 -20 -2 -62h2zM193 698l23 88h36l-44 -160v-552q0 -78 -87 -78q-54 0 -76 34l-26 -94h-30l44 165v547q0 78 88 78q49 0 72 -28zM168 75v357q0 22 2 66h-2l-95 -377v-46q0 -49 48 -49q47 0 47 49z" />
    <glyph glyph-name="Ugrave" unicode="&#xd9;" horiz-adv-x="241" 
d="M168 722h40v-648q0 -78 -87 -78q-88 0 -88 78v648h40v-647q0 -49 48 -49q47 0 47 49v647zM120 767l-58 96h44l40 -96h-26z" />
    <glyph glyph-name="Uacute" unicode="&#xda;" horiz-adv-x="241" 
d="M168 722h40v-648q0 -78 -87 -78q-88 0 -88 78v648h40v-647q0 -49 48 -49q47 0 47 49v647zM96 767l40 96h44l-58 -96h-26z" />
    <glyph glyph-name="Ucircumflex" unicode="&#xdb;" horiz-adv-x="241" 
d="M168 722h40v-648q0 -78 -87 -78q-88 0 -88 78v648h40v-647q0 -49 48 -49q47 0 47 49v647zM60 767l46 96h30l46 -96h-30l-31 66l-31 -66h-30z" />
    <glyph glyph-name="Udieresis" unicode="&#xdc;" horiz-adv-x="241" 
d="M168 722h40v-648q0 -78 -87 -78q-88 0 -88 78v648h40v-647q0 -49 48 -49q47 0 47 49v647zM146 811v52h44v-52h-44zM52 811v52h44v-52h-44z" />
    <glyph glyph-name="Yacute" unicode="&#xdd;" 
d="M103 331l62 391h40l-83 -437v-285h-40v285l-83 437h40l62 -391h2zM77 767l40 96h44l-58 -96h-26z" />
    <glyph glyph-name="Thorn" unicode="&#xde;" horiz-adv-x="222" 
d="M33 0v722h40v-137h50q39 0 60.5 -22.5t21.5 -56.5v-216q0 -34 -21.5 -56.5t-60.5 -22.5h-50v-211h-40zM73 241h43q49 0 49 45v224q0 45 -49 45h-43v-314z" />
    <glyph glyph-name="germandbls" unicode="&#xdf;" horiz-adv-x="222" 
d="M28 0v655q0 71 69 71t69 -71v-154l-11 -9q-25 -20 -25 -54q0 -32 13 -62l49 -113q15 -35 15 -81v-119q0 -67 -57 -67q-59 0 -59 56v95h30v-90q0 -31 25 -31t25 31v129q0 35 -20 81l-40 92q-17 39 -17 73q0 36 24 66l12 15v146q0 37 -33 37t-33 -37v-659h-36z" />
    <glyph glyph-name="agrave" unicode="&#xe0;" horiz-adv-x="185" 
d="M61 359h-36v96q0 51 69 51q66 0 66 -51v-455h-36v25h-2q-14 -29 -47 -29q-50 0 -50 45v191q0 70 83 70h16v145q0 29 -30 29q-33 0 -33 -29v-88zM61 226v-177q0 -23 27 -23q16 0 26 16t10 39v191h-10q-53 0 -53 -46zM92 592l-58 96h44l40 -96h-26z" />
    <glyph glyph-name="aacute" unicode="&#xe1;" horiz-adv-x="185" 
d="M61 359h-36v96q0 51 69 51q66 0 66 -51v-455h-36v25h-2q-14 -29 -47 -29q-50 0 -50 45v191q0 70 83 70h16v145q0 29 -30 29q-33 0 -33 -29v-88zM61 226v-177q0 -23 27 -23q16 0 26 16t10 39v191h-10q-53 0 -53 -46zM68 592l40 96h44l-58 -96h-26z" />
    <glyph glyph-name="acircumflex" unicode="&#xe2;" horiz-adv-x="185" 
d="M61 359h-36v96q0 51 69 51q66 0 66 -51v-455h-36v25h-2q-14 -29 -47 -29q-50 0 -50 45v191q0 70 83 70h16v145q0 29 -30 29q-33 0 -33 -29v-88zM61 226v-177q0 -23 27 -23q16 0 26 16t10 39v191h-10q-53 0 -53 -46zM32 592l46 96h30l46 -96h-30l-31 66l-31 -66h-30z" />
    <glyph glyph-name="atilde" unicode="&#xe3;" horiz-adv-x="185" 
d="M61 359h-36v96q0 51 69 51q66 0 66 -51v-455h-36v25h-2q-14 -29 -47 -29q-50 0 -50 45v191q0 70 83 70h16v145q0 29 -30 29q-33 0 -33 -29v-88zM61 226v-177q0 -23 27 -23q16 0 26 16t10 39v191h-10q-53 0 -53 -46zM40 610h-22v7q0 55 36 55q13 0 37 -15q30 -15 36 -15
q19 0 19 27v5h22v-7q0 -55 -36 -55q-14 0 -40 15t-35 15q-17 0 -17 -26v-6z" />
    <glyph glyph-name="adieresis" unicode="&#xe4;" horiz-adv-x="185" 
d="M61 359h-36v96q0 51 69 51q66 0 66 -51v-455h-36v25h-2q-14 -29 -47 -29q-50 0 -50 45v191q0 70 83 70h16v145q0 29 -30 29q-33 0 -33 -29v-88zM61 226v-177q0 -23 27 -23q16 0 26 16t10 39v191h-10q-53 0 -53 -46zM118 636v52h44v-52h-44zM24 636v52h44v-52h-44z" />
    <glyph glyph-name="aring" unicode="&#xe5;" horiz-adv-x="185" 
d="M61 359h-36v96q0 51 69 51q66 0 66 -51v-455h-36v25h-2q-14 -29 -47 -29q-50 0 -50 45v191q0 70 83 70h16v145q0 29 -30 29q-33 0 -33 -29v-88zM61 226v-177q0 -23 27 -23q16 0 26 16t10 39v191h-10q-53 0 -53 -46zM39 633q0 23 16 39t38 16t38 -16t16 -39
q0 -22 -15.5 -38t-38.5 -16q-22 0 -38 16t-16 38zM61 633q0 -32 32 -32t32 32q0 33 -32 33t-32 -33z" />
    <glyph glyph-name="ae" unicode="&#xe6;" horiz-adv-x="278" 
d="M59 215v-161q0 -28 25 -28q16 0 26.5 15.5t10.5 39.5v176h-9q-53 0 -53 -42zM157 442v-155h62v155q0 34 -31 34t-31 -34zM219 167h36v-111q0 -60 -67 -60q-36 0 -52 28q-15 -28 -53 -28q-60 0 -60 45v185q0 61 83 61h15v155q0 34 -30 34q-32 0 -32 -34v-83h-36v96
q0 51 68 51q35 0 51 -22q16 22 46 22q67 0 67 -60v-189h-98v-197q0 -34 31 -34t31 34v107z" />
    <glyph glyph-name="ccedilla" unicode="&#xe7;" horiz-adv-x="167" 
d="M148 168v-112q0 -55 -56 -60l-3 -29q14 2 19 2q31 0 31 -33q0 -43 -55 -43q-22 0 -28 4l2 17q12 -3 25 -3q30 0 30 23q0 17 -21 17q-17 0 -25 -5l5 50q-53 7 -53 60v390q0 60 65 60q64 0 64 -60v-101h-36v97q0 34 -28 34q-29 0 -29 -34v-387q0 -29 29 -29q28 0 28 27v115
h36z" />
    <glyph glyph-name="egrave" unicode="&#xe8;" horiz-adv-x="185" 
d="M124 167h36v-111q0 -60 -68 -60q-67 0 -67 60v390q0 60 67 60q68 0 68 -60v-202h-99v-184q0 -34 31 -34q32 0 32 34v107zM124 274v168q0 34 -32 34q-31 0 -31 -34v-168h63zM92 592l-58 96h44l40 -96h-26z" />
    <glyph glyph-name="eacute" unicode="&#xe9;" horiz-adv-x="185" 
d="M124 167h36v-111q0 -60 -68 -60q-67 0 -67 60v390q0 60 67 60q68 0 68 -60v-202h-99v-184q0 -34 31 -34q32 0 32 34v107zM124 274v168q0 34 -32 34q-31 0 -31 -34v-168h63zM68 592l40 96h44l-58 -96h-26z" />
    <glyph glyph-name="ecircumflex" unicode="&#xea;" horiz-adv-x="185" 
d="M124 167h36v-111q0 -60 -68 -60q-67 0 -67 60v390q0 60 67 60q68 0 68 -60v-202h-99v-184q0 -34 31 -34q32 0 32 34v107zM124 274v168q0 34 -32 34q-31 0 -31 -34v-168h63zM32 592l46 96h30l46 -96h-30l-31 66l-31 -66h-30z" />
    <glyph glyph-name="edieresis" unicode="&#xeb;" horiz-adv-x="185" 
d="M124 167h36v-111q0 -60 -68 -60q-67 0 -67 60v390q0 60 67 60q68 0 68 -60v-202h-99v-184q0 -34 31 -34q32 0 32 34v107zM124 274v168q0 34 -32 34q-31 0 -31 -34v-168h63zM118 636v52h44v-52h-44zM24 636v52h44v-52h-44z" />
    <glyph glyph-name="igrave" unicode="&#xec;" horiz-adv-x="94" 
d="M29 0v502h36v-502h-36zM46 592l-58 96h44l40 -96h-26z" />
    <glyph glyph-name="iacute" unicode="&#xed;" horiz-adv-x="94" 
d="M29 0v502h36v-502h-36zM22 592l40 96h44l-58 -96h-26z" />
    <glyph glyph-name="icircumflex" unicode="&#xee;" horiz-adv-x="94" 
d="M29 0v502h36v-502h-36zM-14 592l46 96h30l46 -96h-30l-31 66l-31 -66h-30z" />
    <glyph glyph-name="idieresis" unicode="&#xef;" horiz-adv-x="94" 
d="M29 0v502h36v-502h-36zM72 636v52h44v-52h-44zM-22 636v52h44v-52h-44z" />
    <glyph glyph-name="eth" unicode="&#xf0;" 
d="M69 441v-380q0 -35 33 -35t33 35v380q0 35 -33 35t-33 -35zM33 61v380q0 65 66 65q23 0 39 -11q-2 58 -12 92q-13 43 -32 69l-44 -30l-16 24l43 28q-19 20 -39 32l24 16q23 -13 39 -30l43 30l16 -24l-41 -28q32 -40 43 -100q9 -47 9 -132v-381q0 -29 -19 -47t-50 -18
t-50 18t-19 47z" />
    <glyph glyph-name="ntilde" unicode="&#xf1;" 
d="M33 0v502h36v-27h2q14 31 47 31q53 0 53 -59v-447h-36v434q0 42 -30 42q-14 0 -25 -14.5t-11 -40.5v-421h-36zM49 610h-22v7q0 55 36 55q13 0 37 -15q30 -15 36 -15q19 0 19 27v5h22v-7q0 -55 -36 -55q-14 0 -40 15t-35 15q-17 0 -17 -26v-6z" />
    <glyph glyph-name="ograve" unicode="&#xf2;" 
d="M33 61v380q0 65 69 65t69 -65v-380q0 -29 -19 -47t-50 -18t-50 18t-19 47zM69 441v-380q0 -35 33 -35t33 35v380q0 35 -33 35t-33 -35zM101 592l-58 96h44l40 -96h-26z" />
    <glyph glyph-name="oacute" unicode="&#xf3;" 
d="M33 61v380q0 65 69 65t69 -65v-380q0 -29 -19 -47t-50 -18t-50 18t-19 47zM69 441v-380q0 -35 33 -35t33 35v380q0 35 -33 35t-33 -35zM77 592l40 96h44l-58 -96h-26z" />
    <glyph glyph-name="ocircumflex" unicode="&#xf4;" 
d="M33 61v380q0 65 69 65t69 -65v-380q0 -29 -19 -47t-50 -18t-50 18t-19 47zM69 441v-380q0 -35 33 -35t33 35v380q0 35 -33 35t-33 -35zM41 592l46 96h30l46 -96h-30l-31 66l-31 -66h-30z" />
    <glyph glyph-name="otilde" unicode="&#xf5;" 
d="M33 61v380q0 65 69 65t69 -65v-380q0 -29 -19 -47t-50 -18t-50 18t-19 47zM69 441v-380q0 -35 33 -35t33 35v380q0 35 -33 35t-33 -35zM49 610h-22v7q0 55 36 55q13 0 37 -15q30 -15 36 -15q19 0 19 27v5h22v-7q0 -55 -36 -55q-14 0 -40 15t-35 15q-17 0 -17 -26v-6z" />
    <glyph glyph-name="odieresis" unicode="&#xf6;" 
d="M33 61v380q0 65 69 65t69 -65v-380q0 -29 -19 -47t-50 -18t-50 18t-19 47zM69 441v-380q0 -35 33 -35t33 35v380q0 35 -33 35t-33 -35zM127 636v52h44v-52h-44zM33 636v52h44v-52h-44z" />
    <glyph glyph-name="divide" unicode="&#xf7;" horiz-adv-x="600" 
d="M47 238v30h506v-30h-506zM250 50q0 21 14.5 35.5t35.5 14.5t35.5 -14.5t14.5 -35.5t-14.5 -35.5t-35.5 -14.5t-35.5 14.5t-14.5 35.5zM250 456q0 21 14.5 35.5t35.5 14.5t35.5 -14.5t14.5 -35.5t-14.5 -35.5t-35.5 -14.5t-35.5 14.5t-14.5 35.5z" />
    <glyph glyph-name="oslash" unicode="&#xf8;" 
d="M71 167l64 274q0 35 -33 35t-33 -35v-274h2zM135 61v278h-2l-64 -258v-20q0 -35 33 -35t33 35zM151 491l20 77h30l-31 -113q1 -6 1 -14v-380q0 -29 -19 -47t-50 -18q-34 0 -51 19l-22 -81h-26l31 115q-1 5 -1 12v380q0 65 69 65q31 0 49 -15z" />
    <glyph glyph-name="ugrave" unicode="&#xf9;" 
d="M171 0h-36v27h-2q-14 -31 -47 -31q-53 0 -53 59v447h36v-434q0 -42 30 -42q14 0 25 14.5t11 40.5v421h36v-502zM101 592l-58 96h44l40 -96h-26z" />
    <glyph glyph-name="uacute" unicode="&#xfa;" 
d="M171 0h-36v27h-2q-14 -31 -47 -31q-53 0 -53 59v447h36v-434q0 -42 30 -42q14 0 25 14.5t11 40.5v421h36v-502zM77 592l40 96h44l-58 -96h-26z" />
    <glyph glyph-name="ucircumflex" unicode="&#xfb;" 
d="M171 0h-36v27h-2q-14 -31 -47 -31q-53 0 -53 59v447h36v-434q0 -42 30 -42q14 0 25 14.5t11 40.5v421h36v-502zM41 592l46 96h30l46 -96h-30l-31 66l-31 -66h-30z" />
    <glyph glyph-name="udieresis" unicode="&#xfc;" 
d="M171 0h-36v27h-2q-14 -31 -47 -31q-53 0 -53 59v447h36v-434q0 -42 30 -42q14 0 25 14.5t11 40.5v421h36v-502zM127 636v52h44v-52h-44zM33 636v52h44v-52h-44z" />
    <glyph glyph-name="yacute" unicode="&#xfd;" horiz-adv-x="167" 
d="M162 502l-86 -686h-30l21 180l-62 506h36l42 -434h2l41 434h36zM59 592l40 96h44l-58 -96h-26z" />
    <glyph glyph-name="thorn" unicode="&#xfe;" 
d="M33 -184v906h36v-241h2q13 25 47 25q53 0 53 -59v-388q0 -63 -55 -63q-33 0 -45 23h-2v-203h-36zM135 61v381q0 34 -32 34q-15 0 -24.5 -14.5t-9.5 -31.5v-369q0 -35 37 -35q29 0 29 35z" />
    <glyph glyph-name="ydieresis" unicode="&#xff;" horiz-adv-x="167" 
d="M162 502l-86 -686h-30l21 180l-62 506h36l42 -434h2l41 434h36zM109 636v52h44v-52h-44zM15 636v52h44v-52h-44z" />
    <glyph glyph-name="minus" horiz-adv-x="600" 
d="M47 238v30h506v-30h-506z" />
    <glyph glyph-name="fraction" horiz-adv-x="167" 
d="M2 -35l135 792h28l-135 -792h-28z" />
    <glyph glyph-name="fi" 
d="M139 0v502h36v-502h-36zM135 636v52h44v-52h-44zM33 0v472h-28v30h28v171q0 49 50 49h23v-30h-16q-21 0 -21 -28v-162h37v-30h-37v-472h-36z" />
    <glyph glyph-name="fl" 
d="M139 0v722h36v-722h-36zM33 0v472h-28v30h28v171q0 49 50 49h23v-30h-16q-21 0 -21 -28v-162h37v-30h-37v-472h-36z" />
    <glyph glyph-name="breve" horiz-adv-x="94" 
d="M-19 672h22v-5q0 -33 44 -33t44 33v5h22v-5q0 -63 -66 -63t-66 63v5z" />
    <glyph glyph-name="dotaccent" horiz-adv-x="94" 
d="M25 636v52h44v-52h-44z" />
    <glyph glyph-name="ring" horiz-adv-x="94" 
d="M-7 633q0 23 16 39t38 16t38 -16t16 -39q0 -22 -15.5 -38t-38.5 -16q-22 0 -38 16t-16 38zM15 633q0 -32 32 -32t32 32q0 33 -32 33t-32 -33z" />
    <glyph glyph-name="hungarumlaut" horiz-adv-x="94" 
d="M-40 592l40 96h44l-58 -96h-26zM50 592l40 96h44l-58 -96h-26z" />
    <glyph glyph-name="ogonek" horiz-adv-x="94" 
d="M132 -87v-18q-18 -2 -29 -2q-45 0 -45 44q0 50 22 75h20q-16 -23 -16 -67q0 -34 20 -34q17 0 28 2z" />
    <glyph glyph-name="caron" horiz-adv-x="94" 
d="M32 592l-46 96h30l31 -66l31 66h30l-46 -96h-30z" />
    <glyph glyph-name="Lslash" horiz-adv-x="185" 
d="M73 397l70 78v-44l-70 -78v-323h105v-30h-145v309l-33 -37v44l33 37v369h40v-325z" />
    <glyph glyph-name="dotlessi" horiz-adv-x="94" 
d="M29 0v502h36v-502h-36z" />
    <glyph glyph-name="lslash" horiz-adv-x="94" 
d="M65 409l29 31v-48l-29 -31v-361h-36v321l-29 -33v48l29 33v353h36v-313z" />
    </font>
</defs>
</svg>
